ISO-10303-21;
HEADER;
FILE_DESCRIPTION (( 'STEP AP203' ),
    '1' );
FILE_NAME ('bearing spacer 1.STEP',
    '2026-06-02T08:33:46',
    ( '' ),
    ( '' ),
    'SwSTEP 2.0',
    'SolidWorks 2024',
    '' );
FILE_SCHEMA (( 'CONFIG_CONTROL_DESIGN' ));
ENDSEC;

DATA;
#1 = VERTEX_POINT ( 'NONE', #188 ) ;
#2 = CARTESIAN_POINT ( 'NONE',  ( -6.500000000000008882, 9.184850993605155833E-16, 0.000000000000000000 ) ) ;
#3 = SECURITY_CLASSIFICATION ( '', '', #32 ) ;
#4 = VECTOR ( 'NONE', #220, 1000.000000000000227 ) ;
#5 = ORIENTED_EDGE ( 'NONE', *, *, #38, .F. ) ;
#6 = PERSON_AND_ORGANIZATION_ROLE ( 'design_supplier' ) ;
#7 = AXIS2_PLACEMENT_3D ( 'NONE', #132, #290, #107 ) ;
#8 = CARTESIAN_POINT ( 'NONE',  ( 8.500000000000000000, 1.040949779275250140E-15, 5.500000000000000000 ) ) ;
#9 = EDGE_CURVE ( 'NONE', #161, #209, #276, .T. ) ;
#10 = PERSON_AND_ORGANIZATION ( #52, #64 ) ;
#11 = DIRECTION ( 'NONE',  ( -1.000000000000000000, 0.000000000000000000, 0.000000000000000000 ) ) ;
#12 = CARTESIAN_POINT ( 'NONE',  ( -8.500000000000000000, 1.040949779275250140E-15, 2.000000000000000000 ) ) ;
#13 = APPLICATION_CONTEXT ( 'configuration controlled 3d designs of mechanical parts and assemblies' ) ;
#14 = CC_DESIGN_DATE_AND_TIME_ASSIGNMENT ( #223, #244, ( #106 ) ) ;
#15 = DIRECTION ( 'NONE',  ( -0.000000000000000000, -0.000000000000000000, -1.000000000000000000 ) ) ;
#16 = ADVANCED_FACE ( 'NONE', ( #144 ), #236, .F. ) ;
#17 = FACE_OUTER_BOUND ( 'NONE', #168, .T. ) ;
#18 = CIRCLE ( 'NONE', #191, 6.500000000000008882 ) ;
#19 = ORIENTED_EDGE ( 'NONE', *, *, #235, .T. ) ;
#20 = AXIS2_PLACEMENT_3D ( 'NONE', #60, #15, #105 ) ;
#21 = ORIENTED_EDGE ( 'NONE', *, *, #24, .F. ) ;
#22 = AXIS2_PLACEMENT_3D ( 'NONE', #158, #139, #59 ) ;
#23 = FACE_OUTER_BOUND ( 'NONE', #216, .T. ) ;
#24 = EDGE_CURVE ( 'NONE', #192, #1, #292, .T. ) ;
#25 = CARTESIAN_POINT ( 'NONE',  ( 0.000000000000000000, 0.000000000000000000, 5.500000000000000000 ) ) ;
#26 = ORIENTED_EDGE ( 'NONE', *, *, #90, .T. ) ;
#27 =( NAMED_UNIT ( * ) PLANE_ANGLE_UNIT ( ) SI_UNIT ( $, .RADIAN. ) );
#28 = AXIS2_PLACEMENT_3D ( 'NONE', #56, #250, #137 ) ;
#29 = DATE_AND_TIME ( #99, #164 ) ;
#30 = CIRCLE ( 'NONE', #181, 5.999999999999999112 ) ;
#31 = APPROVAL_ROLE ( '' ) ;
#32 = SECURITY_CLASSIFICATION_LEVEL ( 'unclassified' ) ;
#33 = APPROVAL_PERSON_ORGANIZATION ( #104, #141, #131 ) ;
#34 = CYLINDRICAL_SURFACE ( 'NONE', #7, 8.500000000000000000 ) ;
#35 = COORDINATED_UNIVERSAL_TIME_OFFSET ( 1, 0, .AHEAD. ) ;
#36 = CYLINDRICAL_SURFACE ( 'NONE', #20, 8.500000000000000000 ) ;
#37 = CARTESIAN_POINT ( 'NONE',  ( 0.000000000000000000, 0.000000000000000000, 5.500000000000000000 ) ) ;
#38 = EDGE_CURVE ( 'NONE', #299, #239, #163, .T. ) ;
#39 = FACE_OUTER_BOUND ( 'NONE', #41, .T. ) ;
#40 = DIRECTION ( 'NONE',  ( -0.000000000000000000, -0.000000000000000000, -1.000000000000000000 ) ) ;
#41 = EDGE_LOOP ( 'NONE', ( #297, #214, #136, #62 ) ) ;
#42 = APPROVAL_PERSON_ORGANIZATION ( #10, #230, #31 ) ;
#43 = CIRCLE ( 'NONE', #117, 8.500000000000000000 ) ;
#44 = DIRECTION ( 'NONE',  ( 0.000000000000000000, 0.000000000000000000, 1.000000000000000000 ) ) ;
#45 = VERTEX_POINT ( 'NONE', #205 ) ;
#46 = DIRECTION ( 'NONE',  ( 1.000000000000000000, 0.000000000000000000, 0.000000000000000000 ) ) ;
#47 = EDGE_LOOP ( 'NONE', ( #210, #182 ) ) ;
#48 = EDGE_CURVE ( 'NONE', #209, #1, #153, .T. ) ;
#49 = MECHANICAL_CONTEXT ( 'NONE', #134, 'mechanical' ) ;
#50 = SHAPE_DEFINITION_REPRESENTATION ( #213, #185 ) ;
#51 = CC_DESIGN_PERSON_AND_ORGANIZATION_ASSIGNMENT ( #150, #147, ( #189 ) ) ;
#52 = PERSON ( 'UNSPECIFIED', 'UNSPECIFIED', 'UNSPECIFIED', ('UNSPECIFIED'), ('UNSPECIFIED'), ('UNSPECIFIED') ) ;
#53 = APPROVAL_DATE_TIME ( #152, #141 ) ;
#54 = CARTESIAN_POINT ( 'NONE',  ( 0.000000000000000000, 0.000000000000000000, 0.000000000000000000 ) ) ;
#55 = CLOSED_SHELL ( 'NONE', ( #180, #16, #66, #284, #238, #151, #149, #257 ) ) ;
#56 = CARTESIAN_POINT ( 'NONE',  ( 0.000000000000000000, 0.000000000000000000, 0.000000000000000000 ) ) ;
#57 = CIRCLE ( 'NONE', #84, 5.999999999999999112 ) ;
#58 = EDGE_CURVE ( 'NONE', #155, #45, #231, .T. ) ;
#59 = DIRECTION ( 'NONE',  ( 1.000000000000000000, 0.000000000000000000, 0.000000000000000000 ) ) ;
#60 = CARTESIAN_POINT ( 'NONE',  ( 0.000000000000000000, 0.000000000000000000, 5.500000000000000000 ) ) ;
#61 = DIRECTION ( 'NONE',  ( 0.000000000000000000, 0.000000000000000000, 1.000000000000000000 ) ) ;
#62 = ORIENTED_EDGE ( 'NONE', *, *, #48, .F. ) ;
#63 = VECTOR ( 'NONE', #135, 1000.000000000000227 ) ;
#64 = ORGANIZATION ( 'UNSPECIFIED', 'UNSPECIFIED', '' ) ;
#65 = PERSON_AND_ORGANIZATION_ROLE ( 'creator' ) ;
#66 = ADVANCED_FACE ( 'NONE', ( #157 ), #36, .T. ) ;
#67 = DIRECTION ( 'NONE',  ( -0.000000000000000000, -0.000000000000000000, -1.000000000000000000 ) ) ;
#68 = DIRECTION ( 'NONE',  ( 1.000000000000000000, 0.000000000000000000, -0.000000000000000000 ) ) ;
#69 = ORIENTED_EDGE ( 'NONE', *, *, #9, .T. ) ;
#70 = EDGE_CURVE ( 'NONE', #161, #192, #97, .T. ) ;
#71 = EDGE_LOOP ( 'NONE', ( #201, #211, #120, #278 ) ) ;
#72 = COORDINATED_UNIVERSAL_TIME_OFFSET ( 1, 0, .AHEAD. ) ;
#73 = DIRECTION ( 'NONE',  ( 1.000000000000000000, 0.000000000000000000, 0.000000000000000000 ) ) ;
#74 = CALENDAR_DATE ( 2026, 2, 6 ) ;
#75 = EDGE_CURVE ( 'NONE', #229, #155, #206, .T. ) ;
#76 = COORDINATED_UNIVERSAL_TIME_OFFSET ( 1, 0, .AHEAD. ) ;
#77 = ORIENTED_EDGE ( 'NONE', *, *, #296, .F. ) ;
#78 = DIRECTION ( 'NONE',  ( 1.000000000000000000, 0.000000000000000000, 0.000000000000000000 ) ) ;
#79 = PRODUCT_RELATED_PRODUCT_CATEGORY ( 'detail', '', ( #189 ) ) ;
#80 = DIRECTION ( 'NONE',  ( -0.000000000000000000, -0.000000000000000000, -1.000000000000000000 ) ) ;
#81 = VECTOR ( 'NONE', #67, 1000.000000000000000 ) ;
#82 = LOCAL_TIME ( 10, 33, 46.00000000000000000, #76 ) ;
#83 = LINE ( 'NONE', #110, #273 ) ;
#84 = AXIS2_PLACEMENT_3D ( 'NONE', #91, #44, #73 ) ;
#85 = UNCERTAINTY_MEASURE_WITH_UNIT (LENGTH_MEASURE( 1.000000000000000082E-05 ), #190, 'distance_accuracy_value', 'NONE');
#86 = CARTESIAN_POINT ( 'NONE',  ( 0.000000000000000000, 0.000000000000000000, 0.000000000000000000 ) ) ;
#87 = CARTESIAN_POINT ( 'NONE',  ( 8.500000000000000000, 1.040949779275250140E-15, 5.500000000000000000 ) ) ;
#88 = ORIENTED_EDGE ( 'NONE', *, *, #235, .F. ) ;
#89 = ORIENTED_EDGE ( 'NONE', *, *, #128, .T. ) ;
#90 = EDGE_CURVE ( 'NONE', #239, #45, #226, .T. ) ;
#91 = CARTESIAN_POINT ( 'NONE',  ( 0.000000000000000000, 0.000000000000000000, 5.500000000000000000 ) ) ;
#92 = ORIENTED_EDGE ( 'NONE', *, *, #118, .F. ) ;
#93 = FACE_OUTER_BOUND ( 'NONE', #187, .T. ) ;
#94 = ORIENTED_EDGE ( 'NONE', *, *, #128, .F. ) ;
#95 = AXIS2_PLACEMENT_3D ( 'NONE', #204, #183, #272 ) ;
#96 = APPROVAL_ROLE ( '' ) ;
#97 = CIRCLE ( 'NONE', #255, 5.999999999999999112 ) ;
#98 = PRODUCT_DEFINITION_FORMATION_WITH_SPECIFIED_SOURCE ( 'ANY', '', #189, .NOT_KNOWN. ) ;
#99 = CALENDAR_DATE ( 2026, 2, 6 ) ;
#100 = CIRCLE ( 'NONE', #270, 8.500000000000000000 ) ;
#101 = ORIENTED_EDGE ( 'NONE', *, *, #58, .F. ) ;
#102 = PERSON_AND_ORGANIZATION ( #52, #64 ) ;
#103 = COORDINATED_UNIVERSAL_TIME_OFFSET ( 1, 0, .AHEAD. ) ;
#104 = PERSON_AND_ORGANIZATION ( #52, #64 ) ;
#105 = DIRECTION ( 'NONE',  ( -1.000000000000000000, 0.000000000000000000, 0.000000000000000000 ) ) ;
#106 = PRODUCT_DEFINITION ( 'UNKNOWN', '', #98, #108 ) ;
#107 = DIRECTION ( 'NONE',  ( -1.000000000000000000, 0.000000000000000000, 0.000000000000000000 ) ) ;
#108 = DESIGN_CONTEXT ( 'detailed design', #13, 'design' ) ;
#109 = CARTESIAN_POINT ( 'NONE',  ( 0.000000000000000000, 0.000000000000000000, 5.500000000000000000 ) ) ;
#110 = CARTESIAN_POINT ( 'NONE',  ( -8.500000000000000000, 0.000000000000000000, 5.500000000000000000 ) ) ;
#111 = CONICAL_SURFACE ( 'NONE', #233, 8.500000000000000000, 0.7853981633974461696 ) ;
#112 = DIRECTION ( 'NONE',  ( -0.000000000000000000, -0.000000000000000000, 1.000000000000000000 ) ) ;
#113 = CC_DESIGN_PERSON_AND_ORGANIZATION_ASSIGNMENT ( #127, #65, ( #106 ) ) ;
#114 = VERTEX_POINT ( 'NONE', #159 ) ;
#115 = LOCAL_TIME ( 10, 33, 46.00000000000000000, #103 ) ;
#116 = ORIENTED_EDGE ( 'NONE', *, *, #222, .T. ) ;
#117 = AXIS2_PLACEMENT_3D ( 'NONE', #184, #61, #160 ) ;
#118 = EDGE_CURVE ( 'NONE', #1, #209, #30, .T. ) ;
#119 = DIRECTION ( 'NONE',  ( 1.000000000000000000, 0.000000000000000000, 0.000000000000000000 ) ) ;
#120 = ORIENTED_EDGE ( 'NONE', *, *, #58, .T. ) ;
#121 = CARTESIAN_POINT ( 'NONE',  ( 0.000000000000000000, 0.000000000000000000, 0.000000000000000000 ) ) ;
#122 = ORIENTED_EDGE ( 'NONE', *, *, #264, .T. ) ;
#123 = APPROVAL_STATUS ( 'not_yet_approved' ) ;
#124 = VECTOR ( 'NONE', #269, 1000.000000000000000 ) ;
#125 = LINE ( 'NONE', #283, #4 ) ;
#126 = CC_DESIGN_APPROVAL ( #141, ( #3 ) ) ;
#127 = PERSON_AND_ORGANIZATION ( #52, #64 ) ;
#128 = EDGE_CURVE ( 'NONE', #239, #299, #18, .T. ) ;
#129 = APPROVAL_DATE_TIME ( #249, #230 ) ;
#130 = APPROVAL_STATUS ( 'not_yet_approved' ) ;
#131 = APPROVAL_ROLE ( '' ) ;
#132 = CARTESIAN_POINT ( 'NONE',  ( 0.000000000000000000, 0.000000000000000000, 5.500000000000000000 ) ) ;
#133 = PERSON_AND_ORGANIZATION ( #52, #64 ) ;
#134 = APPLICATION_CONTEXT ( 'configuration controlled 3d designs of mechanical parts and assemblies' ) ;
#135 = DIRECTION ( 'NONE',  ( -0.7071067811865460184, 8.659560562354913137E-17, 0.7071067811865490160 ) ) ;
#136 = ORIENTED_EDGE ( 'NONE', *, *, #24, .T. ) ;
#137 = DIRECTION ( 'NONE',  ( 1.000000000000000000, 0.000000000000000000, 0.000000000000000000 ) ) ;
#138 = CARTESIAN_POINT ( 'NONE',  ( 5.999999999999999112, 7.347880794884118750E-16, 5.500000000000000000 ) ) ;
#139 = DIRECTION ( 'NONE',  ( 0.000000000000000000, 0.000000000000000000, 1.000000000000000000 ) ) ;
#140 = ORIENTED_EDGE ( 'NONE', *, *, #186, .F. ) ;
#141 = APPROVAL ( #176, 'UNSPECIFIED' ) ;
#142 =( GEOMETRIC_REPRESENTATION_CONTEXT ( 3 ) GLOBAL_UNCERTAINTY_ASSIGNED_CONTEXT ( ( #85 ) ) GLOBAL_UNIT_ASSIGNED_CONTEXT ( ( #190, #27, #193 ) ) REPRESENTATION_CONTEXT ( 'NONE', 'WORKASPACE' ) );
#143 = FACE_OUTER_BOUND ( 'NONE', #275, .T. ) ;
#144 = FACE_OUTER_BOUND ( 'NONE', #295, .T. ) ;
#145 = APPROVAL ( #123, 'UNSPECIFIED' ) ;
#146 = EDGE_LOOP ( 'NONE', ( #262, #140, #196, #122 ) ) ;
#147 = PERSON_AND_ORGANIZATION_ROLE ( 'design_owner' ) ;
#148 = CARTESIAN_POINT ( 'NONE',  ( 0.000000000000000000, 0.000000000000000000, 2.000000000000000000 ) ) ;
#149 = ADVANCED_FACE ( 'NONE', ( #39 ), #224, .F. ) ;
#150 = PERSON_AND_ORGANIZATION ( #52, #64 ) ;
#151 = ADVANCED_FACE ( 'NONE', ( #246 ), #34, .T. ) ;
#152 = DATE_AND_TIME ( #265, #82 ) ;
#153 = CIRCLE ( 'NONE', #194, 5.999999999999999112 ) ;
#154 = DIRECTION ( 'NONE',  ( 1.000000000000000000, 0.000000000000000000, 0.000000000000000000 ) ) ;
#155 = VERTEX_POINT ( 'NONE', #288 ) ;
#156 = CONICAL_SURFACE ( 'NONE', #199, 8.500000000000000000, 0.7853981633974461696 ) ;
#157 = FACE_OUTER_BOUND ( 'NONE', #71, .T. ) ;
#158 = CARTESIAN_POINT ( 'NONE',  ( 0.000000000000000000, 0.000000000000000000, 5.500000000000000000 ) ) ;
#159 = CARTESIAN_POINT ( 'NONE',  ( -8.500000000000000000, 0.000000000000000000, 5.500000000000000000 ) ) ;
#160 = DIRECTION ( 'NONE',  ( 1.000000000000000000, 0.000000000000000000, 0.000000000000000000 ) ) ;
#161 = VERTEX_POINT ( 'NONE', #138 ) ;
#162 = EDGE_CURVE ( 'NONE', #114, #45, #83, .T. ) ;
#163 = CIRCLE ( 'NONE', #28, 6.500000000000008882 ) ;
#164 = LOCAL_TIME ( 10, 33, 46.00000000000000000, #72 ) ;
#165 = AXIS2_PLACEMENT_3D ( 'NONE', #121, #282, #68 ) ;
#166 = DIRECTION ( 'NONE',  ( -0.000000000000000000, -0.000000000000000000, 1.000000000000000000 ) ) ;
#167 = CC_DESIGN_PERSON_AND_ORGANIZATION_ASSIGNMENT ( #266, #221, ( #98 ) ) ;
#168 = EDGE_LOOP ( 'NONE', ( #94, #26, #101, #77 ) ) ;
#169 = EDGE_LOOP ( 'NONE', ( #88, #281 ) ) ;
#170 = DIRECTION ( 'NONE',  ( 1.000000000000000000, 0.000000000000000000, 0.000000000000000000 ) ) ;
#171 = ORIENTED_EDGE ( 'NONE', *, *, #264, .F. ) ;
#172 = DIRECTION ( 'NONE',  ( 1.000000000000000000, 0.000000000000000000, -0.000000000000000000 ) ) ;
#173 = DIRECTION ( 'NONE',  ( -0.000000000000000000, -0.000000000000000000, 1.000000000000000000 ) ) ;
#174 = PERSON_AND_ORGANIZATION ( #52, #64 ) ;
#175 = PERSON_AND_ORGANIZATION_ROLE ( 'classification_officer' ) ;
#176 = APPROVAL_STATUS ( 'not_yet_approved' ) ;
#177 = DIRECTION ( 'NONE',  ( 0.000000000000000000, 0.000000000000000000, 1.000000000000000000 ) ) ;
#178 = CARTESIAN_POINT ( 'NONE',  ( 0.000000000000000000, 0.000000000000000000, 2.000000000000000000 ) ) ;
#179 = DIRECTION ( 'NONE',  ( 1.000000000000000000, 0.000000000000000000, 0.000000000000000000 ) ) ;
#180 = ADVANCED_FACE ( 'NONE', ( #17 ), #156, .T. ) ;
#181 = AXIS2_PLACEMENT_3D ( 'NONE', #267, #177, #287 ) ;
#182 = ORIENTED_EDGE ( 'NONE', *, *, #48, .T. ) ;
#183 = DIRECTION ( 'NONE',  ( -0.000000000000000000, -0.000000000000000000, 1.000000000000000000 ) ) ;
#184 = CARTESIAN_POINT ( 'NONE',  ( 0.000000000000000000, 0.000000000000000000, 5.500000000000000000 ) ) ;
#185 = ADVANCED_BREP_SHAPE_REPRESENTATION ( 'bearing spacer 1', ( #234, #291 ), #142 ) ;
#186 = EDGE_CURVE ( 'NONE', #114, #229, #219, .T. ) ;
#187 = EDGE_LOOP ( 'NONE', ( #232, #116 ) ) ;
#188 = CARTESIAN_POINT ( 'NONE',  ( -5.999999999999999112, 0.000000000000000000, 0.000000000000000000 ) ) ;
#189 = PRODUCT ( 'bearing spacer 1', 'bearing spacer 1', '', ( #49 ) ) ;
#190 =( LENGTH_UNIT ( ) NAMED_UNIT ( * ) SI_UNIT ( .MILLI., .METRE. ) );
#191 = AXIS2_PLACEMENT_3D ( 'NONE', #54, #252, #154 ) ;
#192 = VERTEX_POINT ( 'NONE', #251 ) ;
#193 =( NAMED_UNIT ( * ) SI_UNIT ( $, .STERADIAN. ) SOLID_ANGLE_UNIT ( ) );
#194 = AXIS2_PLACEMENT_3D ( 'NONE', #86, #207, #179 ) ;
#195 = LOCAL_TIME ( 10, 33, 46.00000000000000000, #35 ) ;
#196 = ORIENTED_EDGE ( 'NONE', *, *, #162, .T. ) ;
#197 = COORDINATED_UNIVERSAL_TIME_OFFSET ( 1, 0, .AHEAD. ) ;
#198 = CC_DESIGN_PERSON_AND_ORGANIZATION_ASSIGNMENT ( #174, #175, ( #3 ) ) ;
#199 = AXIS2_PLACEMENT_3D ( 'NONE', #178, #112, #208 ) ;
#200 = CARTESIAN_POINT ( 'NONE',  ( 0.000000000000000000, 0.000000000000000000, 0.000000000000000000 ) ) ;
#201 = ORIENTED_EDGE ( 'NONE', *, *, #222, .F. ) ;
#202 = CARTESIAN_POINT ( 'NONE',  ( 0.000000000000000000, 0.000000000000000000, 5.500000000000000000 ) ) ;
#203 = CALENDAR_DATE ( 2026, 2, 6 ) ;
#204 = CARTESIAN_POINT ( 'NONE',  ( 0.000000000000000000, 0.000000000000000000, 2.000000000000000000 ) ) ;
#205 = CARTESIAN_POINT ( 'NONE',  ( -8.500000000000000000, 0.000000000000000000, 2.000000000000000000 ) ) ;
#206 = LINE ( 'NONE', #87, #289 ) ;
#207 = DIRECTION ( 'NONE',  ( 0.000000000000000000, 0.000000000000000000, 1.000000000000000000 ) ) ;
#208 = DIRECTION ( 'NONE',  ( 1.000000000000000000, 0.000000000000000000, 0.000000000000000000 ) ) ;
#209 = VERTEX_POINT ( 'NONE', #293 ) ;
#210 = ORIENTED_EDGE ( 'NONE', *, *, #118, .T. ) ;
#211 = ORIENTED_EDGE ( 'NONE', *, *, #75, .T. ) ;
#212 = FACE_BOUND ( 'NONE', #169, .T. ) ;
#213 = PRODUCT_DEFINITION_SHAPE ( 'NONE', 'NONE',  #106 ) ;
#214 = ORIENTED_EDGE ( 'NONE', *, *, #70, .T. ) ;
#215 = PLANE ( 'NONE',  #248 ) ;
#216 = EDGE_LOOP ( 'NONE', ( #260, #89 ) ) ;
#217 = APPROVAL_DATE_TIME ( #29, #145 ) ;
#218 = FACE_BOUND ( 'NONE', #47, .T. ) ;
#219 = CIRCLE ( 'NONE', #22, 8.500000000000000000 ) ;
#220 = DIRECTION ( 'NONE',  ( 0.7071067811865460184, 0.000000000000000000, 0.7071067811865490160 ) ) ;
#221 = PERSON_AND_ORGANIZATION_ROLE ( 'creator' ) ;
#222 = EDGE_CURVE ( 'NONE', #229, #114, #43, .T. ) ;
#223 = DATE_AND_TIME ( #258, #294 ) ;
#224 = CYLINDRICAL_SURFACE ( 'NONE', #285, 5.999999999999999112 ) ;
#225 = ORIENTED_EDGE ( 'NONE', *, *, #90, .F. ) ;
#226 = LINE ( 'NONE', #12, #63 ) ;
#227 = DIRECTION ( 'NONE',  ( -0.000000000000000000, -0.000000000000000000, -1.000000000000000000 ) ) ;
#228 = DIRECTION ( 'NONE',  ( -0.000000000000000000, -0.000000000000000000, -1.000000000000000000 ) ) ;
#229 = VERTEX_POINT ( 'NONE', #8 ) ;
#230 = APPROVAL ( #130, 'UNSPECIFIED' ) ;
#231 = CIRCLE ( 'NONE', #95, 8.500000000000000000 ) ;
#232 = ORIENTED_EDGE ( 'NONE', *, *, #186, .T. ) ;
#233 = AXIS2_PLACEMENT_3D ( 'NONE', #298, #173, #170 ) ;
#234 = MANIFOLD_SOLID_BREP ( 'Chamfer1', #55 ) ;
#235 = EDGE_CURVE ( 'NONE', #192, #161, #57, .T. ) ;
#236 = CYLINDRICAL_SURFACE ( 'NONE', #279, 5.999999999999999112 ) ;
#237 = APPLICATION_PROTOCOL_DEFINITION ( 'international standard', 'config_control_design', 1994, #134 ) ;
#238 = ADVANCED_FACE ( 'NONE', ( #23, #218 ), #277, .F. ) ;
#239 = VERTEX_POINT ( 'NONE', #2 ) ;
#240 = APPLICATION_PROTOCOL_DEFINITION ( 'international standard', 'config_control_design', 1994, #13 ) ;
#241 = DIRECTION ( 'NONE',  ( 0.000000000000000000, 0.000000000000000000, 1.000000000000000000 ) ) ;
#242 = CARTESIAN_POINT ( 'NONE',  ( 6.500000000000008882, 0.000000000000000000, 0.000000000000000000 ) ) ;
#243 = APPROVAL_PERSON_ORGANIZATION ( #102, #145, #96 ) ;
#244 = DATE_TIME_ROLE ( 'creation_date' ) ;
#245 = CC_DESIGN_DATE_AND_TIME_ASSIGNMENT ( #263, #286, ( #3 ) ) ;
#246 = FACE_OUTER_BOUND ( 'NONE', #146, .T. ) ;
#247 = CC_DESIGN_PERSON_AND_ORGANIZATION_ASSIGNMENT ( #133, #6, ( #98 ) ) ;
#248 = AXIS2_PLACEMENT_3D ( 'NONE', #202, #241, #172 ) ;
#249 = DATE_AND_TIME ( #74, #195 ) ;
#250 = DIRECTION ( 'NONE',  ( -0.000000000000000000, -0.000000000000000000, -1.000000000000000000 ) ) ;
#251 = CARTESIAN_POINT ( 'NONE',  ( -5.999999999999999112, 0.000000000000000000, 5.500000000000000000 ) ) ;
#252 = DIRECTION ( 'NONE',  ( -0.000000000000000000, -0.000000000000000000, -1.000000000000000000 ) ) ;
#253 = CARTESIAN_POINT ( 'NONE',  ( -5.999999999999999112, 0.000000000000000000, 5.500000000000000000 ) ) ;
#254 = ORIENTED_EDGE ( 'NONE', *, *, #296, .T. ) ;
#255 = AXIS2_PLACEMENT_3D ( 'NONE', #37, #274, #78 ) ;
#256 = CC_DESIGN_APPROVAL ( #145, ( #106 ) ) ;
#257 = ADVANCED_FACE ( 'NONE', ( #143 ), #111, .T. ) ;
#258 = CALENDAR_DATE ( 2026, 2, 6 ) ;
#259 = CARTESIAN_POINT ( 'NONE',  ( 5.999999999999999112, 7.347880794884118750E-16, 5.500000000000000000 ) ) ;
#260 = ORIENTED_EDGE ( 'NONE', *, *, #38, .T. ) ;
#261 = DIRECTION ( 'NONE',  ( 0.000000000000000000, 0.000000000000000000, 1.000000000000000000 ) ) ;
#262 = ORIENTED_EDGE ( 'NONE', *, *, #75, .F. ) ;
#263 = DATE_AND_TIME ( #203, #115 ) ;
#264 = EDGE_CURVE ( 'NONE', #45, #155, #100, .T. ) ;
#265 = CALENDAR_DATE ( 2026, 2, 6 ) ;
#266 = PERSON_AND_ORGANIZATION ( #52, #64 ) ;
#267 = CARTESIAN_POINT ( 'NONE',  ( 0.000000000000000000, 0.000000000000000000, 0.000000000000000000 ) ) ;
#268 = CC_DESIGN_APPROVAL ( #230, ( #98 ) ) ;
#269 = DIRECTION ( 'NONE',  ( -0.000000000000000000, -0.000000000000000000, -1.000000000000000000 ) ) ;
#270 = AXIS2_PLACEMENT_3D ( 'NONE', #148, #166, #119 ) ;
#271 = DIRECTION ( 'NONE',  ( -1.000000000000000000, 0.000000000000000000, 0.000000000000000000 ) ) ;
#272 = DIRECTION ( 'NONE',  ( 1.000000000000000000, 0.000000000000000000, 0.000000000000000000 ) ) ;
#273 = VECTOR ( 'NONE', #228, 1000.000000000000000 ) ;
#274 = DIRECTION ( 'NONE',  ( 0.000000000000000000, 0.000000000000000000, 1.000000000000000000 ) ) ;
#275 = EDGE_LOOP ( 'NONE', ( #225, #5, #254, #171 ) ) ;
#276 = LINE ( 'NONE', #259, #81 ) ;
#277 = PLANE ( 'NONE',  #165 ) ;
#278 = ORIENTED_EDGE ( 'NONE', *, *, #162, .F. ) ;
#279 = AXIS2_PLACEMENT_3D ( 'NONE', #25, #80, #271 ) ;
#280 = CC_DESIGN_SECURITY_CLASSIFICATION ( #3, ( #98 ) ) ;
#281 = ORIENTED_EDGE ( 'NONE', *, *, #70, .F. ) ;
#282 = DIRECTION ( 'NONE',  ( 0.000000000000000000, 0.000000000000000000, 1.000000000000000000 ) ) ;
#283 = CARTESIAN_POINT ( 'NONE',  ( 8.500000000000000000, 0.000000000000000000, 2.000000000000000000 ) ) ;
#284 = ADVANCED_FACE ( 'NONE', ( #93, #212 ), #215, .T. ) ;
#285 = AXIS2_PLACEMENT_3D ( 'NONE', #109, #227, #11 ) ;
#286 = DATE_TIME_ROLE ( 'classification_date' ) ;
#287 = DIRECTION ( 'NONE',  ( 1.000000000000000000, 0.000000000000000000, 0.000000000000000000 ) ) ;
#288 = CARTESIAN_POINT ( 'NONE',  ( 8.500000000000000000, 1.040949779275250140E-15, 2.000000000000000000 ) ) ;
#289 = VECTOR ( 'NONE', #40, 1000.000000000000000 ) ;
#290 = DIRECTION ( 'NONE',  ( -0.000000000000000000, -0.000000000000000000, -1.000000000000000000 ) ) ;
#291 = AXIS2_PLACEMENT_3D ( 'NONE', #200, #261, #46 ) ;
#292 = LINE ( 'NONE', #253, #124 ) ;
#293 = CARTESIAN_POINT ( 'NONE',  ( 5.999999999999999112, 7.347880794884118750E-16, 0.000000000000000000 ) ) ;
#294 = LOCAL_TIME ( 10, 33, 46.00000000000000000, #197 ) ;
#295 = EDGE_LOOP ( 'NONE', ( #19, #69, #92, #21 ) ) ;
#296 = EDGE_CURVE ( 'NONE', #299, #155, #125, .T. ) ;
#297 = ORIENTED_EDGE ( 'NONE', *, *, #9, .F. ) ;
#298 = CARTESIAN_POINT ( 'NONE',  ( 0.000000000000000000, 0.000000000000000000, 2.000000000000000000 ) ) ;
#299 = VERTEX_POINT ( 'NONE', #242 ) ;
ENDSEC;
END-ISO-10303-21;
