ISO-10303-21;
HEADER;
FILE_DESCRIPTION (( 'STEP AP203' ),
    '1' );
FILE_NAME ('feed belt tensioner 2.STEP',
    '2026-06-02T08:35:51',
    ( '' ),
    ( '' ),
    'SwSTEP 2.0',
    'SolidWorks 2024',
    '' );
FILE_SCHEMA (( 'CONFIG_CONTROL_DESIGN' ));
ENDSEC;

DATA;
#1 = CARTESIAN_POINT ( 'NONE',  ( 17.95646728200211584, 1.738692345779120574, -104.2955803164349646 ) ) ;
#2 = EDGE_CURVE ( 'NONE', #445, #262, #454, .T. ) ;
#3 = DIRECTION ( 'NONE',  ( -0.000000000000000000, -0.000000000000000000, -1.000000000000000000 ) ) ;
#4 = CARTESIAN_POINT ( 'NONE',  ( 16.24999999999999645, 41.03999999999996362, -104.2955803164349646 ) ) ;
#5 = VECTOR ( 'NONE', #558, 1000.000000000000000 ) ;
#6 = EDGE_LOOP ( 'NONE', ( #215, #653, #608, #319 ) ) ;
#7 = PERSON ( 'UNSPECIFIED', 'UNSPECIFIED', 'UNSPECIFIED', ('UNSPECIFIED'), ('UNSPECIFIED'), ('UNSPECIFIED') ) ;
#8 = CARTESIAN_POINT ( 'NONE',  ( 13.74999999999999645, 41.03999999999996362, -104.2955803164349646 ) ) ;
#9 = EDGE_CURVE ( 'NONE', #161, #364, #35, .T. ) ;
#10 = LINE ( 'NONE', #457, #498 ) ;
#11 = FACE_OUTER_BOUND ( 'NONE', #429, .T. ) ;
#12 = DIRECTION ( 'NONE',  ( 0.3959401535119468907, -0.9182763172580112876, -0.000000000000000000 ) ) ;
#13 = AXIS2_PLACEMENT_3D ( 'NONE', #398, #340, #160 ) ;
#14 = AXIS2_PLACEMENT_3D ( 'NONE', #233, #534, #632 ) ;
#15 = VERTEX_POINT ( 'NONE', #720 ) ;
#16 = AXIS2_PLACEMENT_3D ( 'NONE', #218, #334, #162 ) ;
#17 = CYLINDRICAL_SURFACE ( 'NONE', #641, 2.500000000000000444 ) ;
#18 = CARTESIAN_POINT ( 'NONE',  ( 11.24999999999999289, 60.00000000000000711, -154.9955803164349675 ) ) ;
#19 = CARTESIAN_POINT ( 'NONE',  ( 19.24999999999999645, 46.53999999999997073, -104.2955803164349646 ) ) ;
#20 = PERSON_AND_ORGANIZATION ( #7, #326 ) ;
#21 = ADVANCED_FACE ( 'NONE', ( #104 ), #210, .F. ) ;
#22 = APPROVAL_STATUS ( 'not_yet_approved' ) ;
#23 = ORIENTED_EDGE ( 'NONE', *, *, #466, .T. ) ;
#24 = CARTESIAN_POINT ( 'NONE',  ( 19.24999999999999645, 4.738692345779115911, -104.2955803164349646 ) ) ;
#25 = FACE_OUTER_BOUND ( 'NONE', #207, .T. ) ;
#26 = ORIENTED_EDGE ( 'NONE', *, *, #384, .F. ) ;
#27 = VECTOR ( 'NONE', #290, 1000.000000000000000 ) ;
#28 = DIRECTION ( 'NONE',  ( -0.000000000000000000, -0.000000000000000000, -1.000000000000000000 ) ) ;
#29 = CARTESIAN_POINT ( 'NONE',  ( 11.24999999999999645, 26.44999999999997442, -123.2955803164349646 ) ) ;
#30 = PERSON_AND_ORGANIZATION ( #7, #326 ) ;
#31 = ORIENTED_EDGE ( 'NONE', *, *, #559, .F. ) ;
#32 = ORIENTED_EDGE ( 'NONE', *, *, #633, .T. ) ;
#33 = MANIFOLD_SOLID_BREP ( 'Stock-minilip main body-1', #286 ) ;
#34 = DIRECTION ( 'NONE',  ( -0.000000000000000000, -0.000000000000000000, -1.000000000000000000 ) ) ;
#35 = LINE ( 'NONE', #504, #404 ) ;
#36 = ORIENTED_EDGE ( 'NONE', *, *, #574, .F. ) ;
#37 = CARTESIAN_POINT ( 'NONE',  ( 21.24999999999998224, 34.29999999999996874, -123.2955803164349646 ) ) ;
#38 = ADVANCED_FACE ( 'NONE', ( #25 ), #171, .F. ) ;
#39 = FACE_OUTER_BOUND ( 'NONE', #49, .T. ) ;
#40 = ORIENTED_EDGE ( 'NONE', *, *, #392, .F. ) ;
#41 = ORIENTED_EDGE ( 'NONE', *, *, #154, .F. ) ;
#42 = CARTESIAN_POINT ( 'NONE',  ( 13.24999999999998401, 26.44999999999997442, -123.2955803164349646 ) ) ;
#43 = VECTOR ( 'NONE', #87, 1000.000000000000000 ) ;
#44 = EDGE_CURVE ( 'NONE', #211, #143, #677, .T. ) ;
#45 = ORIENTED_EDGE ( 'NONE', *, *, #686, .T. ) ;
#46 = ORIENTED_EDGE ( 'NONE', *, *, #460, .F. ) ;
#47 = FACE_OUTER_BOUND ( 'NONE', #79, .T. ) ;
#48 = EDGE_CURVE ( 'NONE', #415, #712, #510, .T. ) ;
#49 = EDGE_LOOP ( 'NONE', ( #478, #630, #650, #247 ) ) ;
#50 = CARTESIAN_POINT ( 'NONE',  ( 21.24999999999999645, 49.53999999999996362, -93.82610086423677842 ) ) ;
#51 = DIRECTION ( 'NONE',  ( -0.3959401535119433380, 0.9182763172580129529, 0.000000000000000000 ) ) ;
#52 = DIRECTION ( 'NONE',  ( 0.000000000000000000, -1.000000000000000000, 0.000000000000000000 ) ) ;
#53 = FACE_OUTER_BOUND ( 'NONE', #71, .T. ) ;
#54 = AXIS2_PLACEMENT_3D ( 'NONE', #358, #644, #487 ) ;
#55 = AXIS2_PLACEMENT_3D ( 'NONE', #168, #569, #267 ) ;
#56 = LINE ( 'NONE', #500, #132 ) ;
#57 = ADVANCED_FACE ( 'NONE', ( #53 ), #166, .F. ) ;
#58 = CARTESIAN_POINT ( 'NONE',  ( 17.95646728200211584, 49.53999999999996362, -93.82610086423677842 ) ) ;
#59 =( NAMED_UNIT ( * ) SI_UNIT ( $, .STERADIAN. ) SOLID_ANGLE_UNIT ( ) );
#60 = CARTESIAN_POINT ( 'NONE',  ( 0.000000000000000000, 0.000000000000000000, -154.9955803164349675 ) ) ;
#61 = CARTESIAN_POINT ( 'NONE',  ( 11.24999999999999645, 14.14999999999995950, -123.2955803164349646 ) ) ;
#62 = LINE ( 'NONE', #354, #63 ) ;
#63 = VECTOR ( 'NONE', #12, 1000.000000000000227 ) ;
#64 = EDGE_CURVE ( 'NONE', #445, #232, #117, .T. ) ;
#65 = AXIS2_PLACEMENT_3D ( 'NONE', #673, #437, #462 ) ;
#66 = DIRECTION ( 'NONE',  ( 0.000000000000000000, 0.000000000000000000, 1.000000000000000000 ) ) ;
#67 = ORIENTED_EDGE ( 'NONE', *, *, #316, .F. ) ;
#68 = DIRECTION ( 'NONE',  ( 1.000000000000000000, 0.000000000000000000, 0.000000000000000000 ) ) ;
#69 = CARTESIAN_POINT ( 'NONE',  ( 11.24999999999999289, 60.00000000000000711, -104.2955803164349646 ) ) ;
#70 = CC_DESIGN_PERSON_AND_ORGANIZATION_ASSIGNMENT ( #422, #371, ( #716 ) ) ;
#71 = EDGE_LOOP ( 'NONE', ( #525, #23, #724, #296 ) ) ;
#72 = DIRECTION ( 'NONE',  ( 0.000000000000000000, -1.000000000000000000, 0.000000000000000000 ) ) ;
#73 = VERTEX_POINT ( 'NONE', #174 ) ;
#74 = CARTESIAN_POINT ( 'NONE',  ( 11.24999999999999289, 1.738692345779120574, -154.9955803164349675 ) ) ;
#75 = AXIS2_PLACEMENT_3D ( 'NONE', #622, #680, #443 ) ;
#76 = LINE ( 'NONE', #533, #700 ) ;
#77 = ADVANCED_FACE ( 'NONE', ( #342, #447 ), #400, .F. ) ;
#78 = CARTESIAN_POINT ( 'NONE',  ( 80.00000000000005684, 20.29999999999995808, -123.2955803164349646 ) ) ;
#79 = EDGE_LOOP ( 'NONE', ( #557, #367, #191, #507 ) ) ;
#80 = LINE ( 'NONE', #139, #395 ) ;
#81 = ORIENTED_EDGE ( 'NONE', *, *, #384, .T. ) ;
#82 = LINE ( 'NONE', #18, #602 ) ;
#83 = DIRECTION ( 'NONE',  ( 0.000000000000000000, -0.000000000000000000, -1.000000000000000000 ) ) ;
#84 = VERTEX_POINT ( 'NONE', #573 ) ;
#85 = EDGE_CURVE ( 'NONE', #403, #273, #110, .T. ) ;
#86 = ORIENTED_EDGE ( 'NONE', *, *, #721, .F. ) ;
#87 = DIRECTION ( 'NONE',  ( -1.000000000000000000, 0.000000000000000000, 0.000000000000000000 ) ) ;
#88 = CARTESIAN_POINT ( 'NONE',  ( 13.24999999999999822, 46.53999999999997073, -154.9955803164349675 ) ) ;
#89 = CC_DESIGN_APPROVAL ( #647, ( #623 ) ) ;
#90 = ORIENTED_EDGE ( 'NONE', *, *, #628, .T. ) ;
#91 = EDGE_LOOP ( 'NONE', ( #265, #585, #108, #717 ) ) ;
#92 = DIRECTION ( 'NONE',  ( -0.3959401535119432824, -0.9182763172580129529, 0.000000000000000000 ) ) ;
#93 = ORIENTED_EDGE ( 'NONE', *, *, #138, .T. ) ;
#94 = ORIENTED_EDGE ( 'NONE', *, *, #679, .T. ) ;
#95 = CARTESIAN_POINT ( 'NONE',  ( 17.95646728200211584, 1.738692345779120574, -154.9955803164349675 ) ) ;
#96 = ADVANCED_FACE ( 'NONE', ( #221 ), #567, .F. ) ;
#97 = UNCERTAINTY_MEASURE_WITH_UNIT (LENGTH_MEASURE( 1.000000000000000082E-05 ), #118, 'distance_accuracy_value', 'NONE');
#98 = PLANE ( 'NONE',  #54 ) ;
#99 = ORIENTED_EDGE ( 'NONE', *, *, #138, .F. ) ;
#100 = VERTEX_POINT ( 'NONE', #514 ) ;
#101 = DIRECTION ( 'NONE',  ( -0.3959401535119468352, 0.9182763172580112876, 0.000000000000000000 ) ) ;
#102 = AXIS2_PLACEMENT_3D ( 'NONE', #78, #635, #72 ) ;
#103 = EDGE_CURVE ( 'NONE', #244, #239, #575, .T. ) ;
#104 = FACE_OUTER_BOUND ( 'NONE', #435, .T. ) ;
#105 = ORIENTED_EDGE ( 'NONE', *, *, #559, .T. ) ;
#106 = CARTESIAN_POINT ( 'NONE',  ( 19.24999999999999645, 46.53999999999997073, -154.9955803164349675 ) ) ;
#107 = CARTESIAN_POINT ( 'NONE',  ( 18.75000000000000000, 41.03999999999996362, -104.2955803164349646 ) ) ;
#108 = ORIENTED_EDGE ( 'NONE', *, *, #571, .T. ) ;
#109 = PERSON_AND_ORGANIZATION ( #7, #326 ) ;
#110 = LINE ( 'NONE', #280, #688 ) ;
#111 = EDGE_CURVE ( 'NONE', #568, #273, #509, .T. ) ;
#112 = CARTESIAN_POINT ( 'NONE',  ( 21.24999999999998579, 20.29999999999997229, -123.2955803164349646 ) ) ;
#113 = DIRECTION ( 'NONE',  ( -0.000000000000000000, -0.000000000000000000, 1.000000000000000000 ) ) ;
#114 = CALENDAR_DATE ( 2026, 2, 6 ) ;
#115 = PRODUCT_DEFINITION_FORMATION_WITH_SPECIFIED_SOURCE ( 'ANY', '', #612, .NOT_KNOWN. ) ;
#116 = CARTESIAN_POINT ( 'NONE',  ( 19.24999999999999645, 46.53999999999997073, -93.82610086423677842 ) ) ;
#117 = LINE ( 'NONE', #518, #697 ) ;
#118 =( LENGTH_UNIT ( ) NAMED_UNIT ( * ) SI_UNIT ( .MILLI., .METRE. ) );
#119 = EDGE_CURVE ( 'NONE', #239, #706, #391, .T. ) ;
#120 = CARTESIAN_POINT ( 'NONE',  ( 13.24999999999999822, 46.53999999999997073, -93.82610086423677842 ) ) ;
#121 = EDGE_CURVE ( 'NONE', #15, #614, #272, .T. ) ;
#122 = FACE_OUTER_BOUND ( 'NONE', #289, .T. ) ;
#123 = AXIS2_PLACEMENT_3D ( 'NONE', #655, #146, #251 ) ;
#124 = CALENDAR_DATE ( 2026, 2, 6 ) ;
#125 = FACE_OUTER_BOUND ( 'NONE', #607, .T. ) ;
#126 = DATE_AND_TIME ( #729, #300 ) ;
#127 = DIRECTION ( 'NONE',  ( -0.9182763172580129529, -0.3959401535119433380, 0.000000000000000000 ) ) ;
#128 = EDGE_CURVE ( 'NONE', #161, #211, #714, .T. ) ;
#129 = COORDINATED_UNIVERSAL_TIME_OFFSET ( 1, 0, .AHEAD. ) ;
#130 = DIRECTION ( 'NONE',  ( -0.3959401535119468907, -0.9182763172580112876, 0.000000000000000000 ) ) ;
#131 = AXIS2_PLACEMENT_3D ( 'NONE', #60, #725, #217 ) ;
#132 = VECTOR ( 'NONE', #224, 1000.000000000000000 ) ;
#133 = ORIENTED_EDGE ( 'NONE', *, *, #2, .F. ) ;
#134 = LINE ( 'NONE', #426, #563 ) ;
#135 = DATE_AND_TIME ( #184, #288 ) ;
#136 = ORIENTED_EDGE ( 'NONE', *, *, #609, .F. ) ;
#137 = DIRECTION ( 'NONE',  ( -0.000000000000000000, -0.000000000000000000, -1.000000000000000000 ) ) ;
#138 = EDGE_CURVE ( 'NONE', #262, #445, #225, .T. ) ;
#139 = CARTESIAN_POINT ( 'NONE',  ( 17.95646728200211584, 49.53999999999996362, -154.9955803164349675 ) ) ;
#140 = ORIENTED_EDGE ( 'NONE', *, *, #44, .F. ) ;
#141 = ORIENTED_EDGE ( 'NONE', *, *, #519, .F. ) ;
#142 = CARTESIAN_POINT ( 'NONE',  ( 16.24999999999999645, 41.03999999999996362, -104.2955803164349646 ) ) ;
#143 = VERTEX_POINT ( 'NONE', #452 ) ;
#144 = AXIS2_PLACEMENT_3D ( 'NONE', #275, #165, #674 ) ;
#145 = ORIENTED_EDGE ( 'NONE', *, *, #486, .T. ) ;
#146 = DIRECTION ( 'NONE',  ( 0.000000000000000000, 0.000000000000000000, -1.000000000000000000 ) ) ;
#147 = EDGE_LOOP ( 'NONE', ( #315, #93, #285, #373 ) ) ;
#148 = APPLICATION_CONTEXT ( 'configuration controlled 3d designs of mechanical parts and assemblies' ) ;
#149 = ORIENTED_EDGE ( 'NONE', *, *, #609, .T. ) ;
#150 = CARTESIAN_POINT ( 'NONE',  ( 11.24999999999999289, 60.00000000000000711, -275.4115261043579039 ) ) ;
#151 = DIRECTION ( 'NONE',  ( -1.000000000000000000, 0.000000000000000000, 0.000000000000000000 ) ) ;
#152 = ORIENTED_EDGE ( 'NONE', *, *, #9, .F. ) ;
#153 = EDGE_LOOP ( 'NONE', ( #599, #90 ) ) ;
#154 = EDGE_CURVE ( 'NONE', #568, #360, #723, .T. ) ;
#155 = PLANE ( 'NONE',  #339 ) ;
#156 = ORIENTED_EDGE ( 'NONE', *, *, #44, .T. ) ;
#157 = ORIENTED_EDGE ( 'NONE', *, *, #164, .T. ) ;
#158 = CARTESIAN_POINT ( 'NONE',  ( 13.24999999999998401, 14.14999999999995950, -123.2955803164349646 ) ) ;
#159 = VECTOR ( 'NONE', #409, 1000.000000000000000 ) ;
#160 = DIRECTION ( 'NONE',  ( 1.239088197126290817E-16, -1.000000000000000000, 0.000000000000000000 ) ) ;
#161 = VERTEX_POINT ( 'NONE', #107 ) ;
#162 = DIRECTION ( 'NONE',  ( 0.000000000000000000, -0.000000000000000000, 1.000000000000000000 ) ) ;
#163 = DATE_TIME_ROLE ( 'classification_date' ) ;
#164 = EDGE_CURVE ( 'NONE', #244, #485, #627, .T. ) ;
#165 = DIRECTION ( 'NONE',  ( 1.000000000000000000, 1.387778780781445429E-16, 0.000000000000000000 ) ) ;
#166 = PLANE ( 'NONE',  #520 ) ;
#167 = ADVANCED_FACE ( 'NONE', ( #47 ), #459, .F. ) ;
#168 = CARTESIAN_POINT ( 'NONE',  ( 13.24999999999998401, 20.29999999999996874, -123.2955803164349646 ) ) ;
#169 = VECTOR ( 'NONE', #227, 1000.000000000000000 ) ;
#170 = DIRECTION ( 'NONE',  ( -1.000000000000000000, 1.387778780781445676E-16, -0.000000000000000000 ) ) ;
#171 = CYLINDRICAL_SURFACE ( 'NONE', #13, 14.00000000000000000 ) ;
#172 = AXIS2_PLACEMENT_3D ( 'NONE', #388, #448, #208 ) ;
#173 = ADVANCED_FACE ( 'NONE', ( #242, #471 ), #177, .T. ) ;
#174 = CARTESIAN_POINT ( 'NONE',  ( 11.24999999999999645, 49.53999999999996362, -154.9955803164349675 ) ) ;
#175 = ORIENTED_EDGE ( 'NONE', *, *, #709, .F. ) ;
#176 = SHAPE_DEFINITION_REPRESENTATION ( #501, #187 ) ;
#177 = PLANE ( 'NONE',  #678 ) ;
#178 = CARTESIAN_POINT ( 'NONE',  ( 11.24999999999999645, 49.53999999999996362, -104.2955803164349646 ) ) ;
#179 = DIRECTION ( 'NONE',  ( -1.000000000000000000, 1.387778780781445676E-16, -0.000000000000000000 ) ) ;
#180 = AXIS2_PLACEMENT_3D ( 'NONE', #150, #610, #646 ) ;
#181 = APPROVAL_ROLE ( '' ) ;
#182 = DIRECTION ( 'NONE',  ( -0.000000000000000000, -0.000000000000000000, -1.000000000000000000 ) ) ;
#183 = CARTESIAN_POINT ( 'NONE',  ( 13.24999999999999822, 4.738692345779115911, -154.9955803164349675 ) ) ;
#184 = CALENDAR_DATE ( 2026, 2, 6 ) ;
#185 = ORIENTED_EDGE ( 'NONE', *, *, #347, .F. ) ;
#186 = PLANE ( 'NONE',  #14 ) ;
#187 = ADVANCED_BREP_SHAPE_REPRESENTATION ( 'feed belt tensioner 2', ( #33, #346 ), #237 ) ;
#188 = ORIENTED_EDGE ( 'NONE', *, *, #694, .F. ) ;
#189 = EDGE_CURVE ( 'NONE', #196, #305, #692, .T. ) ;
#190 = LINE ( 'NONE', #648, #430 ) ;
#191 = ORIENTED_EDGE ( 'NONE', *, *, #85, .T. ) ;
#192 = EDGE_LOOP ( 'NONE', ( #387, #312 ) ) ;
#193 = CARTESIAN_POINT ( 'NONE',  ( 21.24999999999999645, 1.738692345779120574, -104.2955803164349646 ) ) ;
#194 = APPROVAL_DATE_TIME ( #544, #548 ) ;
#195 = ORIENTED_EDGE ( 'NONE', *, *, #111, .T. ) ;
#196 = VERTEX_POINT ( 'NONE', #583 ) ;
#197 = CARTESIAN_POINT ( 'NONE',  ( 21.24999999999999645, 49.53999999999996362, -104.2955803164349646 ) ) ;
#198 = CARTESIAN_POINT ( 'NONE',  ( 14.54353271799786462, 1.738692345779120574, -93.82610086423677842 ) ) ;
#199 = VERTEX_POINT ( 'NONE', #526 ) ;
#200 = VECTOR ( 'NONE', #268, 1000.000000000000114 ) ;
#201 = ORIENTED_EDGE ( 'NONE', *, *, #216, .F. ) ;
#202 = APPROVAL_PERSON_ORGANIZATION ( #301, #647, #414 ) ;
#203 = FACE_OUTER_BOUND ( 'NONE', #562, .T. ) ;
#204 = CARTESIAN_POINT ( 'NONE',  ( 14.54353271799786462, 1.738692345779120574, -154.9955803164349675 ) ) ;
#205 = ORIENTED_EDGE ( 'NONE', *, *, #2, .T. ) ;
#206 = EDGE_CURVE ( 'NONE', #663, #712, #638, .T. ) ;
#207 = EDGE_LOOP ( 'NONE', ( #205, #616, #188, #546 ) ) ;
#208 = DIRECTION ( 'NONE',  ( 2.478176394252581634E-16, -1.000000000000000000, 0.000000000000000000 ) ) ;
#209 = DIRECTION ( 'NONE',  ( 0.000000000000000000, -1.000000000000000000, 0.000000000000000000 ) ) ;
#210 = PLANE ( 'NONE',  #277 ) ;
#211 = VERTEX_POINT ( 'NONE', #8 ) ;
#212 = CARTESIAN_POINT ( 'NONE',  ( 13.24999999999999822, 4.738692345779115911, -154.9955803164349675 ) ) ;
#213 = DIRECTION ( 'NONE',  ( -1.000000000000000000, -1.387778780781445429E-16, -0.000000000000000000 ) ) ;
#214 = COORDINATED_UNIVERSAL_TIME_OFFSET ( 1, 0, .AHEAD. ) ;
#215 = ORIENTED_EDGE ( 'NONE', *, *, #103, .T. ) ;
#216 = EDGE_CURVE ( 'NONE', #614, #556, #695, .T. ) ;
#217 = DIRECTION ( 'NONE',  ( 1.000000000000000000, 0.000000000000000000, 0.000000000000000000 ) ) ;
#218 = CARTESIAN_POINT ( 'NONE',  ( 13.24999999999999822, 4.738692345779115911, -93.82610086423677842 ) ) ;
#219 = CC_DESIGN_DATE_AND_TIME_ASSIGNMENT ( #442, #163, ( #716 ) ) ;
#220 = FACE_OUTER_BOUND ( 'NONE', #423, .T. ) ;
#221 = FACE_OUTER_BOUND ( 'NONE', #147, .T. ) ;
#222 = DIRECTION ( 'NONE',  ( 1.239088197126290817E-16, -1.000000000000000000, 0.000000000000000000 ) ) ;
#223 = EDGE_CURVE ( 'NONE', #706, #485, #62, .T. ) ;
#224 = DIRECTION ( 'NONE',  ( -1.000000000000000000, -0.000000000000000000, -0.000000000000000000 ) ) ;
#225 = CIRCLE ( 'NONE', #495, 14.00000000000000000 ) ;
#226 = AXIS2_PLACEMENT_3D ( 'NONE', #543, #34, #256 ) ;
#227 = DIRECTION ( 'NONE',  ( -0.000000000000000000, -0.000000000000000000, -1.000000000000000000 ) ) ;
#228 = VECTOR ( 'NONE', #464, 1000.000000000000000 ) ;
#229 = CC_DESIGN_SECURITY_CLASSIFICATION ( #716, ( #115 ) ) ;
#230 = ADVANCED_FACE ( 'NONE', ( #235 ), #590, .F. ) ;
#231 = APPLICATION_PROTOCOL_DEFINITION ( 'international standard', 'config_control_design', 1994, #148 ) ;
#232 = VERTEX_POINT ( 'NONE', #524 ) ;
#233 = CARTESIAN_POINT ( 'NONE',  ( 21.24999999999999289, 60.00000000000000711, -275.4115261043579039 ) ) ;
#234 = CARTESIAN_POINT ( 'NONE',  ( 13.24999999999998224, 34.29999999999996874, -123.2955803164349646 ) ) ;
#235 = FACE_OUTER_BOUND ( 'NONE', #669, .T. ) ;
#236 = APPROVAL_STATUS ( 'not_yet_approved' ) ;
#237 =( GEOMETRIC_REPRESENTATION_CONTEXT ( 3 ) GLOBAL_UNCERTAINTY_ASSIGNED_CONTEXT ( ( #97 ) ) GLOBAL_UNIT_ASSIGNED_CONTEXT ( ( #118, #348, #59 ) ) REPRESENTATION_CONTEXT ( 'NONE', 'WORKASPACE' ) );
#238 = PERSON_AND_ORGANIZATION ( #7, #326 ) ;
#239 = VERTEX_POINT ( 'NONE', #343 ) ;
#240 = EDGE_CURVE ( 'NONE', #652, #403, #479, .T. ) ;
#241 = CARTESIAN_POINT ( 'NONE',  ( 19.24999999999999645, 4.738692345779115911, -154.9955803164349675 ) ) ;
#242 = FACE_OUTER_BOUND ( 'NONE', #634, .T. ) ;
#243 = ADVANCED_FACE ( 'NONE', ( #298, #11 ), #186, .F. ) ;
#244 = VERTEX_POINT ( 'NONE', #19 ) ;
#245 = LINE ( 'NONE', #600, #43 ) ;
#246 = LINE ( 'NONE', #370, #545 ) ;
#247 = ORIENTED_EDGE ( 'NONE', *, *, #48, .F. ) ;
#248 = ADVANCED_FACE ( 'NONE', ( #693 ), #17, .F. ) ;
#249 = AXIS2_PLACEMENT_3D ( 'NONE', #116, #666, #101 ) ;
#250 = EDGE_LOOP ( 'NONE', ( #605, #94 ) ) ;
#251 = DIRECTION ( 'NONE',  ( -1.000000000000000000, 0.000000000000000000, 0.000000000000000000 ) ) ;
#252 = SECURITY_CLASSIFICATION_LEVEL ( 'unclassified' ) ;
#253 = ORIENTED_EDGE ( 'NONE', *, *, #240, .T. ) ;
#254 = ORIENTED_EDGE ( 'NONE', *, *, #477, .F. ) ;
#255 = LINE ( 'NONE', #541, #531 ) ;
#256 = DIRECTION ( 'NONE',  ( -1.000000000000000000, 0.000000000000000000, 0.000000000000000000 ) ) ;
#257 = DIRECTION ( 'NONE',  ( -0.000000000000000000, -0.000000000000000000, -1.000000000000000000 ) ) ;
#258 = ORIENTED_EDGE ( 'NONE', *, *, #571, .F. ) ;
#259 = CARTESIAN_POINT ( 'NONE',  ( 21.24999999999999645, 1.738692345779120574, -154.9955803164349675 ) ) ;
#260 = ADVANCED_FACE ( 'NONE', ( #475, #125 ), #287, .F. ) ;
#261 = DIRECTION ( 'NONE',  ( 0.3959401535119433380, 0.9182763172580129529, -0.000000000000000000 ) ) ;
#262 = VERTEX_POINT ( 'NONE', #234 ) ;
#263 = VECTOR ( 'NONE', #728, 1000.000000000000114 ) ;
#264 = AXIS2_PLACEMENT_3D ( 'NONE', #434, #660, #151 ) ;
#265 = ORIENTED_EDGE ( 'NONE', *, *, #297, .T. ) ;
#266 = AXIS2_PLACEMENT_3D ( 'NONE', #642, #357, #704 ) ;
#267 = DIRECTION ( 'NONE',  ( 0.000000000000000000, 1.000000000000000000, 0.000000000000000000 ) ) ;
#268 = DIRECTION ( 'NONE',  ( 0.3959401535119468352, 0.9182763172580112876, 0.000000000000000000 ) ) ;
#269 = ORIENTED_EDGE ( 'NONE', *, *, #121, .T. ) ;
#270 = ORIENTED_EDGE ( 'NONE', *, *, #283, .T. ) ;
#271 = LINE ( 'NONE', #212, #690 ) ;
#272 = LINE ( 'NONE', #624, #336 ) ;
#273 = VERTEX_POINT ( 'NONE', #183 ) ;
#274 = CARTESIAN_POINT ( 'NONE',  ( 17.95646728200211584, 49.53999999999996362, -154.9955803164349675 ) ) ;
#275 = CARTESIAN_POINT ( 'NONE',  ( 13.24999999999998401, 20.29999999999997229, -123.2955803164349646 ) ) ;
#276 = APPROVAL ( #338, 'UNSPECIFIED' ) ;
#277 = AXIS2_PLACEMENT_3D ( 'NONE', #438, #664, #538 ) ;
#278 = CIRCLE ( 'NONE', #264, 2.500000000000000444 ) ;
#279 = VECTOR ( 'NONE', #137, 1000.000000000000000 ) ;
#280 = CARTESIAN_POINT ( 'NONE',  ( 14.54353271799786462, 1.738692345779120574, -154.9955803164349675 ) ) ;
#281 = DIRECTION ( 'NONE',  ( -0.000000000000000000, -0.000000000000000000, -1.000000000000000000 ) ) ;
#282 = DIRECTION ( 'NONE',  ( -1.000000000000000000, 0.000000000000000000, 0.000000000000000000 ) ) ;
#283 = EDGE_CURVE ( 'NONE', #417, #553, #532, .T. ) ;
#284 = CARTESIAN_POINT ( 'NONE',  ( 14.54353271799786462, 1.738692345779120574, -104.2955803164349646 ) ) ;
#285 = ORIENTED_EDGE ( 'NONE', *, *, #64, .T. ) ;
#286 = CLOSED_SHELL ( 'NONE', ( #428, #38, #230, #379, #260, #77, #243, #539, #620, #167, #291, #515, #21, #420, #640, #440, #57, #658, #173, #96, #248 ) ) ;
#287 = PLANE ( 'NONE',  #483 ) ;
#288 = LOCAL_TIME ( 10, 35, 51.00000000000000000, #527 ) ;
#289 = EDGE_LOOP ( 'NONE', ( #376, #588, #253, #46 ) ) ;
#290 = DIRECTION ( 'NONE',  ( 2.891205793294678080E-17, 1.000000000000000000, 0.000000000000000000 ) ) ;
#291 = ADVANCED_FACE ( 'NONE', ( #122 ), #350, .F. ) ;
#292 = CARTESIAN_POINT ( 'NONE',  ( 13.24999999999999822, 46.53999999999997073, -104.2955803164349646 ) ) ;
#293 = ORIENTED_EDGE ( 'NONE', *, *, #477, .T. ) ;
#294 = DIRECTION ( 'NONE',  ( 1.000000000000000000, 0.000000000000000000, 0.000000000000000000 ) ) ;
#295 = DIRECTION ( 'NONE',  ( 1.000000000000000000, 1.387778780781445429E-16, 0.000000000000000000 ) ) ;
#296 = ORIENTED_EDGE ( 'NONE', *, *, #578, .F. ) ;
#297 = EDGE_CURVE ( 'NONE', #100, #718, #582, .T. ) ;
#298 = FACE_BOUND ( 'NONE', #153, .T. ) ;
#299 = CIRCLE ( 'NONE', #123, 2.500000000000000444 ) ;
#300 = LOCAL_TIME ( 10, 35, 51.00000000000000000, #214 ) ;
#301 = PERSON_AND_ORGANIZATION ( #7, #326 ) ;
#302 = CARTESIAN_POINT ( 'NONE',  ( 80.00000000000005684, 14.14999999999994884, -123.2955803164349646 ) ) ;
#303 = ORIENTED_EDGE ( 'NONE', *, *, #48, .T. ) ;
#304 = CARTESIAN_POINT ( 'NONE',  ( 17.95646728200211584, 49.53999999999996362, -93.82610086423677842 ) ) ;
#305 = VERTEX_POINT ( 'NONE', #88 ) ;
#306 = DIRECTION ( 'NONE',  ( -2.891205793294678080E-17, -1.000000000000000000, 0.000000000000000000 ) ) ;
#307 = DESIGN_CONTEXT ( 'detailed design', #470, 'design' ) ;
#308 = DIRECTION ( 'NONE',  ( -1.000000000000000000, 0.000000000000000000, 0.000000000000000000 ) ) ;
#309 = VERTEX_POINT ( 'NONE', #42 ) ;
#310 = CIRCLE ( 'NONE', #455, 6.150000000000006573 ) ;
#311 = VECTOR ( 'NONE', #170, 1000.000000000000000 ) ;
#312 = ORIENTED_EDGE ( 'NONE', *, *, #128, .F. ) ;
#313 = CARTESIAN_POINT ( 'NONE',  ( 14.54353271799786462, 49.53999999999996362, -154.9955803164349675 ) ) ;
#314 = CARTESIAN_POINT ( 'NONE',  ( 13.24999999999998401, 20.29999999999997229, -123.2955803164349646 ) ) ;
#315 = ORIENTED_EDGE ( 'NONE', *, *, #511, .F. ) ;
#316 = EDGE_CURVE ( 'NONE', #15, #568, #322, .T. ) ;
#317 = PLANE ( 'NONE',  #180 ) ;
#318 = DIRECTION ( 'NONE',  ( -1.000000000000000000, 1.387778780781445676E-16, -0.000000000000000000 ) ) ;
#319 = ORIENTED_EDGE ( 'NONE', *, *, #164, .F. ) ;
#320 = EDGE_LOOP ( 'NONE', ( #45, #418, #528, #703 ) ) ;
#321 = CC_DESIGN_PERSON_AND_ORGANIZATION_ASSIGNMENT ( #30, #661, ( #115 ) ) ;
#322 = LINE ( 'NONE', #555, #444 ) ;
#323 = ORIENTED_EDGE ( 'NONE', *, *, #721, .T. ) ;
#324 = VECTOR ( 'NONE', #130, 1000.000000000000227 ) ;
#325 = ORIENTED_EDGE ( 'NONE', *, *, #240, .F. ) ;
#326 = ORGANIZATION ( 'UNSPECIFIED', 'UNSPECIFIED', '' ) ;
#327 = APPROVAL_PERSON_ORGANIZATION ( #109, #276, #181 ) ;
#328 = PERSON_AND_ORGANIZATION_ROLE ( 'creator' ) ;
#329 = EDGE_CURVE ( 'NONE', #364, #143, #299, .T. ) ;
#330 = CARTESIAN_POINT ( 'NONE',  ( 14.54353271799786462, 1.738692345779120574, -93.82610086423677842 ) ) ;
#331 = ORIENTED_EDGE ( 'NONE', *, *, #223, .F. ) ;
#332 = DIRECTION ( 'NONE',  ( 0.000000000000000000, -0.000000000000000000, -1.000000000000000000 ) ) ;
#333 = CC_DESIGN_PERSON_AND_ORGANIZATION_ASSIGNMENT ( #20, #476, ( #623 ) ) ;
#334 = DIRECTION ( 'NONE',  ( 0.000000000000000000, 1.000000000000000000, 0.000000000000000000 ) ) ;
#335 = CARTESIAN_POINT ( 'NONE',  ( 19.24999999999999645, 46.53999999999997073, -104.2955803164349646 ) ) ;
#336 = VECTOR ( 'NONE', #386, 1000.000000000000000 ) ;
#337 = PLANE ( 'NONE',  #249 ) ;
#338 = APPROVAL_STATUS ( 'not_yet_approved' ) ;
#339 = AXIS2_PLACEMENT_3D ( 'NONE', #566, #52, #378 ) ;
#340 = DIRECTION ( 'NONE',  ( 1.000000000000000000, 1.387778780781445429E-16, 0.000000000000000000 ) ) ;
#341 = EDGE_CURVE ( 'NONE', #417, #598, #246, .T. ) ;
#342 = FACE_BOUND ( 'NONE', #523, .T. ) ;
#343 = CARTESIAN_POINT ( 'NONE',  ( 17.95646728200211584, 49.53999999999996362, -104.2955803164349646 ) ) ;
#344 = VECTOR ( 'NONE', #408, 1000.000000000000000 ) ;
#345 = DIRECTION ( 'NONE',  ( 0.000000000000000000, -0.000000000000000000, 1.000000000000000000 ) ) ;
#346 = AXIS2_PLACEMENT_3D ( 'NONE', #576, #66, #684 ) ;
#347 = EDGE_CURVE ( 'NONE', #480, #15, #366, .T. ) ;
#348 =( NAMED_UNIT ( * ) PLANE_ANGLE_UNIT ( ) SI_UNIT ( $, .RADIAN. ) );
#349 = EDGE_LOOP ( 'NONE', ( #369, #461, #432, #140 ) ) ;
#350 = PLANE ( 'NONE',  #656 ) ;
#351 = EDGE_CURVE ( 'NONE', #663, #309, #310, .T. ) ;
#352 = ORIENTED_EDGE ( 'NONE', *, *, #341, .F. ) ;
#353 = DIRECTION ( 'NONE',  ( 0.000000000000000000, 0.000000000000000000, -1.000000000000000000 ) ) ;
#354 = CARTESIAN_POINT ( 'NONE',  ( 19.24999999999999645, 46.53999999999997073, -154.9955803164349675 ) ) ;
#355 = VECTOR ( 'NONE', #719, 1000.000000000000000 ) ;
#356 = APPLICATION_PROTOCOL_DEFINITION ( 'international standard', 'config_control_design', 1994, #470 ) ;
#357 = DIRECTION ( 'NONE',  ( 1.000000000000000000, -2.891205793294678080E-17, 0.000000000000000000 ) ) ;
#358 = CARTESIAN_POINT ( 'NONE',  ( 14.54353271799786462, 49.53999999999996362, -93.82610086423677842 ) ) ;
#359 = PERSON_AND_ORGANIZATION ( #7, #326 ) ;
#360 = VERTEX_POINT ( 'NONE', #705 ) ;
#361 = LINE ( 'NONE', #592, #279 ) ;
#362 = PLANE ( 'NONE',  #689 ) ;
#363 = ORIENTED_EDGE ( 'NONE', *, *, #633, .F. ) ;
#364 = VERTEX_POINT ( 'NONE', #502 ) ;
#365 = CARTESIAN_POINT ( 'NONE',  ( 13.24999999999999822, 4.738692345779115911, -104.2955803164349646 ) ) ;
#366 = LINE ( 'NONE', #24, #200 ) ;
#367 = ORIENTED_EDGE ( 'NONE', *, *, #460, .T. ) ;
#368 = EDGE_CURVE ( 'NONE', #84, #196, #601, .T. ) ;
#369 = ORIENTED_EDGE ( 'NONE', *, *, #449, .T. ) ;
#370 = CARTESIAN_POINT ( 'NONE',  ( 21.24999999999999645, 1.738692345779120574, -93.82610086423677842 ) ) ;
#371 = PERSON_AND_ORGANIZATION_ROLE ( 'classification_officer' ) ;
#372 = ORIENTED_EDGE ( 'NONE', *, *, #593, .F. ) ;
#373 = ORIENTED_EDGE ( 'NONE', *, *, #628, .F. ) ;
#374 = FACE_OUTER_BOUND ( 'NONE', #320, .T. ) ;
#375 = COORDINATED_UNIVERSAL_TIME_OFFSET ( 1, 0, .AHEAD. ) ;
#376 = ORIENTED_EDGE ( 'NONE', *, *, #593, .T. ) ;
#377 = VERTEX_POINT ( 'NONE', #313 ) ;
#378 = DIRECTION ( 'NONE',  ( 0.000000000000000000, -0.000000000000000000, -1.000000000000000000 ) ) ;
#379 = ADVANCED_FACE ( 'NONE', ( #39 ), #494, .F. ) ;
#380 = EDGE_LOOP ( 'NONE', ( #323, #157, #465, #707 ) ) ;
#381 = VECTOR ( 'NONE', #179, 1000.000000000000000 ) ;
#382 = VECTOR ( 'NONE', #699, 1000.000000000000000 ) ;
#383 = CARTESIAN_POINT ( 'NONE',  ( 17.95646728200211584, 49.53999999999996362, -104.2955803164349646 ) ) ;
#384 = EDGE_CURVE ( 'NONE', #305, #377, #190, .T. ) ;
#385 = DIRECTION ( 'NONE',  ( -1.000000000000000000, 0.000000000000000000, 0.000000000000000000 ) ) ;
#386 = DIRECTION ( 'NONE',  ( -0.000000000000000000, -0.000000000000000000, -1.000000000000000000 ) ) ;
#387 = ORIENTED_EDGE ( 'NONE', *, *, #449, .F. ) ;
#388 = CARTESIAN_POINT ( 'NONE',  ( 21.24999999999998579, 20.29999999999997229, -123.2955803164349646 ) ) ;
#389 = DIRECTION ( 'NONE',  ( 1.000000000000000000, 1.387778780781445429E-16, 0.000000000000000000 ) ) ;
#390 = DIRECTION ( 'NONE',  ( 1.000000000000000000, 0.000000000000000000, 0.000000000000000000 ) ) ;
#391 = LINE ( 'NONE', #58, #654 ) ;
#392 = EDGE_CURVE ( 'NONE', #199, #706, #80, .T. ) ;
#393 = VECTOR ( 'NONE', #629, 999.9999999999998863 ) ;
#394 = DIRECTION ( 'NONE',  ( -1.000000000000000000, -1.387778780781445429E-16, -0.000000000000000000 ) ) ;
#395 = VECTOR ( 'NONE', #550, 1000.000000000000000 ) ;
#396 = VECTOR ( 'NONE', #727, 1000.000000000000000 ) ;
#397 = LINE ( 'NONE', #513, #396 ) ;
#398 = CARTESIAN_POINT ( 'NONE',  ( 13.24999999999998401, 20.29999999999997229, -123.2955803164349646 ) ) ;
#399 = CARTESIAN_POINT ( 'NONE',  ( 11.24999999999999645, 49.53999999999996362, -104.2955803164349646 ) ) ;
#400 = PLANE ( 'NONE',  #131 ) ;
#401 = MECHANICAL_CONTEXT ( 'NONE', #148, 'mechanical' ) ;
#402 = DIRECTION ( 'NONE',  ( 1.387778780781445429E-16, -1.000000000000000000, 0.000000000000000000 ) ) ;
#403 = VERTEX_POINT ( 'NONE', #204 ) ;
#404 = VECTOR ( 'NONE', #257, 1000.000000000000000 ) ;
#405 = CC_DESIGN_DATE_AND_TIME_ASSIGNMENT ( #135, #675, ( #623 ) ) ;
#406 = DIRECTION ( 'NONE',  ( -0.000000000000000000, -0.000000000000000000, -1.000000000000000000 ) ) ;
#407 = CIRCLE ( 'NONE', #266, 6.150000000000006573 ) ;
#408 = DIRECTION ( 'NONE',  ( 1.000000000000000000, 0.000000000000000000, 0.000000000000000000 ) ) ;
#409 = DIRECTION ( 'NONE',  ( 0.000000000000000000, 1.000000000000000000, 0.000000000000000000 ) ) ;
#410 = EDGE_CURVE ( 'NONE', #143, #364, #278, .T. ) ;
#411 = ORIENTED_EDGE ( 'NONE', *, *, #522, .F. ) ;
#412 = DATE_AND_TIME ( #124, #473 ) ;
#413 = CARTESIAN_POINT ( 'NONE',  ( 16.24999999999999645, 41.03999999999996362, -97.22451250456947491 ) ) ;
#414 = APPROVAL_ROLE ( '' ) ;
#415 = VERTEX_POINT ( 'NONE', #29 ) ;
#416 = CARTESIAN_POINT ( 'NONE',  ( 13.24999999999998401, 20.29999999999996874, -123.2955803164349646 ) ) ;
#417 = VERTEX_POINT ( 'NONE', #193 ) ;
#418 = ORIENTED_EDGE ( 'NONE', *, *, #696, .T. ) ;
#419 = FACE_OUTER_BOUND ( 'NONE', #91, .T. ) ;
#420 = ADVANCED_FACE ( 'NONE', ( #374 ), #362, .F. ) ;
#421 = CARTESIAN_POINT ( 'NONE',  ( 13.24999999999998579, 6.299999999999970512, -123.2955803164349646 ) ) ;
#422 = PERSON_AND_ORGANIZATION ( #7, #326 ) ;
#423 = EDGE_LOOP ( 'NONE', ( #293, #424, #489, #352 ) ) ;
#424 = ORIENTED_EDGE ( 'NONE', *, *, #574, .T. ) ;
#425 = LINE ( 'NONE', #554, #617 ) ;
#426 = CARTESIAN_POINT ( 'NONE',  ( 14.54353271799786462, 49.53999999999996362, -93.82610086423677842 ) ) ;
#427 = VECTOR ( 'NONE', #579, 1000.000000000000000 ) ;
#428 = ADVANCED_FACE ( 'NONE', ( #611 ), #537, .F. ) ;
#429 = EDGE_LOOP ( 'NONE', ( #149, #698, #645, #662 ) ) ;
#430 = VECTOR ( 'NONE', #261, 1000.000000000000114 ) ;
#431 = VECTOR ( 'NONE', #92, 999.9999999999998863 ) ;
#432 = ORIENTED_EDGE ( 'NONE', *, *, #329, .T. ) ;
#433 = PLANE ( 'NONE',  #16 ) ;
#434 = CARTESIAN_POINT ( 'NONE',  ( 16.24999999999999645, 41.03999999999996362, -154.9955803164349675 ) ) ;
#435 = EDGE_LOOP ( 'NONE', ( #702, #269, #659, #36 ) ) ;
#436 = ORIENTED_EDGE ( 'NONE', *, *, #368, .T. ) ;
#437 = DIRECTION ( 'NONE',  ( 0.000000000000000000, 1.000000000000000000, 0.000000000000000000 ) ) ;
#438 = CARTESIAN_POINT ( 'NONE',  ( 19.24999999999999645, 4.738692345779115911, -93.82610086423677842 ) ) ;
#439 = EDGE_LOOP ( 'NONE', ( #105, #303 ) ) ;
#440 = ADVANCED_FACE ( 'NONE', ( #490 ), #98, .F. ) ;
#441 = FACE_OUTER_BOUND ( 'NONE', #380, .T. ) ;
#442 = DATE_AND_TIME ( #503, #458 ) ;
#443 = DIRECTION ( 'NONE',  ( 0.000000000000000000, 1.000000000000000000, 0.000000000000000000 ) ) ;
#444 = VECTOR ( 'NONE', #308, 1000.000000000000000 ) ;
#445 = VERTEX_POINT ( 'NONE', #421 ) ;
#446 = LOCAL_TIME ( 10, 35, 51.00000000000000000, #625 ) ;
#447 = FACE_OUTER_BOUND ( 'NONE', #549, .T. ) ;
#448 = DIRECTION ( 'NONE',  ( -1.000000000000000000, -1.387778780781445429E-16, -0.000000000000000000 ) ) ;
#449 = EDGE_CURVE ( 'NONE', #211, #161, #469, .T. ) ;
#450 = CARTESIAN_POINT ( 'NONE',  ( 13.24999999999999822, 4.738692345779115911, -93.82610086423677842 ) ) ;
#451 = DIRECTION ( 'NONE',  ( 1.000000000000000000, 0.000000000000000000, 0.000000000000000000 ) ) ;
#452 = CARTESIAN_POINT ( 'NONE',  ( 13.74999999999999645, 41.03999999999996362, -154.9955803164349675 ) ) ;
#453 = CC_DESIGN_PERSON_AND_ORGANIZATION_ASSIGNMENT ( #551, #328, ( #115 ) ) ;
#454 = CIRCLE ( 'NONE', #468, 14.00000000000000000 ) ;
#455 = AXIS2_PLACEMENT_3D ( 'NONE', #416, #606, #482 ) ;
#456 = CIRCLE ( 'NONE', #472, 14.00000000000000000 ) ;
#457 = CARTESIAN_POINT ( 'NONE',  ( 11.24999999999999645, 49.53999999999996362, -154.9955803164349675 ) ) ;
#458 = LOCAL_TIME ( 10, 35, 51.00000000000000000, #375 ) ;
#459 = PLANE ( 'NONE',  #587 ) ;
#460 = EDGE_CURVE ( 'NONE', #360, #403, #710, .T. ) ;
#461 = ORIENTED_EDGE ( 'NONE', *, *, #9, .T. ) ;
#462 = DIRECTION ( 'NONE',  ( 0.000000000000000000, -0.000000000000000000, 1.000000000000000000 ) ) ;
#463 = CARTESIAN_POINT ( 'NONE',  ( 11.24999999999999289, 1.738692345779120574, -93.82610086423677842 ) ) ;
#464 = DIRECTION ( 'NONE',  ( 1.000000000000000000, 0.000000000000000000, 0.000000000000000000 ) ) ;
#465 = ORIENTED_EDGE ( 'NONE', *, *, #709, .T. ) ;
#466 = EDGE_CURVE ( 'NONE', #84, #377, #134, .T. ) ;
#467 = CARTESIAN_POINT ( 'NONE',  ( 13.24999999999998401, 20.29999999999997229, -123.2955803164349646 ) ) ;
#468 = AXIS2_PLACEMENT_3D ( 'NONE', #314, #649, #552 ) ;
#469 = CIRCLE ( 'NONE', #497, 2.500000000000000444 ) ;
#470 = APPLICATION_CONTEXT ( 'configuration controlled 3d designs of mechanical parts and assemblies' ) ;
#471 = FACE_BOUND ( 'NONE', #250, .T. ) ;
#472 = AXIS2_PLACEMENT_3D ( 'NONE', #112, #394, #626 ) ;
#473 = LOCAL_TIME ( 10, 35, 51.00000000000000000, #129 ) ;
#474 = PERSON_AND_ORGANIZATION_ROLE ( 'design_owner' ) ;
#475 = FACE_BOUND ( 'NONE', #192, .T. ) ;
#476 = PERSON_AND_ORGANIZATION_ROLE ( 'creator' ) ;
#477 = EDGE_CURVE ( 'NONE', #417, #480, #516, .T. ) ;
#478 = ORIENTED_EDGE ( 'NONE', *, *, #486, .F. ) ;
#479 = LINE ( 'NONE', #74, #344 ) ;
#480 = VERTEX_POINT ( 'NONE', #670 ) ;
#481 = LINE ( 'NONE', #708, #382 ) ;
#482 = DIRECTION ( 'NONE',  ( 0.000000000000000000, 1.000000000000000000, 0.000000000000000000 ) ) ;
#483 = AXIS2_PLACEMENT_3D ( 'NONE', #521, #353, #586 ) ;
#484 = ORIENTED_EDGE ( 'NONE', *, *, #85, .F. ) ;
#485 = VERTEX_POINT ( 'NONE', #106 ) ;
#486 = EDGE_CURVE ( 'NONE', #309, #415, #508, .T. ) ;
#487 = DIRECTION ( 'NONE',  ( -0.3959401535119433380, -0.9182763172580129529, 0.000000000000000000 ) ) ;
#488 = ORIENTED_EDGE ( 'NONE', *, *, #466, .F. ) ;
#489 = ORIENTED_EDGE ( 'NONE', *, *, #519, .T. ) ;
#490 = FACE_OUTER_BOUND ( 'NONE', #499, .T. ) ;
#491 = ORIENTED_EDGE ( 'NONE', *, *, #316, .T. ) ;
#492 = ORIENTED_EDGE ( 'NONE', *, *, #297, .F. ) ;
#493 = DIRECTION ( 'NONE',  ( -0.000000000000000000, -0.000000000000000000, -1.000000000000000000 ) ) ;
#494 = CYLINDRICAL_SURFACE ( 'NONE', #529, 6.150000000000007461 ) ;
#495 = AXIS2_PLACEMENT_3D ( 'NONE', #621, #213, #222 ) ;
#496 = ORIENTED_EDGE ( 'NONE', *, *, #368, .F. ) ;
#497 = AXIS2_PLACEMENT_3D ( 'NONE', #142, #560, #651 ) ;
#498 = VECTOR ( 'NONE', #685, 1000.000000000000000 ) ;
#499 = EDGE_LOOP ( 'NONE', ( #436, #591, #81, #488 ) ) ;
#500 = CARTESIAN_POINT ( 'NONE',  ( 13.24999999999999822, 46.53999999999997073, -154.9955803164349675 ) ) ;
#501 = PRODUCT_DEFINITION_SHAPE ( 'NONE', 'NONE',  #623 ) ;
#502 = CARTESIAN_POINT ( 'NONE',  ( 18.75000000000000000, 41.03999999999996362, -154.9955803164349675 ) ) ;
#503 = CALENDAR_DATE ( 2026, 2, 6 ) ;
#504 = CARTESIAN_POINT ( 'NONE',  ( 18.75000000000000000, 41.03999999999996362, -97.22451250456947491 ) ) ;
#505 = ORIENTED_EDGE ( 'NONE', *, *, #206, .F. ) ;
#506 = DIRECTION ( 'NONE',  ( 0.000000000000000000, -1.000000000000000000, 0.000000000000000000 ) ) ;
#507 = ORIENTED_EDGE ( 'NONE', *, *, #111, .F. ) ;
#508 = LINE ( 'NONE', #572, #311 ) ;
#509 = LINE ( 'NONE', #450, #427 ) ;
#510 = CIRCLE ( 'NONE', #75, 6.150000000000006573 ) ;
#511 = EDGE_CURVE ( 'NONE', #262, #596, #397, .T. ) ;
#512 = CC_DESIGN_APPROVAL ( #548, ( #115 ) ) ;
#513 = CARTESIAN_POINT ( 'NONE',  ( 13.24999999999998224, 34.29999999999996874, -123.2955803164349646 ) ) ;
#514 = CARTESIAN_POINT ( 'NONE',  ( 11.24999999999999289, 1.738692345779120574, -104.2955803164349646 ) ) ;
#515 = ADVANCED_FACE ( 'NONE', ( #220 ), #577, .F. ) ;
#516 = LINE ( 'NONE', #1, #564 ) ;
#517 = CARTESIAN_POINT ( 'NONE',  ( 13.74999999999999645, 41.03999999999996362, -97.22451250456947491 ) ) ;
#518 = CARTESIAN_POINT ( 'NONE',  ( 13.24999999999998579, 6.299999999999970512, -123.2955803164349646 ) ) ;
#519 = EDGE_CURVE ( 'NONE', #556, #598, #76, .T. ) ;
#520 = AXIS2_PLACEMENT_3D ( 'NONE', #667, #506, #332 ) ;
#521 = CARTESIAN_POINT ( 'NONE',  ( -170.0000000000000000, 1.638692345779117820, -104.2955803164349646 ) ) ;
#522 = EDGE_CURVE ( 'NONE', #377, #73, #10, .T. ) ;
#523 = EDGE_LOOP ( 'NONE', ( #618, #540 ) ) ;
#524 = CARTESIAN_POINT ( 'NONE',  ( 21.24999999999998934, 6.299999999999970512, -123.2955803164349646 ) ) ;
#525 = ORIENTED_EDGE ( 'NONE', *, *, #530, .T. ) ;
#526 = CARTESIAN_POINT ( 'NONE',  ( 21.24999999999999645, 49.53999999999996362, -154.9955803164349675 ) ) ;
#527 = COORDINATED_UNIVERSAL_TIME_OFFSET ( 1, 0, .AHEAD. ) ;
#528 = ORIENTED_EDGE ( 'NONE', *, *, #392, .T. ) ;
#529 = AXIS2_PLACEMENT_3D ( 'NONE', #715, #318, #701 ) ;
#530 = EDGE_CURVE ( 'NONE', #718, #84, #681, .T. ) ;
#531 = VECTOR ( 'NONE', #493, 1000.000000000000000 ) ;
#532 = LINE ( 'NONE', #687, #159 ) ;
#533 = CARTESIAN_POINT ( 'NONE',  ( 17.95646728200211584, 1.738692345779120574, -154.9955803164349675 ) ) ;
#534 = DIRECTION ( 'NONE',  ( -1.000000000000000000, 0.000000000000000000, -0.000000000000000000 ) ) ;
#535 = APPROVAL_DATE_TIME ( #126, #647 ) ;
#536 = ORIENTED_EDGE ( 'NONE', *, *, #410, .T. ) ;
#537 = CYLINDRICAL_SURFACE ( 'NONE', #226, 2.500000000000000444 ) ;
#538 = DIRECTION ( 'NONE',  ( 0.3959401535119468352, 0.9182763172580112876, 0.000000000000000000 ) ) ;
#539 = ADVANCED_FACE ( 'NONE', ( #691, #419 ), #317, .F. ) ;
#540 = ORIENTED_EDGE ( 'NONE', *, *, #329, .F. ) ;
#541 = CARTESIAN_POINT ( 'NONE',  ( 17.95646728200211584, 1.738692345779120574, -93.82610086423677842 ) ) ;
#542 = VECTOR ( 'NONE', #671, 1000.000000000000000 ) ;
#543 = CARTESIAN_POINT ( 'NONE',  ( 16.24999999999999645, 41.03999999999996362, -97.22451250456947491 ) ) ;
#544 = DATE_AND_TIME ( #114, #446 ) ;
#545 = VECTOR ( 'NONE', #597, 1000.000000000000000 ) ;
#546 = ORIENTED_EDGE ( 'NONE', *, *, #64, .F. ) ;
#547 = CC_DESIGN_APPROVAL ( #276, ( #716 ) ) ;
#548 = APPROVAL ( #236, 'UNSPECIFIED' ) ;
#549 = EDGE_LOOP ( 'NONE', ( #331, #40, #136, #141, #201, #363, #484, #325, #258, #411, #26, #175 ) ) ;
#550 = DIRECTION ( 'NONE',  ( -1.000000000000000000, -0.000000000000000000, -0.000000000000000000 ) ) ;
#551 = PERSON_AND_ORGANIZATION ( #7, #326 ) ;
#552 = DIRECTION ( 'NONE',  ( 1.239088197126290817E-16, -1.000000000000000000, 0.000000000000000000 ) ) ;
#553 = VERTEX_POINT ( 'NONE', #197 ) ;
#554 = CARTESIAN_POINT ( 'NONE',  ( 11.24999999999999289, 1.738692345779120574, -93.82610086423677842 ) ) ;
#555 = CARTESIAN_POINT ( 'NONE',  ( 13.24999999999999822, 4.738692345779115911, -104.2955803164349646 ) ) ;
#556 = VERTEX_POINT ( 'NONE', #95 ) ;
#557 = ORIENTED_EDGE ( 'NONE', *, *, #154, .T. ) ;
#558 = DIRECTION ( 'NONE',  ( -0.000000000000000000, -0.000000000000000000, -1.000000000000000000 ) ) ;
#559 = EDGE_CURVE ( 'NONE', #712, #415, #407, .T. ) ;
#560 = DIRECTION ( 'NONE',  ( -0.000000000000000000, -0.000000000000000000, 1.000000000000000000 ) ) ;
#561 = AXIS2_PLACEMENT_3D ( 'NONE', #4, #113, #282 ) ;
#562 = EDGE_LOOP ( 'NONE', ( #491, #195, #32, #665 ) ) ;
#563 = VECTOR ( 'NONE', #281, 1000.000000000000000 ) ;
#564 = VECTOR ( 'NONE', #385, 1000.000000000000000 ) ;
#565 = ORIENTED_EDGE ( 'NONE', *, *, #530, .F. ) ;
#566 = CARTESIAN_POINT ( 'NONE',  ( 13.24999999999999822, 46.53999999999997073, -93.82610086423677842 ) ) ;
#567 = CYLINDRICAL_SURFACE ( 'NONE', #144, 14.00000000000000000 ) ;
#568 = VERTEX_POINT ( 'NONE', #365 ) ;
#569 = DIRECTION ( 'NONE',  ( -1.000000000000000000, -1.387778780781445429E-16, -0.000000000000000000 ) ) ;
#570 = CARTESIAN_POINT ( 'NONE',  ( 19.24999999999999645, 46.53999999999997073, -93.82610086423677842 ) ) ;
#571 = EDGE_CURVE ( 'NONE', #73, #652, #82, .T. ) ;
#572 = CARTESIAN_POINT ( 'NONE',  ( 80.00000000000005684, 26.44999999999996732, -123.2955803164349646 ) ) ;
#573 = CARTESIAN_POINT ( 'NONE',  ( 14.54353271799786462, 49.53999999999996362, -104.2955803164349646 ) ) ;
#574 = EDGE_CURVE ( 'NONE', #480, #556, #255, .T. ) ;
#575 = LINE ( 'NONE', #335, #263 ) ;
#576 = CARTESIAN_POINT ( 'NONE',  ( 0.000000000000000000, 0.000000000000000000, 0.000000000000000000 ) ) ;
#577 = PLANE ( 'NONE',  #65 ) ;
#578 = EDGE_CURVE ( 'NONE', #718, #73, #361, .T. ) ;
#579 = DIRECTION ( 'NONE',  ( -0.000000000000000000, -0.000000000000000000, -1.000000000000000000 ) ) ;
#580 = CC_DESIGN_PERSON_AND_ORGANIZATION_ASSIGNMENT ( #238, #474, ( #612 ) ) ;
#581 = DIRECTION ( 'NONE',  ( -1.000000000000000000, 0.000000000000000000, 0.000000000000000000 ) ) ;
#582 = LINE ( 'NONE', #69, #27 ) ;
#583 = CARTESIAN_POINT ( 'NONE',  ( 13.25000000000001243, 46.53999999999997073, -104.2955803164349646 ) ) ;
#584 = EDGE_CURVE ( 'NONE', #100, #652, #425, .T. ) ;
#585 = ORIENTED_EDGE ( 'NONE', *, *, #578, .T. ) ;
#586 = DIRECTION ( 'NONE',  ( -1.000000000000000000, 0.000000000000000000, -0.000000000000000000 ) ) ;
#587 = AXIS2_PLACEMENT_3D ( 'NONE', #330, #127, #683 ) ;
#588 = ORIENTED_EDGE ( 'NONE', *, *, #584, .T. ) ;
#589 = CIRCLE ( 'NONE', #55, 6.150000000000006573 ) ;
#590 = CYLINDRICAL_SURFACE ( 'NONE', #102, 6.150000000000007461 ) ;
#591 = ORIENTED_EDGE ( 'NONE', *, *, #189, .T. ) ;
#592 = CARTESIAN_POINT ( 'NONE',  ( 11.24999999999999645, 49.53999999999996362, -93.82610086423677842 ) ) ;
#593 = EDGE_CURVE ( 'NONE', #360, #100, #245, .T. ) ;
#594 = CARTESIAN_POINT ( 'NONE',  ( 14.54353271799786462, 49.53999999999996362, -104.2955803164349646 ) ) ;
#595 = APPROVAL_ROLE ( '' ) ;
#596 = VERTEX_POINT ( 'NONE', #37 ) ;
#597 = DIRECTION ( 'NONE',  ( -0.000000000000000000, -0.000000000000000000, -1.000000000000000000 ) ) ;
#598 = VERTEX_POINT ( 'NONE', #259 ) ;
#599 = ORIENTED_EDGE ( 'NONE', *, *, #694, .T. ) ;
#600 = CARTESIAN_POINT ( 'NONE',  ( 11.24999999999999289, 1.738692345779120574, -104.2955803164349646 ) ) ;
#601 = LINE ( 'NONE', #594, #431 ) ;
#602 = VECTOR ( 'NONE', #306, 1000.000000000000000 ) ;
#603 = ORIENTED_EDGE ( 'NONE', *, *, #128, .T. ) ;
#604 = APPROVAL_PERSON_ORGANIZATION ( #359, #548, #595 ) ;
#605 = ORIENTED_EDGE ( 'NONE', *, *, #351, .T. ) ;
#606 = DIRECTION ( 'NONE',  ( -1.000000000000000000, -1.387778780781445429E-16, -0.000000000000000000 ) ) ;
#607 = EDGE_LOOP ( 'NONE', ( #270, #722, #613, #86, #496, #565, #492, #372, #41, #67, #185, #254 ) ) ;
#608 = ORIENTED_EDGE ( 'NONE', *, *, #223, .T. ) ;
#609 = EDGE_CURVE ( 'NONE', #598, #199, #481, .T. ) ;
#610 = DIRECTION ( 'NONE',  ( 1.000000000000000000, -2.891205793294678080E-17, 0.000000000000000000 ) ) ;
#611 = FACE_OUTER_BOUND ( 'NONE', #349, .T. ) ;
#612 = PRODUCT ( 'feed belt tensioner 2', 'feed belt tensioner 2', '', ( #401 ) ) ;
#613 = ORIENTED_EDGE ( 'NONE', *, *, #103, .F. ) ;
#614 = VERTEX_POINT ( 'NONE', #713 ) ;
#615 = FACE_OUTER_BOUND ( 'NONE', #6, .T. ) ;
#616 = ORIENTED_EDGE ( 'NONE', *, *, #511, .T. ) ;
#617 = VECTOR ( 'NONE', #28, 1000.000000000000000 ) ;
#618 = ORIENTED_EDGE ( 'NONE', *, *, #410, .F. ) ;
#619 = LINE ( 'NONE', #50, #5 ) ;
#620 = ADVANCED_FACE ( 'NONE', ( #203 ), #433, .F. ) ;
#621 = CARTESIAN_POINT ( 'NONE',  ( 13.24999999999998401, 20.29999999999997229, -123.2955803164349646 ) ) ;
#622 = CARTESIAN_POINT ( 'NONE',  ( 11.24999999999999645, 20.29999999999996874, -123.2955803164349646 ) ) ;
#623 = PRODUCT_DEFINITION ( 'UNKNOWN', '', #115, #307 ) ;
#624 = CARTESIAN_POINT ( 'NONE',  ( 19.24999999999999645, 4.738692345779115911, -93.82610086423677842 ) ) ;
#625 = COORDINATED_UNIVERSAL_TIME_OFFSET ( 1, 0, .AHEAD. ) ;
#626 = DIRECTION ( 'NONE',  ( 2.478176394252581634E-16, -1.000000000000000000, 0.000000000000000000 ) ) ;
#627 = LINE ( 'NONE', #570, #169 ) ;
#628 = EDGE_CURVE ( 'NONE', #596, #232, #643, .T. ) ;
#629 = DIRECTION ( 'NONE',  ( 0.3959401535119432824, -0.9182763172580129529, 0.000000000000000000 ) ) ;
#630 = ORIENTED_EDGE ( 'NONE', *, *, #351, .F. ) ;
#631 = DIRECTION ( 'NONE',  ( 0.000000000000000000, 1.000000000000000000, 0.000000000000000000 ) ) ;
#632 = DIRECTION ( 'NONE',  ( -0.000000000000000000, 0.000000000000000000, 1.000000000000000000 ) ) ;
#633 = EDGE_CURVE ( 'NONE', #273, #614, #271, .T. ) ;
#634 = EDGE_LOOP ( 'NONE', ( #133, #99 ) ) ;
#635 = DIRECTION ( 'NONE',  ( -1.000000000000000000, 1.387778780781445676E-16, -0.000000000000000000 ) ) ;
#636 = PRODUCT_RELATED_PRODUCT_CATEGORY ( 'detail', '', ( #612 ) ) ;
#637 = LINE ( 'NONE', #292, #228 ) ;
#638 = LINE ( 'NONE', #302, #381 ) ;
#639 = VECTOR ( 'NONE', #406, 1000.000000000000000 ) ;
#640 = ADVANCED_FACE ( 'NONE', ( #441 ), #155, .F. ) ;
#641 = AXIS2_PLACEMENT_3D ( 'NONE', #413, #182, #581 ) ;
#642 = CARTESIAN_POINT ( 'NONE',  ( 11.24999999999999645, 20.29999999999996874, -123.2955803164349646 ) ) ;
#643 = CIRCLE ( 'NONE', #172, 14.00000000000000000 ) ;
#644 = DIRECTION ( 'NONE',  ( -0.9182763172580129529, 0.3959401535119433380, 0.000000000000000000 ) ) ;
#645 = ORIENTED_EDGE ( 'NONE', *, *, #283, .F. ) ;
#646 = DIRECTION ( 'NONE',  ( 2.891205793294678080E-17, 1.000000000000000000, 0.000000000000000000 ) ) ;
#647 = APPROVAL ( #22, 'UNSPECIFIED' ) ;
#648 = CARTESIAN_POINT ( 'NONE',  ( 14.54353271799786462, 49.53999999999996362, -154.9955803164349675 ) ) ;
#649 = DIRECTION ( 'NONE',  ( -1.000000000000000000, -1.387778780781445429E-16, -0.000000000000000000 ) ) ;
#650 = ORIENTED_EDGE ( 'NONE', *, *, #206, .T. ) ;
#651 = DIRECTION ( 'NONE',  ( -1.000000000000000000, 0.000000000000000000, 0.000000000000000000 ) ) ;
#652 = VERTEX_POINT ( 'NONE', #676 ) ;
#653 = ORIENTED_EDGE ( 'NONE', *, *, #119, .T. ) ;
#654 = VECTOR ( 'NONE', #3, 1000.000000000000000 ) ;
#655 = CARTESIAN_POINT ( 'NONE',  ( 16.24999999999999645, 41.03999999999996362, -154.9955803164349675 ) ) ;
#656 = AXIS2_PLACEMENT_3D ( 'NONE', #463, #631, #345 ) ;
#657 = EDGE_LOOP ( 'NONE', ( #152, #603, #156, #536 ) ) ;
#658 = ADVANCED_FACE ( 'NONE', ( #615 ), #337, .F. ) ;
#659 = ORIENTED_EDGE ( 'NONE', *, *, #216, .T. ) ;
#660 = DIRECTION ( 'NONE',  ( 0.000000000000000000, 0.000000000000000000, -1.000000000000000000 ) ) ;
#661 = PERSON_AND_ORGANIZATION_ROLE ( 'design_supplier' ) ;
#662 = ORIENTED_EDGE ( 'NONE', *, *, #341, .T. ) ;
#663 = VERTEX_POINT ( 'NONE', #158 ) ;
#664 = DIRECTION ( 'NONE',  ( 0.9182763172580113986, -0.3959401535119468907, 0.000000000000000000 ) ) ;
#665 = ORIENTED_EDGE ( 'NONE', *, *, #121, .F. ) ;
#666 = DIRECTION ( 'NONE',  ( 0.9182763172580113986, 0.3959401535119468907, -0.000000000000000000 ) ) ;
#667 = CARTESIAN_POINT ( 'NONE',  ( 11.24999999999999645, 49.53999999999996362, -93.82610086423677842 ) ) ;
#668 = VECTOR ( 'NONE', #390, 1000.000000000000000 ) ;
#669 = EDGE_LOOP ( 'NONE', ( #711, #145, #31, #505 ) ) ;
#670 = CARTESIAN_POINT ( 'NONE',  ( 17.95646728200212294, 1.738692345779127457, -104.2955803164349646 ) ) ;
#671 = DIRECTION ( 'NONE',  ( -0.000000000000000000, -0.000000000000000000, -1.000000000000000000 ) ) ;
#672 = LINE ( 'NONE', #383, #668 ) ;
#673 = CARTESIAN_POINT ( 'NONE',  ( 17.95646728200211584, 1.738692345779120574, -93.82610086423677842 ) ) ;
#674 = DIRECTION ( 'NONE',  ( 1.239088197126290817E-16, -1.000000000000000000, 0.000000000000000000 ) ) ;
#675 = DATE_TIME_ROLE ( 'creation_date' ) ;
#676 = CARTESIAN_POINT ( 'NONE',  ( 11.24999999999999289, 1.738692345779120574, -154.9955803164349675 ) ) ;
#677 = LINE ( 'NONE', #517, #542 ) ;
#678 = AXIS2_PLACEMENT_3D ( 'NONE', #467, #295, #402 ) ;
#679 = EDGE_CURVE ( 'NONE', #309, #663, #589, .T. ) ;
#680 = DIRECTION ( 'NONE',  ( 1.000000000000000000, -2.891205793294678080E-17, 0.000000000000000000 ) ) ;
#681 = LINE ( 'NONE', #178, #726 ) ;
#682 = APPROVAL_DATE_TIME ( #412, #276 ) ;
#683 = DIRECTION ( 'NONE',  ( 0.3959401535119433380, -0.9182763172580129529, 0.000000000000000000 ) ) ;
#684 = DIRECTION ( 'NONE',  ( 1.000000000000000000, 0.000000000000000000, 0.000000000000000000 ) ) ;
#685 = DIRECTION ( 'NONE',  ( -1.000000000000000000, -0.000000000000000000, -0.000000000000000000 ) ) ;
#686 = EDGE_CURVE ( 'NONE', #239, #553, #672, .T. ) ;
#687 = CARTESIAN_POINT ( 'NONE',  ( 21.24999999999999289, 1.638692345779117820, -104.2955803164349646 ) ) ;
#688 = VECTOR ( 'NONE', #51, 1000.000000000000114 ) ;
#689 = AXIS2_PLACEMENT_3D ( 'NONE', #304, #209, #83 ) ;
#690 = VECTOR ( 'NONE', #451, 1000.000000000000000 ) ;
#691 = FACE_BOUND ( 'NONE', #439, .T. ) ;
#692 = LINE ( 'NONE', #120, #639 ) ;
#693 = FACE_OUTER_BOUND ( 'NONE', #657, .T. ) ;
#694 = EDGE_CURVE ( 'NONE', #232, #596, #456, .T. ) ;
#695 = LINE ( 'NONE', #241, #324 ) ;
#696 = EDGE_CURVE ( 'NONE', #553, #199, #619, .T. ) ;
#697 = VECTOR ( 'NONE', #389, 1000.000000000000000 ) ;
#698 = ORIENTED_EDGE ( 'NONE', *, *, #696, .F. ) ;
#699 = DIRECTION ( 'NONE',  ( 0.000000000000000000, 1.000000000000000000, 0.000000000000000000 ) ) ;
#700 = VECTOR ( 'NONE', #68, 1000.000000000000000 ) ;
#701 = DIRECTION ( 'NONE',  ( 0.000000000000000000, -1.000000000000000000, 0.000000000000000000 ) ) ;
#702 = ORIENTED_EDGE ( 'NONE', *, *, #347, .T. ) ;
#703 = ORIENTED_EDGE ( 'NONE', *, *, #119, .F. ) ;
#704 = DIRECTION ( 'NONE',  ( 0.000000000000000000, 1.000000000000000000, 0.000000000000000000 ) ) ;
#705 = CARTESIAN_POINT ( 'NONE',  ( 14.54353271799786462, 1.738692345779120574, -104.2955803164349646 ) ) ;
#706 = VERTEX_POINT ( 'NONE', #274 ) ;
#707 = ORIENTED_EDGE ( 'NONE', *, *, #189, .F. ) ;
#708 = CARTESIAN_POINT ( 'NONE',  ( 21.24999999999999289, 60.00000000000000711, -154.9955803164349675 ) ) ;
#709 = EDGE_CURVE ( 'NONE', #485, #305, #56, .T. ) ;
#710 = LINE ( 'NONE', #198, #355 ) ;
#711 = ORIENTED_EDGE ( 'NONE', *, *, #679, .F. ) ;
#712 = VERTEX_POINT ( 'NONE', #61 ) ;
#713 = CARTESIAN_POINT ( 'NONE',  ( 19.24999999999999645, 4.738692345779115911, -154.9955803164349675 ) ) ;
#714 = CIRCLE ( 'NONE', #561, 2.500000000000000444 ) ;
#715 = CARTESIAN_POINT ( 'NONE',  ( 80.00000000000005684, 20.29999999999995808, -123.2955803164349646 ) ) ;
#716 = SECURITY_CLASSIFICATION ( '', '', #252 ) ;
#717 = ORIENTED_EDGE ( 'NONE', *, *, #584, .F. ) ;
#718 = VERTEX_POINT ( 'NONE', #399 ) ;
#719 = DIRECTION ( 'NONE',  ( -0.000000000000000000, -0.000000000000000000, -1.000000000000000000 ) ) ;
#720 = CARTESIAN_POINT ( 'NONE',  ( 19.24999999999999645, 4.738692345779115911, -104.2955803164349646 ) ) ;
#721 = EDGE_CURVE ( 'NONE', #196, #244, #637, .T. ) ;
#722 = ORIENTED_EDGE ( 'NONE', *, *, #686, .F. ) ;
#723 = LINE ( 'NONE', #284, #393 ) ;
#724 = ORIENTED_EDGE ( 'NONE', *, *, #522, .T. ) ;
#725 = DIRECTION ( 'NONE',  ( -0.000000000000000000, 0.000000000000000000, 1.000000000000000000 ) ) ;
#726 = VECTOR ( 'NONE', #294, 1000.000000000000000 ) ;
#727 = DIRECTION ( 'NONE',  ( 1.000000000000000000, 1.387778780781445429E-16, 0.000000000000000000 ) ) ;
#728 = DIRECTION ( 'NONE',  ( -0.3959401535119468352, 0.9182763172580112876, 0.000000000000000000 ) ) ;
#729 = CALENDAR_DATE ( 2026, 2, 6 ) ;
ENDSEC;
END-ISO-10303-21;
