ISO-10303-21;
HEADER;
FILE_DESCRIPTION (( 'STEP AP203' ),
    '1' );
FILE_NAME ('feed bearing row holder 2.STEP',
    '2026-06-02T08:37:04',
    ( '' ),
    ( '' ),
    'SwSTEP 2.0',
    'SolidWorks 2024',
    '' );
FILE_SCHEMA (( 'CONFIG_CONTROL_DESIGN' ));
ENDSEC;

DATA;
#1 = EDGE_CURVE ( 'NONE', #158, #344, #1073, .T. ) ;
#2 = PERSON_AND_ORGANIZATION_ROLE ( 'creator' ) ;
#3 = DIRECTION ( 'NONE',  ( -6.938893903907223447E-16, -1.000000000000000000, -0.000000000000000000 ) ) ;
#4 = LINE ( 'NONE', #96, #414 ) ;
#5 = CARTESIAN_POINT ( 'NONE',  ( 0.000000000000000000, 0.000000000000000000, 0.000000000000000000 ) ) ;
#6 = EDGE_CURVE ( 'NONE', #1048, #291, #255, .T. ) ;
#7 = EDGE_LOOP ( 'NONE', ( #358, #485, #794, #512 ) ) ;
#8 = AXIS2_PLACEMENT_3D ( 'NONE', #19, #646, #821 ) ;
#9 = VERTEX_POINT ( 'NONE', #730 ) ;
#10 = VECTOR ( 'NONE', #569, 1000.000000000000114 ) ;
#11 = VECTOR ( 'NONE', #354, 1000.000000000000000 ) ;
#12 = MECHANICAL_CONTEXT ( 'NONE', #921, 'mechanical' ) ;
#13 = CARTESIAN_POINT ( 'NONE',  ( 13.05855278365821270, -8.325000000000002842, -130.2705803164349447 ) ) ;
#14 = ORIENTED_EDGE ( 'NONE', *, *, #880, .T. ) ;
#15 = VECTOR ( 'NONE', #242, 1000.000000000000000 ) ;
#16 = ORIENTED_EDGE ( 'NONE', *, *, #769, .T. ) ;
#17 = DIRECTION ( 'NONE',  ( 1.000000000000000000, 0.000000000000000000, 0.000000000000000000 ) ) ;
#18 = DATE_AND_TIME ( #811, #113 ) ;
#19 = CARTESIAN_POINT ( 'NONE',  ( 19.44144721634173223, 3.144479452198242875, -16.32500000000000639 ) ) ;
#20 = CARTESIAN_POINT ( 'NONE',  ( 14.05855278365822159, 3.144479452198249536, -133.2705803164349732 ) ) ;
#21 = EDGE_CURVE ( 'NONE', #375, #809, #307, .T. ) ;
#22 = ORIENTED_EDGE ( 'NONE', *, *, #996, .F. ) ;
#23 = CARTESIAN_POINT ( 'NONE',  ( 13.05855278365817718, -60.00000000000002132, -130.2705803164349447 ) ) ;
#24 = EDGE_LOOP ( 'NONE', ( #876, #588, #1085, #422 ) ) ;
#25 = EDGE_CURVE ( 'NONE', #461, #37, #1098, .T. ) ;
#26 = EDGE_CURVE ( 'NONE', #635, #394, #656, .T. ) ;
#27 = AXIS2_PLACEMENT_3D ( 'NONE', #1106, #672, #56 ) ;
#28 = ORIENTED_EDGE ( 'NONE', *, *, #936, .F. ) ;
#29 = ORIENTED_EDGE ( 'NONE', *, *, #48, .F. ) ;
#30 = CARTESIAN_POINT ( 'NONE',  ( 18.24999999999991118, -55.00000000000003553, -123.2977901582174809 ) ) ;
#31 = ORIENTED_EDGE ( 'NONE', *, *, #139, .F. ) ;
#32 = EDGE_CURVE ( 'NONE', #444, #149, #388, .T. ) ;
#33 = LINE ( 'NONE', #226, #144 ) ;
#34 = ORIENTED_EDGE ( 'NONE', *, *, #6, .T. ) ;
#35 = FACE_OUTER_BOUND ( 'NONE', #539, .T. ) ;
#36 = DIRECTION ( 'NONE',  ( -6.938893903907223447E-16, -1.000000000000000000, -0.000000000000000000 ) ) ;
#37 = VERTEX_POINT ( 'NONE', #40 ) ;
#38 = DIRECTION ( 'NONE',  ( 0.000000000000000000, 1.000000000000000000, 0.000000000000000000 ) ) ;
#39 = EDGE_CURVE ( 'NONE', #402, #351, #998, .T. ) ;
#40 = CARTESIAN_POINT ( 'NONE',  ( 11.24999999999999645, -22.47499999999999076, -89.96372021095663740 ) ) ;
#41 = DIRECTION ( 'NONE',  ( 0.000000000000000000, 0.000000000000000000, -1.000000000000000000 ) ) ;
#42 = CIRCLE ( 'NONE', #696, 1.499999999999980460 ) ;
#43 = ORIENTED_EDGE ( 'NONE', *, *, #1, .F. ) ;
#44 = CARTESIAN_POINT ( 'NONE',  ( -20.75000000000001066, -55.00000000000003553, -124.7977901582174667 ) ) ;
#45 = DIRECTION ( 'NONE',  ( 1.000000000000000000, 0.000000000000000000, 0.000000000000000000 ) ) ;
#46 = CIRCLE ( 'NONE', #854, 1.499999999999994449 ) ;
#47 = DIRECTION ( 'NONE',  ( 1.000000000000000000, -2.891205793294678080E-17, 0.000000000000000000 ) ) ;
#48 = EDGE_CURVE ( 'NONE', #635, #259, #926, .T. ) ;
#49 = DIRECTION ( 'NONE',  ( -0.000000000000000000, -0.000000000000000000, 1.000000000000000000 ) ) ;
#50 = DIRECTION ( 'NONE',  ( 0.3162277660168379412, -1.534660244226794758E-16, -0.9486832980505138790 ) ) ;
#51 = AXIS2_PLACEMENT_3D ( 'NONE', #232, #578, #759 ) ;
#52 = ORIENTED_EDGE ( 'NONE', *, *, #1135, .T. ) ;
#53 = FACE_OUTER_BOUND ( 'NONE', #190, .T. ) ;
#54 = LINE ( 'NONE', #126, #1018 ) ;
#55 = AXIS2_PLACEMENT_3D ( 'NONE', #234, #74, #403 ) ;
#56 = DIRECTION ( 'NONE',  ( 0.000000000000000000, -1.000000000000000000, 0.000000000000000000 ) ) ;
#57 = EDGE_CURVE ( 'NONE', #978, #1064, #212, .T. ) ;
#58 = DIRECTION ( 'NONE',  ( 1.000000000000000000, -0.000000000000000000, -0.000000000000000000 ) ) ;
#59 = CARTESIAN_POINT ( 'NONE',  ( 11.24999999999998934, -55.00000000000002842, -74.79779015821748089 ) ) ;
#60 = VERTEX_POINT ( 'NONE', #132 ) ;
#61 = VECTOR ( 'NONE', #395, 1000.000000000000000 ) ;
#62 = LINE ( 'NONE', #688, #570 ) ;
#63 = CARTESIAN_POINT ( 'NONE',  ( 13.05855278365817718, -60.00000000000002132, -16.32500000000000639 ) ) ;
#64 = CARTESIAN_POINT ( 'NONE',  ( -20.75000000000001066, -55.00000000000002842, -23.29779015821748089 ) ) ;
#65 = CARTESIAN_POINT ( 'NONE',  ( 11.24999999999998934, -55.00000000000002842, -23.29779015821748089 ) ) ;
#66 = ADVANCED_FACE ( 'NONE', ( #1007 ), #484, .F. ) ;
#67 = CARTESIAN_POINT ( 'NONE',  ( 18.24999999999993250, -55.00000000000002842, -21.79779015821747379 ) ) ;
#68 = EDGE_CURVE ( 'NONE', #207, #344, #664, .T. ) ;
#69 = EDGE_LOOP ( 'NONE', ( #731, #99, #732, #873 ) ) ;
#70 = CARTESIAN_POINT ( 'NONE',  ( 21.24999999999999289, -55.00000000000002842, -23.29779015821748089 ) ) ;
#71 = AXIS2_PLACEMENT_3D ( 'NONE', #883, #514, #684 ) ;
#72 = ORIENTED_EDGE ( 'NONE', *, *, #1069, .F. ) ;
#73 = ORIENTED_EDGE ( 'NONE', *, *, #903, .T. ) ;
#74 = DIRECTION ( 'NONE',  ( -1.000000000000000000, 1.387778780781445676E-16, -0.000000000000000000 ) ) ;
#75 = CC_DESIGN_PERSON_AND_ORGANIZATION_ASSIGNMENT ( #273, #609, ( #743 ) ) ;
#76 = ORIENTED_EDGE ( 'NONE', *, *, #68, .F. ) ;
#77 = CARTESIAN_POINT ( 'NONE',  ( 11.24999999999998934, -55.00000000000002842, -21.79779015821747379 ) ) ;
#78 = AXIS2_PLACEMENT_3D ( 'NONE', #760, #771, #239 ) ;
#79 = CARTESIAN_POINT ( 'NONE',  ( 80.00000000000005684, -8.325000000000013500, -130.2705803164349447 ) ) ;
#80 = AXIS2_PLACEMENT_3D ( 'NONE', #945, #568, #466 ) ;
#81 = EDGE_LOOP ( 'NONE', ( #565, #185, #423, #910 ) ) ;
#82 = CARTESIAN_POINT ( 'NONE',  ( 21.24999999999999289, -10.32499999999999041, -23.30000000000000782 ) ) ;
#83 = ORIENTED_EDGE ( 'NONE', *, *, #502, .F. ) ;
#84 = DIRECTION ( 'NONE',  ( 0.000000000000000000, 0.000000000000000000, 1.000000000000000000 ) ) ;
#85 = DIRECTION ( 'NONE',  ( 0.000000000000000000, 0.000000000000000000, 1.000000000000000000 ) ) ;
#86 = EDGE_LOOP ( 'NONE', ( #417, #669, #599, #894 ) ) ;
#87 = ADVANCED_FACE ( 'NONE', ( #912 ), #391, .F. ) ;
#88 = ORIENTED_EDGE ( 'NONE', *, *, #139, .T. ) ;
#89 = CARTESIAN_POINT ( 'NONE',  ( 18.24999999999991118, -55.00000000000003553, -123.2977901582174809 ) ) ;
#90 = FACE_BOUND ( 'NONE', #968, .T. ) ;
#91 = EDGE_LOOP ( 'NONE', ( #738, #194, #474, #682 ) ) ;
#92 = DIRECTION ( 'NONE',  ( 1.000000000000000000, 0.000000000000000000, 0.000000000000000000 ) ) ;
#93 = EDGE_CURVE ( 'NONE', #790, #249, #765, .T. ) ;
#94 = DIRECTION ( 'NONE',  ( 1.000000000000000000, 0.000000000000000000, 0.000000000000000000 ) ) ;
#95 = ORIENTED_EDGE ( 'NONE', *, *, #1111, .T. ) ;
#96 = CARTESIAN_POINT ( 'NONE',  ( 18.44144721634168604, -60.00000000000002842, -133.2705803164349732 ) ) ;
#97 = DATE_TIME_ROLE ( 'creation_date' ) ;
#98 = EDGE_CURVE ( 'NONE', #1137, #888, #1114, .T. ) ;
#99 = ORIENTED_EDGE ( 'NONE', *, *, #176, .T. ) ;
#100 = DIRECTION ( 'NONE',  ( 0.7071067811865443531, 8.659560562354969836E-17, 0.7071067811865506814 ) ) ;
#101 = VERTEX_POINT ( 'NONE', #575 ) ;
#102 = VECTOR ( 'NONE', #1019, 1000.000000000000000 ) ;
#103 = VECTOR ( 'NONE', #983, 1000.000000000000000 ) ;
#104 = DATE_AND_TIME ( #1083, #1153 ) ;
#105 = EDGE_CURVE ( 'NONE', #304, #394, #848, .T. ) ;
#106 = AXIS2_PLACEMENT_3D ( 'NONE', #1033, #858, #1134 ) ;
#107 = ORIENTED_EDGE ( 'NONE', *, *, #374, .F. ) ;
#108 = CIRCLE ( 'NONE', #925, 4.500000000000087041 ) ;
#109 = PLANE ( 'NONE',  #720 ) ;
#110 = CARTESIAN_POINT ( 'NONE',  ( 80.00000000000004263, -10.32500000000000462, -56.63186010547832439 ) ) ;
#111 = EDGE_LOOP ( 'NONE', ( #29, #584, #1159, #970 ) ) ;
#112 = VECTOR ( 'NONE', #994, 1000.000000000000000 ) ;
#113 = LOCAL_TIME ( 10, 37, 4.000000000000000000, #976 ) ;
#114 = CARTESIAN_POINT ( 'NONE',  ( 19.44144721634168960, -60.00000000000002842, -16.32500000000000639 ) ) ;
#115 = VERTEX_POINT ( 'NONE', #141 ) ;
#116 = DIRECTION ( 'NONE',  ( -6.938893903907223447E-16, -1.000000000000000000, -0.000000000000000000 ) ) ;
#117 = ORIENTED_EDGE ( 'NONE', *, *, #510, .T. ) ;
#118 = APPROVAL ( #479, 'UNSPECIFIED' ) ;
#119 = VECTOR ( 'NONE', #623, 1000.000000000000000 ) ;
#120 = CARTESIAN_POINT ( 'NONE',  ( 21.24999999999999289, -55.00000000000003553, -127.7977901582175662 ) ) ;
#121 = AXIS2_PLACEMENT_3D ( 'NONE', #1022, #230, #467 ) ;
#122 = ORIENTED_EDGE ( 'NONE', *, *, #563, .F. ) ;
#123 = LINE ( 'NONE', #473, #256 ) ;
#124 = ORIENTED_EDGE ( 'NONE', *, *, #587, .T. ) ;
#125 = DIRECTION ( 'NONE',  ( -1.000000000000000000, 1.087107734130260974E-15, -0.000000000000000000 ) ) ;
#126 = CARTESIAN_POINT ( 'NONE',  ( 13.05855278365817718, -60.00000000000002132, -16.32500000000000639 ) ) ;
#127 = EDGE_CURVE ( 'NONE', #115, #313, #342, .T. ) ;
#128 = DIRECTION ( 'NONE',  ( 0.000000000000000000, 1.000000000000000000, 0.000000000000000000 ) ) ;
#129 = EDGE_LOOP ( 'NONE', ( #808, #884, #339, #804 ) ) ;
#130 = DIRECTION ( 'NONE',  ( 0.000000000000000000, 0.000000000000000000, 1.000000000000000000 ) ) ;
#131 = FACE_BOUND ( 'NONE', #233, .T. ) ;
#132 = CARTESIAN_POINT ( 'NONE',  ( 18.44144721634172512, -8.324999999999990408, -13.32500000000000284 ) ) ;
#133 = CIRCLE ( 'NONE', #387, 6.074999999999997513 ) ;
#134 = LINE ( 'NONE', #843, #517 ) ;
#135 = LINE ( 'NONE', #844, #184 ) ;
#136 = EDGE_LOOP ( 'NONE', ( #220, #546 ) ) ;
#137 = CARTESIAN_POINT ( 'NONE',  ( 21.24999999999999289, -16.40000000000000213, -123.2955803164349646 ) ) ;
#138 = PLANE ( 'NONE',  #359 ) ;
#139 = EDGE_CURVE ( 'NONE', #402, #375, #1146, .T. ) ;
#140 = LINE ( 'NONE', #488, #317 ) ;
#141 = CARTESIAN_POINT ( 'NONE',  ( 11.24999999999999645, -10.32499999999999396, -56.63186010547832439 ) ) ;
#142 = DIRECTION ( 'NONE',  ( 0.000000000000000000, 0.000000000000000000, -1.000000000000000000 ) ) ;
#143 = DIRECTION ( 'NONE',  ( 0.000000000000000000, 0.000000000000000000, -1.000000000000000000 ) ) ;
#144 = VECTOR ( 'NONE', #303, 1000.000000000000000 ) ;
#145 = ORIENTED_EDGE ( 'NONE', *, *, #640, .F. ) ;
#146 = CARTESIAN_POINT ( 'NONE',  ( 80.00000000000004263, -22.47500000000000497, -123.2955803164349646 ) ) ;
#147 = ADVANCED_FACE ( 'NONE', ( #428 ), #1056, .F. ) ;
#148 = VECTOR ( 'NONE', #49, 1000.000000000000000 ) ;
#149 = VERTEX_POINT ( 'NONE', #1131 ) ;
#150 = DIRECTION ( 'NONE',  ( 0.000000000000000000, 0.000000000000000000, -1.000000000000000000 ) ) ;
#151 = DIRECTION ( 'NONE',  ( 1.000000000000000000, -2.891205793294678080E-17, 0.000000000000000000 ) ) ;
#152 = EDGE_CURVE ( 'NONE', #60, #158, #1032, .T. ) ;
#153 = EDGE_CURVE ( 'NONE', #163, #304, #217, .T. ) ;
#154 = DIRECTION ( 'NONE',  ( 0.000000000000000000, 1.155081008495165429E-16, 1.000000000000000000 ) ) ;
#155 = EDGE_LOOP ( 'NONE', ( #145, #820, #719, #1149 ) ) ;
#156 = CARTESIAN_POINT ( 'NONE',  ( 18.44144721634173223, 3.144479452198242875, -133.2705803164349732 ) ) ;
#157 = CYLINDRICAL_SURFACE ( 'NONE', #1013, 1.500000000000004885 ) ;
#158 = VERTEX_POINT ( 'NONE', #164 ) ;
#159 = CARTESIAN_POINT ( 'NONE',  ( 80.00000000000004263, -16.40000000000000924, -123.2955803164349646 ) ) ;
#160 = ORIENTED_EDGE ( 'NONE', *, *, #98, .F. ) ;
#161 = CARTESIAN_POINT ( 'NONE',  ( 21.24999999999999289, -16.39999999999999858, -89.96372021095663740 ) ) ;
#162 = VECTOR ( 'NONE', #931, 1000.000000000000000 ) ;
#163 = VERTEX_POINT ( 'NONE', #77 ) ;
#164 = CARTESIAN_POINT ( 'NONE',  ( 21.25000000000000000, -8.324999999999990408, -13.32500000000000284 ) ) ;
#165 = VERTEX_POINT ( 'NONE', #82 ) ;
#166 = EDGE_CURVE ( 'NONE', #9, #525, #979, .T. ) ;
#167 = CYLINDRICAL_SURFACE ( 'NONE', #469, 6.075000000000000178 ) ;
#168 = DIRECTION ( 'NONE',  ( 0.000000000000000000, 0.000000000000000000, 1.000000000000000000 ) ) ;
#169 = AXIS2_PLACEMENT_3D ( 'NONE', #386, #229, #404 ) ;
#170 = CARTESIAN_POINT ( 'NONE',  ( 11.24999999999999645, -10.32499999999998685, -23.30000000000000782 ) ) ;
#171 = ORIENTED_EDGE ( 'NONE', *, *, #447, .T. ) ;
#172 = FACE_OUTER_BOUND ( 'NONE', #81, .T. ) ;
#173 = FACE_OUTER_BOUND ( 'NONE', #155, .T. ) ;
#174 = AXIS2_PLACEMENT_3D ( 'NONE', #758, #58, #364 ) ;
#175 = CARTESIAN_POINT ( 'NONE',  ( 21.24999999999999289, -10.32500000000000462, -123.2955803164349646 ) ) ;
#176 = EDGE_CURVE ( 'NONE', #291, #182, #638, .T. ) ;
#177 = CC_DESIGN_APPROVAL ( #268, ( #896 ) ) ;
#178 = ORIENTED_EDGE ( 'NONE', *, *, #39, .F. ) ;
#179 = FACE_BOUND ( 'NONE', #433, .T. ) ;
#180 =( NAMED_UNIT ( * ) SI_UNIT ( $, .STERADIAN. ) SOLID_ANGLE_UNIT ( ) );
#181 = CARTESIAN_POINT ( 'NONE',  ( 80.00000000000005684, -8.325000000000013500, -133.2705803164349732 ) ) ;
#182 = VERTEX_POINT ( 'NONE', #198 ) ;
#183 = CC_DESIGN_DATE_AND_TIME_ASSIGNMENT ( #624, #97, ( #896 ) ) ;
#184 = VECTOR ( 'NONE', #1001, 1000.000000000000000 ) ;
#185 = ORIENTED_EDGE ( 'NONE', *, *, #211, .T. ) ;
#186 = CARTESIAN_POINT ( 'NONE',  ( 18.44144721634173223, 3.144479452198242875, -133.2705803164349732 ) ) ;
#187 = PERSON_AND_ORGANIZATION_ROLE ( 'design_supplier' ) ;
#188 = ORIENTED_EDGE ( 'NONE', *, *, #189, .T. ) ;
#189 = EDGE_CURVE ( 'NONE', #456, #375, #219, .T. ) ;
#190 = EDGE_LOOP ( 'NONE', ( #521, #334, #28, #238 ) ) ;
#191 = PLANE ( 'NONE',  #450 ) ;
#192 = ADVANCED_FACE ( 'NONE', ( #992 ), #1108, .F. ) ;
#193 = COORDINATED_UNIVERSAL_TIME_OFFSET ( 1, 0, .AHEAD. ) ;
#194 = ORIENTED_EDGE ( 'NONE', *, *, #166, .T. ) ;
#195 = ORIENTED_EDGE ( 'NONE', *, *, #105, .F. ) ;
#196 = EDGE_CURVE ( 'NONE', #1064, #265, #290, .T. ) ;
#197 = DIRECTION ( 'NONE',  ( 1.000000000000000000, 0.000000000000000000, 0.000000000000000000 ) ) ;
#198 = CARTESIAN_POINT ( 'NONE',  ( 21.24999999999999289, -55.00000000000003553, -118.7977901582173956 ) ) ;
#199 = ORIENTED_EDGE ( 'NONE', *, *, #541, .T. ) ;
#200 = VECTOR ( 'NONE', #3, 1000.000000000000000 ) ;
#201 = AXIS2_PLACEMENT_3D ( 'NONE', #535, #711, #795 ) ;
#202 = CARTESIAN_POINT ( 'NONE',  ( 21.25000000000000000, -8.325000000000004619, -133.2705803164349732 ) ) ;
#203 = FACE_OUTER_BOUND ( 'NONE', #560, .T. ) ;
#204 = CARTESIAN_POINT ( 'NONE',  ( 11.24999999999999645, -22.47499999999999432, -123.2955803164349646 ) ) ;
#205 = DIRECTION ( 'NONE',  ( -1.000000000000000000, -0.000000000000000000, -0.000000000000000000 ) ) ;
#206 = AXIS2_PLACEMENT_3D ( 'NONE', #975, #1087, #17 ) ;
#207 = VERTEX_POINT ( 'NONE', #312 ) ;
#208 = CARTESIAN_POINT ( 'NONE',  ( 21.24999999999999289, -55.00000000000002842, -77.79779015821756616 ) ) ;
#209 = ORIENTED_EDGE ( 'NONE', *, *, #407, .F. ) ;
#210 = DIRECTION ( 'NONE',  ( -1.000000000000000000, -0.000000000000000000, -0.000000000000000000 ) ) ;
#211 = EDGE_CURVE ( 'NONE', #1041, #265, #123, .T. ) ;
#212 = LINE ( 'NONE', #1014, #636 ) ;
#213 = ORIENTED_EDGE ( 'NONE', *, *, #1127, .T. ) ;
#214 = DIRECTION ( 'NONE',  ( -0.9486832980505138790, 6.582812753581311037E-16, 0.3162277660168379412 ) ) ;
#215 = DIRECTION ( 'NONE',  ( -1.000000000000000000, 1.387778780781445676E-16, -0.000000000000000000 ) ) ;
#216 = EDGE_CURVE ( 'NONE', #340, #1167, #33, .T. ) ;
#217 = CIRCLE ( 'NONE', #937, 1.500000000000001332 ) ;
#218 = VECTOR ( 'NONE', #677, 1000.000000000000000 ) ;
#219 = LINE ( 'NONE', #737, #491 ) ;
#220 = ORIENTED_EDGE ( 'NONE', *, *, #944, .T. ) ;
#221 = DIRECTION ( 'NONE',  ( 0.000000000000000000, 0.000000000000000000, 1.000000000000000000 ) ) ;
#222 = DIRECTION ( 'NONE',  ( 1.000000000000000000, -2.891205793294678080E-17, 0.000000000000000000 ) ) ;
#223 = ADVANCED_FACE ( 'NONE', ( #851 ), #369, .F. ) ;
#224 = VECTOR ( 'NONE', #390, 1000.000000000000000 ) ;
#225 = DIRECTION ( 'NONE',  ( 1.000000000000000000, -2.891205793294678080E-17, 0.000000000000000000 ) ) ;
#226 = CARTESIAN_POINT ( 'NONE',  ( 80.00000000000004263, -22.47499999999999787, -23.30000000000000782 ) ) ;
#227 = EDGE_LOOP ( 'NONE', ( #427, #889, #429, #285 ) ) ;
#228 = LINE ( 'NONE', #23, #1129 ) ;
#229 = DIRECTION ( 'NONE',  ( 1.000000000000000000, -2.891205793294678080E-17, 0.000000000000000000 ) ) ;
#230 = DIRECTION ( 'NONE',  ( 1.000000000000000000, -2.891205793294678080E-17, 0.000000000000000000 ) ) ;
#231 = AXIS2_PLACEMENT_3D ( 'NONE', #1003, #214, #745 ) ;
#232 = CARTESIAN_POINT ( 'NONE',  ( 21.24999999999999289, -16.39999999999999147, -23.30000000000000782 ) ) ;
#233 = EDGE_LOOP ( 'NONE', ( #641, #718 ) ) ;
#234 = CARTESIAN_POINT ( 'NONE',  ( 80.00000000000004263, -16.40000000000000213, -56.63186010547832439 ) ) ;
#235 = DIRECTION ( 'NONE',  ( 0.000000000000000000, 0.000000000000000000, 1.000000000000000000 ) ) ;
#236 = CARTESIAN_POINT ( 'NONE',  ( 18.24999999999991118, -55.00000000000003553, -124.7977901582174667 ) ) ;
#237 = DIRECTION ( 'NONE',  ( 0.000000000000000000, 1.000000000000000000, 0.000000000000000000 ) ) ;
#238 = ORIENTED_EDGE ( 'NONE', *, *, #350, .F. ) ;
#239 = DIRECTION ( 'NONE',  ( 0.000000000000000000, 1.000000000000000000, 0.000000000000000000 ) ) ;
#240 = DIRECTION ( 'NONE',  ( 1.000000000000000000, -2.891205793294678080E-17, 0.000000000000000000 ) ) ;
#241 = VERTEX_POINT ( 'NONE', #647 ) ;
#242 = DIRECTION ( 'NONE',  ( -6.938893903907223447E-16, -1.000000000000000000, -0.000000000000000000 ) ) ;
#243 = FACE_OUTER_BOUND ( 'NONE', #825, .T. ) ;
#244 = ORIENTED_EDGE ( 'NONE', *, *, #26, .T. ) ;
#245 = DIRECTION ( 'NONE',  ( 1.000000000000000000, 0.000000000000000000, -0.000000000000000000 ) ) ;
#246 = EDGE_CURVE ( 'NONE', #660, #790, #135, .T. ) ;
#247 = CIRCLE ( 'NONE', #629, 1.499999999999987566 ) ;
#248 = CARTESIAN_POINT ( 'NONE',  ( 80.00000000000004263, -16.39999999999999858, -23.30000000000000782 ) ) ;
#249 = VERTEX_POINT ( 'NONE', #208 ) ;
#250 = LINE ( 'NONE', #79, #946 ) ;
#251 = CC_DESIGN_APPROVAL ( #651, ( #743 ) ) ;
#252 = ORIENTED_EDGE ( 'NONE', *, *, #693, .T. ) ;
#253 = ORIENTED_EDGE ( 'NONE', *, *, #153, .T. ) ;
#254 = PLANE ( 'NONE',  #997 ) ;
#255 = CIRCLE ( 'NONE', #972, 1.499999999999987566 ) ;
#256 = VECTOR ( 'NONE', #298, 1000.000000000000000 ) ;
#257 = FACE_OUTER_BOUND ( 'NONE', #770, .T. ) ;
#258 = CIRCLE ( 'NONE', #749, 1.500000000000004885 ) ;
#259 = VERTEX_POINT ( 'NONE', #551 ) ;
#260 = FACE_OUTER_BOUND ( 'NONE', #69, .T. ) ;
#261 = CALENDAR_DATE ( 2026, 2, 6 ) ;
#262 = DIRECTION ( 'NONE',  ( 0.000000000000000000, 0.000000000000000000, -1.000000000000000000 ) ) ;
#263 = EDGE_LOOP ( 'NONE', ( #16, #957 ) ) ;
#264 = AXIS2_PLACEMENT_3D ( 'NONE', #740, #1110, #305 ) ;
#265 = VERTEX_POINT ( 'NONE', #462 ) ;
#266 = DIRECTION ( 'NONE',  ( -1.000000000000000000, -0.000000000000000000, -0.000000000000000000 ) ) ;
#267 = CARTESIAN_POINT ( 'NONE',  ( 11.24999999999999645, -22.47499999999998721, -23.30000000000000782 ) ) ;
#268 = APPROVAL ( #882, 'UNSPECIFIED' ) ;
#269 = AXIS2_PLACEMENT_3D ( 'NONE', #137, #321, #475 ) ;
#270 = ORIENTED_EDGE ( 'NONE', *, *, #454, .F. ) ;
#271 = ORIENTED_EDGE ( 'NONE', *, *, #152, .T. ) ;
#272 = PLANE ( 'NONE',  #698 ) ;
#273 = PERSON_AND_ORGANIZATION ( #766, #840 ) ;
#274 = ADVANCED_FACE ( 'NONE', ( #383 ), #544, .F. ) ;
#275 = AXIS2_PLACEMENT_3D ( 'NONE', #914, #368, #128 ) ;
#276 = ORIENTED_EDGE ( 'NONE', *, *, #93, .T. ) ;
#277 = APPROVAL_DATE_TIME ( #104, #268 ) ;
#278 = ORIENTED_EDGE ( 'NONE', *, *, #950, .T. ) ;
#279 = CC_DESIGN_PERSON_AND_ORGANIZATION_ASSIGNMENT ( #716, #2, ( #896 ) ) ;
#280 = ORIENTED_EDGE ( 'NONE', *, *, #502, .T. ) ;
#281 = CYLINDRICAL_SURFACE ( 'NONE', #862, 1.499999999999987566 ) ;
#282 = LINE ( 'NONE', #20, #310 ) ;
#283 = VERTEX_POINT ( 'NONE', #909 ) ;
#284 = CIRCLE ( 'NONE', #908, 6.074999999999997513 ) ;
#285 = ORIENTED_EDGE ( 'NONE', *, *, #127, .F. ) ;
#286 = VERTEX_POINT ( 'NONE', #114 ) ;
#287 = VECTOR ( 'NONE', #495, 1000.000000000000000 ) ;
#288 = AXIS2_PLACEMENT_3D ( 'NONE', #941, #591, #1043 ) ;
#289 = ADVANCED_FACE ( 'NONE', ( #787 ), #697, .F. ) ;
#290 = LINE ( 'NONE', #559, #102 ) ;
#291 = VERTEX_POINT ( 'NONE', #583 ) ;
#292 = CARTESIAN_POINT ( 'NONE',  ( 11.24999999999999645, -16.39999999999999147, -56.63186010547832439 ) ) ;
#293 = LINE ( 'NONE', #378, #562 ) ;
#294 = CARTESIAN_POINT ( 'NONE',  ( 80.00000000000004263, -22.47500000000000142, -89.96372021095663740 ) ) ;
#295 = AXIS2_PLACEMENT_3D ( 'NONE', #940, #850, #1034 ) ;
#296 = ORIENTED_EDGE ( 'NONE', *, *, #460, .T. ) ;
#297 = FACE_BOUND ( 'NONE', #1011, .T. ) ;
#298 = DIRECTION ( 'NONE',  ( 0.3162277660168379412, -0.000000000000000000, 0.9486832980505138790 ) ) ;
#299 = ORIENTED_EDGE ( 'NONE', *, *, #594, .F. ) ;
#300 = DIRECTION ( 'NONE',  ( -1.000000000000000000, 0.000000000000000000, -0.000000000000000000 ) ) ;
#301 = EDGE_CURVE ( 'NONE', #353, #809, #329, .T. ) ;
#302 = CARTESIAN_POINT ( 'NONE',  ( 18.24999999999993250, -55.00000000000002842, -23.29779015821748089 ) ) ;
#303 = DIRECTION ( 'NONE',  ( -1.000000000000000000, 1.387778780781445676E-16, -0.000000000000000000 ) ) ;
#304 = VERTEX_POINT ( 'NONE', #1028 ) ;
#305 = DIRECTION ( 'NONE',  ( 0.000000000000000000, -1.000000000000000000, 0.000000000000000000 ) ) ;
#306 = CARTESIAN_POINT ( 'NONE',  ( 18.24999999999992539, -55.00000000000002842, -74.79779015821748089 ) ) ;
#307 = LINE ( 'NONE', #1105, #619 ) ;
#308 = EDGE_CURVE ( 'NONE', #534, #1152, #42, .T. ) ;
#309 = VECTOR ( 'NONE', #955, 1000.000000000000000 ) ;
#310 = VECTOR ( 'NONE', #1084, 1000.000000000000000 ) ;
#311 = CALENDAR_DATE ( 2026, 2, 6 ) ;
#312 = CARTESIAN_POINT ( 'NONE',  ( 18.44144721634168604, -60.00000000000002842, -13.32500000000000284 ) ) ;
#313 = VERTEX_POINT ( 'NONE', #958 ) ;
#314 = LINE ( 'NONE', #573, #783 ) ;
#315 = CARTESIAN_POINT ( 'NONE',  ( 11.24999999999990585, -60.00000000000002132, -13.32500000000000284 ) ) ;
#316 = CARTESIAN_POINT ( 'NONE',  ( 18.44144721634168604, -60.00000000000002842, -13.32500000000000284 ) ) ;
#317 = VECTOR ( 'NONE', #755, 1000.000000000000114 ) ;
#318 = ADVANCED_FACE ( 'NONE', ( #243 ), #505, .F. ) ;
#319 = AXIS2_PLACEMENT_3D ( 'NONE', #416, #777, #507 ) ;
#320 = EDGE_LOOP ( 'NONE', ( #621, #1075, #276, #744 ) ) ;
#321 = DIRECTION ( 'NONE',  ( -1.000000000000000000, -0.000000000000000000, -0.000000000000000000 ) ) ;
#322 = DIRECTION ( 'NONE',  ( 0.7071067811865444641, 8.659560562354969836E-17, 0.7071067811865505703 ) ) ;
#323 = DIRECTION ( 'NONE',  ( 1.000000000000000000, -0.000000000000000000, -0.000000000000000000 ) ) ;
#324 = CONICAL_SURFACE ( 'NONE', #785, 1.499999999999987566, 0.7853981633974528309 ) ;
#325 = ORIENTED_EDGE ( 'NONE', *, *, #608, .F. ) ;
#326 = FACE_OUTER_BOUND ( 'NONE', #366, .T. ) ;
#327 = ORIENTED_EDGE ( 'NONE', *, *, #1023, .T. ) ;
#328 = CARTESIAN_POINT ( 'NONE',  ( 14.05855278365821270, -8.324999999999990408, -13.32500000000000284 ) ) ;
#329 = LINE ( 'NONE', #1141, #824 ) ;
#330 = AXIS2_PLACEMENT_3D ( 'NONE', #674, #1136, #1061 ) ;
#331 = ORIENTED_EDGE ( 'NONE', *, *, #32, .T. ) ;
#332 = FACE_OUTER_BOUND ( 'NONE', #1066, .T. ) ;
#333 = ADVANCED_FACE ( 'NONE', ( #173 ), #167, .F. ) ;
#334 = ORIENTED_EDGE ( 'NONE', *, *, #496, .T. ) ;
#335 = PRODUCT_DEFINITION_SHAPE ( 'NONE', 'NONE',  #896 ) ;
#336 = VERTEX_POINT ( 'NONE', #780 ) ;
#337 = DIRECTION ( 'NONE',  ( 0.000000000000000000, 0.000000000000000000, 1.000000000000000000 ) ) ;
#338 = DIRECTION ( 'NONE',  ( 1.000000000000000000, -0.000000000000000000, -0.000000000000000000 ) ) ;
#339 = ORIENTED_EDGE ( 'NONE', *, *, #807, .T. ) ;
#340 = VERTEX_POINT ( 'NONE', #1148 ) ;
#341 = DIRECTION ( 'NONE',  ( -6.938893903907223447E-16, -1.000000000000000000, -0.000000000000000000 ) ) ;
#342 = CIRCLE ( 'NONE', #679, 6.074999999999997513 ) ;
#343 = AXIS2_PLACEMENT_3D ( 'NONE', #741, #45, #235 ) ;
#344 = VERTEX_POINT ( 'NONE', #1052 ) ;
#345 = LINE ( 'NONE', #1067, #11 ) ;
#346 = CC_DESIGN_PERSON_AND_ORGANIZATION_ASSIGNMENT ( #618, #187, ( #743 ) ) ;
#347 = CARTESIAN_POINT ( 'NONE',  ( 80.00000000000004263, -16.40000000000000568, -89.96372021095663740 ) ) ;
#348 = ORIENTED_EDGE ( 'NONE', *, *, #529, .F. ) ;
#349 = ORIENTED_EDGE ( 'NONE', *, *, #1086, .F. ) ;
#350 = EDGE_CURVE ( 'NONE', #283, #313, #899, .T. ) ;
#351 = VERTEX_POINT ( 'NONE', #877 ) ;
#352 = AXIS2_PLACEMENT_3D ( 'NONE', #5, #85, #197 ) ;
#353 = VERTEX_POINT ( 'NONE', #582 ) ;
#354 = DIRECTION ( 'NONE',  ( -0.3162277660168379412, 1.534660244226794758E-16, 0.9486832980505138790 ) ) ;
#355 = FACE_OUTER_BOUND ( 'NONE', #1123, .T. ) ;
#356 = ADVANCED_FACE ( 'NONE', ( #786 ), #939, .F. ) ;
#357 = AXIS2_PLACEMENT_3D ( 'NONE', #928, #828, #143 ) ;
#358 = ORIENTED_EDGE ( 'NONE', *, *, #1079, .T. ) ;
#359 = AXIS2_PLACEMENT_3D ( 'NONE', #838, #746, #832 ) ;
#360 = EDGE_LOOP ( 'NONE', ( #692, #1089, #764, #799 ) ) ;
#361 = ORIENTED_EDGE ( 'NONE', *, *, #657, .F. ) ;
#362 = EDGE_CURVE ( 'NONE', #556, #456, #577, .T. ) ;
#363 = EDGE_LOOP ( 'NONE', ( #499, #898, #1024, #685 ) ) ;
#364 = DIRECTION ( 'NONE',  ( 0.000000000000000000, 0.000000000000000000, -1.000000000000000000 ) ) ;
#365 = APPROVAL_PERSON_ORGANIZATION ( #712, #268, #902 ) ;
#366 = EDGE_LOOP ( 'NONE', ( #793, #331, #516, #389 ) ) ;
#367 = CARTESIAN_POINT ( 'NONE',  ( 21.24999999999999289, 60.00000000000000711, -275.4115261043579039 ) ) ;
#368 = DIRECTION ( 'NONE',  ( 1.000000000000000000, -2.891205793294678080E-17, 0.000000000000000000 ) ) ;
#369 = PLANE ( 'NONE',  #901 ) ;
#370 = ORIENTED_EDGE ( 'NONE', *, *, #693, .F. ) ;
#371 = DIRECTION ( 'NONE',  ( -1.000000000000000000, -0.000000000000000000, -0.000000000000000000 ) ) ;
#372 = DIRECTION ( 'NONE',  ( -1.000000000000000000, 1.387778780781445676E-16, -0.000000000000000000 ) ) ;
#373 = ORIENTED_EDGE ( 'NONE', *, *, #407, .T. ) ;
#374 = EDGE_CURVE ( 'NONE', #101, #444, #680, .T. ) ;
#375 = VERTEX_POINT ( 'NONE', #857 ) ;
#376 = ORIENTED_EDGE ( 'NONE', *, *, #26, .F. ) ;
#377 = CARTESIAN_POINT ( 'NONE',  ( 21.24999999999999289, -10.32499999999999751, -56.63186010547832439 ) ) ;
#378 = CARTESIAN_POINT ( 'NONE',  ( 21.25000000000000711, 3.144479452198242875, -133.2705803164349732 ) ) ;
#379 = AXIS2_PLACEMENT_3D ( 'NONE', #1120, #1100, #1000 ) ;
#380 = DIRECTION ( 'NONE',  ( 1.000000000000000000, 0.000000000000000000, 0.000000000000000000 ) ) ;
#381 = ORIENTED_EDGE ( 'NONE', *, *, #608, .T. ) ;
#382 = EDGE_CURVE ( 'NONE', #949, #283, #581, .T. ) ;
#383 = FACE_OUTER_BOUND ( 'NONE', #320, .T. ) ;
#384 = ORIENTED_EDGE ( 'NONE', *, *, #756, .F. ) ;
#385 = FACE_OUTER_BOUND ( 'NONE', #91, .T. ) ;
#386 = CARTESIAN_POINT ( 'NONE',  ( 11.24999999999999645, -16.39999999999999858, -123.2955803164349646 ) ) ;
#387 = AXIS2_PLACEMENT_3D ( 'NONE', #292, #548, #38 ) ;
#388 = LINE ( 'NONE', #659, #10 ) ;
#389 = ORIENTED_EDGE ( 'NONE', *, *, #93, .F. ) ;
#390 = DIRECTION ( 'NONE',  ( 0.3162277660168379412, -0.000000000000000000, -0.9486832980505138790 ) ) ;
#391 = CYLINDRICAL_SURFACE ( 'NONE', #27, 6.074999999999997513 ) ;
#392 = FACE_BOUND ( 'NONE', #1002, .T. ) ;
#393 = AXIS2_PLACEMENT_3D ( 'NONE', #805, #266, #1059 ) ;
#394 = VERTEX_POINT ( 'NONE', #430 ) ;
#395 = DIRECTION ( 'NONE',  ( 1.000000000000000000, -0.000000000000000000, -0.000000000000000000 ) ) ;
#396 = DIRECTION ( 'NONE',  ( 0.000000000000000000, 1.000000000000000000, 0.000000000000000000 ) ) ;
#397 = VECTOR ( 'NONE', #154, 1000.000000000000000 ) ;
#398 = CYLINDRICAL_SURFACE ( 'NONE', #174, 1.500000000000001332 ) ;
#399 = VECTOR ( 'NONE', #341, 1000.000000000000000 ) ;
#400 = CARTESIAN_POINT ( 'NONE',  ( 14.05855278365822159, 3.144479452198249536, -13.32500000000000284 ) ) ;
#401 = CARTESIAN_POINT ( 'NONE',  ( 11.24999999999998934, -55.00000000000003553, -123.2977901582174809 ) ) ;
#402 = VERTEX_POINT ( 'NONE', #1081 ) ;
#403 = DIRECTION ( 'NONE',  ( 0.000000000000000000, -1.000000000000000000, 0.000000000000000000 ) ) ;
#404 = DIRECTION ( 'NONE',  ( 0.000000000000000000, 1.000000000000000000, 0.000000000000000000 ) ) ;
#405 = ORIENTED_EDGE ( 'NONE', *, *, #594, .T. ) ;
#406 = DIRECTION ( 'NONE',  ( -0.3162277660168379412, 0.000000000000000000, 0.9486832980505138790 ) ) ;
#407 = EDGE_CURVE ( 'NONE', #829, #241, #971, .T. ) ;
#408 = LINE ( 'NONE', #768, #397 ) ;
#409 = ORIENTED_EDGE ( 'NONE', *, *, #819, .T. ) ;
#410 = LINE ( 'NONE', #853, #590 ) ;
#411 = DIRECTION ( 'NONE',  ( 0.000000000000000000, 1.000000000000000000, 0.000000000000000000 ) ) ;
#412 = VECTOR ( 'NONE', #861, 1000.000000000000000 ) ;
#413 = EDGE_CURVE ( 'NONE', #978, #1041, #800, .T. ) ;
#414 = VECTOR ( 'NONE', #435, 1000.000000000000000 ) ;
#415 = EDGE_LOOP ( 'NONE', ( #694, #455, #605, #83 ) ) ;
#416 = CARTESIAN_POINT ( 'NONE',  ( 18.24999999999992539, -55.00000000000002842, -73.29779015821748089 ) ) ;
#417 = ORIENTED_EDGE ( 'NONE', *, *, #959, .F. ) ;
#418 = DIRECTION ( 'NONE',  ( -1.000000000000000000, 1.387778780781445676E-16, -0.000000000000000000 ) ) ;
#419 = VERTEX_POINT ( 'NONE', #791 ) ;
#420 = LINE ( 'NONE', #146, #645 ) ;
#421 = ADVANCED_FACE ( 'NONE', ( #531 ), #191, .F. ) ;
#422 = ORIENTED_EDGE ( 'NONE', *, *, #1111, .F. ) ;
#423 = ORIENTED_EDGE ( 'NONE', *, *, #196, .F. ) ;
#424 = CARTESIAN_POINT ( 'NONE',  ( 11.24999999999998934, -60.00000000000002842, -275.4115261043579039 ) ) ;
#425 = CYLINDRICAL_SURFACE ( 'NONE', #779, 1.499999999999987566 ) ;
#426 = APPROVAL_PERSON_ORGANIZATION ( #803, #118, #1113 ) ;
#427 = ORIENTED_EDGE ( 'NONE', *, *, #496, .F. ) ;
#428 = FACE_OUTER_BOUND ( 'NONE', #360, .T. ) ;
#429 = ORIENTED_EDGE ( 'NONE', *, *, #350, .T. ) ;
#430 = CARTESIAN_POINT ( 'NONE',  ( 18.24999999999993250, -55.00000000000002842, -24.79779015821748445 ) ) ;
#431 = COORDINATED_UNIVERSAL_TIME_OFFSET ( 1, 0, .AHEAD. ) ;
#432 = AXIS2_PLACEMENT_3D ( 'NONE', #863, #1155, #406 ) ;
#433 = EDGE_LOOP ( 'NONE', ( #434, #199 ) ) ;
#434 = ORIENTED_EDGE ( 'NONE', *, *, #308, .T. ) ;
#435 = DIRECTION ( 'NONE',  ( -1.000000000000000000, -0.000000000000000000, -0.000000000000000000 ) ) ;
#436 = EDGE_CURVE ( 'NONE', #340, #165, #1117, .T. ) ;
#437 = CIRCLE ( 'NONE', #295, 6.074999999999997513 ) ;
#438 = ORIENTED_EDGE ( 'NONE', *, *, #796, .F. ) ;
#439 = ORIENTED_EDGE ( 'NONE', *, *, #1086, .T. ) ;
#440 = CARTESIAN_POINT ( 'NONE',  ( 18.24999999999992539, -55.00000000000002842, -71.79779015821748089 ) ) ;
#441 = ADVANCED_FACE ( 'NONE', ( #260 ), #956, .F. ) ;
#442 = DATE_TIME_ROLE ( 'classification_date' ) ;
#443 = ORIENTED_EDGE ( 'NONE', *, *, #153, .F. ) ;
#444 = VERTEX_POINT ( 'NONE', #440 ) ;
#445 = CARTESIAN_POINT ( 'NONE',  ( 14.05855278365821270, -8.325000000000002842, -133.2705803164349732 ) ) ;
#446 = APPLICATION_PROTOCOL_DEFINITION ( 'international standard', 'config_control_design', 1994, #977 ) ;
#447 = EDGE_CURVE ( 'NONE', #1044, #1041, #4, .T. ) ;
#448 = VECTOR ( 'NONE', #380, 1000.000000000000000 ) ;
#449 = ORIENTED_EDGE ( 'NONE', *, *, #959, .T. ) ;
#450 = AXIS2_PLACEMENT_3D ( 'NONE', #890, #701, #1160 ) ;
#451 = ORIENTED_EDGE ( 'NONE', *, *, #856, .F. ) ;
#452 = CALENDAR_DATE ( 2026, 2, 6 ) ;
#453 = CONICAL_SURFACE ( 'NONE', #379, 1.500000000000004885, 0.7853981633974524978 ) ;
#454 = EDGE_CURVE ( 'NONE', #419, #60, #345, .T. ) ;
#455 = ORIENTED_EDGE ( 'NONE', *, *, #1, .T. ) ;
#456 = VERTEX_POINT ( 'NONE', #445 ) ;
#457 = CARTESIAN_POINT ( 'NONE',  ( 13.05855278365822159, 3.144479452198249536, -16.32500000000000639 ) ) ;
#458 = AXIS2_PLACEMENT_3D ( 'NONE', #846, #371, #221 ) ;
#459 = LOCAL_TIME ( 10, 37, 4.000000000000000000, #792 ) ;
#460 = EDGE_CURVE ( 'NONE', #249, #149, #849, .T. ) ;
#461 = VERTEX_POINT ( 'NONE', #607 ) ;
#462 = CARTESIAN_POINT ( 'NONE',  ( 19.44144721634168960, -60.00000000000002842, -130.2705803164349447 ) ) ;
#463 = ORIENTED_EDGE ( 'NONE', *, *, #666, .F. ) ;
#464 = CARTESIAN_POINT ( 'NONE',  ( 21.24999999999999289, -22.47499999999999787, -123.2955803164349646 ) ) ;
#465 = DIRECTION ( 'NONE',  ( 0.000000000000000000, 0.000000000000000000, 1.000000000000000000 ) ) ;
#466 = DIRECTION ( 'NONE',  ( 0.000000000000000000, 0.000000000000000000, 1.000000000000000000 ) ) ;
#467 = DIRECTION ( 'NONE',  ( 0.000000000000000000, 1.000000000000000000, 0.000000000000000000 ) ) ;
#468 = ORIENTED_EDGE ( 'NONE', *, *, #166, .F. ) ;
#469 = AXIS2_PLACEMENT_3D ( 'NONE', #248, #595, #872 ) ;
#470 = ADVANCED_FACE ( 'NONE', ( #172 ), #272, .F. ) ;
#471 = FACE_OUTER_BOUND ( 'NONE', #415, .T. ) ;
#472 = ADVANCED_FACE ( 'NONE', ( #967, #1076, #179, #887, #754, #131, #1004, #729 ), #138, .F. ) ;
#473 = CARTESIAN_POINT ( 'NONE',  ( 19.44144721634168960, -60.00000000000002842, -130.2705803164349447 ) ) ;
#474 = ORIENTED_EDGE ( 'NONE', *, *, #1050, .F. ) ;
#475 = DIRECTION ( 'NONE',  ( 0.000000000000000000, 0.000000000000000000, 1.000000000000000000 ) ) ;
#476 = CARTESIAN_POINT ( 'NONE',  ( 18.24999999999993250, -55.00000000000002842, -23.29779015821748089 ) ) ;
#477 = DIRECTION ( 'NONE',  ( 1.000000000000000000, 0.000000000000000000, 0.000000000000000000 ) ) ;
#478 = DIRECTION ( 'NONE',  ( -1.000000000000000000, 0.000000000000000000, -0.000000000000000000 ) ) ;
#479 = APPROVAL_STATUS ( 'not_yet_approved' ) ;
#480 = EDGE_CURVE ( 'NONE', #394, #635, #258, .T. ) ;
#481 = ORIENTED_EDGE ( 'NONE', *, *, #891, .T. ) ;
#482 = DIRECTION ( 'NONE',  ( 0.000000000000000000, 0.000000000000000000, 1.000000000000000000 ) ) ;
#483 = CIRCLE ( 'NONE', #80, 1.500000000000001332 ) ;
#484 = PLANE ( 'NONE',  #915 ) ;
#485 = ORIENTED_EDGE ( 'NONE', *, *, #989, .T. ) ;
#486 = DIRECTION ( 'NONE',  ( -0.3162277660168379412, -6.569518770826194517E-17, -0.9486832980505138790 ) ) ;
#487 = EDGE_CURVE ( 'NONE', #444, #790, #904, .T. ) ;
#488 = CARTESIAN_POINT ( 'NONE',  ( 18.24999999999993250, -55.00000000000002842, -24.79779015821748445 ) ) ;
#489 = CARTESIAN_POINT ( 'NONE',  ( 11.24999999999999645, -16.39999999999999147, -56.63186010547832439 ) ) ;
#490 = VECTOR ( 'NONE', #322, 1000.000000000000114 ) ;
#491 = VECTOR ( 'NONE', #933, 1000.000000000000000 ) ;
#492 = FACE_OUTER_BOUND ( 'NONE', #700, .T. ) ;
#493 = ORIENTED_EDGE ( 'NONE', *, *, #541, .F. ) ;
#494 = DIRECTION ( 'NONE',  ( -1.000000000000000000, 1.387778780781445676E-16, -0.000000000000000000 ) ) ;
#495 = DIRECTION ( 'NONE',  ( -6.938893903907223447E-16, -1.000000000000000000, -0.000000000000000000 ) ) ;
#496 = EDGE_CURVE ( 'NONE', #949, #115, #662, .T. ) ;
#497 = CARTESIAN_POINT ( 'NONE',  ( 11.24999999999990585, -60.00000000000002132, -133.2705803164349732 ) ) ;
#498 = DIRECTION ( 'NONE',  ( 1.000000000000000000, -0.000000000000000000, -0.000000000000000000 ) ) ;
#499 = ORIENTED_EDGE ( 'NONE', *, *, #557, .T. ) ;
#500 = CARTESIAN_POINT ( 'NONE',  ( 11.24999999999998934, -55.00000000000003553, -121.7977901582174951 ) ) ;
#501 = CARTESIAN_POINT ( 'NONE',  ( 80.00000000000005684, -8.324999999999999289, -13.32500000000000284 ) ) ;
#502 = EDGE_CURVE ( 'NONE', #734, #1044, #293, .T. ) ;
#503 = DIRECTION ( 'NONE',  ( 0.7071067811865443531, 0.000000000000000000, -0.7071067811865506814 ) ) ;
#504 = FACE_BOUND ( 'NONE', #606, .T. ) ;
#505 = CYLINDRICAL_SURFACE ( 'NONE', #288, 6.075000000000000178 ) ;
#506 = EDGE_LOOP ( 'NONE', ( #524, #409 ) ) ;
#507 = DIRECTION ( 'NONE',  ( 0.000000000000000000, 0.000000000000000000, -1.000000000000000000 ) ) ;
#508 = DIRECTION ( 'NONE',  ( -6.938893903907223447E-16, -1.000000000000000000, -0.000000000000000000 ) ) ;
#509 = AXIS2_PLACEMENT_3D ( 'NONE', #1055, #240, #598 ) ;
#510 = EDGE_CURVE ( 'NONE', #304, #163, #1009, .T. ) ;
#511 = VECTOR ( 'NONE', #1072, 1000.000000000000000 ) ;
#512 = ORIENTED_EDGE ( 'NONE', *, *, #362, .F. ) ;
#513 = DIRECTION ( 'NONE',  ( -1.000000000000000000, -0.000000000000000000, -0.000000000000000000 ) ) ;
#514 = DIRECTION ( 'NONE',  ( 1.000000000000000000, 0.000000000000000000, 0.000000000000000000 ) ) ;
#515 = CC_DESIGN_SECURITY_CLASSIFICATION ( #538, ( #743 ) ) ;
#516 = ORIENTED_EDGE ( 'NONE', *, *, #460, .F. ) ;
#517 = VECTOR ( 'NONE', #751, 1000.000000000000000 ) ;
#518 = CARTESIAN_POINT ( 'NONE',  ( 11.24999999999994849, 3.144479452198249536, -133.2705803164349732 ) ) ;
#519 = PRODUCT_RELATED_PRODUCT_CATEGORY ( 'detail', '', ( #1063 ) ) ;
#520 = ORIENTED_EDGE ( 'NONE', *, *, #871, .T. ) ;
#521 = ORIENTED_EDGE ( 'NONE', *, *, #382, .F. ) ;
#522 = CARTESIAN_POINT ( 'NONE',  ( 80.00000000000004263, -10.32500000000000817, -89.96372021095663740 ) ) ;
#523 = CIRCLE ( 'NONE', #706, 4.500000000000087041 ) ;
#524 = ORIENTED_EDGE ( 'NONE', *, *, #1069, .T. ) ;
#525 = VERTEX_POINT ( 'NONE', #63 ) ;
#526 = DIRECTION ( 'NONE',  ( -1.000000000000000000, 1.387778780781445676E-16, -0.000000000000000000 ) ) ;
#527 =( NAMED_UNIT ( * ) PLANE_ANGLE_UNIT ( ) SI_UNIT ( $, .RADIAN. ) );
#528 = ORIENTED_EDGE ( 'NONE', *, *, #216, .T. ) ;
#529 = EDGE_CURVE ( 'NONE', #163, #635, #761, .T. ) ;
#530 = VERTEX_POINT ( 'NONE', #170 ) ;
#531 = FACE_OUTER_BOUND ( 'NONE', #572, .T. ) ;
#532 = CARTESIAN_POINT ( 'NONE',  ( 21.25000000000000711, 3.144479452198242875, -13.32500000000000284 ) ) ;
#533 = DIRECTION ( 'NONE',  ( -0.3162277660168379412, 0.000000000000000000, -0.9486832980505138790 ) ) ;
#534 = VERTEX_POINT ( 'NONE', #868 ) ;
#535 = CARTESIAN_POINT ( 'NONE',  ( 21.24999999999999289, -16.39999999999999147, -23.30000000000000782 ) ) ;
#536 = ADVANCED_FACE ( 'NONE', ( #789 ), #869, .F. ) ;
#537 = PERSON_AND_ORGANIZATION ( #766, #840 ) ;
#538 = SECURITY_CLASSIFICATION ( '', '', #699 ) ;
#539 = EDGE_LOOP ( 'NONE', ( #209, #579, #818, #929 ) ) ;
#540 = EDGE_LOOP ( 'NONE', ( #603, #1053, #213, #160 ) ) ;
#541 = EDGE_CURVE ( 'NONE', #1152, #534, #602, .T. ) ;
#542 = CARTESIAN_POINT ( 'NONE',  ( 21.24999999999999289, -16.39999999999999858, -89.96372021095663740 ) ) ;
#543 = AXIS2_PLACEMENT_3D ( 'NONE', #302, #919, #650 ) ;
#544 = CONICAL_SURFACE ( 'NONE', #973, 1.500000000000001332, 0.7853981633974523868 ) ;
#545 = CIRCLE ( 'NONE', #275, 6.075000000000000178 ) ;
#546 = ORIENTED_EDGE ( 'NONE', *, *, #382, .T. ) ;
#547 = VECTOR ( 'NONE', #826, 1000.000000000000000 ) ;
#548 = DIRECTION ( 'NONE',  ( 1.000000000000000000, -2.891205793294678080E-17, 0.000000000000000000 ) ) ;
#549 = ADVANCED_FACE ( 'NONE', ( #257 ), #157, .F. ) ;
#550 = VERTEX_POINT ( 'NONE', #175 ) ;
#551 = CARTESIAN_POINT ( 'NONE',  ( 21.24999999999999289, -55.00000000000002842, -18.79779015821739208 ) ) ;
#552 = EDGE_LOOP ( 'NONE', ( #349, #373, #361, #1103 ) ) ;
#553 = DIRECTION ( 'NONE',  ( 0.000000000000000000, 0.000000000000000000, 1.000000000000000000 ) ) ;
#554 = EDGE_CURVE ( 'NONE', #550, #1137, #953, .T. ) ;
#555 = CARTESIAN_POINT ( 'NONE',  ( 18.44144721634173223, 3.144479452198242875, -13.32500000000000284 ) ) ;
#556 = VERTEX_POINT ( 'NONE', #13 ) ;
#557 = EDGE_CURVE ( 'NONE', #456, #353, #282, .T. ) ;
#558 = DIRECTION ( 'NONE',  ( -1.000000000000000000, -0.000000000000000000, -0.000000000000000000 ) ) ;
#559 = CARTESIAN_POINT ( 'NONE',  ( 19.44144721634173223, 3.144479452198242875, -130.2705803164349447 ) ) ;
#560 = EDGE_LOOP ( 'NONE', ( #611, #252, #451, #270 ) ) ;
#561 = CARTESIAN_POINT ( 'NONE',  ( 21.24999999999999289, -16.39999999999999503, -56.63186010547832439 ) ) ;
#562 = VECTOR ( 'NONE', #508, 1000.000000000000000 ) ;
#563 = EDGE_CURVE ( 'NONE', #734, #978, #1163, .T. ) ;
#564 = PLANE ( 'NONE',  #8 ) ;
#565 = ORIENTED_EDGE ( 'NONE', *, *, #413, .T. ) ;
#566 = DIRECTION ( 'NONE',  ( 0.000000000000000000, 0.000000000000000000, 1.000000000000000000 ) ) ;
#567 = CARTESIAN_POINT ( 'NONE',  ( 80.00000000000004263, -10.32499999999999751, -23.30000000000000782 ) ) ;
#568 = DIRECTION ( 'NONE',  ( 1.000000000000000000, 0.000000000000000000, 0.000000000000000000 ) ) ;
#569 = DIRECTION ( 'NONE',  ( 0.7071067811865445751, 8.659560562354968603E-17, 0.7071067811865504593 ) ) ;
#570 = VECTOR ( 'NONE', #1156, 1000.000000000000000 ) ;
#571 = ADVANCED_FACE ( 'NONE', ( #203 ), #564, .F. ) ;
#572 = EDGE_LOOP ( 'NONE', ( #954, #875, #842, #614 ) ) ;
#573 = CARTESIAN_POINT ( 'NONE',  ( 20.68269750529237783, -8.324999999999988631, 6.547434164902551146 ) ) ;
#574 = AXIS2_PLACEMENT_3D ( 'NONE', #735, #924, #917 ) ;
#575 = CARTESIAN_POINT ( 'NONE',  ( 11.24999999999998934, -55.00000000000002842, -71.79779015821748089 ) ) ;
#576 = CC_DESIGN_APPROVAL ( #118, ( #538 ) ) ;
#577 = LINE ( 'NONE', #1140, #1094 ) ;
#578 = DIRECTION ( 'NONE',  ( -1.000000000000000000, -0.000000000000000000, -0.000000000000000000 ) ) ;
#579 = ORIENTED_EDGE ( 'NONE', *, *, #587, .F. ) ;
#580 = FACE_OUTER_BOUND ( 'NONE', #961, .T. ) ;
#581 = CIRCLE ( 'NONE', #775, 6.074999999999997513 ) ;
#582 = CARTESIAN_POINT ( 'NONE',  ( 14.05855278365817895, -60.00000000000002132, -133.2705803164349732 ) ) ;
#583 = CARTESIAN_POINT ( 'NONE',  ( 18.24999999999991118, -55.00000000000003553, -121.7977901582174951 ) ) ;
#584 = ORIENTED_EDGE ( 'NONE', *, *, #480, .F. ) ;
#585 = FACE_OUTER_BOUND ( 'NONE', #129, .T. ) ;
#586 = LINE ( 'NONE', #567, #830 ) ;
#587 = EDGE_CURVE ( 'NONE', #461, #829, #1058, .T. ) ;
#588 = ORIENTED_EDGE ( 'NONE', *, *, #767, .T. ) ;
#589 = DIRECTION ( 'NONE',  ( 0.000000000000000000, 0.000000000000000000, 1.000000000000000000 ) ) ;
#590 = VECTOR ( 'NONE', #1130, 1000.000000000000000 ) ;
#591 = DIRECTION ( 'NONE',  ( -1.000000000000000000, 1.387778780781445676E-16, -0.000000000000000000 ) ) ;
#592 = ORIENTED_EDGE ( 'NONE', *, *, #301, .F. ) ;
#593 = DIRECTION ( 'NONE',  ( 0.000000000000000000, 0.000000000000000000, 1.000000000000000000 ) ) ;
#594 = EDGE_CURVE ( 'NONE', #530, #1167, #545, .T. ) ;
#595 = DIRECTION ( 'NONE',  ( -1.000000000000000000, 1.387778780781445676E-16, -0.000000000000000000 ) ) ;
#596 = ORIENTED_EDGE ( 'NONE', *, *, #454, .T. ) ;
#597 = CARTESIAN_POINT ( 'NONE',  ( 21.24999999999999289, -60.00000000000002842, -275.4115261043579039 ) ) ;
#598 = DIRECTION ( 'NONE',  ( 0.000000000000000000, 1.000000000000000000, 0.000000000000000000 ) ) ;
#599 = ORIENTED_EDGE ( 'NONE', *, *, #487, .T. ) ;
#600 = VECTOR ( 'NONE', #100, 1000.000000000000114 ) ;
#601 = DIRECTION ( 'NONE',  ( 1.000000000000000000, -2.891205793294678080E-17, 0.000000000000000000 ) ) ;
#602 = CIRCLE ( 'NONE', #509, 1.499999999999980460 ) ;
#603 = ORIENTED_EDGE ( 'NONE', *, *, #554, .F. ) ;
#604 = CARTESIAN_POINT ( 'NONE',  ( 18.24999999999991118, -55.00000000000003553, -124.7977901582174667 ) ) ;
#605 = ORIENTED_EDGE ( 'NONE', *, *, #920, .F. ) ;
#606 = EDGE_LOOP ( 'NONE', ( #1109, #73 ) ) ;
#607 = CARTESIAN_POINT ( 'NONE',  ( 21.24999999999999289, -22.47499999999999432, -89.96372021095663740 ) ) ;
#608 = EDGE_CURVE ( 'NONE', #660, #101, #46, .T. ) ;
#609 = PERSON_AND_ORGANIZATION_ROLE ( 'creator' ) ;
#610 = EDGE_LOOP ( 'NONE', ( #947, #14, #797, #993 ) ) ;
#611 = ORIENTED_EDGE ( 'NONE', *, *, #715, .T. ) ;
#612 = DIRECTION ( 'NONE',  ( -0.3162277660168379412, 0.000000000000000000, -0.9486832980505138790 ) ) ;
#613 = EDGE_CURVE ( 'NONE', #402, #822, #134, .T. ) ;
#614 = ORIENTED_EDGE ( 'NONE', *, *, #613, .F. ) ;
#615 = ORIENTED_EDGE ( 'NONE', *, *, #657, .T. ) ;
#616 = DIRECTION ( 'NONE',  ( -1.000000000000000000, -0.000000000000000000, -0.000000000000000000 ) ) ;
#617 = DIRECTION ( 'NONE',  ( 0.000000000000000000, -1.000000000000000000, 0.000000000000000000 ) ) ;
#618 = PERSON_AND_ORGANIZATION ( #766, #840 ) ;
#619 = VECTOR ( 'NONE', #36, 1000.000000000000000 ) ;
#620 = VECTOR ( 'NONE', #323, 1000.000000000000000 ) ;
#621 = ORIENTED_EDGE ( 'NONE', *, *, #32, .F. ) ;
#622 = EDGE_CURVE ( 'NONE', #822, #9, #667, .T. ) ;
#623 = DIRECTION ( 'NONE',  ( -6.938893903907223447E-16, -1.000000000000000000, -0.000000000000000000 ) ) ;
#624 = DATE_AND_TIME ( #452, #459 ) ;
#625 = AXIS2_PLACEMENT_3D ( 'NONE', #518, #168, #245 ) ;
#626 = EDGE_LOOP ( 'NONE', ( #1154, #1029, #43, #986 ) ) ;
#627 = ORIENTED_EDGE ( 'NONE', *, *, #708, .T. ) ;
#628 = DIRECTION ( 'NONE',  ( 1.000000000000000000, -0.000000000000000000, -0.000000000000000000 ) ) ;
#629 = AXIS2_PLACEMENT_3D ( 'NONE', #30, #1097, #482 ) ;
#630 = LOCAL_TIME ( 10, 37, 4.000000000000000000, #193 ) ;
#631 = ORIENTED_EDGE ( 'NONE', *, *, #563, .T. ) ;
#632 = ORIENTED_EDGE ( 'NONE', *, *, #510, .F. ) ;
#633 = CC_DESIGN_PERSON_AND_ORGANIZATION_ASSIGNMENT ( #537, #703, ( #1063 ) ) ;
#634 = APPROVAL_DATE_TIME ( #1017, #118 ) ;
#635 = VERTEX_POINT ( 'NONE', #67 ) ;
#636 = VECTOR ( 'NONE', #736, 1000.000000000000000 ) ;
#637 = VECTOR ( 'NONE', #533, 1000.000000000000000 ) ;
#638 = LINE ( 'NONE', #1165, #600 ) ;
#639 = EDGE_LOOP ( 'NONE', ( #107, #325, #942, #1142 ) ) ;
#640 = EDGE_CURVE ( 'NONE', #165, #340, #905, .T. ) ;
#641 = ORIENTED_EDGE ( 'NONE', *, *, #936, .T. ) ;
#642 = CIRCLE ( 'NONE', #1065, 6.075000000000000178 ) ;
#643 = DIRECTION ( 'NONE',  ( 0.000000000000000000, 0.000000000000000000, -1.000000000000000000 ) ) ;
#644 = ADVANCED_FACE ( 'NONE', ( #492 ), #932, .F. ) ;
#645 = VECTOR ( 'NONE', #494, 1000.000000000000000 ) ;
#646 = DIRECTION ( 'NONE',  ( 0.9486832980505138790, -6.582812753581311037E-16, 0.3162277660168379412 ) ) ;
#647 = CARTESIAN_POINT ( 'NONE',  ( 11.24999999999999645, -10.32499999999999751, -89.96372021095663740 ) ) ;
#648 = ORIENTED_EDGE ( 'NONE', *, *, #767, .F. ) ;
#649 = PLANE ( 'NONE',  #231 ) ;
#650 = DIRECTION ( 'NONE',  ( 0.000000000000000000, 0.000000000000000000, 1.000000000000000000 ) ) ;
#651 = APPROVAL ( #974, 'UNSPECIFIED' ) ;
#652 = DIRECTION ( 'NONE',  ( 1.000000000000000000, 0.000000000000000000, 0.000000000000000000 ) ) ;
#653 = ORIENTED_EDGE ( 'NONE', *, *, #723, .F. ) ;
#654 = AXIS2_PLACEMENT_3D ( 'NONE', #542, #558, #1010 ) ;
#655 = LINE ( 'NONE', #1012, #224 ) ;
#656 = CIRCLE ( 'NONE', #543, 1.500000000000004885 ) ;
#657 = EDGE_CURVE ( 'NONE', #37, #241, #437, .T. ) ;
#658 = UNCERTAINTY_MEASURE_WITH_UNIT (LENGTH_MEASURE( 1.000000000000000082E-05 ), #982, 'distance_accuracy_value', 'NONE');
#659 = CARTESIAN_POINT ( 'NONE',  ( 18.24999999999992539, -55.00000000000002842, -71.79779015821748089 ) ) ;
#660 = VERTEX_POINT ( 'NONE', #59 ) ;
#661 = CARTESIAN_POINT ( 'NONE',  ( -20.75000000000001066, -55.00000000000003553, -121.7977901582174951 ) ) ;
#662 = LINE ( 'NONE', #110, #1082 ) ;
#663 = CIRCLE ( 'NONE', #169, 6.074999999999997513 ) ;
#664 = LINE ( 'NONE', #316, #448 ) ;
#665 = AXIS2_PLACEMENT_3D ( 'NONE', #156, #593, #952 ) ;
#666 = EDGE_CURVE ( 'NONE', #734, #158, #408, .T. ) ;
#667 = LINE ( 'NONE', #400, #15 ) ;
#668 = CARTESIAN_POINT ( 'NONE',  ( 80.00000000000005684, -8.324999999999999289, -13.22500000000000675 ) ) ;
#669 = ORIENTED_EDGE ( 'NONE', *, *, #374, .T. ) ;
#670 = FACE_OUTER_BOUND ( 'NONE', #24, .T. ) ;
#671 = LINE ( 'NONE', #236, #962 ) ;
#672 = DIRECTION ( 'NONE',  ( -1.000000000000000000, 1.387778780781445676E-16, -0.000000000000000000 ) ) ;
#673 = ADVANCED_FACE ( 'NONE', ( #504, #90, #892, #802, #1112, #297, #392, #471 ), #1093, .F. ) ;
#674 = CARTESIAN_POINT ( 'NONE',  ( 80.00000000000004263, -16.40000000000000924, -123.2955803164349646 ) ) ;
#675 = EDGE_LOOP ( 'NONE', ( #117, #253 ) ) ;
#676 = CYLINDRICAL_SURFACE ( 'NONE', #55, 6.074999999999997513 ) ;
#677 = DIRECTION ( 'NONE',  ( 1.000000000000000000, -0.000000000000000000, -0.000000000000000000 ) ) ;
#678 = EDGE_LOOP ( 'NONE', ( #381, #449 ) ) ;
#679 = AXIS2_PLACEMENT_3D ( 'NONE', #489, #47, #396 ) ;
#680 = LINE ( 'NONE', #1126, #620 ) ;
#681 = CARTESIAN_POINT ( 'NONE',  ( -20.75000000000001066, -55.00000000000002842, -23.29779015821748089 ) ) ;
#682 = ORIENTED_EDGE ( 'NONE', *, *, #871, .F. ) ;
#683 = CARTESIAN_POINT ( 'NONE',  ( 19.44144721634173578, -8.325000000000004619, -130.2705803164349447 ) ) ;
#684 = DIRECTION ( 'NONE',  ( 0.000000000000000000, 0.000000000000000000, -1.000000000000000000 ) ) ;
#685 = ORIENTED_EDGE ( 'NONE', *, *, #189, .F. ) ;
#686 = CARTESIAN_POINT ( 'NONE',  ( 11.24999999999999112, -8.325000000000006395, -275.4115261043579039 ) ) ;
#687 = EDGE_LOOP ( 'NONE', ( #376, #886, #72, #988 ) ) ;
#688 = CARTESIAN_POINT ( 'NONE',  ( 13.05855278365822159, 3.144479452198249536, -16.32500000000000639 ) ) ;
#689 =( GEOMETRIC_REPRESENTATION_CONTEXT ( 3 ) GLOBAL_UNCERTAINTY_ASSIGNED_CONTEXT ( ( #658 ) ) GLOBAL_UNIT_ASSIGNED_CONTEXT ( ( #982, #527, #180 ) ) REPRESENTATION_CONTEXT ( 'NONE', 'WORKASPACE' ) );
#690 = CARTESIAN_POINT ( 'NONE',  ( 80.00000000000004263, -22.47499999999999787, -56.63186010547832439 ) ) ;
#691 = CARTESIAN_POINT ( 'NONE',  ( 18.44144721634168604, -60.00000000000002842, -133.2705803164349732 ) ) ;
#692 = ORIENTED_EDGE ( 'NONE', *, *, #950, .F. ) ;
#693 = EDGE_CURVE ( 'NONE', #286, #207, #750, .T. ) ;
#694 = ORIENTED_EDGE ( 'NONE', *, *, #666, .T. ) ;
#695 = CLOSED_SHELL ( 'NONE', ( #702, #1102, #441, #644, #192, #1158, #333, #1118, #742, #147, #289, #980, #87, #318, #223, #673, #1031, #472, #1008, #356, #470, #1039, #733, #66, #965, #969, #421, #571, #1006, #827, #549, #1145, #274, #536 ) ) ;
#696 = AXIS2_PLACEMENT_3D ( 'NONE', #401, #601, #237 ) ;
#697 = CYLINDRICAL_SURFACE ( 'NONE', #330, 6.074999999999997513 ) ;
#698 = AXIS2_PLACEMENT_3D ( 'NONE', #881, #1168, #612 ) ;
#699 = SECURITY_CLASSIFICATION_LEVEL ( 'unclassified' ) ;
#700 = EDGE_LOOP ( 'NONE', ( #443, #1101, #244, #195 ) ) ;
#701 = DIRECTION ( 'NONE',  ( 0.000000000000000000, 0.000000000000000000, -1.000000000000000000 ) ) ;
#702 = ADVANCED_FACE ( 'NONE', ( #1107 ), #453, .F. ) ;
#703 = PERSON_AND_ORGANIZATION_ROLE ( 'design_owner' ) ;
#704 = ORIENTED_EDGE ( 'NONE', *, *, #640, .T. ) ;
#705 = VERTEX_POINT ( 'NONE', #120 ) ;
#706 = AXIS2_PLACEMENT_3D ( 'NONE', #823, #210, #130 ) ;
#707 = PERSON_AND_ORGANIZATION ( #766, #840 ) ;
#708 = EDGE_CURVE ( 'NONE', #1167, #530, #642, .T. ) ;
#709 = CARTESIAN_POINT ( 'NONE',  ( 18.24999999999991118, -55.00000000000003553, -123.2977901582174809 ) ) ;
#710 = EDGE_LOOP ( 'NONE', ( #596, #271, #463, #631, #722, #327, #835, #188, #31, #923, #520, #95 ) ) ;
#711 = DIRECTION ( 'NONE',  ( -1.000000000000000000, -0.000000000000000000, -0.000000000000000000 ) ) ;
#712 = PERSON_AND_ORGANIZATION ( #766, #840 ) ;
#713 = AXIS2_PLACEMENT_3D ( 'NONE', #778, #151, #1037 ) ;
#714 = ORIENTED_EDGE ( 'NONE', *, *, #723, .T. ) ;
#715 = EDGE_CURVE ( 'NONE', #419, #286, #913, .T. ) ;
#716 = PERSON_AND_ORGANIZATION ( #766, #840 ) ;
#717 = CARTESIAN_POINT ( 'NONE',  ( 11.24999999999998934, -55.00000000000002842, -73.29779015821748089 ) ) ;
#718 = ORIENTED_EDGE ( 'NONE', *, *, #127, .T. ) ;
#719 = ORIENTED_EDGE ( 'NONE', *, *, #708, .F. ) ;
#720 = AXIS2_PLACEMENT_3D ( 'NONE', #457, #643, #300 ) ;
#721 = CARTESIAN_POINT ( 'NONE',  ( 21.24999999999999289, -16.40000000000000213, -123.2955803164349646 ) ) ;
#722 = ORIENTED_EDGE ( 'NONE', *, *, #57, .T. ) ;
#723 = EDGE_CURVE ( 'NONE', #809, #351, #724, .T. ) ;
#724 = LINE ( 'NONE', #424, #148 ) ;
#725 = COORDINATED_UNIVERSAL_TIME_OFFSET ( 1, 0, .AHEAD. ) ;
#726 = DIRECTION ( 'NONE',  ( -1.387778780781445676E-16, -1.000000000000000000, 1.155081008495165429E-16 ) ) ;
#727 = ORIENTED_EDGE ( 'NONE', *, *, #996, .T. ) ;
#728 = DIRECTION ( 'NONE',  ( -1.000000000000000000, -0.000000000000000000, -0.000000000000000000 ) ) ;
#729 = FACE_OUTER_BOUND ( 'NONE', #951, .T. ) ;
#730 = CARTESIAN_POINT ( 'NONE',  ( 14.05855278365817895, -60.00000000000002132, -13.32500000000000284 ) ) ;
#731 = ORIENTED_EDGE ( 'NONE', *, *, #922, .F. ) ;
#732 = ORIENTED_EDGE ( 'NONE', *, *, #864, .F. ) ;
#733 = ADVANCED_FACE ( 'NONE', ( #757 ), #870, .F. ) ;
#734 = VERTEX_POINT ( 'NONE', #202 ) ;
#735 = CARTESIAN_POINT ( 'NONE',  ( 11.24999999999998934, -55.00000000000002842, -73.29779015821748089 ) ) ;
#736 = DIRECTION ( 'NONE',  ( 0.3162277660168379412, 6.569518770826194517E-17, 0.9486832980505138790 ) ) ;
#737 = CARTESIAN_POINT ( 'NONE',  ( 80.00000000000005684, -8.325000000000013500, -133.2705803164349732 ) ) ;
#738 = ORIENTED_EDGE ( 'NONE', *, *, #622, .T. ) ;
#739 = CIRCLE ( 'NONE', #816, 4.500000000000087041 ) ;
#740 = CARTESIAN_POINT ( 'NONE',  ( 80.00000000000004263, -16.40000000000000568, -89.96372021095663740 ) ) ;
#741 = CARTESIAN_POINT ( 'NONE',  ( 18.24999999999992539, -55.00000000000002842, -73.29779015821748089 ) ) ;
#742 = ADVANCED_FACE ( 'NONE', ( #1077 ), #1161, .F. ) ;
#743 = PRODUCT_DEFINITION_FORMATION_WITH_SPECIFIED_SOURCE ( 'ANY', '', #1063, .NOT_KNOWN. ) ;
#744 = ORIENTED_EDGE ( 'NONE', *, *, #891, .F. ) ;
#745 = DIRECTION ( 'NONE',  ( 0.3162277660168379412, 0.000000000000000000, 0.9486832980505138790 ) ) ;
#746 = DIRECTION ( 'NONE',  ( 1.000000000000000000, -2.891205793294678080E-17, 0.000000000000000000 ) ) ;
#747 = DESIGN_CONTEXT ( 'detailed design', #977, 'design' ) ;
#748 = CARTESIAN_POINT ( 'NONE',  ( 18.24999999999992539, -55.00000000000002842, -74.79779015821748089 ) ) ;
#749 = AXIS2_PLACEMENT_3D ( 'NONE', #476, #995, #465 ) ;
#750 = LINE ( 'NONE', #834, #1099 ) ;
#751 = DIRECTION ( 'NONE',  ( 1.000000000000000000, -1.387778780781445676E-16, 0.000000000000000000 ) ) ;
#752 = EDGE_LOOP ( 'NONE', ( #984, #704 ) ) ;
#753 = CARTESIAN_POINT ( 'NONE',  ( 13.05855278365821270, -8.324999999999990408, -16.32500000000000639 ) ) ;
#754 = FACE_BOUND ( 'NONE', #900, .T. ) ;
#755 = DIRECTION ( 'NONE',  ( 0.7071067811865444641, 0.000000000000000000, -0.7071067811865505703 ) ) ;
#756 = EDGE_CURVE ( 'NONE', #165, #530, #586, .T. ) ;
#757 = FACE_OUTER_BOUND ( 'NONE', #610, .T. ) ;
#758 = CARTESIAN_POINT ( 'NONE',  ( -20.75000000000001066, -55.00000000000002842, -73.29779015821748089 ) ) ;
#759 = DIRECTION ( 'NONE',  ( 0.000000000000000000, 0.000000000000000000, 1.000000000000000000 ) ) ;
#760 = CARTESIAN_POINT ( 'NONE',  ( 11.24999999999999645, -16.39999999999999503, -89.96372021095663740 ) ) ;
#761 = LINE ( 'NONE', #772, #218 ) ;
#762 = LINE ( 'NONE', #315, #810 ) ;
#763 = CIRCLE ( 'NONE', #269, 6.074999999999997513 ) ;
#764 = ORIENTED_EDGE ( 'NONE', *, *, #769, .F. ) ;
#765 = LINE ( 'NONE', #748, #1157 ) ;
#766 = PERSON ( 'UNSPECIFIED', 'UNSPECIFIED', 'UNSPECIFIED', ('UNSPECIFIED'), ('UNSPECIFIED'), ('UNSPECIFIED') ) ;
#767 = EDGE_CURVE ( 'NONE', #525, #286, #54, .T. ) ;
#768 = CARTESIAN_POINT ( 'NONE',  ( 21.24999999999999289, -8.325000000000006395, -275.4115261043579039 ) ) ;
#769 = EDGE_CURVE ( 'NONE', #888, #1137, #663, .T. ) ;
#770 = EDGE_LOOP ( 'NONE', ( #348, #632, #859, #1090 ) ) ;
#771 = DIRECTION ( 'NONE',  ( 1.000000000000000000, -2.891205793294678080E-17, 0.000000000000000000 ) ) ;
#772 = CARTESIAN_POINT ( 'NONE',  ( -20.75000000000001066, -55.00000000000002842, -21.79779015821747379 ) ) ;
#773 = MANIFOLD_SOLID_BREP ( 'Stock-minilip main body-1', #695 ) ;
#774 = VECTOR ( 'NONE', #526, 1000.000000000000000 ) ;
#775 = AXIS2_PLACEMENT_3D ( 'NONE', #1133, #616, #84 ) ;
#776 = ORIENTED_EDGE ( 'NONE', *, *, #880, .F. ) ;
#777 = DIRECTION ( 'NONE',  ( 1.000000000000000000, 0.000000000000000000, 0.000000000000000000 ) ) ;
#778 = CARTESIAN_POINT ( 'NONE',  ( 11.24999999999998934, -55.00000000000002842, -23.29779015821748089 ) ) ;
#779 = AXIS2_PLACEMENT_3D ( 'NONE', #1036, #1045, #1054 ) ;
#780 = CARTESIAN_POINT ( 'NONE',  ( 13.05855278365817718, -60.00000000000002132, -130.2705803164349447 ) ) ;
#781 = FACE_OUTER_BOUND ( 'NONE', #363, .T. ) ;
#782 = ORIENTED_EDGE ( 'NONE', *, *, #436, .F. ) ;
#783 = VECTOR ( 'NONE', #486, 1000.000000000000000 ) ;
#784 = ORIENTED_EDGE ( 'NONE', *, *, #885, .F. ) ;
#785 = AXIS2_PLACEMENT_3D ( 'NONE', #867, #943, #150 ) ;
#786 = FACE_OUTER_BOUND ( 'NONE', #7, .T. ) ;
#787 = FACE_OUTER_BOUND ( 'NONE', #540, .T. ) ;
#788 = FACE_OUTER_BOUND ( 'NONE', #934, .T. ) ;
#789 = FACE_OUTER_BOUND ( 'NONE', #111, .T. ) ;
#790 = VERTEX_POINT ( 'NONE', #306 ) ;
#791 = CARTESIAN_POINT ( 'NONE',  ( 19.44144721634172157, -8.324999999999990408, -16.32500000000000639 ) ) ;
#792 = COORDINATED_UNIVERSAL_TIME_OFFSET ( 1, 0, .AHEAD. ) ;
#793 = ORIENTED_EDGE ( 'NONE', *, *, #487, .F. ) ;
#794 = ORIENTED_EDGE ( 'NONE', *, *, #557, .F. ) ;
#795 = DIRECTION ( 'NONE',  ( 0.000000000000000000, 0.000000000000000000, 1.000000000000000000 ) ) ;
#796 = EDGE_CURVE ( 'NONE', #351, #9, #762, .T. ) ;
#797 = ORIENTED_EDGE ( 'NONE', *, *, #1079, .F. ) ;
#798 = CARTESIAN_POINT ( 'NONE',  ( 14.05855278365817895, -60.00000000000002132, -13.32500000000000284 ) ) ;
#799 = ORIENTED_EDGE ( 'NONE', *, *, #1127, .F. ) ;
#800 = LINE ( 'NONE', #186, #119 ) ;
#801 = EDGE_CURVE ( 'NONE', #394, #845, #140, .T. ) ;
#802 = FACE_BOUND ( 'NONE', #752, .T. ) ;
#803 = PERSON_AND_ORGANIZATION ( #766, #840 ) ;
#804 = ORIENTED_EDGE ( 'NONE', *, *, #903, .F. ) ;
#805 = CARTESIAN_POINT ( 'NONE',  ( 21.24999999999999289, -55.00000000000002842, -73.29779015821748089 ) ) ;
#806 = APPLICATION_PROTOCOL_DEFINITION ( 'international standard', 'config_control_design', 1994, #921 ) ;
#807 = EDGE_CURVE ( 'NONE', #1048, #705, #671, .T. ) ;
#808 = ORIENTED_EDGE ( 'NONE', *, *, #176, .F. ) ;
#809 = VERTEX_POINT ( 'NONE', #497 ) ;
#810 = VECTOR ( 'NONE', #477, 1000.000000000000000 ) ;
#811 = CALENDAR_DATE ( 2026, 2, 6 ) ;
#812 = AXIS2_PLACEMENT_3D ( 'NONE', #161, #513, #1026 ) ;
#813 = ORIENTED_EDGE ( 'NONE', *, *, #839, .T. ) ;
#814 = DIRECTION ( 'NONE',  ( -0.3162277660168379412, 0.000000000000000000, 0.9486832980505138790 ) ) ;
#815 = SHAPE_DEFINITION_REPRESENTATION ( #335, #1047 ) ;
#816 = AXIS2_PLACEMENT_3D ( 'NONE', #1021, #728, #553 ) ;
#817 = CARTESIAN_POINT ( 'NONE',  ( 18.44144721634173223, 3.144479452198242875, -13.32500000000000284 ) ) ;
#818 = ORIENTED_EDGE ( 'NONE', *, *, #25, .T. ) ;
#819 = EDGE_CURVE ( 'NONE', #259, #845, #1121, .T. ) ;
#820 = ORIENTED_EDGE ( 'NONE', *, *, #756, .T. ) ;
#821 = DIRECTION ( 'NONE',  ( 0.3162277660168379412, 0.000000000000000000, -0.9486832980505138790 ) ) ;
#822 = VERTEX_POINT ( 'NONE', #328 ) ;
#823 = CARTESIAN_POINT ( 'NONE',  ( 21.24999999999999289, -55.00000000000002842, -73.29779015821748089 ) ) ;
#824 = VECTOR ( 'NONE', #963, 1000.000000000000000 ) ;
#825 = EDGE_LOOP ( 'NONE', ( #384, #782, #528, #299 ) ) ;
#826 = DIRECTION ( 'NONE',  ( -6.938893903907223447E-16, -1.000000000000000000, -0.000000000000000000 ) ) ;
#827 = ADVANCED_FACE ( 'NONE', ( #865 ), #398, .F. ) ;
#828 = DIRECTION ( 'NONE',  ( 1.000000000000000000, -0.000000000000000000, -0.000000000000000000 ) ) ;
#829 = VERTEX_POINT ( 'NONE', #985 ) ;
#830 = VECTOR ( 'NONE', #1005, 1000.000000000000000 ) ;
#831 = CYLINDRICAL_SURFACE ( 'NONE', #264, 6.074999999999997513 ) ;
#832 = DIRECTION ( 'NONE',  ( 2.891205793294678080E-17, 1.000000000000000000, 0.000000000000000000 ) ) ;
#833 = CARTESIAN_POINT ( 'NONE',  ( 11.24999999999994849, 3.144479452198249536, -13.32500000000000284 ) ) ;
#834 = CARTESIAN_POINT ( 'NONE',  ( 19.44144721634168960, -60.00000000000002842, -16.32500000000000639 ) ) ;
#835 = ORIENTED_EDGE ( 'NONE', *, *, #362, .T. ) ;
#836 = CIRCLE ( 'NONE', #1025, 6.074999999999997513 ) ;
#837 = CARTESIAN_POINT ( 'NONE',  ( 18.44144721634172512, -8.325000000000004619, -133.2705803164349732 ) ) ;
#838 = CARTESIAN_POINT ( 'NONE',  ( 11.24999999999999289, 60.00000000000000711, -275.4115261043579039 ) ) ;
#839 = EDGE_CURVE ( 'NONE', #852, #550, #836, .T. ) ;
#840 = ORGANIZATION ( 'UNSPECIFIED', 'UNSPECIFIED', '' ) ;
#841 = DIRECTION ( 'NONE',  ( -1.000000000000000000, 0.000000000000000000, -0.000000000000000000 ) ) ;
#842 = ORIENTED_EDGE ( 'NONE', *, *, #622, .F. ) ;
#843 = CARTESIAN_POINT ( 'NONE',  ( 80.00000000000005684, -8.324999999999999289, -13.32500000000000284 ) ) ;
#844 = CARTESIAN_POINT ( 'NONE',  ( -20.75000000000001066, -55.00000000000002842, -74.79779015821748089 ) ) ;
#845 = VERTEX_POINT ( 'NONE', #1132 ) ;
#846 = CARTESIAN_POINT ( 'NONE',  ( 21.24999999999999289, -55.00000000000003553, -123.2977901582174809 ) ) ;
#847 = EDGE_CURVE ( 'NONE', #790, #444, #483, .T. ) ;
#848 = LINE ( 'NONE', #938, #162 ) ;
#849 = CIRCLE ( 'NONE', #393, 4.500000000000087041 ) ;
#850 = DIRECTION ( 'NONE',  ( 1.000000000000000000, -2.891205793294678080E-17, 0.000000000000000000 ) ) ;
#851 = FACE_OUTER_BOUND ( 'NONE', #710, .T. ) ;
#852 = VERTEX_POINT ( 'NONE', #464 ) ;
#853 = CARTESIAN_POINT ( 'NONE',  ( 80.00000000000005684, -8.324999999999999289, -16.32500000000000639 ) ) ;
#854 = AXIS2_PLACEMENT_3D ( 'NONE', #717, #225, #1128 ) ;
#855 = DIRECTION ( 'NONE',  ( 0.000000000000000000, 0.000000000000000000, -1.000000000000000000 ) ) ;
#856 = EDGE_CURVE ( 'NONE', #60, #207, #911, .T. ) ;
#857 = CARTESIAN_POINT ( 'NONE',  ( 11.24999999999994138, -8.325000000000002842, -133.2705803164349732 ) ) ;
#858 = DIRECTION ( 'NONE',  ( -1.000000000000000000, -0.000000000000000000, -0.000000000000000000 ) ) ;
#859 = ORIENTED_EDGE ( 'NONE', *, *, #105, .T. ) ;
#860 = DIRECTION ( 'NONE',  ( 0.000000000000000000, 1.000000000000000000, 0.000000000000000000 ) ) ;
#861 = DIRECTION ( 'NONE',  ( 1.000000000000000000, -1.387778780781445676E-16, 0.000000000000000000 ) ) ;
#862 = AXIS2_PLACEMENT_3D ( 'NONE', #1071, #628, #964 ) ;
#863 = CARTESIAN_POINT ( 'NONE',  ( 14.05855278365822159, 3.144479452198249536, -133.2705803164349732 ) ) ;
#864 = EDGE_CURVE ( 'NONE', #705, #182, #1151, .T. ) ;
#865 = FACE_OUTER_BOUND ( 'NONE', #639, .T. ) ;
#866 = VERTEX_POINT ( 'NONE', #753 ) ;
#867 = CARTESIAN_POINT ( 'NONE',  ( 18.24999999999991118, -55.00000000000003553, -123.2977901582174809 ) ) ;
#868 = CARTESIAN_POINT ( 'NONE',  ( 11.24999999999998934, -55.00000000000003553, -124.7977901582174667 ) ) ;
#869 = CONICAL_SURFACE ( 'NONE', #71, 1.500000000000004885, 0.7853981633974524978 ) ;
#870 = PLANE ( 'NONE',  #206 ) ;
#871 = EDGE_CURVE ( 'NONE', #822, #866, #314, .T. ) ;
#872 = DIRECTION ( 'NONE',  ( 0.000000000000000000, -1.000000000000000000, 0.000000000000000000 ) ) ;
#873 = ORIENTED_EDGE ( 'NONE', *, *, #807, .F. ) ;
#874 = CARTESIAN_POINT ( 'NONE',  ( 13.05855278365822159, 3.144479452198249536, -130.2705803164349447 ) ) ;
#875 = ORIENTED_EDGE ( 'NONE', *, *, #796, .T. ) ;
#876 = ORIENTED_EDGE ( 'NONE', *, *, #1050, .T. ) ;
#877 = CARTESIAN_POINT ( 'NONE',  ( 11.24999999999990585, -60.00000000000002132, -13.32500000000000284 ) ) ;
#878 = PLANE ( 'NONE',  #665 ) ;
#879 = DIRECTION ( 'NONE',  ( 1.000000000000000000, -0.000000000000000000, -0.000000000000000000 ) ) ;
#880 = EDGE_CURVE ( 'NONE', #265, #336, #228, .T. ) ;
#881 = CARTESIAN_POINT ( 'NONE',  ( 19.44144721634173223, 3.144479452198242875, -130.2705803164349447 ) ) ;
#882 = APPROVAL_STATUS ( 'not_yet_approved' ) ;
#883 = CARTESIAN_POINT ( 'NONE',  ( 18.24999999999993250, -55.00000000000002842, -23.29779015821748089 ) ) ;
#884 = ORIENTED_EDGE ( 'NONE', *, *, #6, .F. ) ;
#885 = EDGE_CURVE ( 'NONE', #534, #1048, #906, .T. ) ;
#886 = ORIENTED_EDGE ( 'NONE', *, *, #48, .T. ) ;
#887 = FACE_BOUND ( 'NONE', #263, .T. ) ;
#888 = VERTEX_POINT ( 'NONE', #204 ) ;
#889 = ORIENTED_EDGE ( 'NONE', *, *, #944, .F. ) ;
#890 = CARTESIAN_POINT ( 'NONE',  ( 11.24999999999994849, 3.144479452198249536, -13.32500000000000284 ) ) ;
#891 = EDGE_CURVE ( 'NONE', #149, #249, #523, .T. ) ;
#892 = FACE_BOUND ( 'NONE', #506, .T. ) ;
#893 = PERSON_AND_ORGANIZATION_ROLE ( 'classification_officer' ) ;
#894 = ORIENTED_EDGE ( 'NONE', *, *, #246, .F. ) ;
#895 = DIRECTION ( 'NONE',  ( 0.000000000000000000, 0.000000000000000000, -1.000000000000000000 ) ) ;
#896 = PRODUCT_DEFINITION ( 'UNKNOWN', '', #743, #747 ) ;
#897 = DATE_AND_TIME ( #261, #630 ) ;
#898 = ORIENTED_EDGE ( 'NONE', *, *, #301, .T. ) ;
#899 = LINE ( 'NONE', #690, #1139 ) ;
#900 = EDGE_LOOP ( 'NONE', ( #615, #52 ) ) ;
#901 = AXIS2_PLACEMENT_3D ( 'NONE', #668, #726, #1095 ) ;
#902 = APPROVAL_ROLE ( '' ) ;
#903 = EDGE_CURVE ( 'NONE', #182, #705, #739, .T. ) ;
#904 = CIRCLE ( 'NONE', #343, 1.500000000000001332 ) ;
#905 = CIRCLE ( 'NONE', #51, 6.075000000000000178 ) ;
#906 = LINE ( 'NONE', #44, #61 ) ;
#907 = DIRECTION ( 'NONE',  ( -0.000000000000000000, 0.000000000000000000, 1.000000000000000000 ) ) ;
#908 = AXIS2_PLACEMENT_3D ( 'NONE', #561, #1104, #566 ) ;
#909 = CARTESIAN_POINT ( 'NONE',  ( 21.24999999999999289, -22.47499999999999076, -56.63186010547832439 ) ) ;
#910 = ORIENTED_EDGE ( 'NONE', *, *, #57, .F. ) ;
#911 = LINE ( 'NONE', #817, #1074 ) ;
#912 = FACE_OUTER_BOUND ( 'NONE', #227, .T. ) ;
#913 = LINE ( 'NONE', #927, #547 ) ;
#914 = CARTESIAN_POINT ( 'NONE',  ( 11.24999999999999645, -16.39999999999998792, -23.30000000000000782 ) ) ;
#915 = AXIS2_PLACEMENT_3D ( 'NONE', #555, #855, #841 ) ;
#916 = ORIENTED_EDGE ( 'NONE', *, *, #21, .T. ) ;
#917 = DIRECTION ( 'NONE',  ( 0.000000000000000000, 1.000000000000000000, 0.000000000000000000 ) ) ;
#918 = AXIS2_PLACEMENT_3D ( 'NONE', #89, #92, #895 ) ;
#919 = DIRECTION ( 'NONE',  ( 1.000000000000000000, 0.000000000000000000, 0.000000000000000000 ) ) ;
#920 = EDGE_CURVE ( 'NONE', #1044, #344, #930, .T. ) ;
#921 = APPLICATION_CONTEXT ( 'configuration controlled 3d designs of mechanical parts and assemblies' ) ;
#922 = EDGE_CURVE ( 'NONE', #291, #1048, #247, .T. ) ;
#923 = ORIENTED_EDGE ( 'NONE', *, *, #613, .T. ) ;
#924 = DIRECTION ( 'NONE',  ( 1.000000000000000000, -2.891205793294678080E-17, 0.000000000000000000 ) ) ;
#925 = AXIS2_PLACEMENT_3D ( 'NONE', #70, #948, #337 ) ;
#926 = LINE ( 'NONE', #1125, #490 ) ;
#927 = CARTESIAN_POINT ( 'NONE',  ( 19.44144721634173223, 3.144479452198242875, -16.32500000000000639 ) ) ;
#928 = CARTESIAN_POINT ( 'NONE',  ( -20.75000000000001066, -55.00000000000002842, -73.29779015821748089 ) ) ;
#929 = ORIENTED_EDGE ( 'NONE', *, *, #1135, .F. ) ;
#930 = LINE ( 'NONE', #1124, #112 ) ;
#931 = DIRECTION ( 'NONE',  ( 1.000000000000000000, -0.000000000000000000, -0.000000000000000000 ) ) ;
#932 = CYLINDRICAL_SURFACE ( 'NONE', #1038, 1.500000000000004885 ) ;
#933 = DIRECTION ( 'NONE',  ( -1.000000000000000000, 1.387778780781445676E-16, 0.000000000000000000 ) ) ;
#934 = EDGE_LOOP ( 'NONE', ( #280, #171, #999, #122 ) ) ;
#935 = DIRECTION ( 'NONE',  ( -1.000000000000000000, 1.387778780781445676E-16, -0.000000000000000000 ) ) ;
#936 = EDGE_CURVE ( 'NONE', #313, #115, #133, .T. ) ;
#937 = AXIS2_PLACEMENT_3D ( 'NONE', #65, #1049, #411 ) ;
#938 = CARTESIAN_POINT ( 'NONE',  ( -20.75000000000001066, -55.00000000000002842, -24.79779015821748445 ) ) ;
#939 = PLANE ( 'NONE',  #432 ) ;
#940 = CARTESIAN_POINT ( 'NONE',  ( 11.24999999999999645, -16.39999999999999503, -89.96372021095663740 ) ) ;
#941 = CARTESIAN_POINT ( 'NONE',  ( 80.00000000000004263, -16.39999999999999858, -23.30000000000000782 ) ) ;
#942 = ORIENTED_EDGE ( 'NONE', *, *, #246, .T. ) ;
#943 = DIRECTION ( 'NONE',  ( 1.000000000000000000, 0.000000000000000000, 0.000000000000000000 ) ) ;
#944 = EDGE_CURVE ( 'NONE', #283, #949, #284, .T. ) ;
#945 = CARTESIAN_POINT ( 'NONE',  ( 18.24999999999992539, -55.00000000000002842, -73.29779015821748089 ) ) ;
#946 = VECTOR ( 'NONE', #935, 1000.000000000000000 ) ;
#947 = ORIENTED_EDGE ( 'NONE', *, *, #196, .T. ) ;
#948 = DIRECTION ( 'NONE',  ( -1.000000000000000000, -0.000000000000000000, -0.000000000000000000 ) ) ;
#949 = VERTEX_POINT ( 'NONE', #377 ) ;
#950 = EDGE_CURVE ( 'NONE', #550, #852, #763, .T. ) ;
#951 = EDGE_LOOP ( 'NONE', ( #714, #178, #88, #916 ) ) ;
#952 = DIRECTION ( 'NONE',  ( 1.000000000000000000, 0.000000000000000000, -0.000000000000000000 ) ) ;
#953 = LINE ( 'NONE', #1040, #511 ) ;
#954 = ORIENTED_EDGE ( 'NONE', *, *, #39, .T. ) ;
#955 = DIRECTION ( 'NONE',  ( -3.339576903485881800E-33, -1.155081008495165429E-16, -1.000000000000000000 ) ) ;
#956 = CONICAL_SURFACE ( 'NONE', #918, 1.499999999999987566, 0.7853981633974528309 ) ;
#957 = ORIENTED_EDGE ( 'NONE', *, *, #98, .T. ) ;
#958 = CARTESIAN_POINT ( 'NONE',  ( 11.24999999999999645, -22.47499999999998721, -56.63186010547832439 ) ) ;
#959 = EDGE_CURVE ( 'NONE', #101, #660, #1046, .T. ) ;
#960 = PLANE ( 'NONE',  #625 ) ;
#961 = EDGE_LOOP ( 'NONE', ( #22, #1096, #1115, #34 ) ) ;
#962 = VECTOR ( 'NONE', #503, 1000.000000000000114 ) ;
#963 = DIRECTION ( 'NONE',  ( -1.000000000000000000, -0.000000000000000000, -0.000000000000000000 ) ) ;
#964 = DIRECTION ( 'NONE',  ( 0.000000000000000000, 0.000000000000000000, -1.000000000000000000 ) ) ;
#965 = ADVANCED_FACE ( 'NONE', ( #670 ), #109, .F. ) ;
#966 = ORIENTED_EDGE ( 'NONE', *, *, #922, .T. ) ;
#967 = FACE_BOUND ( 'NONE', #675, .T. ) ;
#968 = EDGE_LOOP ( 'NONE', ( #296, #481 ) ) ;
#969 = ADVANCED_FACE ( 'NONE', ( #385 ), #649, .F. ) ;
#970 = ORIENTED_EDGE ( 'NONE', *, *, #819, .F. ) ;
#971 = LINE ( 'NONE', #522, #774 ) ;
#972 = AXIS2_PLACEMENT_3D ( 'NONE', #709, #94, #1080 ) ;
#973 = AXIS2_PLACEMENT_3D ( 'NONE', #1122, #652, #41 ) ;
#974 = APPROVAL_STATUS ( 'not_yet_approved' ) ;
#975 = CARTESIAN_POINT ( 'NONE',  ( 13.05855278365822159, 3.144479452198249536, -130.2705803164349447 ) ) ;
#976 = COORDINATED_UNIVERSAL_TIME_OFFSET ( 1, 0, .AHEAD. ) ;
#977 = APPLICATION_CONTEXT ( 'configuration controlled 3d designs of mechanical parts and assemblies' ) ;
#978 = VERTEX_POINT ( 'NONE', #837 ) ;
#979 = LINE ( 'NONE', #798, #637 ) ;
#980 = ADVANCED_FACE ( 'NONE', ( #35 ), #831, .F. ) ;
#981 = APPROVAL_PERSON_ORGANIZATION ( #707, #651, #1078 ) ;
#982 =( LENGTH_UNIT ( ) NAMED_UNIT ( * ) SI_UNIT ( .MILLI., .METRE. ) );
#983 = DIRECTION ( 'NONE',  ( -1.000000000000000000, 1.387778780781445676E-16, 0.000000000000000000 ) ) ;
#984 = ORIENTED_EDGE ( 'NONE', *, *, #436, .T. ) ;
#985 = CARTESIAN_POINT ( 'NONE',  ( 21.24999999999999289, -10.32500000000000107, -89.96372021095663740 ) ) ;
#986 = ORIENTED_EDGE ( 'NONE', *, *, #152, .F. ) ;
#987 = AXIS2_PLACEMENT_3D ( 'NONE', #159, #418, #1042 ) ;
#988 = ORIENTED_EDGE ( 'NONE', *, *, #801, .F. ) ;
#989 = EDGE_CURVE ( 'NONE', #336, #353, #655, .T. ) ;
#990 = EDGE_LOOP ( 'NONE', ( #627, #405 ) ) ;
#991 = DIRECTION ( 'NONE',  ( 0.000000000000000000, 1.000000000000000000, 0.000000000000000000 ) ) ;
#992 = FACE_OUTER_BOUND ( 'NONE', #86, .T. ) ;
#993 = ORIENTED_EDGE ( 'NONE', *, *, #1023, .F. ) ;
#994 = DIRECTION ( 'NONE',  ( -0.000000000000000000, -0.000000000000000000, 1.000000000000000000 ) ) ;
#995 = DIRECTION ( 'NONE',  ( 1.000000000000000000, 0.000000000000000000, 0.000000000000000000 ) ) ;
#996 = EDGE_CURVE ( 'NONE', #1152, #291, #1116, .T. ) ;
#997 = AXIS2_PLACEMENT_3D ( 'NONE', #597, #860, #1150 ) ;
#998 = LINE ( 'NONE', #833, #287 ) ;
#999 = ORIENTED_EDGE ( 'NONE', *, *, #413, .F. ) ;
#1000 = DIRECTION ( 'NONE',  ( 0.000000000000000000, 0.000000000000000000, -1.000000000000000000 ) ) ;
#1001 = DIRECTION ( 'NONE',  ( 1.000000000000000000, -0.000000000000000000, -0.000000000000000000 ) ) ;
#1002 = EDGE_LOOP ( 'NONE', ( #813, #278 ) ) ;
#1003 = CARTESIAN_POINT ( 'NONE',  ( 14.05855278365822159, 3.144479452198249536, -13.32500000000000284 ) ) ;
#1004 = FACE_BOUND ( 'NONE', #990, .T. ) ;
#1005 = DIRECTION ( 'NONE',  ( -1.000000000000000000, 1.387778780781445676E-16, -0.000000000000000000 ) ) ;
#1006 = ADVANCED_FACE ( 'NONE', ( #580 ), #425, .F. ) ;
#1007 = FACE_OUTER_BOUND ( 'NONE', #626, .T. ) ;
#1008 = ADVANCED_FACE ( 'NONE', ( #781 ), #960, .F. ) ;
#1009 = CIRCLE ( 'NONE', #713, 1.500000000000001332 ) ;
#1010 = DIRECTION ( 'NONE',  ( 0.000000000000000000, 0.000000000000000000, 1.000000000000000000 ) ) ;
#1011 = EDGE_LOOP ( 'NONE', ( #124, #439 ) ) ;
#1012 = CARTESIAN_POINT ( 'NONE',  ( 14.05855278365817895, -60.00000000000002132, -133.2705803164349732 ) ) ;
#1013 = AXIS2_PLACEMENT_3D ( 'NONE', #64, #879, #262 ) ;
#1014 = CARTESIAN_POINT ( 'NONE',  ( 60.61097658963804236, -8.324999999999995737, -6.761992196546004585 ) ) ;
#1015 = CC_DESIGN_PERSON_AND_ORGANIZATION_ASSIGNMENT ( #1062, #893, ( #538 ) ) ;
#1016 = CARTESIAN_POINT ( 'NONE',  ( 11.24999999999999645, -16.39999999999998792, -23.30000000000000782 ) ) ;
#1017 = DATE_AND_TIME ( #311, #1091 ) ;
#1018 = VECTOR ( 'NONE', #1027, 1000.000000000000000 ) ;
#1019 = DIRECTION ( 'NONE',  ( -6.938893903907223447E-16, -1.000000000000000000, -0.000000000000000000 ) ) ;
#1020 = ORIENTED_EDGE ( 'NONE', *, *, #447, .F. ) ;
#1021 = CARTESIAN_POINT ( 'NONE',  ( 21.24999999999999289, -55.00000000000003553, -123.2977901582174809 ) ) ;
#1022 = CARTESIAN_POINT ( 'NONE',  ( 11.24999999999999645, -16.39999999999999858, -123.2955803164349646 ) ) ;
#1023 = EDGE_CURVE ( 'NONE', #1064, #556, #250, .T. ) ;
#1024 = ORIENTED_EDGE ( 'NONE', *, *, #21, .F. ) ;
#1025 = AXIS2_PLACEMENT_3D ( 'NONE', #721, #205, #589 ) ;
#1026 = DIRECTION ( 'NONE',  ( 0.000000000000000000, 0.000000000000000000, 1.000000000000000000 ) ) ;
#1027 = DIRECTION ( 'NONE',  ( 1.000000000000000000, -1.087107734130260974E-15, 0.000000000000000000 ) ) ;
#1028 = CARTESIAN_POINT ( 'NONE',  ( 11.24999999999998934, -55.00000000000002842, -24.79779015821748445 ) ) ;
#1029 = ORIENTED_EDGE ( 'NONE', *, *, #68, .T. ) ;
#1030 = LINE ( 'NONE', #874, #399 ) ;
#1031 = ADVANCED_FACE ( 'NONE', ( #332 ), #254, .F. ) ;
#1032 = LINE ( 'NONE', #501, #412 ) ;
#1033 = CARTESIAN_POINT ( 'NONE',  ( 21.24999999999999289, -55.00000000000002842, -23.29779015821748089 ) ) ;
#1034 = DIRECTION ( 'NONE',  ( 0.000000000000000000, 1.000000000000000000, 0.000000000000000000 ) ) ;
#1035 = ORIENTED_EDGE ( 'NONE', *, *, #920, .T. ) ;
#1036 = CARTESIAN_POINT ( 'NONE',  ( -20.75000000000001066, -55.00000000000003553, -123.2977901582174809 ) ) ;
#1037 = DIRECTION ( 'NONE',  ( 0.000000000000000000, 1.000000000000000000, 0.000000000000000000 ) ) ;
#1038 = AXIS2_PLACEMENT_3D ( 'NONE', #681, #498, #142 ) ;
#1039 = ADVANCED_FACE ( 'NONE', ( #788 ), #878, .F. ) ;
#1040 = CARTESIAN_POINT ( 'NONE',  ( 80.00000000000004263, -10.32500000000001172, -123.2955803164349646 ) ) ;
#1041 = VERTEX_POINT ( 'NONE', #691 ) ;
#1042 = DIRECTION ( 'NONE',  ( 0.000000000000000000, -1.000000000000000000, 0.000000000000000000 ) ) ;
#1043 = DIRECTION ( 'NONE',  ( 0.000000000000000000, -1.000000000000000000, 0.000000000000000000 ) ) ;
#1044 = VERTEX_POINT ( 'NONE', #1143 ) ;
#1045 = DIRECTION ( 'NONE',  ( 1.000000000000000000, -0.000000000000000000, -0.000000000000000000 ) ) ;
#1046 = CIRCLE ( 'NONE', #574, 1.499999999999994449 ) ;
#1047 = ADVANCED_BREP_SHAPE_REPRESENTATION ( 'feed bearing row holder 2', ( #773, #352 ), #689 ) ;
#1048 = VERTEX_POINT ( 'NONE', #604 ) ;
#1049 = DIRECTION ( 'NONE',  ( 1.000000000000000000, -2.891205793294678080E-17, 0.000000000000000000 ) ) ;
#1050 = EDGE_CURVE ( 'NONE', #866, #525, #62, .T. ) ;
#1051 = DIRECTION ( 'NONE',  ( -1.000000000000000000, 1.387778780781445676E-16, -0.000000000000000000 ) ) ;
#1052 = CARTESIAN_POINT ( 'NONE',  ( 21.24999999999996447, -60.00000000000002842, -13.32500000000000284 ) ) ;
#1053 = ORIENTED_EDGE ( 'NONE', *, *, #839, .F. ) ;
#1054 = DIRECTION ( 'NONE',  ( 0.000000000000000000, 0.000000000000000000, -1.000000000000000000 ) ) ;
#1055 = CARTESIAN_POINT ( 'NONE',  ( 11.24999999999998934, -55.00000000000003553, -123.2977901582174809 ) ) ;
#1056 = CYLINDRICAL_SURFACE ( 'NONE', #987, 6.074999999999997513 ) ;
#1057 = VECTOR ( 'NONE', #215, 1000.000000000000000 ) ;
#1058 = CIRCLE ( 'NONE', #654, 6.074999999999997513 ) ;
#1059 = DIRECTION ( 'NONE',  ( 0.000000000000000000, 0.000000000000000000, 1.000000000000000000 ) ) ;
#1060 = CC_DESIGN_DATE_AND_TIME_ASSIGNMENT ( #897, #442, ( #538 ) ) ;
#1061 = DIRECTION ( 'NONE',  ( 0.000000000000000000, -1.000000000000000000, 0.000000000000000000 ) ) ;
#1062 = PERSON_AND_ORGANIZATION ( #766, #840 ) ;
#1063 = PRODUCT ( 'feed bearing row holder 2', 'feed bearing row holder 2', '', ( #12 ) ) ;
#1064 = VERTEX_POINT ( 'NONE', #683 ) ;
#1065 = AXIS2_PLACEMENT_3D ( 'NONE', #1016, #222, #991 ) ;
#1066 = EDGE_LOOP ( 'NONE', ( #1035, #76, #370, #648, #468, #438, #653, #592, #1092, #776, #1164, #1020 ) ) ;
#1067 = CARTESIAN_POINT ( 'NONE',  ( 24.56730249470756533, -8.324999999999993960, -31.70256583509750570 ) ) ;
#1068 = VECTOR ( 'NONE', #338, 1000.000000000000000 ) ;
#1069 = EDGE_CURVE ( 'NONE', #845, #259, #108, .T. ) ;
#1070 = DIRECTION ( 'NONE',  ( -1.000000000000000000, 1.387778780781445676E-16, -0.000000000000000000 ) ) ;
#1071 = CARTESIAN_POINT ( 'NONE',  ( -20.75000000000001066, -55.00000000000003553, -123.2977901582174809 ) ) ;
#1072 = DIRECTION ( 'NONE',  ( -1.000000000000000000, 1.387778780781445676E-16, -0.000000000000000000 ) ) ;
#1073 = LINE ( 'NONE', #532, #200 ) ;
#1074 = VECTOR ( 'NONE', #116, 1000.000000000000000 ) ;
#1075 = ORIENTED_EDGE ( 'NONE', *, *, #847, .F. ) ;
#1076 = FACE_BOUND ( 'NONE', #678, .T. ) ;
#1077 = FACE_OUTER_BOUND ( 'NONE', #552, .T. ) ;
#1078 = APPROVAL_ROLE ( '' ) ;
#1079 = EDGE_CURVE ( 'NONE', #556, #336, #1030, .T. ) ;
#1080 = DIRECTION ( 'NONE',  ( 0.000000000000000000, 0.000000000000000000, 1.000000000000000000 ) ) ;
#1081 = CARTESIAN_POINT ( 'NONE',  ( 11.24999999999994138, -8.324999999999988631, -13.32500000000000284 ) ) ;
#1082 = VECTOR ( 'NONE', #372, 1000.000000000000000 ) ;
#1083 = CALENDAR_DATE ( 2026, 2, 6 ) ;
#1084 = DIRECTION ( 'NONE',  ( -6.938893903907223447E-16, -1.000000000000000000, -0.000000000000000000 ) ) ;
#1085 = ORIENTED_EDGE ( 'NONE', *, *, #715, .F. ) ;
#1086 = EDGE_CURVE ( 'NONE', #829, #461, #1088, .T. ) ;
#1087 = DIRECTION ( 'NONE',  ( -0.000000000000000000, 0.000000000000000000, 1.000000000000000000 ) ) ;
#1088 = CIRCLE ( 'NONE', #812, 6.074999999999997513 ) ;
#1089 = ORIENTED_EDGE ( 'NONE', *, *, #554, .T. ) ;
#1090 = ORIENTED_EDGE ( 'NONE', *, *, #480, .T. ) ;
#1091 = LOCAL_TIME ( 10, 37, 4.000000000000000000, #725 ) ;
#1092 = ORIENTED_EDGE ( 'NONE', *, *, #989, .F. ) ;
#1093 = PLANE ( 'NONE',  #1166 ) ;
#1094 = VECTOR ( 'NONE', #50, 1000.000000000000000 ) ;
#1095 = DIRECTION ( 'NONE',  ( 1.000000000000000000, -1.387778780781445676E-16, 0.000000000000000000 ) ) ;
#1096 = ORIENTED_EDGE ( 'NONE', *, *, #308, .F. ) ;
#1097 = DIRECTION ( 'NONE',  ( 1.000000000000000000, 0.000000000000000000, 0.000000000000000000 ) ) ;
#1098 = LINE ( 'NONE', #294, #1057 ) ;
#1099 = VECTOR ( 'NONE', #814, 1000.000000000000000 ) ;
#1100 = DIRECTION ( 'NONE',  ( 1.000000000000000000, 0.000000000000000000, 0.000000000000000000 ) ) ;
#1101 = ORIENTED_EDGE ( 'NONE', *, *, #529, .T. ) ;
#1102 = ADVANCED_FACE ( 'NONE', ( #326 ), #1169, .F. ) ;
#1103 = ORIENTED_EDGE ( 'NONE', *, *, #25, .F. ) ;
#1104 = DIRECTION ( 'NONE',  ( -1.000000000000000000, -0.000000000000000000, -0.000000000000000000 ) ) ;
#1105 = CARTESIAN_POINT ( 'NONE',  ( 11.24999999999994849, 3.144479452198249536, -133.2705803164349732 ) ) ;
#1106 = CARTESIAN_POINT ( 'NONE',  ( 80.00000000000004263, -16.40000000000000213, -56.63186010547832439 ) ) ;
#1107 = FACE_OUTER_BOUND ( 'NONE', #687, .T. ) ;
#1108 = CYLINDRICAL_SURFACE ( 'NONE', #357, 1.500000000000001332 ) ;
#1109 = ORIENTED_EDGE ( 'NONE', *, *, #864, .T. ) ;
#1110 = DIRECTION ( 'NONE',  ( -1.000000000000000000, 1.387778780781445676E-16, -0.000000000000000000 ) ) ;
#1111 = EDGE_CURVE ( 'NONE', #866, #419, #410, .T. ) ;
#1112 = FACE_BOUND ( 'NONE', #136, .T. ) ;
#1113 = APPROVAL_ROLE ( '' ) ;
#1114 = CIRCLE ( 'NONE', #121, 6.074999999999997513 ) ;
#1115 = ORIENTED_EDGE ( 'NONE', *, *, #885, .T. ) ;
#1116 = LINE ( 'NONE', #661, #1068 ) ;
#1117 = CIRCLE ( 'NONE', #201, 6.075000000000000178 ) ;
#1118 = ADVANCED_FACE ( 'NONE', ( #53 ), #676, .F. ) ;
#1119 = DIRECTION ( 'NONE',  ( 0.7071067811865445751, 0.000000000000000000, -0.7071067811865504593 ) ) ;
#1120 = CARTESIAN_POINT ( 'NONE',  ( 18.24999999999993250, -55.00000000000002842, -23.29779015821748089 ) ) ;
#1121 = CIRCLE ( 'NONE', #106, 4.500000000000087041 ) ;
#1122 = CARTESIAN_POINT ( 'NONE',  ( 18.24999999999992539, -55.00000000000002842, -73.29779015821748089 ) ) ;
#1123 = EDGE_LOOP ( 'NONE', ( #493, #727, #966, #784 ) ) ;
#1124 = CARTESIAN_POINT ( 'NONE',  ( 21.24999999999999289, -60.00000000000002842, -275.4115261043579039 ) ) ;
#1125 = CARTESIAN_POINT ( 'NONE',  ( 18.24999999999993250, -55.00000000000002842, -21.79779015821747379 ) ) ;
#1126 = CARTESIAN_POINT ( 'NONE',  ( -20.75000000000001066, -55.00000000000002842, -71.79779015821748089 ) ) ;
#1127 = EDGE_CURVE ( 'NONE', #852, #888, #420, .T. ) ;
#1128 = DIRECTION ( 'NONE',  ( 0.000000000000000000, 1.000000000000000000, 0.000000000000000000 ) ) ;
#1129 = VECTOR ( 'NONE', #125, 1000.000000000000000 ) ;
#1130 = DIRECTION ( 'NONE',  ( 1.000000000000000000, -1.387778780781445676E-16, 0.000000000000000000 ) ) ;
#1131 = CARTESIAN_POINT ( 'NONE',  ( 21.24999999999999289, -55.00000000000002842, -68.79779015821739563 ) ) ;
#1132 = CARTESIAN_POINT ( 'NONE',  ( 21.24999999999999289, -55.00000000000002842, -27.79779015821756616 ) ) ;
#1133 = CARTESIAN_POINT ( 'NONE',  ( 21.24999999999999289, -16.39999999999999503, -56.63186010547832439 ) ) ;
#1134 = DIRECTION ( 'NONE',  ( 0.000000000000000000, 0.000000000000000000, 1.000000000000000000 ) ) ;
#1135 = EDGE_CURVE ( 'NONE', #241, #37, #1147, .T. ) ;
#1136 = DIRECTION ( 'NONE',  ( -1.000000000000000000, 1.387778780781445676E-16, -0.000000000000000000 ) ) ;
#1137 = VERTEX_POINT ( 'NONE', #1138 ) ;
#1138 = CARTESIAN_POINT ( 'NONE',  ( 11.24999999999999645, -10.32500000000000107, -123.2955803164349646 ) ) ;
#1139 = VECTOR ( 'NONE', #1051, 1000.000000000000000 ) ;
#1140 = CARTESIAN_POINT ( 'NONE',  ( -15.36097658963811519, -8.324999999999988631, -45.01199219654606765 ) ) ;
#1141 = CARTESIAN_POINT ( 'NONE',  ( 11.24999999999990585, -60.00000000000002132, -133.2705803164349732 ) ) ;
#1142 = ORIENTED_EDGE ( 'NONE', *, *, #847, .T. ) ;
#1143 = CARTESIAN_POINT ( 'NONE',  ( 21.24999999999996447, -60.00000000000002842, -133.2705803164349732 ) ) ;
#1144 = AXIS2_PLACEMENT_3D ( 'NONE', #347, #1070, #617 ) ;
#1145 = ADVANCED_FACE ( 'NONE', ( #585 ), #324, .F. ) ;
#1146 = LINE ( 'NONE', #686, #309 ) ;
#1147 = CIRCLE ( 'NONE', #78, 6.074999999999997513 ) ;
#1148 = CARTESIAN_POINT ( 'NONE',  ( 21.24999999999999289, -22.47499999999999076, -23.30000000000000782 ) ) ;
#1149 = ORIENTED_EDGE ( 'NONE', *, *, #216, .F. ) ;
#1150 = DIRECTION ( 'NONE',  ( 0.000000000000000000, -0.000000000000000000, 1.000000000000000000 ) ) ;
#1151 = CIRCLE ( 'NONE', #458, 4.500000000000087041 ) ;
#1152 = VERTEX_POINT ( 'NONE', #500 ) ;
#1153 = LOCAL_TIME ( 10, 37, 4.000000000000000000, #431 ) ;
#1154 = ORIENTED_EDGE ( 'NONE', *, *, #856, .T. ) ;
#1155 = DIRECTION ( 'NONE',  ( -0.9486832980505138790, 6.582812753581311037E-16, -0.3162277660168379412 ) ) ;
#1156 = DIRECTION ( 'NONE',  ( -6.938893903907223447E-16, -1.000000000000000000, -0.000000000000000000 ) ) ;
#1157 = VECTOR ( 'NONE', #1119, 1000.000000000000114 ) ;
#1158 = ADVANCED_FACE ( 'NONE', ( #355 ), #281, .F. ) ;
#1159 = ORIENTED_EDGE ( 'NONE', *, *, #801, .T. ) ;
#1160 = DIRECTION ( 'NONE',  ( -1.000000000000000000, 0.000000000000000000, -0.000000000000000000 ) ) ;
#1161 = CYLINDRICAL_SURFACE ( 'NONE', #1144, 6.074999999999997513 ) ;
#1162 = APPROVAL_DATE_TIME ( #18, #651 ) ;
#1163 = LINE ( 'NONE', #181, #103 ) ;
#1164 = ORIENTED_EDGE ( 'NONE', *, *, #211, .F. ) ;
#1165 = CARTESIAN_POINT ( 'NONE',  ( 18.24999999999991118, -55.00000000000003553, -121.7977901582174951 ) ) ;
#1166 = AXIS2_PLACEMENT_3D ( 'NONE', #367, #478, #907 ) ;
#1167 = VERTEX_POINT ( 'NONE', #267 ) ;
#1168 = DIRECTION ( 'NONE',  ( 0.9486832980505138790, -6.582812753581311037E-16, -0.3162277660168379412 ) ) ;
#1169 = CONICAL_SURFACE ( 'NONE', #319, 1.500000000000001332, 0.7853981633974523868 ) ;
ENDSEC;
END-ISO-10303-21;
