ISO-10303-21;
HEADER;
FILE_DESCRIPTION (( 'STEP AP203' ),
    '1' );
FILE_NAME ('bearing spacer 2.STEP',
    '2026-06-02T08:25:09',
    ( '' ),
    ( '' ),
    'SwSTEP 2.0',
    'SolidWorks 2024',
    '' );
FILE_SCHEMA (( 'CONFIG_CONTROL_DESIGN' ));
ENDSEC;

DATA;
#1 = ORIENTED_EDGE ( 'NONE', *, *, #280, .T. ) ;
#2 = EDGE_CURVE ( 'NONE', #95, #32, #195, .T. ) ;
#3 =( NAMED_UNIT ( * ) PLANE_ANGLE_UNIT ( ) SI_UNIT ( $, .RADIAN. ) );
#4 = CARTESIAN_POINT ( 'NONE',  ( 0.000000000000000000, 0.000000000000000000, 0.000000000000000000 ) ) ;
#5 = AXIS2_PLACEMENT_3D ( 'NONE', #132, #232, #89 ) ;
#6 = ORIENTED_EDGE ( 'NONE', *, *, #290, .T. ) ;
#7 = VECTOR ( 'NONE', #121, 1000.000000000000000 ) ;
#8 = ORIENTED_EDGE ( 'NONE', *, *, #41, .F. ) ;
#9 = LINE ( 'NONE', #286, #256 ) ;
#10 = PRODUCT_RELATED_PRODUCT_CATEGORY ( 'detail', '', ( #66 ) ) ;
#11 = VERTEX_POINT ( 'NONE', #186 ) ;
#12 = AXIS2_PLACEMENT_3D ( 'NONE', #227, #24, #273 ) ;
#13 = CARTESIAN_POINT ( 'NONE',  ( 6.500000000000002665, 0.000000000000000000, 0.000000000000000000 ) ) ;
#14 = CARTESIAN_POINT ( 'NONE',  ( -5.999999999999999112, 0.000000000000000000, 0.000000000000000000 ) ) ;
#15 = COORDINATED_UNIVERSAL_TIME_OFFSET ( 1, 0, .AHEAD. ) ;
#16 = DIRECTION ( 'NONE',  ( -0.000000000000000000, -0.000000000000000000, -1.000000000000000000 ) ) ;
#17 = DATE_AND_TIME ( #78, #83 ) ;
#18 = PERSON_AND_ORGANIZATION ( #50, #225 ) ;
#19 = CONICAL_SURFACE ( 'NONE', #129, 8.500000000000000000, 0.7853981633974469467 ) ;
#20 = PRODUCT_DEFINITION ( 'UNKNOWN', '', #31, #33 ) ;
#21 = CIRCLE ( 'NONE', #269, 6.500000000000002665 ) ;
#22 = DIRECTION ( 'NONE',  ( 0.000000000000000000, 0.000000000000000000, 1.000000000000000000 ) ) ;
#23 = AXIS2_PLACEMENT_3D ( 'NONE', #57, #245, #39 ) ;
#24 = DIRECTION ( 'NONE',  ( 0.000000000000000000, 0.000000000000000000, 1.000000000000000000 ) ) ;
#25 = CLOSED_SHELL ( 'NONE', ( #94, #77, #180, #215, #183, #250, #85, #238 ) ) ;
#26 = DIRECTION ( 'NONE',  ( -1.000000000000000000, 0.000000000000000000, 0.000000000000000000 ) ) ;
#27 = VERTEX_POINT ( 'NONE', #116 ) ;
#28 = APPROVAL ( #43, 'UNSPECIFIED' ) ;
#29 = ORIENTED_EDGE ( 'NONE', *, *, #41, .T. ) ;
#30 = CYLINDRICAL_SURFACE ( 'NONE', #179, 8.500000000000000000 ) ;
#31 = PRODUCT_DEFINITION_FORMATION_WITH_SPECIFIED_SOURCE ( 'ANY', '', #66, .NOT_KNOWN. ) ;
#32 = VERTEX_POINT ( 'NONE', #14 ) ;
#33 = DESIGN_CONTEXT ( 'detailed design', #185, 'design' ) ;
#34 = PLANE ( 'NONE',  #23 ) ;
#35 = VECTOR ( 'NONE', #76, 1000.000000000000000 ) ;
#36 = LINE ( 'NONE', #42, #274 ) ;
#37 = PERSON_AND_ORGANIZATION_ROLE ( 'classification_officer' ) ;
#38 = AXIS2_PLACEMENT_3D ( 'NONE', #75, #103, #79 ) ;
#39 = DIRECTION ( 'NONE',  ( 1.000000000000000000, 0.000000000000000000, -0.000000000000000000 ) ) ;
#40 = DATE_AND_TIME ( #243, #253 ) ;
#41 = EDGE_CURVE ( 'NONE', #11, #87, #21, .T. ) ;
#42 = CARTESIAN_POINT ( 'NONE',  ( 8.500000000000000000, 0.000000000000000000, 2.000000000000003553 ) ) ;
#43 = APPROVAL_STATUS ( 'not_yet_approved' ) ;
#44 = APPLICATION_CONTEXT ( 'configuration controlled 3d designs of mechanical parts and assemblies' ) ;
#45 = CC_DESIGN_SECURITY_CLASSIFICATION ( #108, ( #31 ) ) ;
#46 = LINE ( 'NONE', #299, #151 ) ;
#47 = PLANE ( 'NONE',  #255 ) ;
#48 = DIRECTION ( 'NONE',  ( 1.000000000000000000, 0.000000000000000000, 0.000000000000000000 ) ) ;
#49 =( NAMED_UNIT ( * ) SI_UNIT ( $, .STERADIAN. ) SOLID_ANGLE_UNIT ( ) );
#50 = PERSON ( 'UNSPECIFIED', 'UNSPECIFIED', 'UNSPECIFIED', ('UNSPECIFIED'), ('UNSPECIFIED'), ('UNSPECIFIED') ) ;
#51 = ORIENTED_EDGE ( 'NONE', *, *, #152, .F. ) ;
#52 = ORIENTED_EDGE ( 'NONE', *, *, #2, .T. ) ;
#53 = ORIENTED_EDGE ( 'NONE', *, *, #101, .T. ) ;
#54 = CARTESIAN_POINT ( 'NONE',  ( 0.000000000000000000, 0.000000000000000000, 0.000000000000000000 ) ) ;
#55 = DIRECTION ( 'NONE',  ( 1.000000000000000000, 0.000000000000000000, 0.000000000000000000 ) ) ;
#56 = DIRECTION ( 'NONE',  ( -0.000000000000000000, -0.000000000000000000, 1.000000000000000000 ) ) ;
#57 = CARTESIAN_POINT ( 'NONE',  ( 0.000000000000000000, 0.000000000000000000, 0.000000000000000000 ) ) ;
#58 = AXIS2_PLACEMENT_3D ( 'NONE', #222, #56, #164 ) ;
#59 = FACE_OUTER_BOUND ( 'NONE', #260, .T. ) ;
#60 = APPROVAL_ROLE ( '' ) ;
#61 = CC_DESIGN_DATE_AND_TIME_ASSIGNMENT ( #17, #262, ( #108 ) ) ;
#62 = AXIS2_PLACEMENT_3D ( 'NONE', #156, #128, #48 ) ;
#63 = CYLINDRICAL_SURFACE ( 'NONE', #295, 8.500000000000000000 ) ;
#64 = CARTESIAN_POINT ( 'NONE',  ( 0.000000000000000000, 0.000000000000000000, 0.000000000000000000 ) ) ;
#65 = EDGE_LOOP ( 'NONE', ( #211, #207 ) ) ;
#66 = PRODUCT ( 'bearing spacer 2', 'bearing spacer 2', '', ( #230 ) ) ;
#67 = EDGE_CURVE ( 'NONE', #120, #92, #100, .T. ) ;
#68 = VECTOR ( 'NONE', #204, 1000.000000000000000 ) ;
#69 = ORIENTED_EDGE ( 'NONE', *, *, #126, .F. ) ;
#70 = ORIENTED_EDGE ( 'NONE', *, *, #157, .T. ) ;
#71 = CARTESIAN_POINT ( 'NONE',  ( 0.000000000000000000, 0.000000000000000000, 2.000000000000003553 ) ) ;
#72 = ORIENTED_EDGE ( 'NONE', *, *, #88, .F. ) ;
#73 = UNCERTAINTY_MEASURE_WITH_UNIT (LENGTH_MEASURE( 1.000000000000000082E-05 ), #182, 'distance_accuracy_value', 'NONE');
#74 = FACE_OUTER_BOUND ( 'NONE', #216, .T. ) ;
#75 = CARTESIAN_POINT ( 'NONE',  ( 0.000000000000000000, 0.000000000000000000, 15.50000000000000000 ) ) ;
#76 = DIRECTION ( 'NONE',  ( -0.000000000000000000, -0.000000000000000000, -1.000000000000000000 ) ) ;
#77 = ADVANCED_FACE ( 'NONE', ( #98 ), #259, .F. ) ;
#78 = CALENDAR_DATE ( 2026, 2, 6 ) ;
#79 = DIRECTION ( 'NONE',  ( -1.000000000000000000, 0.000000000000000000, 0.000000000000000000 ) ) ;
#80 = CIRCLE ( 'NONE', #117, 6.500000000000002665 ) ;
#81 = COORDINATED_UNIVERSAL_TIME_OFFSET ( 1, 0, .AHEAD. ) ;
#82 = PERSON_AND_ORGANIZATION ( #50, #225 ) ;
#83 = LOCAL_TIME ( 10, 25, 9.000000000000000000, #246 ) ;
#84 = DIRECTION ( 'NONE',  ( 0.000000000000000000, 0.000000000000000000, 1.000000000000000000 ) ) ;
#85 = ADVANCED_FACE ( 'NONE', ( #59 ), #241, .F. ) ;
#86 =( GEOMETRIC_REPRESENTATION_CONTEXT ( 3 ) GLOBAL_UNCERTAINTY_ASSIGNED_CONTEXT ( ( #73 ) ) GLOBAL_UNIT_ASSIGNED_CONTEXT ( ( #182, #3, #49 ) ) REPRESENTATION_CONTEXT ( 'NONE', 'WORKASPACE' ) );
#87 = VERTEX_POINT ( 'NONE', #13 ) ;
#88 = EDGE_CURVE ( 'NONE', #11, #92, #9, .T. ) ;
#89 = DIRECTION ( 'NONE',  ( 1.000000000000000000, 0.000000000000000000, 0.000000000000000000 ) ) ;
#90 = ORIENTED_EDGE ( 'NONE', *, *, #127, .F. ) ;
#91 = DIRECTION ( 'NONE',  ( 1.000000000000000000, 0.000000000000000000, 0.000000000000000000 ) ) ;
#92 = VERTEX_POINT ( 'NONE', #172 ) ;
#93 = DIRECTION ( 'NONE',  ( 0.000000000000000000, 0.000000000000000000, 1.000000000000000000 ) ) ;
#94 = ADVANCED_FACE ( 'NONE', ( #168 ), #19, .T. ) ;
#95 = VERTEX_POINT ( 'NONE', #125 ) ;
#96 = DIRECTION ( 'NONE',  ( 0.000000000000000000, 0.000000000000000000, 1.000000000000000000 ) ) ;
#97 = EDGE_LOOP ( 'NONE', ( #1, #53 ) ) ;
#98 = FACE_OUTER_BOUND ( 'NONE', #188, .T. ) ;
#99 = APPROVAL_STATUS ( 'not_yet_approved' ) ;
#100 = CIRCLE ( 'NONE', #58, 8.500000000000000000 ) ;
#101 = EDGE_CURVE ( 'NONE', #133, #27, #252, .T. ) ;
#102 = DIRECTION ( 'NONE',  ( -1.000000000000000000, 0.000000000000000000, 0.000000000000000000 ) ) ;
#103 = DIRECTION ( 'NONE',  ( -0.000000000000000000, -0.000000000000000000, -1.000000000000000000 ) ) ;
#104 = DIRECTION ( 'NONE',  ( 1.000000000000000000, 0.000000000000000000, -0.000000000000000000 ) ) ;
#105 = PERSON_AND_ORGANIZATION_ROLE ( 'creator' ) ;
#106 = AXIS2_PLACEMENT_3D ( 'NONE', #194, #93, #55 ) ;
#107 = PERSON_AND_ORGANIZATION ( #50, #225 ) ;
#108 = SECURITY_CLASSIFICATION ( '', '', #223 ) ;
#109 = PRODUCT_DEFINITION_SHAPE ( 'NONE', 'NONE',  #20 ) ;
#110 = DIRECTION ( 'NONE',  ( 0.000000000000000000, 0.000000000000000000, 1.000000000000000000 ) ) ;
#111 = EDGE_LOOP ( 'NONE', ( #6, #52 ) ) ;
#112 = CC_DESIGN_PERSON_AND_ORGANIZATION_ASSIGNMENT ( #150, #285, ( #31 ) ) ;
#113 = CARTESIAN_POINT ( 'NONE',  ( 0.000000000000000000, 0.000000000000000000, 15.50000000000000000 ) ) ;
#114 = DIRECTION ( 'NONE',  ( 1.000000000000000000, 0.000000000000000000, 0.000000000000000000 ) ) ;
#115 = ORIENTED_EDGE ( 'NONE', *, *, #2, .F. ) ;
#116 = CARTESIAN_POINT ( 'NONE',  ( -8.500000000000000000, 0.000000000000000000, 15.50000000000000000 ) ) ;
#117 = AXIS2_PLACEMENT_3D ( 'NONE', #54, #264, #166 ) ;
#118 = EDGE_LOOP ( 'NONE', ( #8, #190, #184, #69 ) ) ;
#119 = DIRECTION ( 'NONE',  ( -0.000000000000000000, -0.000000000000000000, -1.000000000000000000 ) ) ;
#120 = VERTEX_POINT ( 'NONE', #189 ) ;
#121 = DIRECTION ( 'NONE',  ( -0.000000000000000000, -0.000000000000000000, -1.000000000000000000 ) ) ;
#122 = EDGE_CURVE ( 'NONE', #27, #92, #247, .T. ) ;
#123 = CARTESIAN_POINT ( 'NONE',  ( 0.000000000000000000, 0.000000000000000000, 2.000000000000003553 ) ) ;
#124 = SHAPE_DEFINITION_REPRESENTATION ( #109, #277 ) ;
#125 = CARTESIAN_POINT ( 'NONE',  ( 5.999999999999999112, 7.347880794884118750E-16, 0.000000000000000000 ) ) ;
#126 = EDGE_CURVE ( 'NONE', #87, #120, #36, .T. ) ;
#127 = EDGE_CURVE ( 'NONE', #92, #120, #174, .T. ) ;
#128 = DIRECTION ( 'NONE',  ( -0.000000000000000000, -0.000000000000000000, 1.000000000000000000 ) ) ;
#129 = AXIS2_PLACEMENT_3D ( 'NONE', #123, #263, #144 ) ;
#130 = APPLICATION_PROTOCOL_DEFINITION ( 'international standard', 'config_control_design', 1994, #44 ) ;
#131 = EDGE_LOOP ( 'NONE', ( #136, #234, #140, #209 ) ) ;
#132 = CARTESIAN_POINT ( 'NONE',  ( 0.000000000000000000, 0.000000000000000000, 0.000000000000000000 ) ) ;
#133 = VERTEX_POINT ( 'NONE', #221 ) ;
#134 = CC_DESIGN_PERSON_AND_ORGANIZATION_ASSIGNMENT ( #289, #291, ( #20 ) ) ;
#135 = DIRECTION ( 'NONE',  ( -0.000000000000000000, -0.000000000000000000, -1.000000000000000000 ) ) ;
#136 = ORIENTED_EDGE ( 'NONE', *, *, #161, .F. ) ;
#137 = ORIENTED_EDGE ( 'NONE', *, *, #161, .T. ) ;
#138 = ORIENTED_EDGE ( 'NONE', *, *, #152, .T. ) ;
#139 = LINE ( 'NONE', #197, #35 ) ;
#140 = ORIENTED_EDGE ( 'NONE', *, *, #122, .T. ) ;
#141 = MANIFOLD_SOLID_BREP ( 'Chamfer1', #25 ) ;
#142 = CC_DESIGN_APPROVAL ( #228, ( #20 ) ) ;
#143 = FACE_BOUND ( 'NONE', #111, .T. ) ;
#144 = DIRECTION ( 'NONE',  ( 1.000000000000000000, 0.000000000000000000, 0.000000000000000000 ) ) ;
#145 = DATE_AND_TIME ( #169, #292 ) ;
#146 = DIRECTION ( 'NONE',  ( -0.7071067811865465735, 8.659560562354921765E-17, 0.7071067811865484609 ) ) ;
#147 = APPLICATION_PROTOCOL_DEFINITION ( 'international standard', 'config_control_design', 1994, #185 ) ;
#148 = DIRECTION ( 'NONE',  ( 1.000000000000000000, 0.000000000000000000, 0.000000000000000000 ) ) ;
#149 = DATE_AND_TIME ( #203, #155 ) ;
#150 = PERSON_AND_ORGANIZATION ( #50, #225 ) ;
#151 = VECTOR ( 'NONE', #153, 1000.000000000000000 ) ;
#152 = EDGE_CURVE ( 'NONE', #87, #11, #80, .T. ) ;
#153 = DIRECTION ( 'NONE',  ( -0.000000000000000000, -0.000000000000000000, -1.000000000000000000 ) ) ;
#154 = ORIENTED_EDGE ( 'NONE', *, *, #290, .F. ) ;
#155 = LOCAL_TIME ( 10, 25, 9.000000000000000000, #270 ) ;
#156 = CARTESIAN_POINT ( 'NONE',  ( 0.000000000000000000, 0.000000000000000000, 2.000000000000003553 ) ) ;
#157 = EDGE_CURVE ( 'NONE', #187, #237, #278, .T. ) ;
#158 = AXIS2_PLACEMENT_3D ( 'NONE', #283, #96, #261 ) ;
#159 = ORIENTED_EDGE ( 'NONE', *, *, #126, .T. ) ;
#160 = AXIS2_PLACEMENT_3D ( 'NONE', #242, #170, #102 ) ;
#161 = EDGE_CURVE ( 'NONE', #133, #120, #139, .T. ) ;
#162 = EDGE_LOOP ( 'NONE', ( #72, #51, #159, #90 ) ) ;
#163 = ORIENTED_EDGE ( 'NONE', *, *, #205, .F. ) ;
#164 = DIRECTION ( 'NONE',  ( 1.000000000000000000, 0.000000000000000000, 0.000000000000000000 ) ) ;
#165 = CC_DESIGN_PERSON_AND_ORGANIZATION_ASSIGNMENT ( #177, #105, ( #31 ) ) ;
#166 = DIRECTION ( 'NONE',  ( 1.000000000000000000, 0.000000000000000000, 0.000000000000000000 ) ) ;
#167 = LOCAL_TIME ( 10, 25, 9.000000000000000000, #81 ) ;
#168 = FACE_OUTER_BOUND ( 'NONE', #118, .T. ) ;
#169 = CALENDAR_DATE ( 2026, 2, 6 ) ;
#170 = DIRECTION ( 'NONE',  ( -0.000000000000000000, -0.000000000000000000, -1.000000000000000000 ) ) ;
#171 = PERSON_AND_ORGANIZATION ( #50, #225 ) ;
#172 = CARTESIAN_POINT ( 'NONE',  ( -8.500000000000000000, 0.000000000000000000, 2.000000000000003553 ) ) ;
#173 = APPROVAL_DATE_TIME ( #40, #220 ) ;
#174 = CIRCLE ( 'NONE', #212, 8.500000000000000000 ) ;
#175 = LINE ( 'NONE', #202, #68 ) ;
#176 = CC_DESIGN_APPROVAL ( #28, ( #31 ) ) ;
#177 = PERSON_AND_ORGANIZATION ( #50, #225 ) ;
#178 = DATE_AND_TIME ( #248, #167 ) ;
#179 = AXIS2_PLACEMENT_3D ( 'NONE', #265, #119, #191 ) ;
#180 = ADVANCED_FACE ( 'NONE', ( #239 ), #30, .T. ) ;
#181 = APPROVAL_ROLE ( '' ) ;
#182 =( LENGTH_UNIT ( ) NAMED_UNIT ( * ) SI_UNIT ( .MILLI., .METRE. ) );
#183 = ADVANCED_FACE ( 'NONE', ( #74, #143 ), #34, .F. ) ;
#184 = ORIENTED_EDGE ( 'NONE', *, *, #67, .F. ) ;
#185 = APPLICATION_CONTEXT ( 'configuration controlled 3d designs of mechanical parts and assemblies' ) ;
#186 = CARTESIAN_POINT ( 'NONE',  ( -6.500000000000002665, 9.184850993605149917E-16, 0.000000000000000000 ) ) ;
#187 = VERTEX_POINT ( 'NONE', #198 ) ;
#188 = EDGE_LOOP ( 'NONE', ( #70, #206, #154, #163 ) ) ;
#189 = CARTESIAN_POINT ( 'NONE',  ( 8.500000000000000000, 1.040949779275250140E-15, 2.000000000000003553 ) ) ;
#190 = ORIENTED_EDGE ( 'NONE', *, *, #88, .T. ) ;
#191 = DIRECTION ( 'NONE',  ( -1.000000000000000000, 0.000000000000000000, 0.000000000000000000 ) ) ;
#192 = CONICAL_SURFACE ( 'NONE', #62, 8.500000000000000000, 0.7853981633974469467 ) ;
#193 = CC_DESIGN_PERSON_AND_ORGANIZATION_ASSIGNMENT ( #107, #226, ( #66 ) ) ;
#194 = CARTESIAN_POINT ( 'NONE',  ( 0.000000000000000000, 0.000000000000000000, 15.50000000000000000 ) ) ;
#195 = CIRCLE ( 'NONE', #297, 5.999999999999999112 ) ;
#196 = COORDINATED_UNIVERSAL_TIME_OFFSET ( 1, 0, .AHEAD. ) ;
#197 = CARTESIAN_POINT ( 'NONE',  ( 8.500000000000000000, 1.040949779275250140E-15, 15.50000000000000000 ) ) ;
#198 = CARTESIAN_POINT ( 'NONE',  ( -5.999999999999999112, 0.000000000000000000, 15.50000000000000000 ) ) ;
#199 = APPROVAL_ROLE ( '' ) ;
#200 = APPROVAL_PERSON_ORGANIZATION ( #82, #220, #199 ) ;
#201 = CIRCLE ( 'NONE', #268, 8.500000000000000000 ) ;
#202 = CARTESIAN_POINT ( 'NONE',  ( -5.999999999999999112, 0.000000000000000000, 15.50000000000000000 ) ) ;
#203 = CALENDAR_DATE ( 2026, 2, 6 ) ;
#204 = DIRECTION ( 'NONE',  ( -0.000000000000000000, -0.000000000000000000, -1.000000000000000000 ) ) ;
#205 = EDGE_CURVE ( 'NONE', #187, #32, #175, .T. ) ;
#206 = ORIENTED_EDGE ( 'NONE', *, *, #235, .T. ) ;
#207 = ORIENTED_EDGE ( 'NONE', *, *, #267, .F. ) ;
#208 = FACE_OUTER_BOUND ( 'NONE', #162, .T. ) ;
#209 = ORIENTED_EDGE ( 'NONE', *, *, #127, .T. ) ;
#210 = DIRECTION ( 'NONE',  ( 0.000000000000000000, 0.000000000000000000, 1.000000000000000000 ) ) ;
#211 = ORIENTED_EDGE ( 'NONE', *, *, #157, .F. ) ;
#212 = AXIS2_PLACEMENT_3D ( 'NONE', #71, #219, #148 ) ;
#213 = ORIENTED_EDGE ( 'NONE', *, *, #101, .F. ) ;
#214 = CC_DESIGN_APPROVAL ( #220, ( #108 ) ) ;
#215 = ADVANCED_FACE ( 'NONE', ( #293, #251 ), #47, .T. ) ;
#216 = EDGE_LOOP ( 'NONE', ( #138, #29 ) ) ;
#217 = CARTESIAN_POINT ( 'NONE',  ( -8.500000000000000000, 0.000000000000000000, 15.50000000000000000 ) ) ;
#218 = AXIS2_PLACEMENT_3D ( 'NONE', #64, #110, #272 ) ;
#219 = DIRECTION ( 'NONE',  ( -0.000000000000000000, -0.000000000000000000, 1.000000000000000000 ) ) ;
#220 = APPROVAL ( #99, 'UNSPECIFIED' ) ;
#221 = CARTESIAN_POINT ( 'NONE',  ( 8.500000000000000000, 1.040949779275250140E-15, 15.50000000000000000 ) ) ;
#222 = CARTESIAN_POINT ( 'NONE',  ( 0.000000000000000000, 0.000000000000000000, 2.000000000000003553 ) ) ;
#223 = SECURITY_CLASSIFICATION_LEVEL ( 'unclassified' ) ;
#224 = DATE_TIME_ROLE ( 'creation_date' ) ;
#225 = ORGANIZATION ( 'UNSPECIFIED', 'UNSPECIFIED', '' ) ;
#226 = PERSON_AND_ORGANIZATION_ROLE ( 'design_owner' ) ;
#227 = CARTESIAN_POINT ( 'NONE',  ( 0.000000000000000000, 0.000000000000000000, 15.50000000000000000 ) ) ;
#228 = APPROVAL ( #294, 'UNSPECIFIED' ) ;
#229 = ORIENTED_EDGE ( 'NONE', *, *, #205, .T. ) ;
#230 = MECHANICAL_CONTEXT ( 'NONE', #44, 'mechanical' ) ;
#231 = ORIENTED_EDGE ( 'NONE', *, *, #122, .F. ) ;
#232 = DIRECTION ( 'NONE',  ( 0.000000000000000000, 0.000000000000000000, 1.000000000000000000 ) ) ;
#233 = CIRCLE ( 'NONE', #218, 5.999999999999999112 ) ;
#234 = ORIENTED_EDGE ( 'NONE', *, *, #280, .F. ) ;
#235 = EDGE_CURVE ( 'NONE', #237, #95, #46, .T. ) ;
#236 = CARTESIAN_POINT ( 'NONE',  ( 5.999999999999999112, 7.347880794884118750E-16, 15.50000000000000000 ) ) ;
#237 = VERTEX_POINT ( 'NONE', #236 ) ;
#238 = ADVANCED_FACE ( 'NONE', ( #208 ), #192, .T. ) ;
#239 = FACE_OUTER_BOUND ( 'NONE', #279, .T. ) ;
#240 = APPROVAL_PERSON_ORGANIZATION ( #18, #228, #181 ) ;
#241 = CYLINDRICAL_SURFACE ( 'NONE', #38, 5.999999999999999112 ) ;
#242 = CARTESIAN_POINT ( 'NONE',  ( 0.000000000000000000, 0.000000000000000000, 15.50000000000000000 ) ) ;
#243 = CALENDAR_DATE ( 2026, 2, 6 ) ;
#244 = CIRCLE ( 'NONE', #12, 5.999999999999999112 ) ;
#245 = DIRECTION ( 'NONE',  ( 0.000000000000000000, 0.000000000000000000, 1.000000000000000000 ) ) ;
#246 = COORDINATED_UNIVERSAL_TIME_OFFSET ( 1, 0, .AHEAD. ) ;
#247 = LINE ( 'NONE', #217, #7 ) ;
#248 = CALENDAR_DATE ( 2026, 2, 6 ) ;
#249 = CARTESIAN_POINT ( 'NONE',  ( 0.000000000000000000, 0.000000000000000000, 15.50000000000000000 ) ) ;
#250 = ADVANCED_FACE ( 'NONE', ( #254 ), #63, .T. ) ;
#251 = FACE_BOUND ( 'NONE', #65, .T. ) ;
#252 = CIRCLE ( 'NONE', #106, 8.500000000000000000 ) ;
#253 = LOCAL_TIME ( 10, 25, 9.000000000000000000, #196 ) ;
#254 = FACE_OUTER_BOUND ( 'NONE', #131, .T. ) ;
#255 = AXIS2_PLACEMENT_3D ( 'NONE', #249, #84, #104 ) ;
#256 = VECTOR ( 'NONE', #146, 1000.000000000000000 ) ;
#257 = ORIENTED_EDGE ( 'NONE', *, *, #67, .T. ) ;
#258 = ORIENTED_EDGE ( 'NONE', *, *, #267, .T. ) ;
#259 = CYLINDRICAL_SURFACE ( 'NONE', #160, 5.999999999999999112 ) ;
#260 = EDGE_LOOP ( 'NONE', ( #281, #258, #229, #115 ) ) ;
#261 = DIRECTION ( 'NONE',  ( 1.000000000000000000, 0.000000000000000000, 0.000000000000000000 ) ) ;
#262 = DATE_TIME_ROLE ( 'classification_date' ) ;
#263 = DIRECTION ( 'NONE',  ( -0.000000000000000000, -0.000000000000000000, 1.000000000000000000 ) ) ;
#264 = DIRECTION ( 'NONE',  ( -0.000000000000000000, -0.000000000000000000, -1.000000000000000000 ) ) ;
#265 = CARTESIAN_POINT ( 'NONE',  ( 0.000000000000000000, 0.000000000000000000, 15.50000000000000000 ) ) ;
#266 = PERSON_AND_ORGANIZATION ( #50, #225 ) ;
#267 = EDGE_CURVE ( 'NONE', #237, #187, #244, .T. ) ;
#268 = AXIS2_PLACEMENT_3D ( 'NONE', #113, #22, #114 ) ;
#269 = AXIS2_PLACEMENT_3D ( 'NONE', #284, #16, #288 ) ;
#270 = COORDINATED_UNIVERSAL_TIME_OFFSET ( 1, 0, .AHEAD. ) ;
#271 = CC_DESIGN_PERSON_AND_ORGANIZATION_ASSIGNMENT ( #266, #37, ( #108 ) ) ;
#272 = DIRECTION ( 'NONE',  ( 1.000000000000000000, 0.000000000000000000, 0.000000000000000000 ) ) ;
#273 = DIRECTION ( 'NONE',  ( 1.000000000000000000, 0.000000000000000000, 0.000000000000000000 ) ) ;
#274 = VECTOR ( 'NONE', #282, 1000.000000000000000 ) ;
#275 = CARTESIAN_POINT ( 'NONE',  ( 0.000000000000000000, 0.000000000000000000, 15.50000000000000000 ) ) ;
#276 = APPROVAL_PERSON_ORGANIZATION ( #171, #28, #60 ) ;
#277 = ADVANCED_BREP_SHAPE_REPRESENTATION ( 'bearing spacer 2', ( #141, #5 ), #86 ) ;
#278 = CIRCLE ( 'NONE', #158, 5.999999999999999112 ) ;
#279 = EDGE_LOOP ( 'NONE', ( #213, #137, #257, #231 ) ) ;
#280 = EDGE_CURVE ( 'NONE', #27, #133, #201, .T. ) ;
#281 = ORIENTED_EDGE ( 'NONE', *, *, #235, .F. ) ;
#282 = DIRECTION ( 'NONE',  ( 0.7071067811865465735, 0.000000000000000000, 0.7071067811865484609 ) ) ;
#283 = CARTESIAN_POINT ( 'NONE',  ( 0.000000000000000000, 0.000000000000000000, 15.50000000000000000 ) ) ;
#284 = CARTESIAN_POINT ( 'NONE',  ( 0.000000000000000000, 0.000000000000000000, 0.000000000000000000 ) ) ;
#285 = PERSON_AND_ORGANIZATION_ROLE ( 'design_supplier' ) ;
#286 = CARTESIAN_POINT ( 'NONE',  ( -8.500000000000000000, 1.040949779275250140E-15, 2.000000000000003553 ) ) ;
#287 = APPROVAL_DATE_TIME ( #145, #28 ) ;
#288 = DIRECTION ( 'NONE',  ( 1.000000000000000000, 0.000000000000000000, 0.000000000000000000 ) ) ;
#289 = PERSON_AND_ORGANIZATION ( #50, #225 ) ;
#290 = EDGE_CURVE ( 'NONE', #32, #95, #233, .T. ) ;
#291 = PERSON_AND_ORGANIZATION_ROLE ( 'creator' ) ;
#292 = LOCAL_TIME ( 10, 25, 9.000000000000000000, #15 ) ;
#293 = FACE_OUTER_BOUND ( 'NONE', #97, .T. ) ;
#294 = APPROVAL_STATUS ( 'not_yet_approved' ) ;
#295 = AXIS2_PLACEMENT_3D ( 'NONE', #275, #135, #26 ) ;
#296 = CC_DESIGN_DATE_AND_TIME_ASSIGNMENT ( #178, #224, ( #20 ) ) ;
#297 = AXIS2_PLACEMENT_3D ( 'NONE', #4, #210, #91 ) ;
#298 = APPROVAL_DATE_TIME ( #149, #228 ) ;
#299 = CARTESIAN_POINT ( 'NONE',  ( 5.999999999999999112, 7.347880794884118750E-16, 15.50000000000000000 ) ) ;
ENDSEC;
END-ISO-10303-21;
