ISO-10303-21;
HEADER;
FILE_DESCRIPTION (( 'STEP AP203' ),
    '1' );
FILE_NAME ('feed belt tensioner 1.STEP',
    '2026-06-02T08:36:05',
    ( '' ),
    ( '' ),
    'SwSTEP 2.0',
    'SolidWorks 2024',
    '' );
FILE_SCHEMA (( 'CONFIG_CONTROL_DESIGN' ));
ENDSEC;

DATA;
#1 = ORIENTED_EDGE ( 'NONE', *, *, #114, .T. ) ;
#2 = DIRECTION ( 'NONE',  ( -0.000000000000000000, -0.000000000000000000, -1.000000000000000000 ) ) ;
#3 = CC_DESIGN_DATE_AND_TIME_ASSIGNMENT ( #619, #103, ( #401 ) ) ;
#4 = ORIENTED_EDGE ( 'NONE', *, *, #107, .F. ) ;
#5 = EDGE_LOOP ( 'NONE', ( #671, #505, #553, #616 ) ) ;
#6 = FACE_OUTER_BOUND ( 'NONE', #557, .T. ) ;
#7 = VECTOR ( 'NONE', #48, 1000.000000000000000 ) ;
#8 = LINE ( 'NONE', #342, #571 ) ;
#9 = CARTESIAN_POINT ( 'NONE',  ( 80.00000000000005684, 20.29999999999995808, -123.2955803164349646 ) ) ;
#10 = VECTOR ( 'NONE', #700, 1000.000000000000000 ) ;
#11 = APPROVAL_DATE_TIME ( #354, #463 ) ;
#12 = EDGE_CURVE ( 'NONE', #387, #323, #476, .T. ) ;
#13 = CARTESIAN_POINT ( 'NONE',  ( -27.75000000000001776, 1.738692345779120574, -154.9955803164349675 ) ) ;
#14 = ORIENTED_EDGE ( 'NONE', *, *, #372, .F. ) ;
#15 = DIRECTION ( 'NONE',  ( 0.000000000000000000, 1.000000000000000000, -0.000000000000000000 ) ) ;
#16 = APPROVAL_DATE_TIME ( #297, #52 ) ;
#17 = VECTOR ( 'NONE', #263, 1000.000000000000000 ) ;
#18 = ORIENTED_EDGE ( 'NONE', *, *, #362, .T. ) ;
#19 = LINE ( 'NONE', #311, #62 ) ;
#20 = EDGE_CURVE ( 'NONE', #104, #131, #312, .T. ) ;
#21 = AXIS2_PLACEMENT_3D ( 'NONE', #262, #374, #152 ) ;
#22 = LINE ( 'NONE', #241, #95 ) ;
#23 = ORIENTED_EDGE ( 'NONE', *, *, #403, .F. ) ;
#24 = CARTESIAN_POINT ( 'NONE',  ( -24.45646728200214426, 49.53999999999996362, -104.2955803164349646 ) ) ;
#25 = EDGE_CURVE ( 'NONE', #364, #101, #707, .T. ) ;
#26 = ORIENTED_EDGE ( 'NONE', *, *, #164, .T. ) ;
#27 = EDGE_LOOP ( 'NONE', ( #172, #640, #720, #599, #477, #509, #448, #14, #23, #335, #344, #674 ) ) ;
#28 = LINE ( 'NONE', #587, #189 ) ;
#29 = APPLICATION_CONTEXT ( 'configuration controlled 3d designs of mechanical parts and assemblies' ) ;
#30 = EDGE_LOOP ( 'NONE', ( #419, #452 ) ) ;
#31 = FACE_OUTER_BOUND ( 'NONE', #186, .T. ) ;
#32 = VECTOR ( 'NONE', #605, 1000.000000000000000 ) ;
#33 = DIRECTION ( 'NONE',  ( 0.3959401535119450588, -0.9182763172580121758, 0.000000000000000000 ) ) ;
#34 = CARTESIAN_POINT ( 'NONE',  ( -24.45646728200214426, 49.53999999999996362, -104.2955803164349646 ) ) ;
#35 = CARTESIAN_POINT ( 'NONE',  ( -27.75000000000001776, 1.738692345779120574, -104.2955803164349646 ) ) ;
#36 = VECTOR ( 'NONE', #485, 1000.000000000000000 ) ;
#37 = VECTOR ( 'NONE', #54, 1000.000000000000000 ) ;
#38 = CARTESIAN_POINT ( 'NONE',  ( -17.75000000000001421, 49.53999999999996362, -104.2955803164349646 ) ) ;
#39 = LINE ( 'NONE', #386, #531 ) ;
#40 = CARTESIAN_POINT ( 'NONE',  ( -24.45646728200214426, 1.738692345779120574, -104.2955803164349646 ) ) ;
#41 = EDGE_CURVE ( 'NONE', #527, #518, #316, .T. ) ;
#42 = DIRECTION ( 'NONE',  ( 1.000000000000000000, 0.000000000000000000, 0.000000000000000000 ) ) ;
#43 = EDGE_CURVE ( 'NONE', #360, #465, #655, .T. ) ;
#44 = CARTESIAN_POINT ( 'NONE',  ( -17.75000000000001421, 1.738692345779120574, -93.82610086423677842 ) ) ;
#45 = CARTESIAN_POINT ( 'NONE',  ( -22.75000000000002487, 41.03999999999996362, -97.22451250456947491 ) ) ;
#46 = CARTESIAN_POINT ( 'NONE',  ( -17.75000000000000355, 20.29999999999997229, -123.2955803164349646 ) ) ;
#47 = EDGE_CURVE ( 'NONE', #660, #562, #135, .T. ) ;
#48 = DIRECTION ( 'NONE',  ( -0.000000000000000000, -0.000000000000000000, -1.000000000000000000 ) ) ;
#49 = EDGE_LOOP ( 'NONE', ( #275, #261, #446, #559 ) ) ;
#50 = ORIENTED_EDGE ( 'NONE', *, *, #165, .T. ) ;
#51 = DIRECTION ( 'NONE',  ( -1.000000000000000000, 0.000000000000000000, 0.000000000000000000 ) ) ;
#52 = APPROVAL ( #240, 'UNSPECIFIED' ) ;
#53 = AXIS2_PLACEMENT_3D ( 'NONE', #688, #171, #181 ) ;
#54 = DIRECTION ( 'NONE',  ( -1.000000000000000000, 0.000000000000000000, 0.000000000000000000 ) ) ;
#55 = ORIENTED_EDGE ( 'NONE', *, *, #47, .F. ) ;
#56 = UNCERTAINTY_MEASURE_WITH_UNIT (LENGTH_MEASURE( 1.000000000000000082E-05 ), #216, 'distance_accuracy_value', 'NONE');
#57 = CARTESIAN_POINT ( 'NONE',  ( -22.75000000000002487, 41.03999999999996362, -97.22451250456947491 ) ) ;
#58 = PERSON_AND_ORGANIZATION ( #209, #532 ) ;
#59 = VECTOR ( 'NONE', #658, 1000.000000000000000 ) ;
#60 = EDGE_CURVE ( 'NONE', #248, #282, #39, .T. ) ;
#61 = LINE ( 'NONE', #289, #376 ) ;
#62 = VECTOR ( 'NONE', #475, 1000.000000000000000 ) ;
#63 = COORDINATED_UNIVERSAL_TIME_OFFSET ( 1, 0, .AHEAD. ) ;
#64 = VECTOR ( 'NONE', #106, 1000.000000000000000 ) ;
#65 = EDGE_CURVE ( 'NONE', #488, #604, #93, .T. ) ;
#66 = PLANE ( 'NONE',  #566 ) ;
#67 = ORIENTED_EDGE ( 'NONE', *, *, #517, .T. ) ;
#68 = CARTESIAN_POINT ( 'NONE',  ( -170.0000000000000000, 1.638692345779117820, -104.2955803164349646 ) ) ;
#69 = CARTESIAN_POINT ( 'NONE',  ( 0.000000000000000000, 0.000000000000000000, 0.000000000000000000 ) ) ;
#70 = PLANE ( 'NONE',  #504 ) ;
#71 = ORIENTED_EDGE ( 'NONE', *, *, #569, .F. ) ;
#72 = DIRECTION ( 'NONE',  ( -1.000000000000000000, 0.000000000000000000, -0.000000000000000000 ) ) ;
#73 = CARTESIAN_POINT ( 'NONE',  ( -24.45646728200214426, 1.738692345779120574, -104.2955803164349646 ) ) ;
#74 = ORIENTED_EDGE ( 'NONE', *, *, #492, .F. ) ;
#75 = CARTESIAN_POINT ( 'NONE',  ( -17.75000000000001421, 1.738692345779120574, -104.2955803164349646 ) ) ;
#76 = CARTESIAN_POINT ( 'NONE',  ( -22.75000000000002487, 41.03999999999996362, -154.9955803164349675 ) ) ;
#77 = ORIENTED_EDGE ( 'NONE', *, *, #329, .T. ) ;
#78 = LINE ( 'NONE', #183, #442 ) ;
#79 = ADVANCED_BREP_SHAPE_REPRESENTATION ( 'feed belt tensioner 1', ( #414, #246 ), #230 ) ;
#80 = DIRECTION ( 'NONE',  ( -1.000000000000000000, 0.000000000000000000, 0.000000000000000000 ) ) ;
#81 = EDGE_LOOP ( 'NONE', ( #500, #586, #242, #55 ) ) ;
#82 = CARTESIAN_POINT ( 'NONE',  ( -25.75000000000001421, 4.738692345779115911, -154.9955803164349675 ) ) ;
#83 = AXIS2_PLACEMENT_3D ( 'NONE', #405, #630, #363 ) ;
#84 = CARTESIAN_POINT ( 'NONE',  ( -27.75000000000000711, 20.29999999999997229, -123.2955803164349646 ) ) ;
#85 = CARTESIAN_POINT ( 'NONE',  ( -22.75000000000002487, 41.03999999999996362, -154.9955803164349675 ) ) ;
#86 = ORIENTED_EDGE ( 'NONE', *, *, #569, .T. ) ;
#87 = CARTESIAN_POINT ( 'NONE',  ( -21.04353271799789127, 49.53999999999996362, -154.9955803164349675 ) ) ;
#88 = ADVANCED_FACE ( 'NONE', ( #567, #396 ), #443, .T. ) ;
#89 = ADVANCED_FACE ( 'NONE', ( #451 ), #552, .F. ) ;
#90 = DIRECTION ( 'NONE',  ( 1.000000000000000000, -0.000000000000000000, -0.000000000000000000 ) ) ;
#91 = CARTESIAN_POINT ( 'NONE',  ( -19.75000000000000355, 20.29999999999997229, -123.2955803164349646 ) ) ;
#92 = LINE ( 'NONE', #375, #394 ) ;
#93 = LINE ( 'NONE', #508, #332 ) ;
#94 = ORIENTED_EDGE ( 'NONE', *, *, #697, .F. ) ;
#95 = VECTOR ( 'NONE', #348, 1000.000000000000000 ) ;
#96 = DIRECTION ( 'NONE',  ( 0.9182763172580121758, 0.3959401535119450588, -0.000000000000000000 ) ) ;
#97 = ORIENTED_EDGE ( 'NONE', *, *, #12, .F. ) ;
#98 = LINE ( 'NONE', #606, #479 ) ;
#99 = AXIS2_PLACEMENT_3D ( 'NONE', #565, #510, #676 ) ;
#100 = SHAPE_DEFINITION_REPRESENTATION ( #276, #79 ) ;
#101 = VERTEX_POINT ( 'NONE', #232 ) ;
#102 = CARTESIAN_POINT ( 'NONE',  ( -25.75000000000001421, 4.738692345779115911, -93.82610086423677842 ) ) ;
#103 = DATE_TIME_ROLE ( 'classification_date' ) ;
#104 = VERTEX_POINT ( 'NONE', #284 ) ;
#105 = LINE ( 'NONE', #445, #217 ) ;
#106 = DIRECTION ( 'NONE',  ( -0.000000000000000000, -0.000000000000000000, -1.000000000000000000 ) ) ;
#107 = EDGE_CURVE ( 'NONE', #465, #220, #626, .T. ) ;
#108 = LINE ( 'NONE', #102, #546 ) ;
#109 = CIRCLE ( 'NONE', #662, 6.150000000000003020 ) ;
#110 = EDGE_CURVE ( 'NONE', #360, #506, #686, .T. ) ;
#111 = DIRECTION ( 'NONE',  ( 1.000000000000000000, 0.000000000000000000, 0.000000000000000000 ) ) ;
#112 = DIRECTION ( 'NONE',  ( -0.3959401535119450588, 0.9182763172580121758, 0.000000000000000000 ) ) ;
#113 = ORIENTED_EDGE ( 'NONE', *, *, #60, .F. ) ;
#114 = EDGE_CURVE ( 'NONE', #380, #201, #8, .T. ) ;
#115 = DATE_AND_TIME ( #170, #206 ) ;
#116 = CIRCLE ( 'NONE', #368, 2.500000000000005773 ) ;
#117 = CARTESIAN_POINT ( 'NONE',  ( -24.45646728200214426, 49.53999999999996362, -93.82610086423677842 ) ) ;
#118 = PLANE ( 'NONE',  #130 ) ;
#119 = APPROVAL_ROLE ( '' ) ;
#120 = EDGE_CURVE ( 'NONE', #370, #197, #512, .T. ) ;
#121 = DIRECTION ( 'NONE',  ( -1.000000000000000000, 1.387778780781445676E-16, -0.000000000000000000 ) ) ;
#122 = ORIENTED_EDGE ( 'NONE', *, *, #598, .F. ) ;
#123 = LINE ( 'NONE', #318, #350 ) ;
#124 = DIRECTION ( 'NONE',  ( 0.000000000000000000, -1.000000000000000000, 0.000000000000000000 ) ) ;
#125 = EDGE_LOOP ( 'NONE', ( #137, #704, #715, #644 ) ) ;
#126 = CARTESIAN_POINT ( 'NONE',  ( -19.75000000000001776, 46.53999999999997073, -104.2955803164349646 ) ) ;
#127 = CARTESIAN_POINT ( 'NONE',  ( -17.75000000000000355, 14.14999999999996305, -123.2955803164349646 ) ) ;
#128 = VERTEX_POINT ( 'NONE', #682 ) ;
#129 = DIRECTION ( 'NONE',  ( -2.478176394252581634E-16, -1.000000000000000000, 0.000000000000000000 ) ) ;
#130 = AXIS2_PLACEMENT_3D ( 'NONE', #523, #15, #690 ) ;
#131 = VERTEX_POINT ( 'NONE', #347 ) ;
#132 = ORIENTED_EDGE ( 'NONE', *, *, #467, .T. ) ;
#133 = DIRECTION ( 'NONE',  ( -0.000000000000000000, -0.000000000000000000, -1.000000000000000000 ) ) ;
#134 = PRODUCT_RELATED_PRODUCT_CATEGORY ( 'detail', '', ( #544 ) ) ;
#135 = CIRCLE ( 'NONE', #343, 6.150000000000007461 ) ;
#136 = DIRECTION ( 'NONE',  ( -2.478176394252581634E-16, -1.000000000000000000, 0.000000000000000000 ) ) ;
#137 = ORIENTED_EDGE ( 'NONE', *, *, #372, .T. ) ;
#138 = LINE ( 'NONE', #82, #620 ) ;
#139 = ORIENTED_EDGE ( 'NONE', *, *, #410, .F. ) ;
#140 = AXIS2_PLACEMENT_3D ( 'NONE', #637, #253, #420 ) ;
#141 = ORIENTED_EDGE ( 'NONE', *, *, #646, .T. ) ;
#142 = CARTESIAN_POINT ( 'NONE',  ( -25.25000000000002842, 41.03999999999996362, -154.9955803164349675 ) ) ;
#143 = CARTESIAN_POINT ( 'NONE',  ( -19.75000000000001066, 6.299999999999970512, -123.2955803164349646 ) ) ;
#144 = EDGE_CURVE ( 'NONE', #146, #562, #578, .T. ) ;
#145 = ORIENTED_EDGE ( 'NONE', *, *, #403, .T. ) ;
#146 = VERTEX_POINT ( 'NONE', #127 ) ;
#147 = LINE ( 'NONE', #87, #643 ) ;
#148 = DIRECTION ( 'NONE',  ( 1.156482317317871232E-16, 1.000000000000000000, -0.000000000000000000 ) ) ;
#149 = AXIS2_PLACEMENT_3D ( 'NONE', #421, #256, #136 ) ;
#150 = ORIENTED_EDGE ( 'NONE', *, *, #517, .F. ) ;
#151 = ORIENTED_EDGE ( 'NONE', *, *, #591, .F. ) ;
#152 = DIRECTION ( 'NONE',  ( -0.3959401535119450588, -0.9182763172580121758, 0.000000000000000000 ) ) ;
#153 = EDGE_CURVE ( 'NONE', #596, #660, #639, .T. ) ;
#154 = FACE_OUTER_BOUND ( 'NONE', #495, .T. ) ;
#155 = CARTESIAN_POINT ( 'NONE',  ( -25.75000000000001421, 4.738692345779115911, -104.2955803164349646 ) ) ;
#156 = VECTOR ( 'NONE', #385, 1000.000000000000000 ) ;
#157 = CARTESIAN_POINT ( 'NONE',  ( -19.75000000000000355, 34.29999999999996874, -123.2955803164349646 ) ) ;
#158 = DIRECTION ( 'NONE',  ( 2.891205793294678080E-17, -1.000000000000000000, 0.000000000000000000 ) ) ;
#159 = CARTESIAN_POINT ( 'NONE',  ( -27.75000000000000355, 60.00000000000000711, -154.9955803164349675 ) ) ;
#160 = CC_DESIGN_PERSON_AND_ORGANIZATION_ASSIGNMENT ( #468, #629, ( #627 ) ) ;
#161 = DIRECTION ( 'NONE',  ( -2.478176394252581634E-16, -1.000000000000000000, 0.000000000000000000 ) ) ;
#162 = VERTEX_POINT ( 'NONE', #13 ) ;
#163 = ORIENTED_EDGE ( 'NONE', *, *, #472, .T. ) ;
#164 = EDGE_CURVE ( 'NONE', #596, #146, #109, .T. ) ;
#165 = EDGE_CURVE ( 'NONE', #527, #380, #61, .T. ) ;
#166 =( NAMED_UNIT ( * ) SI_UNIT ( $, .STERADIAN. ) SOLID_ANGLE_UNIT ( ) );
#167 = CARTESIAN_POINT ( 'NONE',  ( 80.00000000000005684, 14.14999999999994884, -123.2955803164349646 ) ) ;
#168 = ORIENTED_EDGE ( 'NONE', *, *, #696, .T. ) ;
#169 = CYLINDRICAL_SURFACE ( 'NONE', #664, 2.500000000000005773 ) ;
#170 = CALENDAR_DATE ( 2026, 2, 6 ) ;
#171 = DIRECTION ( 'NONE',  ( 1.000000000000000000, -1.387778780781445922E-16, 0.000000000000000000 ) ) ;
#172 = ORIENTED_EDGE ( 'NONE', *, *, #472, .F. ) ;
#173 = DIRECTION ( 'NONE',  ( 0.000000000000000000, 0.000000000000000000, 1.000000000000000000 ) ) ;
#174 = VECTOR ( 'NONE', #409, 1000.000000000000000 ) ;
#175 = FACE_OUTER_BOUND ( 'NONE', #81, .T. ) ;
#176 = ORIENTED_EDGE ( 'NONE', *, *, #25, .T. ) ;
#177 = CARTESIAN_POINT ( 'NONE',  ( -17.75000000000001421, 49.53999999999996362, -154.9955803164349675 ) ) ;
#178 = VECTOR ( 'NONE', #309, 1000.000000000000000 ) ;
#179 = SECURITY_CLASSIFICATION_LEVEL ( 'unclassified' ) ;
#180 = EDGE_CURVE ( 'NONE', #415, #370, #407, .T. ) ;
#181 = DIRECTION ( 'NONE',  ( 1.387778780781445922E-16, 1.000000000000000000, 0.000000000000000000 ) ) ;
#182 = ORIENTED_EDGE ( 'NONE', *, *, #384, .F. ) ;
#183 = CARTESIAN_POINT ( 'NONE',  ( -25.75000000000001421, 46.53999999999997073, -154.9955803164349675 ) ) ;
#184 = EDGE_LOOP ( 'NONE', ( #122, #568, #444, #441 ) ) ;
#185 = FACE_OUTER_BOUND ( 'NONE', #418, .T. ) ;
#186 = EDGE_LOOP ( 'NONE', ( #349, #338, #356, #94 ) ) ;
#187 = CARTESIAN_POINT ( 'NONE',  ( -19.75000000000001776, 4.738692345779115911, -104.2955803164349646 ) ) ;
#188 = ADVANCED_FACE ( 'NONE', ( #233, #294 ), #355, .F. ) ;
#189 = VECTOR ( 'NONE', #537, 1000.000000000000000 ) ;
#190 = ORIENTED_EDGE ( 'NONE', *, *, #533, .T. ) ;
#191 = CYLINDRICAL_SURFACE ( 'NONE', #563, 14.00000000000000000 ) ;
#192 = AXIS2_PLACEMENT_3D ( 'NONE', #280, #680, #161 ) ;
#193 = DIRECTION ( 'NONE',  ( -2.478176394252581634E-16, -1.000000000000000000, 0.000000000000000000 ) ) ;
#194 = EDGE_CURVE ( 'NONE', #366, #539, #254, .T. ) ;
#195 = DIRECTION ( 'NONE',  ( 0.000000000000000000, 1.000000000000000000, -0.000000000000000000 ) ) ;
#196 = VECTOR ( 'NONE', #208, 1000.000000000000114 ) ;
#197 = VERTEX_POINT ( 'NONE', #698 ) ;
#198 = LINE ( 'NONE', #266, #32 ) ;
#199 = DIRECTION ( 'NONE',  ( -1.000000000000000000, 0.000000000000000000, 0.000000000000000000 ) ) ;
#200 = ADVANCED_FACE ( 'NONE', ( #521, #632 ), #66, .F. ) ;
#201 = VERTEX_POINT ( 'NONE', #581 ) ;
#202 = PLANE ( 'NONE',  #681 ) ;
#203 = CARTESIAN_POINT ( 'NONE',  ( -25.25000000000002842, 41.03999999999996362, -97.22451250456947491 ) ) ;
#204 = VECTOR ( 'NONE', #288, 1000.000000000000000 ) ;
#205 = ORIENTED_EDGE ( 'NONE', *, *, #120, .T. ) ;
#206 = LOCAL_TIME ( 10, 36, 4.000000000000000000, #63 ) ;
#207 = CARTESIAN_POINT ( 'NONE',  ( -21.04353271799789127, 1.738692345779120574, -154.9955803164349675 ) ) ;
#208 = DIRECTION ( 'NONE',  ( -0.3959401535119451143, -0.9182763172580121758, -0.000000000000000000 ) ) ;
#209 = PERSON ( 'UNSPECIFIED', 'UNSPECIFIED', 'UNSPECIFIED', ('UNSPECIFIED'), ('UNSPECIFIED'), ('UNSPECIFIED') ) ;
#210 = CALENDAR_DATE ( 2026, 2, 6 ) ;
#211 = ORIENTED_EDGE ( 'NONE', *, *, #47, .T. ) ;
#212 = ORIENTED_EDGE ( 'NONE', *, *, #20, .T. ) ;
#213 = DIRECTION ( 'NONE',  ( -0.000000000000000000, -0.000000000000000000, -1.000000000000000000 ) ) ;
#214 = DIRECTION ( 'NONE',  ( -1.387778780781445429E-16, -1.000000000000000000, 0.000000000000000000 ) ) ;
#215 = ORIENTED_EDGE ( 'NONE', *, *, #490, .F. ) ;
#216 =( LENGTH_UNIT ( ) NAMED_UNIT ( * ) SI_UNIT ( .MILLI., .METRE. ) );
#217 = VECTOR ( 'NONE', #515, 1000.000000000000000 ) ;
#218 = ADVANCED_FACE ( 'NONE', ( #459 ), #118, .F. ) ;
#219 = ADVANCED_FACE ( 'NONE', ( #175 ), #411, .F. ) ;
#220 = VERTEX_POINT ( 'NONE', #628 ) ;
#221 = ORIENTED_EDGE ( 'NONE', *, *, #247, .T. ) ;
#222 = PLANE ( 'NONE',  #558 ) ;
#223 = CARTESIAN_POINT ( 'NONE',  ( -21.04353271799789127, 49.53999999999996362, -104.2955803164349646 ) ) ;
#224 = EDGE_CURVE ( 'NONE', #281, #255, #359, .T. ) ;
#225 = CARTESIAN_POINT ( 'NONE',  ( -17.75000000000001421, 49.53999999999996362, -93.82610086423677842 ) ) ;
#226 = AXIS2_PLACEMENT_3D ( 'NONE', #45, #661, #426 ) ;
#227 = DATE_TIME_ROLE ( 'creation_date' ) ;
#228 = DIRECTION ( 'NONE',  ( 0.3959401535119450588, 0.9182763172580121758, 0.000000000000000000 ) ) ;
#229 = EDGE_LOOP ( 'NONE', ( #77, #211 ) ) ;
#230 =( GEOMETRIC_REPRESENTATION_CONTEXT ( 3 ) GLOBAL_UNCERTAINTY_ASSIGNED_CONTEXT ( ( #56 ) ) GLOBAL_UNIT_ASSIGNED_CONTEXT ( ( #216, #402, #166 ) ) REPRESENTATION_CONTEXT ( 'NONE', 'WORKASPACE' ) );
#231 = PERSON_AND_ORGANIZATION ( #209, #532 ) ;
#232 = CARTESIAN_POINT ( 'NONE',  ( -25.25000000000002842, 41.03999999999996362, -104.2955803164349646 ) ) ;
#233 = FACE_BOUND ( 'NONE', #30, .T. ) ;
#234 = EDGE_LOOP ( 'NONE', ( #190, #677, #422, #139 ) ) ;
#235 = CARTESIAN_POINT ( 'NONE',  ( -27.75000000000001776, 49.53999999999996362, -154.9955803164349675 ) ) ;
#236 = APPROVAL_STATUS ( 'not_yet_approved' ) ;
#237 = CARTESIAN_POINT ( 'NONE',  ( -17.75000000000000355, 20.29999999999997229, -123.2955803164349646 ) ) ;
#238 = ORIENTED_EDGE ( 'NONE', *, *, #164, .F. ) ;
#239 = LINE ( 'NONE', #75, #10 ) ;
#240 = APPROVAL_STATUS ( 'not_yet_approved' ) ;
#241 = CARTESIAN_POINT ( 'NONE',  ( -27.75000000000000355, 60.00000000000000711, -104.2955803164349646 ) ) ;
#242 = ORIENTED_EDGE ( 'NONE', *, *, #144, .T. ) ;
#243 = DIRECTION ( 'NONE',  ( -1.000000000000000000, 0.000000000000000000, 0.000000000000000000 ) ) ;
#244 = VECTOR ( 'NONE', #683, 1000.000000000000000 ) ;
#245 = ADVANCED_FACE ( 'NONE', ( #585 ), #70, .F. ) ;
#246 = AXIS2_PLACEMENT_3D ( 'NONE', #69, #173, #111 ) ;
#247 = EDGE_CURVE ( 'NONE', #255, #360, #22, .T. ) ;
#248 = VERTEX_POINT ( 'NONE', #268 ) ;
#249 = CARTESIAN_POINT ( 'NONE',  ( -21.04353271799789127, 1.738692345779120574, -93.82610086423677842 ) ) ;
#250 = AXIS2_PLACEMENT_3D ( 'NONE', #260, #195, #708 ) ;
#251 = EDGE_CURVE ( 'NONE', #539, #366, #602, .T. ) ;
#252 = ORIENTED_EDGE ( 'NONE', *, *, #697, .T. ) ;
#253 = DIRECTION ( 'NONE',  ( -0.9182763172580121758, -0.3959401535119450588, 0.000000000000000000 ) ) ;
#254 = CIRCLE ( 'NONE', #83, 14.00000000000000000 ) ;
#255 = VERTEX_POINT ( 'NONE', #35 ) ;
#256 = DIRECTION ( 'NONE',  ( -1.000000000000000000, 1.387778780781445429E-16, 0.000000000000000000 ) ) ;
#257 = ORIENTED_EDGE ( 'NONE', *, *, #110, .T. ) ;
#258 = CARTESIAN_POINT ( 'NONE',  ( -27.75000000000001776, 49.53999999999996362, -104.2955803164349646 ) ) ;
#259 = ADVANCED_FACE ( 'NONE', ( #320 ), #496, .F. ) ;
#260 = CARTESIAN_POINT ( 'NONE',  ( -19.75000000000001776, 4.738692345779115911, -93.82610086423677842 ) ) ;
#261 = ORIENTED_EDGE ( 'NONE', *, *, #534, .T. ) ;
#262 = CARTESIAN_POINT ( 'NONE',  ( -25.75000000000001421, 46.53999999999997073, -93.82610086423677842 ) ) ;
#263 = DIRECTION ( 'NONE',  ( 1.000000000000000000, 0.000000000000000000, 0.000000000000000000 ) ) ;
#264 = EDGE_CURVE ( 'NONE', #255, #162, #324, .T. ) ;
#265 = ORIENTED_EDGE ( 'NONE', *, *, #511, .F. ) ;
#266 = CARTESIAN_POINT ( 'NONE',  ( -20.25000000000001776, 41.03999999999996362, -97.22451250456947491 ) ) ;
#267 = CARTESIAN_POINT ( 'NONE',  ( -17.75000000000001421, 1.738692345779120574, -93.82610086423677842 ) ) ;
#268 = CARTESIAN_POINT ( 'NONE',  ( -19.75000000000001776, 46.53999999999997073, -154.9955803164349675 ) ) ;
#269 = LINE ( 'NONE', #143, #713 ) ;
#270 = PERSON_AND_ORGANIZATION ( #209, #532 ) ;
#271 = APPROVAL ( #561, 'UNSPECIFIED' ) ;
#272 = CIRCLE ( 'NONE', #192, 14.00000000000000000 ) ;
#273 = FACE_OUTER_BOUND ( 'NONE', #49, .T. ) ;
#274 = APPROVAL_DATE_TIME ( #439, #271 ) ;
#275 = ORIENTED_EDGE ( 'NONE', *, *, #180, .T. ) ;
#276 = PRODUCT_DEFINITION_SHAPE ( 'NONE', 'NONE',  #724 ) ;
#277 = ORIENTED_EDGE ( 'NONE', *, *, #362, .F. ) ;
#278 = ORIENTED_EDGE ( 'NONE', *, *, #264, .F. ) ;
#279 = ADVANCED_FACE ( 'NONE', ( #493 ), #549, .F. ) ;
#280 = CARTESIAN_POINT ( 'NONE',  ( -19.75000000000000711, 20.29999999999997229, -123.2955803164349646 ) ) ;
#281 = VERTEX_POINT ( 'NONE', #40 ) ;
#282 = VERTEX_POINT ( 'NONE', #489 ) ;
#283 = CARTESIAN_POINT ( 'NONE',  ( -24.45646728200214426, 1.738692345779120574, -154.9955803164349675 ) ) ;
#284 = CARTESIAN_POINT ( 'NONE',  ( -19.75000000000000355, 34.29999999999996874, -123.2955803164349646 ) ) ;
#285 = ORIENTED_EDGE ( 'NONE', *, *, #580, .T. ) ;
#286 = FACE_OUTER_BOUND ( 'NONE', #381, .T. ) ;
#287 = PERSON_AND_ORGANIZATION_ROLE ( 'creator' ) ;
#288 = DIRECTION ( 'NONE',  ( -0.000000000000000000, -0.000000000000000000, -1.000000000000000000 ) ) ;
#289 = CARTESIAN_POINT ( 'NONE',  ( -21.04353271799789127, 1.738692345779120574, -104.2955803164349646 ) ) ;
#290 = EDGE_LOOP ( 'NONE', ( #633, #212 ) ) ;
#291 = PERSON_AND_ORGANIZATION_ROLE ( 'creator' ) ;
#292 = CARTESIAN_POINT ( 'NONE',  ( -27.75000000000001776, 49.53999999999996362, -93.82610086423677842 ) ) ;
#293 = EDGE_CURVE ( 'NONE', #364, #387, #198, .T. ) ;
#294 = FACE_OUTER_BOUND ( 'NONE', #564, .T. ) ;
#295 = EDGE_LOOP ( 'NONE', ( #150, #470 ) ) ;
#296 = AXIS2_PLACEMENT_3D ( 'NONE', #44, #457, #577 ) ;
#297 = DATE_AND_TIME ( #398, #687 ) ;
#298 = DIRECTION ( 'NONE',  ( -1.000000000000000000, 0.000000000000000000, 0.000000000000000000 ) ) ;
#299 = ORIENTED_EDGE ( 'NONE', *, *, #543, .F. ) ;
#300 = CARTESIAN_POINT ( 'NONE',  ( -20.25000000000001776, 41.03999999999996362, -154.9955803164349675 ) ) ;
#301 = APPLICATION_PROTOCOL_DEFINITION ( 'international standard', 'config_control_design', 1994, #29 ) ;
#302 = AXIS2_PLACEMENT_3D ( 'NONE', #46, #663, #379 ) ;
#303 = DIRECTION ( 'NONE',  ( 0.000000000000000000, -1.000000000000000000, 0.000000000000000000 ) ) ;
#304 = ORIENTED_EDGE ( 'NONE', *, *, #114, .F. ) ;
#305 = CARTESIAN_POINT ( 'NONE',  ( -25.75000000000001421, 46.53999999999997073, -93.82610086423677842 ) ) ;
#306 = ADVANCED_FACE ( 'NONE', ( #716 ), #202, .F. ) ;
#307 = EDGE_CURVE ( 'NONE', #651, #281, #721, .T. ) ;
#308 = LOCAL_TIME ( 10, 36, 4.000000000000000000, #498 ) ;
#309 = DIRECTION ( 'NONE',  ( -1.000000000000000000, 0.000000000000000000, 0.000000000000000000 ) ) ;
#310 = ORIENTED_EDGE ( 'NONE', *, *, #224, .T. ) ;
#311 = CARTESIAN_POINT ( 'NONE',  ( -21.04353271799789127, 49.53999999999996362, -93.82610086423677842 ) ) ;
#312 = CIRCLE ( 'NONE', #149, 14.00000000000000000 ) ;
#313 = ORIENTED_EDGE ( 'NONE', *, *, #638, .T. ) ;
#314 = DIRECTION ( 'NONE',  ( 0.000000000000000000, -1.000000000000000000, 0.000000000000000000 ) ) ;
#315 = AXIS2_PLACEMENT_3D ( 'NONE', #249, #416, #695 ) ;
#316 = LINE ( 'NONE', #538, #36 ) ;
#317 = ORIENTED_EDGE ( 'NONE', *, *, #543, .T. ) ;
#318 = CARTESIAN_POINT ( 'NONE',  ( -17.75000000000001421, 49.53999999999996362, -93.82610086423677842 ) ) ;
#319 = ORIENTED_EDGE ( 'NONE', *, *, #329, .F. ) ;
#320 = FACE_OUTER_BOUND ( 'NONE', #5, .T. ) ;
#321 = ADVANCED_FACE ( 'NONE', ( #601 ), #388, .F. ) ;
#322 = DIRECTION ( 'NONE',  ( 1.000000000000000000, -1.387778780781445429E-16, -0.000000000000000000 ) ) ;
#323 = VERTEX_POINT ( 'NONE', #142 ) ;
#324 = LINE ( 'NONE', #378, #339 ) ;
#325 = DIRECTION ( 'NONE',  ( -1.000000000000000000, 1.387778780781445429E-16, -0.000000000000000000 ) ) ;
#326 = AXIS2_PLACEMENT_3D ( 'NONE', #438, #96, #603 ) ;
#327 = CARTESIAN_POINT ( 'NONE',  ( -20.25000000000001776, 41.03999999999996362, -104.2955803164349646 ) ) ;
#328 = CARTESIAN_POINT ( 'NONE',  ( -27.75000000000000355, 34.29999999999996874, -123.2955803164349646 ) ) ;
#329 = EDGE_CURVE ( 'NONE', #562, #660, #353, .T. ) ;
#330 = CARTESIAN_POINT ( 'NONE',  ( -25.75000000000001421, 4.738692345779115911, -104.2955803164349646 ) ) ;
#331 = APPROVAL_ROLE ( '' ) ;
#332 = VECTOR ( 'NONE', #158, 1000.000000000000000 ) ;
#333 = LINE ( 'NONE', #157, #156 ) ;
#334 = ORIENTED_EDGE ( 'NONE', *, *, #153, .T. ) ;
#335 = ORIENTED_EDGE ( 'NONE', *, *, #533, .F. ) ;
#336 = CIRCLE ( 'NONE', #513, 2.500000000000005773 ) ;
#337 = VERTEX_POINT ( 'NONE', #656 ) ;
#338 = ORIENTED_EDGE ( 'NONE', *, *, #727, .T. ) ;
#339 = VECTOR ( 'NONE', #542, 1000.000000000000000 ) ;
#340 = CC_DESIGN_SECURITY_CLASSIFICATION ( #401, ( #627 ) ) ;
#341 = CARTESIAN_POINT ( 'NONE',  ( -24.45646728200214426, 49.53999999999996362, -154.9955803164349675 ) ) ;
#342 = CARTESIAN_POINT ( 'NONE',  ( -19.75000000000001776, 4.738692345779115911, -93.82610086423677842 ) ) ;
#343 = AXIS2_PLACEMENT_3D ( 'NONE', #706, #322, #547 ) ;
#344 = ORIENTED_EDGE ( 'NONE', *, *, #120, .F. ) ;
#345 = APPROVAL_PERSON_ORGANIZATION ( #231, #463, #119 ) ;
#346 = PERSON_AND_ORGANIZATION ( #209, #532 ) ;
#347 = CARTESIAN_POINT ( 'NONE',  ( -19.75000000000001066, 6.299999999999970512, -123.2955803164349646 ) ) ;
#348 = DIRECTION ( 'NONE',  ( 1.387778780781445922E-16, 1.000000000000000000, 0.000000000000000000 ) ) ;
#349 = ORIENTED_EDGE ( 'NONE', *, *, #307, .T. ) ;
#350 = VECTOR ( 'NONE', #133, 1000.000000000000000 ) ;
#351 = COORDINATED_UNIVERSAL_TIME_OFFSET ( 1, 0, .AHEAD. ) ;
#352 = DIRECTION ( 'NONE',  ( -1.000000000000000000, 0.000000000000000000, 0.000000000000000000 ) ) ;
#353 = CIRCLE ( 'NONE', #455, 6.150000000000007461 ) ;
#354 = DATE_AND_TIME ( #574, #436 ) ;
#355 = PLANE ( 'NONE',  #53 ) ;
#356 = ORIENTED_EDGE ( 'NONE', *, *, #492, .T. ) ;
#357 = FACE_OUTER_BOUND ( 'NONE', #184, .T. ) ;
#358 = APPLICATION_PROTOCOL_DEFINITION ( 'international standard', 'config_control_design', 1994, #484 ) ;
#359 = LINE ( 'NONE', #73, #178 ) ;
#360 = VERTEX_POINT ( 'NONE', #258 ) ;
#361 = CARTESIAN_POINT ( 'NONE',  ( 80.00000000000005684, 20.29999999999995808, -123.2955803164349646 ) ) ;
#362 = EDGE_CURVE ( 'NONE', #337, #248, #147, .T. ) ;
#363 = DIRECTION ( 'NONE',  ( -2.478176394252581634E-16, -1.000000000000000000, 0.000000000000000000 ) ) ;
#364 = VERTEX_POINT ( 'NONE', #327 ) ;
#365 = DIRECTION ( 'NONE',  ( 0.3959401535119451143, 0.9182763172580121758, 0.000000000000000000 ) ) ;
#366 = VERTEX_POINT ( 'NONE', #590 ) ;
#367 = LINE ( 'NONE', #482, #653 ) ;
#368 = AXIS2_PLACEMENT_3D ( 'NONE', #85, #427, #42 ) ;
#369 = CARTESIAN_POINT ( 'NONE',  ( -22.75000000000002487, 41.03999999999996362, -104.2955803164349646 ) ) ;
#370 = VERTEX_POINT ( 'NONE', #126 ) ;
#371 = CYLINDRICAL_SURFACE ( 'NONE', #703, 6.150000000000007461 ) ;
#372 = EDGE_CURVE ( 'NONE', #529, #527, #239, .T. ) ;
#373 = ORIENTED_EDGE ( 'NONE', *, *, #384, .T. ) ;
#374 = DIRECTION ( 'NONE',  ( -0.9182763172580121758, 0.3959401535119450588, 0.000000000000000000 ) ) ;
#375 = CARTESIAN_POINT ( 'NONE',  ( -19.75000000000001776, 4.738692345779115911, -104.2955803164349646 ) ) ;
#376 = VECTOR ( 'NONE', #228, 1000.000000000000114 ) ;
#377 = ORIENTED_EDGE ( 'NONE', *, *, #667, .F. ) ;
#378 = CARTESIAN_POINT ( 'NONE',  ( -27.75000000000001776, 1.738692345779120574, -93.82610086423677842 ) ) ;
#379 = DIRECTION ( 'NONE',  ( 0.000000000000000000, 0.000000000000000000, 1.000000000000000000 ) ) ;
#380 = VERTEX_POINT ( 'NONE', #187 ) ;
#381 = EDGE_LOOP ( 'NONE', ( #425, #176, #86, #573 ) ) ;
#382 = DIRECTION ( 'NONE',  ( 0.3959401535119451143, -0.9182763172580121758, 0.000000000000000000 ) ) ;
#383 = ADVANCED_FACE ( 'NONE', ( #471 ), #371, .F. ) ;
#384 = EDGE_CURVE ( 'NONE', #282, #220, #78, .T. ) ;
#385 = DIRECTION ( 'NONE',  ( -1.000000000000000000, 1.387778780781445429E-16, -0.000000000000000000 ) ) ;
#386 = CARTESIAN_POINT ( 'NONE',  ( -19.75000000000001776, 46.53999999999997073, -154.9955803164349675 ) ) ;
#387 = VERTEX_POINT ( 'NONE', #300 ) ;
#388 = CYLINDRICAL_SURFACE ( 'NONE', #226, 2.500000000000005773 ) ;
#389 = PLANE ( 'NONE',  #250 ) ;
#390 = AXIS2_PLACEMENT_3D ( 'NONE', #607, #437, #193 ) ;
#391 = CARTESIAN_POINT ( 'NONE',  ( -17.75000000000001421, 49.53999999999996362, -104.2955803164349646 ) ) ;
#392 = ORIENTED_EDGE ( 'NONE', *, *, #727, .F. ) ;
#393 = DIRECTION ( 'NONE',  ( 1.000000000000000000, 0.000000000000000000, 0.000000000000000000 ) ) ;
#394 = VECTOR ( 'NONE', #501, 1000.000000000000000 ) ;
#395 = DIRECTION ( 'NONE',  ( -1.000000000000000000, 0.000000000000000000, 0.000000000000000000 ) ) ;
#396 = FACE_BOUND ( 'NONE', #229, .T. ) ;
#397 = CC_DESIGN_APPROVAL ( #271, ( #401 ) ) ;
#398 = CALENDAR_DATE ( 2026, 2, 6 ) ;
#399 = AXIS2_PLACEMENT_3D ( 'NONE', #369, #595, #80 ) ;
#400 = CARTESIAN_POINT ( 'NONE',  ( -19.75000000000001776, 46.53999999999997073, -104.2955803164349646 ) ) ;
#401 = SECURITY_CLASSIFICATION ( '', '', #179 ) ;
#402 =( NAMED_UNIT ( * ) PLANE_ANGLE_UNIT ( ) SI_UNIT ( $, .RADIAN. ) );
#403 = EDGE_CURVE ( 'NONE', #541, #529, #28, .T. ) ;
#404 = APPROVAL_ROLE ( '' ) ;
#405 = CARTESIAN_POINT ( 'NONE',  ( -27.75000000000000711, 20.29999999999997229, -123.2955803164349646 ) ) ;
#406 = VECTOR ( 'NONE', #583, 1000.000000000000000 ) ;
#407 = LINE ( 'NONE', #400, #728 ) ;
#408 = ORIENTED_EDGE ( 'NONE', *, *, #264, .T. ) ;
#409 = DIRECTION ( 'NONE',  ( 1.000000000000000000, -0.000000000000000000, -0.000000000000000000 ) ) ;
#410 = EDGE_CURVE ( 'NONE', #197, #337, #19, .T. ) ;
#411 = CYLINDRICAL_SURFACE ( 'NONE', #576, 6.150000000000007461 ) ;
#412 = ORIENTED_EDGE ( 'NONE', *, *, #718, .F. ) ;
#413 = PLANE ( 'NONE',  #140 ) ;
#414 = MANIFOLD_SOLID_BREP ( 'Stock-minilip main body-1', #615 ) ;
#415 = VERTEX_POINT ( 'NONE', #634 ) ;
#416 = DIRECTION ( 'NONE',  ( 0.9182763172580121758, -0.3959401535119450588, 0.000000000000000000 ) ) ;
#417 = AXIS2_PLACEMENT_3D ( 'NONE', #68, #597, #72 ) ;
#418 = EDGE_LOOP ( 'NONE', ( #50, #1, #317, #691 ) ) ;
#419 = ORIENTED_EDGE ( 'NONE', *, *, #194, .F. ) ;
#420 = DIRECTION ( 'NONE',  ( 0.3959401535119450588, -0.9182763172580121758, 0.000000000000000000 ) ) ;
#421 = CARTESIAN_POINT ( 'NONE',  ( -19.75000000000000711, 20.29999999999997229, -123.2955803164349646 ) ) ;
#422 = ORIENTED_EDGE ( 'NONE', *, *, #490, .T. ) ;
#423 = DIRECTION ( 'NONE',  ( -0.3959401535119450588, -0.9182763172580121758, 0.000000000000000000 ) ) ;
#424 = ADVANCED_FACE ( 'NONE', ( #31 ), #413, .F. ) ;
#425 = ORIENTED_EDGE ( 'NONE', *, *, #293, .F. ) ;
#426 = DIRECTION ( 'NONE',  ( -1.000000000000000000, 0.000000000000000000, 0.000000000000000000 ) ) ;
#427 = DIRECTION ( 'NONE',  ( -0.000000000000000000, 0.000000000000000000, -1.000000000000000000 ) ) ;
#428 = ORIENTED_EDGE ( 'NONE', *, *, #570, .F. ) ;
#429 = DIRECTION ( 'NONE',  ( 1.000000000000000000, -1.387778780781445429E-16, -0.000000000000000000 ) ) ;
#430 = CARTESIAN_POINT ( 'NONE',  ( -19.75000000000000355, 14.14999999999996305, -123.2955803164349646 ) ) ;
#431 = ADVANCED_FACE ( 'NONE', ( #185 ), #530, .F. ) ;
#432 = EDGE_CURVE ( 'NONE', #541, #488, #123, .T. ) ;
#433 = ORIENTED_EDGE ( 'NONE', *, *, #12, .T. ) ;
#434 = DIRECTION ( 'NONE',  ( 0.000000000000000000, -0.000000000000000000, -1.000000000000000000 ) ) ;
#435 = CARTESIAN_POINT ( 'NONE',  ( -19.75000000000001776, 46.53999999999997073, -93.82610086423677842 ) ) ;
#436 = LOCAL_TIME ( 10, 36, 4.000000000000000000, #522 ) ;
#437 = DIRECTION ( 'NONE',  ( -1.000000000000000000, 1.387778780781445429E-16, -0.000000000000000000 ) ) ;
#438 = CARTESIAN_POINT ( 'NONE',  ( -21.04353271799789127, 49.53999999999996362, -93.82610086423677842 ) ) ;
#439 = DATE_AND_TIME ( #210, #308 ) ;
#440 = VECTOR ( 'NONE', #148, 1000.000000000000000 ) ;
#441 = ORIENTED_EDGE ( 'NONE', *, *, #194, .T. ) ;
#442 = VECTOR ( 'NONE', #365, 1000.000000000000114 ) ;
#443 = PLANE ( 'NONE',  #520 ) ;
#444 = ORIENTED_EDGE ( 'NONE', *, *, #592, .T. ) ;
#445 = CARTESIAN_POINT ( 'NONE',  ( -24.45646728200214426, 1.738692345779120574, -93.82610086423677842 ) ) ;
#446 = ORIENTED_EDGE ( 'NONE', *, *, #60, .T. ) ;
#447 = VECTOR ( 'NONE', #710, 1000.000000000000000 ) ;
#448 = ORIENTED_EDGE ( 'NONE', *, *, #165, .F. ) ;
#449 = DIRECTION ( 'NONE',  ( 1.000000000000000000, -0.000000000000000000, -0.000000000000000000 ) ) ;
#450 = COORDINATED_UNIVERSAL_TIME_OFFSET ( 1, 0, .AHEAD. ) ;
#451 = FACE_OUTER_BOUND ( 'NONE', #125, .T. ) ;
#452 = ORIENTED_EDGE ( 'NONE', *, *, #251, .F. ) ;
#453 = EDGE_LOOP ( 'NONE', ( #377, #97 ) ) ;
#454 = LINE ( 'NONE', #283, #584 ) ;
#455 = AXIS2_PLACEMENT_3D ( 'NONE', #91, #429, #611 ) ;
#456 = ADVANCED_FACE ( 'NONE', ( #357 ), #191, .F. ) ;
#457 = DIRECTION ( 'NONE',  ( 0.000000000000000000, 1.000000000000000000, -0.000000000000000000 ) ) ;
#458 = ADVANCED_FACE ( 'NONE', ( #478, #645 ), #702, .F. ) ;
#459 = FACE_OUTER_BOUND ( 'NONE', #631, .T. ) ;
#460 = FACE_BOUND ( 'NONE', #453, .T. ) ;
#461 = DIRECTION ( 'NONE',  ( 1.000000000000000000, 0.000000000000000000, 0.000000000000000000 ) ) ;
#462 = ORIENTED_EDGE ( 'NONE', *, *, #570, .T. ) ;
#463 = APPROVAL ( #236, 'UNSPECIFIED' ) ;
#464 = PERSON_AND_ORGANIZATION_ROLE ( 'classification_officer' ) ;
#465 = VERTEX_POINT ( 'NONE', #24 ) ;
#466 = LINE ( 'NONE', #692, #174 ) ;
#467 = EDGE_CURVE ( 'NONE', #415, #282, #641, .T. ) ;
#468 = PERSON_AND_ORGANIZATION ( #209, #532 ) ;
#469 = DIRECTION ( 'NONE',  ( -1.000000000000000000, 1.387778780781445676E-16, -0.000000000000000000 ) ) ;
#470 = ORIENTED_EDGE ( 'NONE', *, *, #25, .F. ) ;
#471 = FACE_OUTER_BOUND ( 'NONE', #699, .T. ) ;
#472 = EDGE_CURVE ( 'NONE', #465, #415, #367, .T. ) ;
#473 = CARTESIAN_POINT ( 'NONE',  ( 80.00000000000005684, 26.44999999999996732, -123.2955803164349646 ) ) ;
#474 = ORIENTED_EDGE ( 'NONE', *, *, #534, .F. ) ;
#475 = DIRECTION ( 'NONE',  ( -0.000000000000000000, -0.000000000000000000, -1.000000000000000000 ) ) ;
#476 = CIRCLE ( 'NONE', #649, 2.500000000000005773 ) ;
#477 = ORIENTED_EDGE ( 'NONE', *, *, #307, .F. ) ;
#478 = FACE_BOUND ( 'NONE', #295, .T. ) ;
#479 = VECTOR ( 'NONE', #90, 1000.000000000000000 ) ;
#480 = DIRECTION ( 'NONE',  ( 1.000000000000000000, 0.000000000000000000, 0.000000000000000000 ) ) ;
#481 = ORIENTED_EDGE ( 'NONE', *, *, #43, .T. ) ;
#482 = CARTESIAN_POINT ( 'NONE',  ( -25.75000000000001421, 46.53999999999997073, -104.2955803164349646 ) ) ;
#483 = CC_DESIGN_PERSON_AND_ORGANIZATION_ASSIGNMENT ( #516, #685, ( #544 ) ) ;
#484 = APPLICATION_CONTEXT ( 'configuration controlled 3d designs of mechanical parts and assemblies' ) ;
#485 = DIRECTION ( 'NONE',  ( -0.000000000000000000, -0.000000000000000000, -1.000000000000000000 ) ) ;
#486 = VECTOR ( 'NONE', #112, 1000.000000000000114 ) ;
#487 = CARTESIAN_POINT ( 'NONE',  ( -22.75000000000002487, 41.03999999999996362, -104.2955803164349646 ) ) ;
#488 = VERTEX_POINT ( 'NONE', #528 ) ;
#489 = CARTESIAN_POINT ( 'NONE',  ( -25.75000000000001421, 46.53999999999997073, -154.9955803164349675 ) ) ;
#490 = EDGE_CURVE ( 'NONE', #488, #337, #648, .T. ) ;
#491 = DIRECTION ( 'NONE',  ( -0.000000000000000000, -0.000000000000000000, 1.000000000000000000 ) ) ;
#492 = EDGE_CURVE ( 'NONE', #128, #623, #138, .T. ) ;
#493 = FACE_OUTER_BOUND ( 'NONE', #726, .T. ) ;
#494 = CARTESIAN_POINT ( 'NONE',  ( -21.04353271799789127, 1.738692345779120574, -104.2955803164349646 ) ) ;
#495 = EDGE_LOOP ( 'NONE', ( #205, #613, #18, #474 ) ) ;
#496 = CYLINDRICAL_SURFACE ( 'NONE', #390, 14.00000000000000000 ) ;
#497 = FACE_OUTER_BOUND ( 'NONE', #503, .T. ) ;
#498 = COORDINATED_UNIVERSAL_TIME_OFFSET ( 1, 0, .AHEAD. ) ;
#499 = CC_DESIGN_APPROVAL ( #463, ( #724 ) ) ;
#500 = ORIENTED_EDGE ( 'NONE', *, *, #153, .F. ) ;
#501 = DIRECTION ( 'NONE',  ( -1.000000000000000000, 0.000000000000000000, 0.000000000000000000 ) ) ;
#502 = VECTOR ( 'NONE', #243, 1000.000000000000000 ) ;
#503 = EDGE_LOOP ( 'NONE', ( #313, #252, #647, #304 ) ) ;
#504 = AXIS2_PLACEMENT_3D ( 'NONE', #225, #303, #526 ) ;
#505 = ORIENTED_EDGE ( 'NONE', *, *, #598, .T. ) ;
#506 = VERTEX_POINT ( 'NONE', #235 ) ;
#507 = DIRECTION ( 'NONE',  ( -0.000000000000000000, 0.000000000000000000, 1.000000000000000000 ) ) ;
#508 = CARTESIAN_POINT ( 'NONE',  ( -17.75000000000001421, 60.00000000000000711, -154.9955803164349675 ) ) ;
#509 = ORIENTED_EDGE ( 'NONE', *, *, #638, .F. ) ;
#510 = DIRECTION ( 'NONE',  ( 0.000000000000000000, -1.000000000000000000, 0.000000000000000000 ) ) ;
#511 = EDGE_CURVE ( 'NONE', #518, #604, #466, .T. ) ;
#512 = LINE ( 'NONE', #223, #486 ) ;
#513 = AXIS2_PLACEMENT_3D ( 'NONE', #487, #491, #199 ) ;
#514 = DESIGN_CONTEXT ( 'detailed design', #484, 'design' ) ;
#515 = DIRECTION ( 'NONE',  ( -0.000000000000000000, -0.000000000000000000, -1.000000000000000000 ) ) ;
#516 = PERSON_AND_ORGANIZATION ( #209, #532 ) ;
#517 = EDGE_CURVE ( 'NONE', #101, #364, #336, .T. ) ;
#518 = VERTEX_POINT ( 'NONE', #207 ) ;
#519 = PERSON_AND_ORGANIZATION ( #209, #532 ) ;
#520 = AXIS2_PLACEMENT_3D ( 'NONE', #675, #617, #214 ) ;
#521 = FACE_BOUND ( 'NONE', #582, .T. ) ;
#522 = COORDINATED_UNIVERSAL_TIME_OFFSET ( 1, 0, .AHEAD. ) ;
#523 = CARTESIAN_POINT ( 'NONE',  ( -24.45646728200214426, 1.738692345779120574, -93.82610086423677842 ) ) ;
#524 = DIRECTION ( 'NONE',  ( -1.000000000000000000, 1.387778780781445676E-16, -0.000000000000000000 ) ) ;
#525 = MECHANICAL_CONTEXT ( 'NONE', #29, 'mechanical' ) ;
#526 = DIRECTION ( 'NONE',  ( 0.000000000000000000, -0.000000000000000000, -1.000000000000000000 ) ) ;
#527 = VERTEX_POINT ( 'NONE', #494 ) ;
#528 = CARTESIAN_POINT ( 'NONE',  ( -17.75000000000001421, 49.53999999999996362, -154.9955803164349675 ) ) ;
#529 = VERTEX_POINT ( 'NONE', #717 ) ;
#530 = PLANE ( 'NONE',  #315 ) ;
#531 = VECTOR ( 'NONE', #51, 1000.000000000000000 ) ;
#532 = ORGANIZATION ( 'UNSPECIFIED', 'UNSPECIFIED', '' ) ;
#533 = EDGE_CURVE ( 'NONE', #197, #541, #545, .T. ) ;
#534 = EDGE_CURVE ( 'NONE', #370, #248, #654, .T. ) ;
#535 = DIRECTION ( 'NONE',  ( -0.000000000000000000, 0.000000000000000000, -1.000000000000000000 ) ) ;
#536 = ORIENTED_EDGE ( 'NONE', *, *, #144, .F. ) ;
#537 = DIRECTION ( 'NONE',  ( 0.000000000000000000, -1.000000000000000000, 0.000000000000000000 ) ) ;
#538 = CARTESIAN_POINT ( 'NONE',  ( -21.04353271799789127, 1.738692345779120574, -93.82610086423677842 ) ) ;
#539 = VERTEX_POINT ( 'NONE', #328 ) ;
#540 = DIRECTION ( 'NONE',  ( -0.3959401535119451143, 0.9182763172580121758, -0.000000000000000000 ) ) ;
#541 = VERTEX_POINT ( 'NONE', #391 ) ;
#542 = DIRECTION ( 'NONE',  ( -0.000000000000000000, -0.000000000000000000, -1.000000000000000000 ) ) ;
#543 = EDGE_CURVE ( 'NONE', #201, #518, #612, .T. ) ;
#544 = PRODUCT ( 'feed belt tensioner 1', 'feed belt tensioner 1', '', ( #525 ) ) ;
#545 = LINE ( 'NONE', #38, #17 ) ;
#546 = VECTOR ( 'NONE', #213, 1000.000000000000000 ) ;
#547 = DIRECTION ( 'NONE',  ( 0.000000000000000000, -1.000000000000000000, 0.000000000000000000 ) ) ;
#548 = ORIENTED_EDGE ( 'NONE', *, *, #293, .T. ) ;
#549 = PLANE ( 'NONE',  #21 ) ;
#550 = LINE ( 'NONE', #267, #7 ) ;
#551 = CC_DESIGN_PERSON_AND_ORGANIZATION_ASSIGNMENT ( #519, #464, ( #401 ) ) ;
#552 = PLANE ( 'NONE',  #296 ) ;
#553 = ORIENTED_EDGE ( 'NONE', *, *, #251, .T. ) ;
#554 = DIRECTION ( 'NONE',  ( -1.000000000000000000, 1.387778780781445429E-16, 0.000000000000000000 ) ) ;
#555 = DIRECTION ( 'NONE',  ( -0.000000000000000000, -0.000000000000000000, -1.000000000000000000 ) ) ;
#556 = CARTESIAN_POINT ( 'NONE',  ( -19.75000000000000355, 26.44999999999998153, -123.2955803164349646 ) ) ;
#557 = EDGE_LOOP ( 'NONE', ( #462, #412, #182, #113, #277, #215, #600, #265, #299, #151, #74, #610 ) ) ;
#558 = AXIS2_PLACEMENT_3D ( 'NONE', #684, #507, #393 ) ;
#559 = ORIENTED_EDGE ( 'NONE', *, *, #467, .F. ) ;
#560 = CARTESIAN_POINT ( 'NONE',  ( -17.75000000000001421, 1.738692345779120574, -154.9955803164349675 ) ) ;
#561 = APPROVAL_STATUS ( 'not_yet_approved' ) ;
#562 = VERTEX_POINT ( 'NONE', #430 ) ;
#563 = AXIS2_PLACEMENT_3D ( 'NONE', #705, #594, #129 ) ;
#564 = EDGE_LOOP ( 'NONE', ( #221, #257, #428, #278 ) ) ;
#565 = CARTESIAN_POINT ( 'NONE',  ( -19.75000000000001776, 46.53999999999997073, -93.82610086423677842 ) ) ;
#566 = AXIS2_PLACEMENT_3D ( 'NONE', #588, #298, #575 ) ;
#567 = FACE_OUTER_BOUND ( 'NONE', #290, .T. ) ;
#568 = ORIENTED_EDGE ( 'NONE', *, *, #719, .F. ) ;
#569 = EDGE_CURVE ( 'NONE', #101, #323, #669, .T. ) ;
#570 = EDGE_CURVE ( 'NONE', #162, #506, #614, .T. ) ;
#571 = VECTOR ( 'NONE', #572, 1000.000000000000000 ) ;
#572 = DIRECTION ( 'NONE',  ( -0.000000000000000000, -0.000000000000000000, -1.000000000000000000 ) ) ;
#573 = ORIENTED_EDGE ( 'NONE', *, *, #667, .T. ) ;
#574 = CALENDAR_DATE ( 2026, 2, 6 ) ;
#575 = DIRECTION ( 'NONE',  ( 0.000000000000000000, 0.000000000000000000, 1.000000000000000000 ) ) ;
#576 = AXIS2_PLACEMENT_3D ( 'NONE', #9, #469, #124 ) ;
#577 = DIRECTION ( 'NONE',  ( 0.000000000000000000, 0.000000000000000000, 1.000000000000000000 ) ) ;
#578 = LINE ( 'NONE', #167, #579 ) ;
#579 = VECTOR ( 'NONE', #121, 1000.000000000000000 ) ;
#580 = EDGE_CURVE ( 'NONE', #146, #596, #609, .T. ) ;
#581 = CARTESIAN_POINT ( 'NONE',  ( -19.75000000000001776, 4.738692345779115911, -154.9955803164349675 ) ) ;
#582 = EDGE_LOOP ( 'NONE', ( #285, #26 ) ) ;
#583 = DIRECTION ( 'NONE',  ( -0.000000000000000000, -0.000000000000000000, -1.000000000000000000 ) ) ;
#584 = VECTOR ( 'NONE', #449, 1000.000000000000000 ) ;
#585 = FACE_OUTER_BOUND ( 'NONE', #234, .T. ) ;
#586 = ORIENTED_EDGE ( 'NONE', *, *, #580, .F. ) ;
#587 = CARTESIAN_POINT ( 'NONE',  ( -17.75000000000000355, 10.00000000000000178, -104.2955803164349646 ) ) ;
#588 = CARTESIAN_POINT ( 'NONE',  ( -17.75000000000000355, 10.00000000000000178, -50.99019513592786268 ) ) ;
#589 = EDGE_LOOP ( 'NONE', ( #694, #711, #145, #141 ) ) ;
#590 = CARTESIAN_POINT ( 'NONE',  ( -27.75000000000001066, 6.299999999999970512, -123.2955803164349646 ) ) ;
#591 = EDGE_CURVE ( 'NONE', #623, #201, #98, .T. ) ;
#592 = EDGE_CURVE ( 'NONE', #131, #366, #269, .T. ) ;
#593 = EDGE_LOOP ( 'NONE', ( #481, #636, #622, #679 ) ) ;
#594 = DIRECTION ( 'NONE',  ( -1.000000000000000000, 1.387778780781445429E-16, -0.000000000000000000 ) ) ;
#595 = DIRECTION ( 'NONE',  ( -0.000000000000000000, -0.000000000000000000, 1.000000000000000000 ) ) ;
#596 = VERTEX_POINT ( 'NONE', #673 ) ;
#597 = DIRECTION ( 'NONE',  ( 0.000000000000000000, 0.000000000000000000, -1.000000000000000000 ) ) ;
#598 = EDGE_CURVE ( 'NONE', #104, #539, #333, .T. ) ;
#599 = ORIENTED_EDGE ( 'NONE', *, *, #224, .F. ) ;
#600 = ORIENTED_EDGE ( 'NONE', *, *, #65, .T. ) ;
#601 = FACE_OUTER_BOUND ( 'NONE', #665, .T. ) ;
#602 = CIRCLE ( 'NONE', #657, 14.00000000000000000 ) ;
#603 = DIRECTION ( 'NONE',  ( -0.3959401535119450588, 0.9182763172580121758, 0.000000000000000000 ) ) ;
#604 = VERTEX_POINT ( 'NONE', #560 ) ;
#605 = DIRECTION ( 'NONE',  ( -0.000000000000000000, -0.000000000000000000, -1.000000000000000000 ) ) ;
#606 = CARTESIAN_POINT ( 'NONE',  ( -19.75000000000001776, 4.738692345779115911, -154.9955803164349675 ) ) ;
#607 = CARTESIAN_POINT ( 'NONE',  ( -19.75000000000000711, 20.29999999999997229, -123.2955803164349646 ) ) ;
#608 = CARTESIAN_POINT ( 'NONE',  ( -25.75000000000001421, 4.738692345779115911, -154.9955803164349675 ) ) ;
#609 = CIRCLE ( 'NONE', #302, 6.150000000000003020 ) ;
#610 = ORIENTED_EDGE ( 'NONE', *, *, #696, .F. ) ;
#611 = DIRECTION ( 'NONE',  ( 0.000000000000000000, -1.000000000000000000, 0.000000000000000000 ) ) ;
#612 = LINE ( 'NONE', #714, #196 ) ;
#613 = ORIENTED_EDGE ( 'NONE', *, *, #410, .T. ) ;
#614 = LINE ( 'NONE', #159, #440 ) ;
#615 = CLOSED_SHELL ( 'NONE', ( #321, #259, #383, #219, #701, #458, #188, #200, #424, #218, #89, #431, #621, #306, #279, #678, #642, #245, #88, #456, #709 ) ) ;
#616 = ORIENTED_EDGE ( 'NONE', *, *, #592, .F. ) ;
#617 = DIRECTION ( 'NONE',  ( -1.000000000000000000, 1.387778780781445429E-16, 0.000000000000000000 ) ) ;
#618 = LINE ( 'NONE', #341, #37 ) ;
#619 = DATE_AND_TIME ( #729, #659 ) ;
#620 = VECTOR ( 'NONE', #540, 1000.000000000000114 ) ;
#621 = ADVANCED_FACE ( 'NONE', ( #497 ), #389, .F. ) ;
#622 = ORIENTED_EDGE ( 'NONE', *, *, #718, .T. ) ;
#623 = VERTEX_POINT ( 'NONE', #608 ) ;
#624 = APPROVAL_PERSON_ORGANIZATION ( #270, #271, #331 ) ;
#625 = CC_DESIGN_PERSON_AND_ORGANIZATION_ASSIGNMENT ( #58, #287, ( #627 ) ) ;
#626 = LINE ( 'NONE', #117, #204 ) ;
#627 = PRODUCT_DEFINITION_FORMATION_WITH_SPECIFIED_SOURCE ( 'ANY', '', #544, .NOT_KNOWN. ) ;
#628 = CARTESIAN_POINT ( 'NONE',  ( -24.45646728200214426, 49.53999999999996362, -154.9955803164349675 ) ) ;
#629 = PERSON_AND_ORGANIZATION_ROLE ( 'design_supplier' ) ;
#630 = DIRECTION ( 'NONE',  ( -1.000000000000000000, 1.387778780781445429E-16, 0.000000000000000000 ) ) ;
#631 = EDGE_LOOP ( 'NONE', ( #310, #408, #168, #392 ) ) ;
#632 = FACE_OUTER_BOUND ( 'NONE', #589, .T. ) ;
#633 = ORIENTED_EDGE ( 'NONE', *, *, #719, .T. ) ;
#634 = CARTESIAN_POINT ( 'NONE',  ( -25.75000000000001421, 46.53999999999997073, -104.2955803164349646 ) ) ;
#635 = PERSON_AND_ORGANIZATION ( #209, #532 ) ;
#636 = ORIENTED_EDGE ( 'NONE', *, *, #107, .T. ) ;
#637 = CARTESIAN_POINT ( 'NONE',  ( -25.75000000000001421, 4.738692345779115911, -93.82610086423677842 ) ) ;
#638 = EDGE_CURVE ( 'NONE', #380, #651, #92, .T. ) ;
#639 = LINE ( 'NONE', #473, #244 ) ;
#640 = ORIENTED_EDGE ( 'NONE', *, *, #43, .F. ) ;
#641 = LINE ( 'NONE', #305, #406 ) ;
#642 = ADVANCED_FACE ( 'NONE', ( #154 ), #722, .F. ) ;
#643 = VECTOR ( 'NONE', #382, 1000.000000000000114 ) ;
#644 = ORIENTED_EDGE ( 'NONE', *, *, #646, .F. ) ;
#645 = FACE_OUTER_BOUND ( 'NONE', #27, .T. ) ;
#646 = EDGE_CURVE ( 'NONE', #529, #604, #550, .T. ) ;
#647 = ORIENTED_EDGE ( 'NONE', *, *, #591, .T. ) ;
#648 = LINE ( 'NONE', #177, #502 ) ;
#649 = AXIS2_PLACEMENT_3D ( 'NONE', #76, #535, #480 ) ;
#650 = APPROVAL_PERSON_ORGANIZATION ( #635, #52, #404 ) ;
#651 = VERTEX_POINT ( 'NONE', #330 ) ;
#652 = CARTESIAN_POINT ( 'NONE',  ( -24.45646728200214426, 49.53999999999996362, -93.82610086423677842 ) ) ;
#653 = VECTOR ( 'NONE', #423, 1000.000000000000114 ) ;
#654 = LINE ( 'NONE', #435, #59 ) ;
#655 = LINE ( 'NONE', #34, #447 ) ;
#656 = CARTESIAN_POINT ( 'NONE',  ( -21.04353271799789127, 49.53999999999996362, -154.9955803164349675 ) ) ;
#657 = AXIS2_PLACEMENT_3D ( 'NONE', #84, #554, #712 ) ;
#658 = DIRECTION ( 'NONE',  ( -0.000000000000000000, -0.000000000000000000, -1.000000000000000000 ) ) ;
#659 = LOCAL_TIME ( 10, 36, 4.000000000000000000, #450 ) ;
#660 = VERTEX_POINT ( 'NONE', #556 ) ;
#661 = DIRECTION ( 'NONE',  ( -0.000000000000000000, -0.000000000000000000, -1.000000000000000000 ) ) ;
#662 = AXIS2_PLACEMENT_3D ( 'NONE', #237, #352, #693 ) ;
#663 = DIRECTION ( 'NONE',  ( -1.000000000000000000, 0.000000000000000000, 0.000000000000000000 ) ) ;
#664 = AXIS2_PLACEMENT_3D ( 'NONE', #57, #2, #395 ) ;
#665 = EDGE_LOOP ( 'NONE', ( #67, #548, #433, #71 ) ) ;
#666 = DIRECTION ( 'NONE',  ( 0.000000000000000000, -1.000000000000000000, 0.000000000000000000 ) ) ;
#667 = EDGE_CURVE ( 'NONE', #323, #387, #116, .T. ) ;
#668 = CC_DESIGN_PERSON_AND_ORGANIZATION_ASSIGNMENT ( #346, #291, ( #724 ) ) ;
#669 = LINE ( 'NONE', #203, #670 ) ;
#670 = VECTOR ( 'NONE', #555, 1000.000000000000000 ) ;
#671 = ORIENTED_EDGE ( 'NONE', *, *, #20, .F. ) ;
#672 = VECTOR ( 'NONE', #33, 1000.000000000000114 ) ;
#673 = CARTESIAN_POINT ( 'NONE',  ( -17.75000000000000355, 26.44999999999998153, -123.2955803164349646 ) ) ;
#674 = ORIENTED_EDGE ( 'NONE', *, *, #180, .F. ) ;
#675 = CARTESIAN_POINT ( 'NONE',  ( -19.75000000000000711, 20.29999999999997229, -123.2955803164349646 ) ) ;
#676 = DIRECTION ( 'NONE',  ( 0.000000000000000000, -0.000000000000000000, -1.000000000000000000 ) ) ;
#677 = ORIENTED_EDGE ( 'NONE', *, *, #432, .T. ) ;
#678 = ADVANCED_FACE ( 'NONE', ( #273 ), #725, .F. ) ;
#679 = ORIENTED_EDGE ( 'NONE', *, *, #110, .F. ) ;
#680 = DIRECTION ( 'NONE',  ( -1.000000000000000000, 1.387778780781445429E-16, 0.000000000000000000 ) ) ;
#681 = AXIS2_PLACEMENT_3D ( 'NONE', #652, #666, #434 ) ;
#682 = CARTESIAN_POINT ( 'NONE',  ( -24.45646728200214426, 1.738692345779120574, -154.9955803164349675 ) ) ;
#683 = DIRECTION ( 'NONE',  ( -1.000000000000000000, 1.387778780781445676E-16, -0.000000000000000000 ) ) ;
#684 = CARTESIAN_POINT ( 'NONE',  ( 0.000000000000000000, 0.000000000000000000, -154.9955803164349675 ) ) ;
#685 = PERSON_AND_ORGANIZATION_ROLE ( 'design_owner' ) ;
#686 = LINE ( 'NONE', #292, #64 ) ;
#687 = LOCAL_TIME ( 10, 36, 4.000000000000000000, #351 ) ;
#688 = CARTESIAN_POINT ( 'NONE',  ( -27.75000000000000355, 60.00000000000000711, -50.99019513592786268 ) ) ;
#689 = CC_DESIGN_DATE_AND_TIME_ASSIGNMENT ( #115, #227, ( #724 ) ) ;
#690 = DIRECTION ( 'NONE',  ( 0.000000000000000000, 0.000000000000000000, 1.000000000000000000 ) ) ;
#691 = ORIENTED_EDGE ( 'NONE', *, *, #41, .F. ) ;
#692 = CARTESIAN_POINT ( 'NONE',  ( -17.75000000000001421, 1.738692345779120574, -154.9955803164349675 ) ) ;
#693 = DIRECTION ( 'NONE',  ( 0.000000000000000000, 0.000000000000000000, 1.000000000000000000 ) ) ;
#694 = ORIENTED_EDGE ( 'NONE', *, *, #65, .F. ) ;
#695 = DIRECTION ( 'NONE',  ( 0.3959401535119450588, 0.9182763172580121758, 0.000000000000000000 ) ) ;
#696 = EDGE_CURVE ( 'NONE', #162, #128, #454, .T. ) ;
#697 = EDGE_CURVE ( 'NONE', #651, #623, #108, .T. ) ;
#698 = CARTESIAN_POINT ( 'NONE',  ( -21.04353271799788772, 49.53999999999996362, -104.2955803164349646 ) ) ;
#699 = EDGE_LOOP ( 'NONE', ( #238, #334, #319, #536 ) ) ;
#700 = DIRECTION ( 'NONE',  ( -1.000000000000000000, 0.000000000000000000, 0.000000000000000000 ) ) ;
#701 = ADVANCED_FACE ( 'NONE', ( #460, #6 ), #222, .F. ) ;
#702 = PLANE ( 'NONE',  #417 ) ;
#703 = AXIS2_PLACEMENT_3D ( 'NONE', #361, #524, #314 ) ;
#704 = ORIENTED_EDGE ( 'NONE', *, *, #41, .T. ) ;
#705 = CARTESIAN_POINT ( 'NONE',  ( -19.75000000000000711, 20.29999999999997229, -123.2955803164349646 ) ) ;
#706 = CARTESIAN_POINT ( 'NONE',  ( -19.75000000000000355, 20.29999999999997229, -123.2955803164349646 ) ) ;
#707 = CIRCLE ( 'NONE', #399, 2.500000000000005773 ) ;
#708 = DIRECTION ( 'NONE',  ( 0.000000000000000000, 0.000000000000000000, 1.000000000000000000 ) ) ;
#709 = ADVANCED_FACE ( 'NONE', ( #286 ), #169, .F. ) ;
#710 = DIRECTION ( 'NONE',  ( 1.000000000000000000, 0.000000000000000000, 0.000000000000000000 ) ) ;
#711 = ORIENTED_EDGE ( 'NONE', *, *, #432, .F. ) ;
#712 = DIRECTION ( 'NONE',  ( -2.478176394252581634E-16, -1.000000000000000000, 0.000000000000000000 ) ) ;
#713 = VECTOR ( 'NONE', #325, 1000.000000000000000 ) ;
#714 = CARTESIAN_POINT ( 'NONE',  ( -21.04353271799789127, 1.738692345779120574, -154.9955803164349675 ) ) ;
#715 = ORIENTED_EDGE ( 'NONE', *, *, #511, .T. ) ;
#716 = FACE_OUTER_BOUND ( 'NONE', #593, .T. ) ;
#717 = CARTESIAN_POINT ( 'NONE',  ( -17.75000000000001421, 1.738692345779120574, -104.2955803164349646 ) ) ;
#718 = EDGE_CURVE ( 'NONE', #220, #506, #618, .T. ) ;
#719 = EDGE_CURVE ( 'NONE', #131, #104, #272, .T. ) ;
#720 = ORIENTED_EDGE ( 'NONE', *, *, #247, .F. ) ;
#721 = LINE ( 'NONE', #155, #672 ) ;
#722 = PLANE ( 'NONE',  #326 ) ;
#723 = CC_DESIGN_APPROVAL ( #52, ( #627 ) ) ;
#724 = PRODUCT_DEFINITION ( 'UNKNOWN', '', #627, #514 ) ;
#725 = PLANE ( 'NONE',  #99 ) ;
#726 = EDGE_LOOP ( 'NONE', ( #163, #132, #373, #4 ) ) ;
#727 = EDGE_CURVE ( 'NONE', #281, #128, #105, .T. ) ;
#728 = VECTOR ( 'NONE', #461, 1000.000000000000000 ) ;
#729 = CALENDAR_DATE ( 2026, 2, 6 ) ;
ENDSEC;
END-ISO-10303-21;
