ISO-10303-21;
HEADER;
FILE_DESCRIPTION (( 'STEP AP203' ),
    '1' );
FILE_NAME ('feed bearing row holder 3.STEP',
    '2026-06-02T08:35:12',
    ( '' ),
    ( '' ),
    'SwSTEP 2.0',
    'SolidWorks 2024',
    '' );
FILE_SCHEMA (( 'CONFIG_CONTROL_DESIGN' ));
ENDSEC;

DATA;
#1 = VECTOR ( 'NONE', #321, 1000.000000000000000 ) ;
#2 = ORIENTED_EDGE ( 'NONE', *, *, #152, .F. ) ;
#3 = AXIS2_PLACEMENT_3D ( 'NONE', #684, #135, #503 ) ;
#4 = VECTOR ( 'NONE', #342, 1000.000000000000000 ) ;
#5 = DIRECTION ( 'NONE',  ( -0.000000000000000000, 0.000000000000000000, 1.000000000000000000 ) ) ;
#6 = VERTEX_POINT ( 'NONE', #232 ) ;
#7 = ADVANCED_FACE ( 'NONE', ( #776 ), #554, .F. ) ;
#8 = DIRECTION ( 'NONE',  ( 0.000000000000000000, -1.000000000000000000, 0.000000000000000000 ) ) ;
#9 = LOCAL_TIME ( 10, 35, 12.00000000000000000, #690 ) ;
#10 = APPROVAL ( #82, 'UNSPECIFIED' ) ;
#11 = DIRECTION ( 'NONE',  ( 1.000000000000000000, 0.000000000000000000, 1.157007016949078954E-16 ) ) ;
#12 = ORIENTED_EDGE ( 'NONE', *, *, #333, .F. ) ;
#13 = ADVANCED_FACE ( 'NONE', ( #236 ), #399, .F. ) ;
#14 = CARTESIAN_POINT ( 'NONE',  ( -17.75000000000001066, -55.00000000000002842, -23.29779015821748089 ) ) ;
#15 = ORIENTED_EDGE ( 'NONE', *, *, #738, .T. ) ;
#16 = AXIS2_PLACEMENT_3D ( 'NONE', #571, #437, #314 ) ;
#17 = CARTESIAN_POINT ( 'NONE',  ( -20.75000000000001066, -55.00000000000002842, -21.79779015821747379 ) ) ;
#18 = ORIENTED_EDGE ( 'NONE', *, *, #172, .T. ) ;
#19 = CC_DESIGN_SECURITY_CLASSIFICATION ( #267, ( #164 ) ) ;
#20 = EDGE_CURVE ( 'NONE', #34, #622, #98, .T. ) ;
#21 = LINE ( 'NONE', #742, #84 ) ;
#22 = ORIENTED_EDGE ( 'NONE', *, *, #311, .T. ) ;
#23 = DIRECTION ( 'NONE',  ( -1.000000000000000000, -0.000000000000000000, -1.157007016949078954E-16 ) ) ;
#24 = EDGE_LOOP ( 'NONE', ( #79, #453, #18, #49 ) ) ;
#25 = COORDINATED_UNIVERSAL_TIME_OFFSET ( 1, 0, .AHEAD. ) ;
#26 = AXIS2_PLACEMENT_3D ( 'NONE', #470, #294, #51 ) ;
#27 = CYLINDRICAL_SURFACE ( 'NONE', #346, 1.500000000000001332 ) ;
#28 = CIRCLE ( 'NONE', #676, 1.500000000000001332 ) ;
#29 = DIRECTION ( 'NONE',  ( -1.000000000000000000, 1.387778780781445429E-16, 0.000000000000000000 ) ) ;
#30 = ORIENTED_EDGE ( 'NONE', *, *, #483, .T. ) ;
#31 = APPROVAL_DATE_TIME ( #319, #550 ) ;
#32 = FACE_OUTER_BOUND ( 'NONE', #213, .T. ) ;
#33 = CARTESIAN_POINT ( 'NONE',  ( -17.75000000000000000, -55.00000000000003553, -124.7977901582174667 ) ) ;
#34 = VERTEX_POINT ( 'NONE', #55 ) ;
#35 = EDGE_CURVE ( 'NONE', #693, #667, #718, .T. ) ;
#36 = SECURITY_CLASSIFICATION_LEVEL ( 'unclassified' ) ;
#37 = LINE ( 'NONE', #640, #177 ) ;
#38 = CYLINDRICAL_SURFACE ( 'NONE', #379, 1.500000000000001332 ) ;
#39 = ORIENTED_EDGE ( 'NONE', *, *, #419, .T. ) ;
#40 = DIRECTION ( 'NONE',  ( 1.000000000000000000, -0.000000000000000000, -0.000000000000000000 ) ) ;
#41 = CARTESIAN_POINT ( 'NONE',  ( -17.75000000000000000, -50.00000000000002132, -133.2705803164349732 ) ) ;
#42 = ORIENTED_EDGE ( 'NONE', *, *, #738, .F. ) ;
#43 = EDGE_CURVE ( 'NONE', #628, #549, #435, .T. ) ;
#44 = CYLINDRICAL_SURFACE ( 'NONE', #476, 1.500000000000001332 ) ;
#45 = EDGE_CURVE ( 'NONE', #689, #390, #462, .T. ) ;
#46 = LINE ( 'NONE', #281, #502 ) ;
#47 = ORIENTED_EDGE ( 'NONE', *, *, #543, .T. ) ;
#48 = DIRECTION ( 'NONE',  ( 1.000000000000000000, 0.000000000000000000, 1.157007016949078954E-16 ) ) ;
#49 = ORIENTED_EDGE ( 'NONE', *, *, #400, .F. ) ;
#50 = DIRECTION ( 'NONE',  ( 0.000000000000000000, 0.000000000000000000, -1.000000000000000000 ) ) ;
#51 = DIRECTION ( 'NONE',  ( 0.000000000000000000, -1.000000000000000000, 0.000000000000000000 ) ) ;
#52 = CIRCLE ( 'NONE', #494, 1.499999999999994449 ) ;
#53 = EDGE_CURVE ( 'NONE', #155, #743, #614, .T. ) ;
#54 = FACE_BOUND ( 'NONE', #630, .T. ) ;
#55 = CARTESIAN_POINT ( 'NONE',  ( -17.75000000000000000, -55.00000000000003553, -121.7977901582174951 ) ) ;
#56 = DIRECTION ( 'NONE',  ( -1.000000000000000000, 1.387778780781445429E-16, 0.000000000000000000 ) ) ;
#57 = DIRECTION ( 'NONE',  ( -1.000000000000000000, -0.000000000000000000, -1.157007016949078954E-16 ) ) ;
#58 = DIRECTION ( 'NONE',  ( -1.000000000000000000, -0.000000000000000000, -1.157007016949078954E-16 ) ) ;
#59 = ADVANCED_FACE ( 'NONE', ( #182 ), #725, .F. ) ;
#60 = CARTESIAN_POINT ( 'NONE',  ( 11.24999999999989164, -50.00000000000002132, -13.32500000000000284 ) ) ;
#61 = ORIENTED_EDGE ( 'NONE', *, *, #694, .F. ) ;
#62 = VECTOR ( 'NONE', #621, 1000.000000000000000 ) ;
#63 = ADVANCED_FACE ( 'NONE', ( #612, #487, #300, #343 ), #616, .T. ) ;
#64 = ORGANIZATION ( 'UNSPECIFIED', 'UNSPECIFIED', '' ) ;
#65 = CARTESIAN_POINT ( 'NONE',  ( 4.249999999999983125, -55.00000000000000000, -118.2977901582174809 ) ) ;
#66 = VERTEX_POINT ( 'NONE', #601 ) ;
#67 = EDGE_CURVE ( 'NONE', #681, #760, #112, .T. ) ;
#68 = ORIENTED_EDGE ( 'NONE', *, *, #400, .T. ) ;
#69 = DIRECTION ( 'NONE',  ( 0.000000000000000000, 0.000000000000000000, 1.000000000000000000 ) ) ;
#70 = ORIENTED_EDGE ( 'NONE', *, *, #283, .T. ) ;
#71 = DIRECTION ( 'NONE',  ( 0.000000000000000000, 0.000000000000000000, 1.000000000000000000 ) ) ;
#72 = ORIENTED_EDGE ( 'NONE', *, *, #656, .F. ) ;
#73 = AXIS2_PLACEMENT_3D ( 'NONE', #299, #246, #489 ) ;
#74 = CLOSED_SHELL ( 'NONE', ( #7, #708, #59, #562, #13, #348, #337, #496, #404, #63, #286, #524, #618, #356, #194, #568, #302, #229, #680, #106, #392, #488, #574, #732 ) ) ;
#75 = CIRCLE ( 'NONE', #624, 1.500000000000004885 ) ;
#76 = CARTESIAN_POINT ( 'NONE',  ( 11.24999999999989875, -55.00000000000002842, -71.79779015821748089 ) ) ;
#77 = EDGE_LOOP ( 'NONE', ( #777, #506, #47, #396 ) ) ;
#78 = LINE ( 'NONE', #312, #369 ) ;
#79 = ORIENTED_EDGE ( 'NONE', *, *, #272, .F. ) ;
#80 = DIRECTION ( 'NONE',  ( -1.000000000000000000, -0.000000000000000000, -1.157007016949078954E-16 ) ) ;
#81 = ORIENTED_EDGE ( 'NONE', *, *, #483, .F. ) ;
#82 = APPROVAL_STATUS ( 'not_yet_approved' ) ;
#83 = DIRECTION ( 'NONE',  ( 0.000000000000000000, 0.000000000000000000, -1.000000000000000000 ) ) ;
#84 = VECTOR ( 'NONE', #373, 1000.000000000000000 ) ;
#85 = FACE_OUTER_BOUND ( 'NONE', #144, .T. ) ;
#86 = EDGE_LOOP ( 'NONE', ( #438, #291, #276, #561 ) ) ;
#87 = CIRCLE ( 'NONE', #541, 1.500000000000001332 ) ;
#88 = PERSON_AND_ORGANIZATION ( #654, #64 ) ;
#89 = CARTESIAN_POINT ( 'NONE',  ( 4.249999999999983125, -55.00000000000000000, -118.2977901582174809 ) ) ;
#90 = DIRECTION ( 'NONE',  ( -1.000000000000000000, -0.000000000000000000, -1.157007016949078954E-16 ) ) ;
#91 = ORIENTED_EDGE ( 'NONE', *, *, #465, .F. ) ;
#92 = DIRECTION ( 'NONE',  ( 1.000000000000000000, -0.000000000000000000, -0.000000000000000000 ) ) ;
#93 = LINE ( 'NONE', #41, #1 ) ;
#94 = VERTEX_POINT ( 'NONE', #116 ) ;
#95 = EDGE_CURVE ( 'NONE', #340, #155, #297, .T. ) ;
#96 = DIRECTION ( 'NONE',  ( 1.000000000000000000, 0.000000000000000000, 1.157007016949078954E-16 ) ) ;
#97 = ADVANCED_BREP_SHAPE_REPRESENTATION ( 'feed bearing row holder 3', ( #130, #381 ), #507 ) ;
#98 = CIRCLE ( 'NONE', #720, 1.499999999999987566 ) ;
#99 = CARTESIAN_POINT ( 'NONE',  ( 11.24999999999989875, -55.00000000000002842, -73.29779015821748089 ) ) ;
#100 = ORIENTED_EDGE ( 'NONE', *, *, #419, .F. ) ;
#101 = DIRECTION ( 'NONE',  ( -1.000000000000000000, 1.387778780781445429E-16, 0.000000000000000000 ) ) ;
#102 = CARTESIAN_POINT ( 'NONE',  ( -17.75000000000001066, -55.00000000000002842, -21.79779015821747379 ) ) ;
#103 = ORIENTED_EDGE ( 'NONE', *, *, #95, .F. ) ;
#104 = DIRECTION ( 'NONE',  ( 1.157007016949078954E-16, 0.000000000000000000, -1.000000000000000000 ) ) ;
#105 = CARTESIAN_POINT ( 'NONE',  ( 11.24999999999989164, -55.00000000000002842, -21.79779015821747379 ) ) ;
#106 = ADVANCED_FACE ( 'NONE', ( #728 ), #538, .T. ) ;
#107 = CIRCLE ( 'NONE', #623, 1.500000000000001332 ) ;
#108 = DIRECTION ( 'NONE',  ( -1.000000000000000000, 1.387778780781445429E-16, -0.000000000000000000 ) ) ;
#109 = DIRECTION ( 'NONE',  ( -1.000000000000000000, -0.000000000000000000, -1.157007016949078954E-16 ) ) ;
#110 = PERSON_AND_ORGANIZATION ( #654, #64 ) ;
#111 = DIRECTION ( 'NONE',  ( -1.387778780781445429E-16, -1.000000000000000000, 0.000000000000000000 ) ) ;
#112 = LINE ( 'NONE', #548, #217 ) ;
#113 = ORIENTED_EDGE ( 'NONE', *, *, #128, .F. ) ;
#114 = CARTESIAN_POINT ( 'NONE',  ( -17.75000000000000711, -55.00000000000002842, -74.79779015821748089 ) ) ;
#115 = DESIGN_CONTEXT ( 'detailed design', #429, 'design' ) ;
#116 = CARTESIAN_POINT ( 'NONE',  ( 11.24999999999990585, -60.00000000000002842, -133.2705803164349732 ) ) ;
#117 = CC_DESIGN_PERSON_AND_ORGANIZATION_ASSIGNMENT ( #515, #207, ( #685 ) ) ;
#118 = EDGE_LOOP ( 'NONE', ( #359, #740, #30, #697 ) ) ;
#119 = CARTESIAN_POINT ( 'NONE',  ( 11.24999999999989164, -60.00000000000002842, -13.32500000000000284 ) ) ;
#120 = DIRECTION ( 'NONE',  ( 0.000000000000000000, 0.000000000000000000, 1.000000000000000000 ) ) ;
#121 = EDGE_LOOP ( 'NONE', ( #329, #673 ) ) ;
#122 = AXIS2_PLACEMENT_3D ( 'NONE', #474, #666, #357 ) ;
#123 = CIRCLE ( 'NONE', #508, 1.500000000000004885 ) ;
#124 = CARTESIAN_POINT ( 'NONE',  ( 11.24999999999990585, -55.00000000000003553, -123.2977901582174809 ) ) ;
#125 = ORIENTED_EDGE ( 'NONE', *, *, #35, .T. ) ;
#126 = DIRECTION ( 'NONE',  ( -1.000000000000000000, 1.387778780781445429E-16, 0.000000000000000000 ) ) ;
#127 = VERTEX_POINT ( 'NONE', #105 ) ;
#128 = EDGE_CURVE ( 'NONE', #6, #443, #21, .T. ) ;
#129 = CARTESIAN_POINT ( 'NONE',  ( -20.75000000000001066, -55.00000000000002842, -74.79779015821748089 ) ) ;
#130 = MANIFOLD_SOLID_BREP ( 'Stock-minilip main body-1', #74 ) ;
#131 = ORIENTED_EDGE ( 'NONE', *, *, #43, .F. ) ;
#132 = VECTOR ( 'NONE', #770, 1000.000000000000000 ) ;
#133 = AXIS2_PLACEMENT_3D ( 'NONE', #366, #256, #688 ) ;
#134 = AXIS2_PLACEMENT_3D ( 'NONE', #345, #56, #111 ) ;
#135 = DIRECTION ( 'NONE',  ( -1.000000000000000000, 1.387778780781445429E-16, 0.000000000000000000 ) ) ;
#136 = ORIENTED_EDGE ( 'NONE', *, *, #469, .T. ) ;
#137 = CARTESIAN_POINT ( 'NONE',  ( -17.75000000000000355, -53.50000000000000711, -88.29779015821748089 ) ) ;
#138 = ORIENTED_EDGE ( 'NONE', *, *, #139, .T. ) ;
#139 = EDGE_CURVE ( 'NONE', #176, #127, #358, .T. ) ;
#140 = APPROVAL_STATUS ( 'not_yet_approved' ) ;
#141 = EDGE_CURVE ( 'NONE', #436, #760, #28, .T. ) ;
#142 = CARTESIAN_POINT ( 'NONE',  ( -20.75000000000001066, -55.00000000000003553, -123.2977901582174809 ) ) ;
#143 = DIRECTION ( 'NONE',  ( -1.000000000000000000, -0.000000000000000000, -0.000000000000000000 ) ) ;
#144 = EDGE_LOOP ( 'NONE', ( #617, #70 ) ) ;
#145 = CIRCLE ( 'NONE', #733, 1.499999999999987566 ) ;
#146 = APPROVAL_ROLE ( '' ) ;
#147 = DIRECTION ( 'NONE',  ( -1.000000000000000000, 1.387778780781445429E-16, 0.000000000000000000 ) ) ;
#148 = CIRCLE ( 'NONE', #710, 1.500000000000001332 ) ;
#149 = FACE_OUTER_BOUND ( 'NONE', #251, .T. ) ;
#150 = ORIENTED_EDGE ( 'NONE', *, *, #283, .F. ) ;
#151 = DIRECTION ( 'NONE',  ( 1.000000000000000000, 0.000000000000000000, 0.000000000000000000 ) ) ;
#152 = EDGE_CURVE ( 'NONE', #628, #237, #559, .T. ) ;
#153 = DIRECTION ( 'NONE',  ( 0.000000000000000000, 0.000000000000000000, -1.000000000000000000 ) ) ;
#154 = CARTESIAN_POINT ( 'NONE',  ( 4.249999999999983125, -53.50000000000000711, -118.2977901582174809 ) ) ;
#155 = VERTEX_POINT ( 'NONE', #137 ) ;
#156 = DIRECTION ( 'NONE',  ( 0.000000000000000000, 0.000000000000000000, -1.000000000000000000 ) ) ;
#157 = FACE_OUTER_BOUND ( 'NONE', #24, .T. ) ;
#158 = ORIENTED_EDGE ( 'NONE', *, *, #509, .F. ) ;
#159 = FACE_OUTER_BOUND ( 'NONE', #424, .T. ) ;
#160 = AXIS2_PLACEMENT_3D ( 'NONE', #672, #659, #120 ) ;
#161 = DIRECTION ( 'NONE',  ( -1.000000000000000000, 1.387778780781445429E-16, -0.000000000000000000 ) ) ;
#162 = CIRCLE ( 'NONE', #193, 1.499999999999994449 ) ;
#163 = ORIENTED_EDGE ( 'NONE', *, *, #694, .T. ) ;
#164 = PRODUCT_DEFINITION_FORMATION_WITH_SPECIFIED_SOURCE ( 'ANY', '', #363, .NOT_KNOWN. ) ;
#165 = DIRECTION ( 'NONE',  ( -1.000000000000000000, 1.387778780781445429E-16, 0.000000000000000000 ) ) ;
#166 = EDGE_CURVE ( 'NONE', #765, #257, #123, .T. ) ;
#167 = CARTESIAN_POINT ( 'NONE',  ( -17.75000000000001066, -56.50000000000000000, -28.29779015821748445 ) ) ;
#168 = DIRECTION ( 'NONE',  ( 1.157007016949078954E-16, 0.000000000000000000, -1.000000000000000000 ) ) ;
#169 = PERSON_AND_ORGANIZATION ( #654, #64 ) ;
#170 = PRODUCT_RELATED_PRODUCT_CATEGORY ( 'detail', '', ( #363 ) ) ;
#171 = PLANE ( 'NONE',  #525 ) ;
#172 = EDGE_CURVE ( 'NONE', #390, #689, #318, .T. ) ;
#173 = DIRECTION ( 'NONE',  ( 0.000000000000000000, 0.000000000000000000, 1.000000000000000000 ) ) ;
#174 = EDGE_LOOP ( 'NONE', ( #413, #282, #191, #301 ) ) ;
#175 = CARTESIAN_POINT ( 'NONE',  ( -20.75000000000001066, -55.00000000000002842, -24.79779015821748445 ) ) ;
#176 = VERTEX_POINT ( 'NONE', #371 ) ;
#177 = VECTOR ( 'NONE', #92, 1000.000000000000000 ) ;
#178 = ORIENTED_EDGE ( 'NONE', *, *, #45, .F. ) ;
#179 = VECTOR ( 'NONE', #611, 1000.000000000000000 ) ;
#180 = PLANE ( 'NONE',  #686 ) ;
#181 = EDGE_CURVE ( 'NONE', #632, #200, #423, .T. ) ;
#182 = FACE_OUTER_BOUND ( 'NONE', #498, .T. ) ;
#183 = ORIENTED_EDGE ( 'NONE', *, *, #555, .T. ) ;
#184 = EDGE_CURVE ( 'NONE', #336, #735, #215, .T. ) ;
#185 = CARTESIAN_POINT ( 'NONE',  ( -17.75000000000001066, -53.50000000000000000, -28.29779015821748445 ) ) ;
#186 = CARTESIAN_POINT ( 'NONE',  ( 4.249999999999983125, -55.00000000000000000, -28.29779015821748445 ) ) ;
#187 = ORIENTED_EDGE ( 'NONE', *, *, #560, .T. ) ;
#188 = CYLINDRICAL_SURFACE ( 'NONE', #73, 1.500000000000004885 ) ;
#189 = LINE ( 'NONE', #422, #393 ) ;
#190 = AXIS2_PLACEMENT_3D ( 'NONE', #746, #209, #652 ) ;
#191 = ORIENTED_EDGE ( 'NONE', *, *, #323, .T. ) ;
#192 = EDGE_CURVE ( 'NONE', #765, #127, #309, .T. ) ;
#193 = AXIS2_PLACEMENT_3D ( 'NONE', #204, #147, #268 ) ;
#194 = ADVANCED_FACE ( 'NONE', ( #364 ), #250, .F. ) ;
#195 = FACE_OUTER_BOUND ( 'NONE', #326, .T. ) ;
#196 = ORIENTED_EDGE ( 'NONE', *, *, #45, .T. ) ;
#197 = CARTESIAN_POINT ( 'NONE',  ( -17.75000000000000711, -55.00000000000000000, -58.29779015821748089 ) ) ;
#198 = ORIENTED_EDGE ( 'NONE', *, *, #543, .F. ) ;
#199 = CARTESIAN_POINT ( 'NONE',  ( -17.75000000000001066, -55.00000000000002842, -24.79779015821748445 ) ) ;
#200 = VERTEX_POINT ( 'NONE', #253 ) ;
#201 = EDGE_CURVE ( 'NONE', #242, #681, #331, .T. ) ;
#202 = AXIS2_PLACEMENT_3D ( 'NONE', #89, #516, #750 ) ;
#203 = AXIS2_PLACEMENT_3D ( 'NONE', #544, #715, #775 ) ;
#204 = CARTESIAN_POINT ( 'NONE',  ( 4.249999999999983125, -55.00000000000000000, -88.29779015821748089 ) ) ;
#205 = ORIENTED_EDGE ( 'NONE', *, *, #206, .T. ) ;
#206 = EDGE_CURVE ( 'NONE', #245, #94, #739, .T. ) ;
#207 = PERSON_AND_ORGANIZATION_ROLE ( 'creator' ) ;
#208 = CYLINDRICAL_SURFACE ( 'NONE', #298, 1.499999999999987566 ) ;
#209 = DIRECTION ( 'NONE',  ( -1.000000000000000000, -0.000000000000000000, -1.157007016949078954E-16 ) ) ;
#210 = ORIENTED_EDGE ( 'NONE', *, *, #139, .F. ) ;
#211 = LINE ( 'NONE', #691, #603 ) ;
#212 = DIRECTION ( 'NONE',  ( 1.000000000000000000, 0.000000000000000000, 1.157007016949078954E-16 ) ) ;
#213 = EDGE_LOOP ( 'NONE', ( #636, #707, #68, #196 ) ) ;
#214 = CALENDAR_DATE ( 2026, 2, 6 ) ;
#215 = CIRCLE ( 'NONE', #409, 1.499999999999987566 ) ;
#216 = LINE ( 'NONE', #758, #226 ) ;
#217 = VECTOR ( 'NONE', #670, 1000.000000000000000 ) ;
#218 = CARTESIAN_POINT ( 'NONE',  ( -17.75000000000000711, -56.50000000000000000, -58.29779015821748089 ) ) ;
#219 = ORIENTED_EDGE ( 'NONE', *, *, #339, .T. ) ;
#220 = DIRECTION ( 'NONE',  ( 0.000000000000000000, -1.000000000000000000, 0.000000000000000000 ) ) ;
#221 = DIRECTION ( 'NONE',  ( 0.000000000000000000, -1.000000000000000000, 0.000000000000000000 ) ) ;
#222 = ORIENTED_EDGE ( 'NONE', *, *, #749, .F. ) ;
#223 = DIRECTION ( 'NONE',  ( -1.000000000000000000, 1.387778780781445429E-16, -0.000000000000000000 ) ) ;
#224 = CYLINDRICAL_SURFACE ( 'NONE', #407, 1.499999999999994449 ) ;
#225 = ORIENTED_EDGE ( 'NONE', *, *, #432, .F. ) ;
#226 = VECTOR ( 'NONE', #220, 1000.000000000000000 ) ;
#227 = CARTESIAN_POINT ( 'NONE',  ( -17.75000000000001066, -50.00000000000002132, -13.32500000000000284 ) ) ;
#228 = EDGE_LOOP ( 'NONE', ( #316, #131 ) ) ;
#229 = ADVANCED_FACE ( 'NONE', ( #195 ), #679, .T. ) ;
#230 = EDGE_CURVE ( 'NONE', #66, #390, #78, .T. ) ;
#231 = FACE_BOUND ( 'NONE', #475, .T. ) ;
#232 = CARTESIAN_POINT ( 'NONE',  ( 11.24999999999989164, -50.00000000000002132, -13.32500000000000284 ) ) ;
#233 = CC_DESIGN_APPROVAL ( #391, ( #164 ) ) ;
#234 = APPROVAL_DATE_TIME ( #661, #391 ) ;
#235 = CARTESIAN_POINT ( 'NONE',  ( 0.000000000000000000, -50.00000000000002132, 0.000000000000000000 ) ) ;
#236 = FACE_OUTER_BOUND ( 'NONE', #713, .T. ) ;
#237 = VERTEX_POINT ( 'NONE', #76 ) ;
#238 = FACE_BOUND ( 'NONE', #121, .T. ) ;
#239 = AXIS2_PLACEMENT_3D ( 'NONE', #727, #354, #8 ) ;
#240 = CARTESIAN_POINT ( 'NONE',  ( -17.75000000000000711, -55.00000000000002842, -73.29779015821748089 ) ) ;
#241 = AXIS2_PLACEMENT_3D ( 'NONE', #699, #153, #646 ) ;
#242 = VERTEX_POINT ( 'NONE', #430 ) ;
#243 = CARTESIAN_POINT ( 'NONE',  ( -17.75000000000001066, -50.00000000000002132, -13.32500000000000284 ) ) ;
#244 = CARTESIAN_POINT ( 'NONE',  ( 4.249999999999983125, -53.50000000000000711, -88.29779015821748089 ) ) ;
#245 = VERTEX_POINT ( 'NONE', #677 ) ;
#246 = DIRECTION ( 'NONE',  ( 1.000000000000000000, -0.000000000000000000, -0.000000000000000000 ) ) ;
#247 = CARTESIAN_POINT ( 'NONE',  ( -20.75000000000001066, -55.00000000000002842, -73.29779015821748089 ) ) ;
#248 = VERTEX_POINT ( 'NONE', #563 ) ;
#249 = EDGE_CURVE ( 'NONE', #549, #248, #497, .T. ) ;
#250 = CYLINDRICAL_SURFACE ( 'NONE', #252, 1.500000000000001332 ) ;
#251 = EDGE_LOOP ( 'NONE', ( #779, #205, #528, #546 ) ) ;
#252 = AXIS2_PLACEMENT_3D ( 'NONE', #247, #736, #682 ) ;
#253 = CARTESIAN_POINT ( 'NONE',  ( -17.75000000000000000, -53.50000000000000711, -118.2977901582174809 ) ) ;
#254 = CIRCLE ( 'NONE', #577, 1.499999999999994449 ) ;
#255 = ORIENTED_EDGE ( 'NONE', *, *, #201, .F. ) ;
#256 = DIRECTION ( 'NONE',  ( -1.000000000000000000, -0.000000000000000000, -1.157007016949078954E-16 ) ) ;
#257 = VERTEX_POINT ( 'NONE', #199 ) ;
#258 = CC_DESIGN_PERSON_AND_ORGANIZATION_ASSIGNMENT ( #445, #582, ( #164 ) ) ;
#259 = DIRECTION ( 'NONE',  ( -1.000000000000000000, 1.387778780781445429E-16, -0.000000000000000000 ) ) ;
#260 = EDGE_LOOP ( 'NONE', ( #178, #545 ) ) ;
#261 = EDGE_CURVE ( 'NONE', #448, #743, #189, .T. ) ;
#262 = CALENDAR_DATE ( 2026, 2, 6 ) ;
#263 = CARTESIAN_POINT ( 'NONE',  ( 4.249999999999983125, -56.50000000000000000, -58.29779015821748089 ) ) ;
#264 = DIRECTION ( 'NONE',  ( -1.000000000000000000, 1.387778780781445429E-16, -0.000000000000000000 ) ) ;
#265 = ORIENTED_EDGE ( 'NONE', *, *, #141, .F. ) ;
#266 = COORDINATED_UNIVERSAL_TIME_OFFSET ( 1, 0, .AHEAD. ) ;
#267 = SECURITY_CLASSIFICATION ( '', '', #36 ) ;
#268 = DIRECTION ( 'NONE',  ( 0.000000000000000000, -1.000000000000000000, 0.000000000000000000 ) ) ;
#269 = CARTESIAN_POINT ( 'NONE',  ( -17.75000000000000000, -55.00000000000003553, -123.2977901582174809 ) ) ;
#270 = ORIENTED_EDGE ( 'NONE', *, *, #586, .F. ) ;
#271 = APPROVAL_STATUS ( 'not_yet_approved' ) ;
#272 = EDGE_CURVE ( 'NONE', #66, #556, #591, .T. ) ;
#273 = APPLICATION_CONTEXT ( 'configuration controlled 3d designs of mechanical parts and assemblies' ) ;
#274 = PLANE ( 'NONE',  #241 ) ;
#275 = CARTESIAN_POINT ( 'NONE',  ( -17.75000000000000711, -55.00000000000002842, -71.79779015821748089 ) ) ;
#276 = ORIENTED_EDGE ( 'NONE', *, *, #67, .T. ) ;
#277 = CYLINDRICAL_SURFACE ( 'NONE', #296, 1.499999999999987566 ) ;
#278 = FACE_OUTER_BOUND ( 'NONE', #86, .T. ) ;
#279 = ORIENTED_EDGE ( 'NONE', *, *, #303, .T. ) ;
#280 = FACE_OUTER_BOUND ( 'NONE', #368, .T. ) ;
#281 = CARTESIAN_POINT ( 'NONE',  ( 4.249999999999983125, -56.49999999999999289, -118.2977901582174809 ) ) ;
#282 = ORIENTED_EDGE ( 'NONE', *, *, #152, .T. ) ;
#283 = EDGE_CURVE ( 'NONE', #340, #448, #162, .T. ) ;
#284 = LINE ( 'NONE', #287, #504 ) ;
#285 = EDGE_LOOP ( 'NONE', ( #372, #683 ) ) ;
#286 = ADVANCED_FACE ( 'NONE', ( #441 ), #274, .T. ) ;
#287 = CARTESIAN_POINT ( 'NONE',  ( -20.75000000000001066, -55.00000000000003553, -124.7977901582174667 ) ) ;
#288 = DIRECTION ( 'NONE',  ( -1.000000000000000000, 1.387778780781445429E-16, -0.000000000000000000 ) ) ;
#289 = APPROVAL_PERSON_ORGANIZATION ( #88, #550, #570 ) ;
#290 = DIRECTION ( 'NONE',  ( 1.000000000000000000, -0.000000000000000000, -0.000000000000000000 ) ) ;
#291 = ORIENTED_EDGE ( 'NONE', *, *, #560, .F. ) ;
#292 = ORIENTED_EDGE ( 'NONE', *, *, #95, .T. ) ;
#293 = LINE ( 'NONE', #175, #179 ) ;
#294 = DIRECTION ( 'NONE',  ( -1.000000000000000000, 1.387778780781445429E-16, -0.000000000000000000 ) ) ;
#295 = CARTESIAN_POINT ( 'NONE',  ( 11.24999999999989164, -60.00000000000002842, -13.32500000000000284 ) ) ;
#296 = AXIS2_PLACEMENT_3D ( 'NONE', #142, #455, #526 ) ;
#297 = LINE ( 'NONE', #244, #575 ) ;
#298 = AXIS2_PLACEMENT_3D ( 'NONE', #382, #388, #156 ) ;
#299 = CARTESIAN_POINT ( 'NONE',  ( -20.75000000000001066, -55.00000000000002842, -23.29779015821748089 ) ) ;
#300 = FACE_BOUND ( 'NONE', #610, .T. ) ;
#301 = ORIENTED_EDGE ( 'NONE', *, *, #249, .F. ) ;
#302 = ADVANCED_FACE ( 'NONE', ( #159 ), #763, .F. ) ;
#303 = EDGE_CURVE ( 'NONE', #704, #305, #52, .T. ) ;
#304 = DIRECTION ( 'NONE',  ( -1.000000000000000000, -0.000000000000000000, -1.157007016949078954E-16 ) ) ;
#305 = VERTEX_POINT ( 'NONE', #324 ) ;
#306 = DIRECTION ( 'NONE',  ( -1.387778780781445429E-16, -1.000000000000000000, 0.000000000000000000 ) ) ;
#307 = CIRCLE ( 'NONE', #239, 1.500000000000001332 ) ;
#308 = ORIENTED_EDGE ( 'NONE', *, *, #414, .T. ) ;
#309 = LINE ( 'NONE', #17, #662 ) ;
#310 = ORIENTED_EDGE ( 'NONE', *, *, #67, .F. ) ;
#311 = EDGE_CURVE ( 'NONE', #34, #735, #37, .T. ) ;
#312 = CARTESIAN_POINT ( 'NONE',  ( 4.249999999999983125, -53.50000000000000000, -58.29779015821748089 ) ) ;
#313 = EDGE_LOOP ( 'NONE', ( #210, #100 ) ) ;
#314 = DIRECTION ( 'NONE',  ( 0.000000000000000000, 0.000000000000000000, -1.000000000000000000 ) ) ;
#315 = DIRECTION ( 'NONE',  ( 0.000000000000000000, -0.000000000000000000, -1.000000000000000000 ) ) ;
#316 = ORIENTED_EDGE ( 'NONE', *, *, #514, .F. ) ;
#317 = CIRCLE ( 'NONE', #367, 1.500000000000001332 ) ;
#318 = CIRCLE ( 'NONE', #769, 1.500000000000001332 ) ;
#319 = DATE_AND_TIME ( #375, #539 ) ;
#320 = CARTESIAN_POINT ( 'NONE',  ( -17.75000000000001066, -50.00000000000002132, -13.32500000000000284 ) ) ;
#321 = DIRECTION ( 'NONE',  ( 0.000000000000000000, -1.000000000000000000, 0.000000000000000000 ) ) ;
#322 = ORIENTED_EDGE ( 'NONE', *, *, #465, .T. ) ;
#323 = EDGE_CURVE ( 'NONE', #237, #248, #148, .T. ) ;
#324 = CARTESIAN_POINT ( 'NONE',  ( 4.249999999999983125, -56.49999999999999289, -118.2977901582174809 ) ) ;
#325 = DIRECTION ( 'NONE',  ( -1.000000000000000000, -0.000000000000000000, -0.000000000000000000 ) ) ;
#326 = EDGE_LOOP ( 'NONE', ( #15, #279 ) ) ;
#327 = DIRECTION ( 'NONE',  ( 0.000000000000000000, 0.000000000000000000, -1.000000000000000000 ) ) ;
#328 = CARTESIAN_POINT ( 'NONE',  ( 11.24999999999990585, -50.00000000000002132, -133.2705803164349732 ) ) ;
#329 = ORIENTED_EDGE ( 'NONE', *, *, #639, .F. ) ;
#330 = VECTOR ( 'NONE', #143, 1000.000000000000000 ) ;
#331 = CIRCLE ( 'NONE', #698, 1.500000000000001332 ) ;
#332 = FACE_OUTER_BOUND ( 'NONE', #174, .T. ) ;
#333 = EDGE_CURVE ( 'NONE', #387, #693, #446, .T. ) ;
#334 = VECTOR ( 'NONE', #664, 1000.000000000000000 ) ;
#335 = CARTESIAN_POINT ( 'NONE',  ( 11.24999999999990585, -55.00000000000003553, -121.7977901582174951 ) ) ;
#336 = VERTEX_POINT ( 'NONE', #451 ) ;
#337 = ADVANCED_FACE ( 'NONE', ( #280 ), #208, .F. ) ;
#338 = LINE ( 'NONE', #263, #722 ) ;
#339 = EDGE_CURVE ( 'NONE', #242, #436, #211, .T. ) ;
#340 = VERTEX_POINT ( 'NONE', #394 ) ;
#341 = PERSON_AND_ORGANIZATION_ROLE ( 'design_owner' ) ;
#342 = DIRECTION ( 'NONE',  ( 0.000000000000000000, -1.000000000000000000, 0.000000000000000000 ) ) ;
#343 = FACE_OUTER_BOUND ( 'NONE', #77, .T. ) ;
#344 = APPROVAL_PERSON_ORGANIZATION ( #633, #10, #146 ) ;
#345 = CARTESIAN_POINT ( 'NONE',  ( 4.249999999999983125, -55.00000000000000000, -58.29779015821748089 ) ) ;
#346 = AXIS2_PLACEMENT_3D ( 'NONE', #520, #40, #327 ) ;
#347 = DIRECTION ( 'NONE',  ( 0.000000000000000000, 0.000000000000000000, -1.000000000000000000 ) ) ;
#348 = ADVANCED_FACE ( 'NONE', ( #332 ), #27, .F. ) ;
#349 = CARTESIAN_POINT ( 'NONE',  ( -17.75000000000001066, -60.00000000000002842, -13.32500000000000284 ) ) ;
#350 = CARTESIAN_POINT ( 'NONE',  ( -17.75000000000000000, -55.00000000000003553, -123.2977901582174809 ) ) ;
#351 = ORIENTED_EDGE ( 'NONE', *, *, #651, .F. ) ;
#352 = CARTESIAN_POINT ( 'NONE',  ( -17.75000000000000355, -55.00000000000000000, -88.29779015821748089 ) ) ;
#353 = CARTESIAN_POINT ( 'NONE',  ( -20.75000000000001066, -55.00000000000002842, -23.29779015821748089 ) ) ;
#354 = DIRECTION ( 'NONE',  ( -1.000000000000000000, 1.387778780781445429E-16, 0.000000000000000000 ) ) ;
#355 = CIRCLE ( 'NONE', #203, 1.500000000000001332 ) ;
#356 = ADVANCED_FACE ( 'NONE', ( #755 ), #277, .F. ) ;
#357 = DIRECTION ( 'NONE',  ( 0.000000000000000000, 0.000000000000000000, 1.000000000000000000 ) ) ;
#358 = CIRCLE ( 'NONE', #16, 1.500000000000004885 ) ;
#359 = ORIENTED_EDGE ( 'NONE', *, *, #311, .F. ) ;
#360 = DIRECTION ( 'NONE',  ( 1.000000000000000000, -0.000000000000000000, -0.000000000000000000 ) ) ;
#361 = EDGE_CURVE ( 'NONE', #448, #340, #449, .T. ) ;
#362 = VERTEX_POINT ( 'NONE', #634 ) ;
#363 = PRODUCT ( 'feed bearing row holder 3', 'feed bearing row holder 3', '', ( #466 ) ) ;
#364 = FACE_OUTER_BOUND ( 'NONE', #752, .T. ) ;
#365 = EDGE_LOOP ( 'NONE', ( #187, #533 ) ) ;
#366 = CARTESIAN_POINT ( 'NONE',  ( -17.75000000000000000, -55.00000000000000000, -118.2977901582174809 ) ) ;
#367 = AXIS2_PLACEMENT_3D ( 'NONE', #401, #165, #595 ) ;
#368 = EDGE_LOOP ( 'NONE', ( #163, #22, #384, #81 ) ) ;
#369 = VECTOR ( 'NONE', #259, 1000.000000000000000 ) ;
#370 = EDGE_CURVE ( 'NONE', #667, #94, #216, .T. ) ;
#371 = CARTESIAN_POINT ( 'NONE',  ( 11.24999999999989164, -55.00000000000002842, -24.79779015821748445 ) ) ;
#372 = ORIENTED_EDGE ( 'NONE', *, *, #711, .F. ) ;
#373 = DIRECTION ( 'NONE',  ( 0.000000000000000000, -1.000000000000000000, 0.000000000000000000 ) ) ;
#374 = ORIENTED_EDGE ( 'NONE', *, *, #20, .F. ) ;
#375 = CALENDAR_DATE ( 2026, 2, 6 ) ;
#376 = DIRECTION ( 'NONE',  ( -1.000000000000000000, 1.387778780781445429E-16, -0.000000000000000000 ) ) ;
#377 = CARTESIAN_POINT ( 'NONE',  ( -17.75000000000000000, -56.49999999999999289, -118.2977901582174809 ) ) ;
#378 = ORIENTED_EDGE ( 'NONE', *, *, #272, .T. ) ;
#379 = AXIS2_PLACEMENT_3D ( 'NONE', #756, #161, #442 ) ;
#380 = DATE_AND_TIME ( #214, #501 ) ;
#381 = AXIS2_PLACEMENT_3D ( 'NONE', #454, #762, #151 ) ;
#382 = CARTESIAN_POINT ( 'NONE',  ( -20.75000000000001066, -55.00000000000003553, -123.2977901582174809 ) ) ;
#383 = PLANE ( 'NONE',  #434 ) ;
#384 = ORIENTED_EDGE ( 'NONE', *, *, #656, .T. ) ;
#385 = CARTESIAN_POINT ( 'NONE',  ( 4.249999999999983125, -55.00000000000000000, -118.2977901582174809 ) ) ;
#386 = DIRECTION ( 'NONE',  ( 0.000000000000000000, 0.000000000000000000, -1.000000000000000000 ) ) ;
#387 = VERTEX_POINT ( 'NONE', #320 ) ;
#388 = DIRECTION ( 'NONE',  ( 1.000000000000000000, -0.000000000000000000, -0.000000000000000000 ) ) ;
#389 = DIRECTION ( 'NONE',  ( 0.000000000000000000, -1.000000000000000000, 0.000000000000000000 ) ) ;
#390 = VERTEX_POINT ( 'NONE', #592 ) ;
#391 = APPROVAL ( #271, 'UNSPECIFIED' ) ;
#392 = ADVANCED_FACE ( 'NONE', ( #32 ), #44, .F. ) ;
#393 = VECTOR ( 'NONE', #433, 1000.000000000000000 ) ;
#394 = CARTESIAN_POINT ( 'NONE',  ( 4.249999999999983125, -53.50000000000000711, -88.29779015821748089 ) ) ;
#395 = PLANE ( 'NONE',  #607 ) ;
#396 = ORIENTED_EDGE ( 'NONE', *, *, #128, .T. ) ;
#397 = CALENDAR_DATE ( 2026, 2, 6 ) ;
#398 = CARTESIAN_POINT ( 'NONE',  ( 4.249999999999983125, -56.49999999999999289, -88.29779015821748089 ) ) ;
#399 = CYLINDRICAL_SURFACE ( 'NONE', #477, 1.500000000000004885 ) ;
#400 = EDGE_CURVE ( 'NONE', #556, #689, #338, .T. ) ;
#401 = CARTESIAN_POINT ( 'NONE',  ( 4.249999999999983125, -55.00000000000000000, -58.29779015821748089 ) ) ;
#402 = CARTESIAN_POINT ( 'NONE',  ( -17.75000000000000355, -56.49999999999999289, -88.29779015821748089 ) ) ;
#403 = DIRECTION ( 'NONE',  ( -1.000000000000000000, 1.387778780781445429E-16, -0.000000000000000000 ) ) ;
#404 = ADVANCED_FACE ( 'NONE', ( #745 ), #579, .T. ) ;
#405 = ORIENTED_EDGE ( 'NONE', *, *, #261, .F. ) ;
#406 = APPROVAL_ROLE ( '' ) ;
#407 = AXIS2_PLACEMENT_3D ( 'NONE', #456, #764, #530 ) ;
#408 = DIRECTION ( 'NONE',  ( 0.000000000000000000, -0.000000000000000000, -1.000000000000000000 ) ) ;
#409 = AXIS2_PLACEMENT_3D ( 'NONE', #124, #625, #631 ) ;
#410 = DIRECTION ( 'NONE',  ( 0.000000000000000000, -1.000000000000000000, 0.000000000000000000 ) ) ;
#411 = DIRECTION ( 'NONE',  ( 0.000000000000000000, -1.000000000000000000, 0.000000000000000000 ) ) ;
#412 = DIRECTION ( 'NONE',  ( 0.000000000000000000, 0.000000000000000000, 1.000000000000000000 ) ) ;
#413 = ORIENTED_EDGE ( 'NONE', *, *, #514, .T. ) ;
#414 = EDGE_CURVE ( 'NONE', #556, #66, #317, .T. ) ;
#415 = FACE_BOUND ( 'NONE', #522, .T. ) ;
#416 = DIRECTION ( 'NONE',  ( -1.000000000000000000, 1.387778780781445429E-16, 0.000000000000000000 ) ) ;
#417 = ORIENTED_EDGE ( 'NONE', *, *, #469, .F. ) ;
#418 = DIRECTION ( 'NONE',  ( -1.000000000000000000, 1.387778780781445429E-16, -0.000000000000000000 ) ) ;
#419 = EDGE_CURVE ( 'NONE', #127, #176, #75, .T. ) ;
#420 = CIRCLE ( 'NONE', #190, 1.500000000000001332 ) ;
#421 = UNCERTAINTY_MEASURE_WITH_UNIT (LENGTH_MEASURE( 1.000000000000000082E-05 ), #724, 'distance_accuracy_value', 'NONE');
#422 = CARTESIAN_POINT ( 'NONE',  ( 4.249999999999983125, -56.49999999999999289, -88.29779015821748089 ) ) ;
#423 = CIRCLE ( 'NONE', #133, 1.500000000000001332 ) ;
#424 = EDGE_LOOP ( 'NONE', ( #91, #42, #620, #581 ) ) ;
#425 = AXIS2_PLACEMENT_3D ( 'NONE', #635, #759, #389 ) ;
#426 = DIRECTION ( 'NONE',  ( 1.000000000000000000, 0.000000000000000000, 0.000000000000000000 ) ) ;
#427 = ORIENTED_EDGE ( 'NONE', *, *, #639, .T. ) ;
#428 = EDGE_CURVE ( 'NONE', #94, #443, #537, .T. ) ;
#429 = APPLICATION_CONTEXT ( 'configuration controlled 3d designs of mechanical parts and assemblies' ) ;
#430 = CARTESIAN_POINT ( 'NONE',  ( 4.249999999999983125, -53.50000000000000000, -28.29779015821748445 ) ) ;
#431 = ORIENTED_EDGE ( 'NONE', *, *, #741, .F. ) ;
#432 = EDGE_CURVE ( 'NONE', #362, #245, #547, .T. ) ;
#433 = DIRECTION ( 'NONE',  ( -1.000000000000000000, 1.387778780781445429E-16, -0.000000000000000000 ) ) ;
#434 = AXIS2_PLACEMENT_3D ( 'NONE', #584, #221, #315 ) ;
#435 = CIRCLE ( 'NONE', #505, 1.500000000000001332 ) ;
#436 = VERTEX_POINT ( 'NONE', #185 ) ;
#437 = DIRECTION ( 'NONE',  ( 1.000000000000000000, 0.000000000000000000, 1.157007016949078954E-16 ) ) ;
#438 = ORIENTED_EDGE ( 'NONE', *, *, #339, .F. ) ;
#439 = LOCAL_TIME ( 10, 35, 12.00000000000000000, #542 ) ;
#440 = DATE_AND_TIME ( #262, #638 ) ;
#441 = FACE_OUTER_BOUND ( 'NONE', #757, .T. ) ;
#442 = DIRECTION ( 'NONE',  ( 0.000000000000000000, -1.000000000000000000, 0.000000000000000000 ) ) ;
#443 = VERTEX_POINT ( 'NONE', #295 ) ;
#444 = CC_DESIGN_PERSON_AND_ORGANIZATION_ASSIGNMENT ( #110, #714, ( #164 ) ) ;
#445 = PERSON_AND_ORGANIZATION ( #654, #64 ) ;
#446 = LINE ( 'NONE', #705, #649 ) ;
#447 = DIRECTION ( 'NONE',  ( 1.000000000000000000, 0.000000000000000000, 1.157007016949078954E-16 ) ) ;
#448 = VERTEX_POINT ( 'NONE', #398 ) ;
#449 = CIRCLE ( 'NONE', #627, 1.499999999999994449 ) ;
#450 = PERSON_AND_ORGANIZATION ( #654, #64 ) ;
#451 = CARTESIAN_POINT ( 'NONE',  ( 11.24999999999990585, -55.00000000000003553, -124.7977901582174667 ) ) ;
#452 = DIRECTION ( 'NONE',  ( -1.000000000000000000, -0.000000000000000000, -1.157007016949078954E-16 ) ) ;
#453 = ORIENTED_EDGE ( 'NONE', *, *, #230, .T. ) ;
#454 = CARTESIAN_POINT ( 'NONE',  ( 0.000000000000000000, 0.000000000000000000, 0.000000000000000000 ) ) ;
#455 = DIRECTION ( 'NONE',  ( 1.000000000000000000, -0.000000000000000000, -0.000000000000000000 ) ) ;
#456 = CARTESIAN_POINT ( 'NONE',  ( 4.249999999999983125, -55.00000000000000000, -88.29779015821748089 ) ) ;
#457 = ORIENTED_EDGE ( 'NONE', *, *, #586, .T. ) ;
#458 = DIRECTION ( 'NONE',  ( 0.000000000000000000, -1.000000000000000000, 0.000000000000000000 ) ) ;
#459 = CARTESIAN_POINT ( 'NONE',  ( -17.75000000000001066, -50.00000000000002132, -13.32500000000000284 ) ) ;
#460 = ORIENTED_EDGE ( 'NONE', *, *, #668, .F. ) ;
#461 = AXIS2_PLACEMENT_3D ( 'NONE', #641, #90, #589 ) ;
#462 = CIRCLE ( 'NONE', #160, 1.500000000000001332 ) ;
#463 = FACE_BOUND ( 'NONE', #260, .T. ) ;
#464 = ORIENTED_EDGE ( 'NONE', *, *, #184, .F. ) ;
#465 = EDGE_CURVE ( 'NONE', #704, #200, #473, .T. ) ;
#466 = MECHANICAL_CONTEXT ( 'NONE', #273, 'mechanical' ) ;
#467 = CC_DESIGN_APPROVAL ( #10, ( #267 ) ) ;
#468 = FACE_OUTER_BOUND ( 'NONE', #767, .T. ) ;
#469 = EDGE_CURVE ( 'NONE', #387, #362, #655, .T. ) ;
#470 = CARTESIAN_POINT ( 'NONE',  ( 4.249999999999983125, -55.00000000000000000, -88.29779015821748089 ) ) ;
#471 = EDGE_LOOP ( 'NONE', ( #460, #113, #457, #136 ) ) ;
#472 = APPLICATION_PROTOCOL_DEFINITION ( 'international standard', 'config_control_design', 1994, #429 ) ;
#473 = LINE ( 'NONE', #658, #481 ) ;
#474 = CARTESIAN_POINT ( 'NONE',  ( -17.75000000000000355, -55.00000000000000000, -88.29779015821748089 ) ) ;
#475 = EDGE_LOOP ( 'NONE', ( #500, #222 ) ) ;
#476 = AXIS2_PLACEMENT_3D ( 'NONE', #529, #223, #458 ) ;
#477 = AXIS2_PLACEMENT_3D ( 'NONE', #353, #558, #347 ) ;
#478 = DIRECTION ( 'NONE',  ( -1.000000000000000000, 0.000000000000000000, -1.157007016949078954E-16 ) ) ;
#479 = AXIS2_PLACEMENT_3D ( 'NONE', #605, #403, #410 ) ;
#480 = DIRECTION ( 'NONE',  ( -1.000000000000000000, -0.000000000000000000, -1.157007016949078954E-16 ) ) ;
#481 = VECTOR ( 'NONE', #108, 1000.000000000000000 ) ;
#482 = ORIENTED_EDGE ( 'NONE', *, *, #35, .F. ) ;
#483 = EDGE_CURVE ( 'NONE', #622, #336, #284, .T. ) ;
#484 = CARTESIAN_POINT ( 'NONE',  ( 4.249999999999983125, -56.50000000000000000, -58.29779015821748089 ) ) ;
#485 = CC_DESIGN_DATE_AND_TIME_ASSIGNMENT ( #753, #597, ( #267 ) ) ;
#486 = CARTESIAN_POINT ( 'NONE',  ( -17.75000000000000000, -55.00000000000000000, -118.2977901582174809 ) ) ;
#487 = FACE_BOUND ( 'NONE', #285, .T. ) ;
#488 = ADVANCED_FACE ( 'NONE', ( #717 ), #532, .T. ) ;
#489 = DIRECTION ( 'NONE',  ( 0.000000000000000000, 0.000000000000000000, -1.000000000000000000 ) ) ;
#490 = DIRECTION ( 'NONE',  ( 0.000000000000000000, 0.000000000000000000, 1.000000000000000000 ) ) ;
#491 = AXIS2_PLACEMENT_3D ( 'NONE', #580, #447, #706 ) ;
#492 =( NAMED_UNIT ( * ) SI_UNIT ( $, .STERADIAN. ) SOLID_ANGLE_UNIT ( ) );
#493 = DIRECTION ( 'NONE',  ( -1.000000000000000000, 1.387778780781445429E-16, 0.000000000000000000 ) ) ;
#494 = AXIS2_PLACEMENT_3D ( 'NONE', #385, #643, #588 ) ;
#495 = ORIENTED_EDGE ( 'NONE', *, *, #249, .T. ) ;
#496 = ADVANCED_FACE ( 'NONE', ( #604, #463, #415, #231, #238, #766, #54, #468 ), #171, .T. ) ;
#497 = LINE ( 'NONE', #129, #536 ) ;
#498 = EDGE_LOOP ( 'NONE', ( #255, #219, #518, #310 ) ) ;
#499 = DIRECTION ( 'NONE',  ( 0.000000000000000000, -1.000000000000000000, 0.000000000000000000 ) ) ;
#500 = ORIENTED_EDGE ( 'NONE', *, *, #181, .F. ) ;
#501 = LOCAL_TIME ( 10, 35, 12.00000000000000000, #510 ) ;
#502 = VECTOR ( 'NONE', #264, 1000.000000000000000 ) ;
#503 = DIRECTION ( 'NONE',  ( 0.000000000000000000, -1.000000000000000000, 0.000000000000000000 ) ) ;
#504 = VECTOR ( 'NONE', #290, 1000.000000000000000 ) ;
#505 = AXIS2_PLACEMENT_3D ( 'NONE', #240, #109, #173 ) ;
#506 = ORIENTED_EDGE ( 'NONE', *, *, #370, .F. ) ;
#507 =( GEOMETRIC_REPRESENTATION_CONTEXT ( 3 ) GLOBAL_UNCERTAINTY_ASSIGNED_CONTEXT ( ( #421 ) ) GLOBAL_UNIT_ASSIGNED_CONTEXT ( ( #724, #772, #492 ) ) REPRESENTATION_CONTEXT ( 'NONE', 'WORKASPACE' ) );
#508 = AXIS2_PLACEMENT_3D ( 'NONE', #14, #23, #71 ) ;
#509 = EDGE_CURVE ( 'NONE', #257, #176, #293, .T. ) ;
#510 = COORDINATED_UNIVERSAL_TIME_OFFSET ( 1, 0, .AHEAD. ) ;
#511 = DIRECTION ( 'NONE',  ( -1.000000000000000000, 1.387778780781445429E-16, -0.000000000000000000 ) ) ;
#512 = DIRECTION ( 'NONE',  ( 0.000000000000000000, 0.000000000000000000, 1.000000000000000000 ) ) ;
#513 = EDGE_LOOP ( 'NONE', ( #606, #322, #729, #431 ) ) ;
#514 = EDGE_CURVE ( 'NONE', #549, #628, #355, .T. ) ;
#515 = PERSON_AND_ORGANIZATION ( #654, #64 ) ;
#516 = DIRECTION ( 'NONE',  ( -1.000000000000000000, 1.387778780781445429E-16, -0.000000000000000000 ) ) ;
#517 = CARTESIAN_POINT ( 'NONE',  ( 4.249999999999983125, -55.00000000000000000, -118.2977901582174809 ) ) ;
#518 = ORIENTED_EDGE ( 'NONE', *, *, #141, .T. ) ;
#519 = CALENDAR_DATE ( 2026, 2, 6 ) ;
#520 = CARTESIAN_POINT ( 'NONE',  ( -20.75000000000001066, -55.00000000000002842, -73.29779015821748089 ) ) ;
#521 = CARTESIAN_POINT ( 'NONE',  ( 4.249999999999983125, -56.50000000000000000, -28.29779015821748445 ) ) ;
#522 = EDGE_LOOP ( 'NONE', ( #351, #265 ) ) ;
#523 = AXIS2_PLACEMENT_3D ( 'NONE', #731, #126, #306 ) ;
#524 = ADVANCED_FACE ( 'NONE', ( #723 ), #180, .F. ) ;
#525 = AXIS2_PLACEMENT_3D ( 'NONE', #227, #478, #712 ) ;
#526 = DIRECTION ( 'NONE',  ( 0.000000000000000000, 0.000000000000000000, -1.000000000000000000 ) ) ;
#527 = CYLINDRICAL_SURFACE ( 'NONE', #425, 1.500000000000001332 ) ;
#528 = ORIENTED_EDGE ( 'NONE', *, *, #428, .T. ) ;
#529 = CARTESIAN_POINT ( 'NONE',  ( 4.249999999999983125, -55.00000000000000000, -58.29779015821748089 ) ) ;
#530 = DIRECTION ( 'NONE',  ( 0.000000000000000000, -1.000000000000000000, 0.000000000000000000 ) ) ;
#531 = EDGE_LOOP ( 'NONE', ( #308, #378 ) ) ;
#532 = PLANE ( 'NONE',  #134 ) ;
#533 = ORIENTED_EDGE ( 'NONE', *, *, #201, .T. ) ;
#534 = PERSON_AND_ORGANIZATION_ROLE ( 'classification_officer' ) ;
#535 = CIRCLE ( 'NONE', #491, 1.499999999999987566 ) ;
#536 = VECTOR ( 'NONE', #565, 1000.000000000000000 ) ;
#537 = LINE ( 'NONE', #119, #132 ) ;
#538 = PLANE ( 'NONE',  #552 ) ;
#539 = LOCAL_TIME ( 10, 35, 12.00000000000000000, #25 ) ;
#540 = ORIENTED_EDGE ( 'NONE', *, *, #53, .F. ) ;
#541 = AXIS2_PLACEMENT_3D ( 'NONE', #99, #212, #386 ) ;
#542 = COORDINATED_UNIVERSAL_TIME_OFFSET ( 1, 0, .AHEAD. ) ;
#543 = EDGE_CURVE ( 'NONE', #667, #6, #778, .T. ) ;
#544 = CARTESIAN_POINT ( 'NONE',  ( -17.75000000000000711, -55.00000000000002842, -73.29779015821748089 ) ) ;
#545 = ORIENTED_EDGE ( 'NONE', *, *, #172, .F. ) ;
#546 = ORIENTED_EDGE ( 'NONE', *, *, #668, .T. ) ;
#547 = LINE ( 'NONE', #349, #553 ) ;
#548 = CARTESIAN_POINT ( 'NONE',  ( 4.249999999999983125, -56.50000000000000000, -28.29779015821748445 ) ) ;
#549 = VERTEX_POINT ( 'NONE', #114 ) ;
#550 = APPROVAL ( #140, 'UNSPECIFIED' ) ;
#551 = DIRECTION ( 'NONE',  ( 0.000000000000000000, 0.000000000000000000, 1.000000000000000000 ) ) ;
#552 = AXIS2_PLACEMENT_3D ( 'NONE', #186, #416, #657 ) ;
#553 = VECTOR ( 'NONE', #104, 1000.000000000000000 ) ;
#554 = CYLINDRICAL_SURFACE ( 'NONE', #26, 1.499999999999994449 ) ;
#555 = EDGE_CURVE ( 'NONE', #743, #155, #660, .T. ) ;
#556 = VERTEX_POINT ( 'NONE', #484 ) ;
#557 = CYLINDRICAL_SURFACE ( 'NONE', #754, 1.499999999999994449 ) ;
#558 = DIRECTION ( 'NONE',  ( 1.000000000000000000, -0.000000000000000000, -0.000000000000000000 ) ) ;
#559 = LINE ( 'NONE', #567, #62 ) ;
#560 = EDGE_CURVE ( 'NONE', #681, #242, #307, .T. ) ;
#561 = ORIENTED_EDGE ( 'NONE', *, *, #651, .T. ) ;
#562 = ADVANCED_FACE ( 'NONE', ( #615 ), #557, .F. ) ;
#563 = CARTESIAN_POINT ( 'NONE',  ( 11.24999999999989875, -55.00000000000002842, -74.79779015821748089 ) ) ;
#564 = ORIENTED_EDGE ( 'NONE', *, *, #192, .F. ) ;
#565 = DIRECTION ( 'NONE',  ( 1.000000000000000000, -0.000000000000000000, -0.000000000000000000 ) ) ;
#566 = EDGE_LOOP ( 'NONE', ( #564, #653, #747, #138 ) ) ;
#567 = CARTESIAN_POINT ( 'NONE',  ( -20.75000000000001066, -55.00000000000002842, -71.79779015821748089 ) ) ;
#568 = ADVANCED_FACE ( 'NONE', ( #730 ), #188, .F. ) ;
#569 = EDGE_LOOP ( 'NONE', ( #573, #540 ) ) ;
#570 = APPROVAL_ROLE ( '' ) ;
#571 = CARTESIAN_POINT ( 'NONE',  ( 11.24999999999989164, -55.00000000000002842, -23.29779015821748089 ) ) ;
#572 = CARTESIAN_POINT ( 'NONE',  ( 4.249999999999983125, -55.00000000000000000, -88.29779015821748089 ) ) ;
#573 = ORIENTED_EDGE ( 'NONE', *, *, #555, .F. ) ;
#574 = ADVANCED_FACE ( 'NONE', ( #751 ), #224, .F. ) ;
#575 = VECTOR ( 'NONE', #288, 1000.000000000000000 ) ;
#576 = PERSON_AND_ORGANIZATION ( #654, #64 ) ;
#577 = AXIS2_PLACEMENT_3D ( 'NONE', #517, #593, #696 ) ;
#578 = CC_DESIGN_APPROVAL ( #550, ( #685 ) ) ;
#579 = PLANE ( 'NONE',  #674 ) ;
#580 = CARTESIAN_POINT ( 'NONE',  ( 11.24999999999990585, -55.00000000000003553, -123.2977901582174809 ) ) ;
#581 = ORIENTED_EDGE ( 'NONE', *, *, #181, .T. ) ;
#582 = PERSON_AND_ORGANIZATION_ROLE ( 'creator' ) ;
#583 = DIRECTION ( 'NONE',  ( 1.157007016949078954E-16, 0.000000000000000000, -1.000000000000000000 ) ) ;
#584 = CARTESIAN_POINT ( 'NONE',  ( 0.000000000000000000, -60.00000000000002842, 0.000000000000000000 ) ) ;
#585 = EDGE_LOOP ( 'NONE', ( #150, #292, #701, #405 ) ) ;
#586 = EDGE_CURVE ( 'NONE', #6, #387, #692, .T. ) ;
#587 = EDGE_CURVE ( 'NONE', #693, #245, #93, .T. ) ;
#588 = DIRECTION ( 'NONE',  ( 0.000000000000000000, -1.000000000000000000, 0.000000000000000000 ) ) ;
#589 = DIRECTION ( 'NONE',  ( 0.000000000000000000, 0.000000000000000000, 1.000000000000000000 ) ) ;
#590 = ORIENTED_EDGE ( 'NONE', *, *, #261, .T. ) ;
#591 = CIRCLE ( 'NONE', #3, 1.500000000000001332 ) ;
#592 = CARTESIAN_POINT ( 'NONE',  ( -17.75000000000000711, -53.50000000000000000, -58.29779015821748089 ) ) ;
#593 = DIRECTION ( 'NONE',  ( -1.000000000000000000, 1.387778780781445429E-16, 0.000000000000000000 ) ) ;
#594 = ORIENTED_EDGE ( 'NONE', *, *, #206, .F. ) ;
#595 = DIRECTION ( 'NONE',  ( 0.000000000000000000, -1.000000000000000000, 0.000000000000000000 ) ) ;
#596 = ORIENTED_EDGE ( 'NONE', *, *, #711, .T. ) ;
#597 = DATE_TIME_ROLE ( 'classification_date' ) ;
#598 = CC_DESIGN_DATE_AND_TIME_ASSIGNMENT ( #440, #748, ( #685 ) ) ;
#599 = CARTESIAN_POINT ( 'NONE',  ( 11.24999999999989164, -55.00000000000002842, -23.29779015821748089 ) ) ;
#600 = DIRECTION ( 'NONE',  ( 0.000000000000000000, 0.000000000000000000, 1.000000000000000000 ) ) ;
#601 = CARTESIAN_POINT ( 'NONE',  ( 4.249999999999983125, -53.50000000000000000, -58.29779015821748089 ) ) ;
#602 = VECTOR ( 'NONE', #325, 1000.000000000000000 ) ;
#603 = VECTOR ( 'NONE', #376, 1000.000000000000000 ) ;
#604 = FACE_BOUND ( 'NONE', #569, .T. ) ;
#605 = CARTESIAN_POINT ( 'NONE',  ( 4.249999999999983125, -55.00000000000000000, -28.29779015821748445 ) ) ;
#606 = ORIENTED_EDGE ( 'NONE', *, *, #303, .F. ) ;
#607 = AXIS2_PLACEMENT_3D ( 'NONE', #572, #29, #644 ) ;
#608 = DIRECTION ( 'NONE',  ( 1.000000000000000000, 0.000000000000000000, 0.000000000000000000 ) ) ;
#609 = DIRECTION ( 'NONE',  ( 1.000000000000000000, 0.000000000000000000, 0.000000000000000000 ) ) ;
#610 = EDGE_LOOP ( 'NONE', ( #464, #72 ) ) ;
#611 = DIRECTION ( 'NONE',  ( 1.000000000000000000, -0.000000000000000000, -0.000000000000000000 ) ) ;
#612 = FACE_BOUND ( 'NONE', #313, .T. ) ;
#613 = AXIS2_PLACEMENT_3D ( 'NONE', #352, #58, #551 ) ;
#614 = CIRCLE ( 'NONE', #122, 1.500000000000001332 ) ;
#615 = FACE_OUTER_BOUND ( 'NONE', #513, .T. ) ;
#616 = PLANE ( 'NONE',  #663 ) ;
#617 = ORIENTED_EDGE ( 'NONE', *, *, #361, .T. ) ;
#618 = ADVANCED_FACE ( 'NONE', ( #149 ), #383, .T. ) ;
#619 = CARTESIAN_POINT ( 'NONE',  ( -17.75000000000001066, -55.00000000000000000, -28.29779015821748445 ) ) ;
#620 = ORIENTED_EDGE ( 'NONE', *, *, #741, .T. ) ;
#621 = DIRECTION ( 'NONE',  ( 1.000000000000000000, -0.000000000000000000, -0.000000000000000000 ) ) ;
#622 = VERTEX_POINT ( 'NONE', #33 ) ;
#623 = AXIS2_PLACEMENT_3D ( 'NONE', #486, #480, #600 ) ;
#624 = AXIS2_PLACEMENT_3D ( 'NONE', #599, #48, #50 ) ;
#625 = DIRECTION ( 'NONE',  ( 1.000000000000000000, 0.000000000000000000, 1.157007016949078954E-16 ) ) ;
#626 = PRODUCT_DEFINITION_SHAPE ( 'NONE', 'NONE',  #685 ) ;
#627 = AXIS2_PLACEMENT_3D ( 'NONE', #702, #101, #695 ) ;
#628 = VERTEX_POINT ( 'NONE', #275 ) ;
#629 = CARTESIAN_POINT ( 'NONE',  ( 4.249999999999983125, -55.00000000000000000, -28.29779015821748445 ) ) ;
#630 = EDGE_LOOP ( 'NONE', ( #61, #374 ) ) ;
#631 = DIRECTION ( 'NONE',  ( 0.000000000000000000, 0.000000000000000000, -1.000000000000000000 ) ) ;
#632 = VERTEX_POINT ( 'NONE', #377 ) ;
#633 = PERSON_AND_ORGANIZATION ( #654, #64 ) ;
#634 = CARTESIAN_POINT ( 'NONE',  ( -17.75000000000001066, -60.00000000000002842, -13.32500000000000284 ) ) ;
#635 = CARTESIAN_POINT ( 'NONE',  ( 4.249999999999983125, -55.00000000000000000, -58.29779015821748089 ) ) ;
#636 = ORIENTED_EDGE ( 'NONE', *, *, #230, .F. ) ;
#637 = SHAPE_DEFINITION_REPRESENTATION ( #626, #97 ) ;
#638 = LOCAL_TIME ( 10, 35, 12.00000000000000000, #266 ) ;
#639 = EDGE_CURVE ( 'NONE', #257, #765, #709, .T. ) ;
#640 = CARTESIAN_POINT ( 'NONE',  ( -20.75000000000001066, -55.00000000000003553, -121.7977901582174951 ) ) ;
#641 = CARTESIAN_POINT ( 'NONE',  ( -17.75000000000001066, -55.00000000000002842, -23.29779015821748089 ) ) ;
#642 = EDGE_LOOP ( 'NONE', ( #103, #737, #590, #183 ) ) ;
#643 = DIRECTION ( 'NONE',  ( -1.000000000000000000, 1.387778780781445429E-16, 0.000000000000000000 ) ) ;
#644 = DIRECTION ( 'NONE',  ( -1.387778780781445429E-16, -1.000000000000000000, 0.000000000000000000 ) ) ;
#645 = ORIENTED_EDGE ( 'NONE', *, *, #333, .T. ) ;
#646 = DIRECTION ( 'NONE',  ( -1.000000000000000000, 0.000000000000000000, -0.000000000000000000 ) ) ;
#647 = CARTESIAN_POINT ( 'NONE',  ( -17.75000000000000000, -50.00000000000002132, -133.2705803164349732 ) ) ;
#648 = ORIENTED_EDGE ( 'NONE', *, *, #587, .T. ) ;
#649 = VECTOR ( 'NONE', #583, 1000.000000000000000 ) ;
#650 = CARTESIAN_POINT ( 'NONE',  ( 11.24999999999989875, -55.00000000000002842, -73.29779015821748089 ) ) ;
#651 = EDGE_CURVE ( 'NONE', #760, #436, #420, .T. ) ;
#652 = DIRECTION ( 'NONE',  ( 0.000000000000000000, 0.000000000000000000, 1.000000000000000000 ) ) ;
#653 = ORIENTED_EDGE ( 'NONE', *, *, #166, .T. ) ;
#654 = PERSON ( 'UNSPECIFIED', 'UNSPECIFIED', 'UNSPECIFIED', ('UNSPECIFIED'), ('UNSPECIFIED'), ('UNSPECIFIED') ) ;
#655 = LINE ( 'NONE', #243, #4 ) ;
#656 = EDGE_CURVE ( 'NONE', #735, #336, #535, .T. ) ;
#657 = DIRECTION ( 'NONE',  ( -1.387778780781445429E-16, -1.000000000000000000, 0.000000000000000000 ) ) ;
#658 = CARTESIAN_POINT ( 'NONE',  ( 4.249999999999983125, -53.50000000000000711, -118.2977901582174809 ) ) ;
#659 = DIRECTION ( 'NONE',  ( -1.000000000000000000, -0.000000000000000000, -1.157007016949078954E-16 ) ) ;
#660 = CIRCLE ( 'NONE', #613, 1.500000000000001332 ) ;
#661 = DATE_AND_TIME ( #397, #9 ) ;
#662 = VECTOR ( 'NONE', #360, 1000.000000000000000 ) ;
#663 = AXIS2_PLACEMENT_3D ( 'NONE', #60, #11, #168 ) ;
#664 = DIRECTION ( 'NONE',  ( -1.157007016949078954E-16, -0.000000000000000000, 1.000000000000000000 ) ) ;
#665 = CC_DESIGN_PERSON_AND_ORGANIZATION_ASSIGNMENT ( #576, #341, ( #363 ) ) ;
#666 = DIRECTION ( 'NONE',  ( -1.000000000000000000, -0.000000000000000000, -1.157007016949078954E-16 ) ) ;
#667 = VERTEX_POINT ( 'NONE', #328 ) ;
#668 = EDGE_CURVE ( 'NONE', #443, #362, #703, .T. ) ;
#669 = CARTESIAN_POINT ( 'NONE',  ( 11.24999999999989164, -50.00000000000002132, -13.32500000000000284 ) ) ;
#670 = DIRECTION ( 'NONE',  ( -1.000000000000000000, 1.387778780781445429E-16, -0.000000000000000000 ) ) ;
#671 = CARTESIAN_POINT ( 'NONE',  ( -17.75000000000001066, -50.00000000000002132, -13.32500000000000284 ) ) ;
#672 = CARTESIAN_POINT ( 'NONE',  ( -17.75000000000000711, -55.00000000000000000, -58.29779015821748089 ) ) ;
#673 = ORIENTED_EDGE ( 'NONE', *, *, #166, .F. ) ;
#674 = AXIS2_PLACEMENT_3D ( 'NONE', #671, #5, #608 ) ;
#675 = DIRECTION ( 'NONE',  ( 0.000000000000000000, -1.000000000000000000, 0.000000000000000000 ) ) ;
#676 = AXIS2_PLACEMENT_3D ( 'NONE', #619, #304, #69 ) ;
#677 = CARTESIAN_POINT ( 'NONE',  ( -17.75000000000000000, -60.00000000000002842, -133.2705803164349732 ) ) ;
#678 = EDGE_LOOP ( 'NONE', ( #12, #270, #198, #482 ) ) ;
#679 = PLANE ( 'NONE',  #523 ) ;
#680 = ADVANCED_FACE ( 'NONE', ( #278 ), #38, .F. ) ;
#681 = VERTEX_POINT ( 'NONE', #521 ) ;
#682 = DIRECTION ( 'NONE',  ( 0.000000000000000000, 0.000000000000000000, -1.000000000000000000 ) ) ;
#683 = ORIENTED_EDGE ( 'NONE', *, *, #323, .F. ) ;
#684 = CARTESIAN_POINT ( 'NONE',  ( 4.249999999999983125, -55.00000000000000000, -58.29779015821748089 ) ) ;
#685 = PRODUCT_DEFINITION ( 'UNKNOWN', '', #164, #115 ) ;
#686 = AXIS2_PLACEMENT_3D ( 'NONE', #235, #411, #408 ) ;
#687 = ORIENTED_EDGE ( 'NONE', *, *, #370, .T. ) ;
#688 = DIRECTION ( 'NONE',  ( 0.000000000000000000, 0.000000000000000000, 1.000000000000000000 ) ) ;
#689 = VERTEX_POINT ( 'NONE', #218 ) ;
#690 = COORDINATED_UNIVERSAL_TIME_OFFSET ( 1, 0, .AHEAD. ) ;
#691 = CARTESIAN_POINT ( 'NONE',  ( 4.249999999999983125, -53.50000000000000000, -28.29779015821748445 ) ) ;
#692 = LINE ( 'NONE', #459, #330 ) ;
#693 = VERTEX_POINT ( 'NONE', #647 ) ;
#694 = EDGE_CURVE ( 'NONE', #622, #34, #145, .T. ) ;
#695 = DIRECTION ( 'NONE',  ( 0.000000000000000000, -1.000000000000000000, 0.000000000000000000 ) ) ;
#696 = DIRECTION ( 'NONE',  ( 0.000000000000000000, -1.000000000000000000, 0.000000000000000000 ) ) ;
#697 = ORIENTED_EDGE ( 'NONE', *, *, #184, .T. ) ;
#698 = AXIS2_PLACEMENT_3D ( 'NONE', #629, #493, #499 ) ;
#699 = CARTESIAN_POINT ( 'NONE',  ( -17.75000000000000000, -50.00000000000002132, -133.2705803164349732 ) ) ;
#700 = CARTESIAN_POINT ( 'NONE',  ( -17.75000000000001066, -60.00000000000002842, -13.32500000000000284 ) ) ;
#701 = ORIENTED_EDGE ( 'NONE', *, *, #53, .T. ) ;
#702 = CARTESIAN_POINT ( 'NONE',  ( 4.249999999999983125, -55.00000000000000000, -88.29779015821748089 ) ) ;
#703 = LINE ( 'NONE', #700, #602 ) ;
#704 = VERTEX_POINT ( 'NONE', #154 ) ;
#705 = CARTESIAN_POINT ( 'NONE',  ( -17.75000000000001066, -50.00000000000002132, -13.32500000000000284 ) ) ;
#706 = DIRECTION ( 'NONE',  ( 0.000000000000000000, 0.000000000000000000, -1.000000000000000000 ) ) ;
#707 = ORIENTED_EDGE ( 'NONE', *, *, #414, .F. ) ;
#708 = ADVANCED_FACE ( 'NONE', ( #157 ), #527, .F. ) ;
#709 = CIRCLE ( 'NONE', #461, 1.500000000000004885 ) ;
#710 = AXIS2_PLACEMENT_3D ( 'NONE', #650, #96, #83 ) ;
#711 = EDGE_CURVE ( 'NONE', #248, #237, #87, .T. ) ;
#712 = DIRECTION ( 'NONE',  ( -1.157007016949078954E-16, 0.000000000000000000, 1.000000000000000000 ) ) ;
#713 = EDGE_LOOP ( 'NONE', ( #427, #719, #39, #158 ) ) ;
#714 = PERSON_AND_ORGANIZATION_ROLE ( 'design_supplier' ) ;
#715 = DIRECTION ( 'NONE',  ( -1.000000000000000000, -0.000000000000000000, -1.157007016949078954E-16 ) ) ;
#716 = CARTESIAN_POINT ( 'NONE',  ( -17.75000000000000000, -50.00000000000002132, -133.2705803164349732 ) ) ;
#717 = FACE_OUTER_BOUND ( 'NONE', #531, .T. ) ;
#718 = LINE ( 'NONE', #716, #768 ) ;
#719 = ORIENTED_EDGE ( 'NONE', *, *, #192, .T. ) ;
#720 = AXIS2_PLACEMENT_3D ( 'NONE', #350, #57, #412 ) ;
#721 = VECTOR ( 'NONE', #426, 1000.000000000000000 ) ;
#722 = VECTOR ( 'NONE', #511, 1000.000000000000000 ) ;
#723 = FACE_OUTER_BOUND ( 'NONE', #678, .T. ) ;
#724 =( LENGTH_UNIT ( ) NAMED_UNIT ( * ) SI_UNIT ( .MILLI., .METRE. ) );
#725 = CYLINDRICAL_SURFACE ( 'NONE', #479, 1.500000000000001332 ) ;
#726 = ORIENTED_EDGE ( 'NONE', *, *, #587, .F. ) ;
#727 = CARTESIAN_POINT ( 'NONE',  ( 4.249999999999983125, -55.00000000000000000, -28.29779015821748445 ) ) ;
#728 = FACE_OUTER_BOUND ( 'NONE', #365, .T. ) ;
#729 = ORIENTED_EDGE ( 'NONE', *, *, #749, .T. ) ;
#730 = FACE_OUTER_BOUND ( 'NONE', #566, .T. ) ;
#731 = CARTESIAN_POINT ( 'NONE',  ( 4.249999999999983125, -55.00000000000000000, -118.2977901582174809 ) ) ;
#732 = ADVANCED_FACE ( 'NONE', ( #85 ), #395, .T. ) ;
#733 = AXIS2_PLACEMENT_3D ( 'NONE', #269, #452, #512 ) ;
#734 = CARTESIAN_POINT ( 'NONE',  ( -17.75000000000000000, -60.00000000000002842, -133.2705803164349732 ) ) ;
#735 = VERTEX_POINT ( 'NONE', #335 ) ;
#736 = DIRECTION ( 'NONE',  ( 1.000000000000000000, -0.000000000000000000, -0.000000000000000000 ) ) ;
#737 = ORIENTED_EDGE ( 'NONE', *, *, #361, .F. ) ;
#738 = EDGE_CURVE ( 'NONE', #305, #704, #254, .T. ) ;
#739 = LINE ( 'NONE', #734, #721 ) ;
#740 = ORIENTED_EDGE ( 'NONE', *, *, #20, .T. ) ;
#741 = EDGE_CURVE ( 'NONE', #305, #632, #46, .T. ) ;
#742 = CARTESIAN_POINT ( 'NONE',  ( 11.24999999999989164, -50.00000000000002132, -13.32500000000000284 ) ) ;
#743 = VERTEX_POINT ( 'NONE', #402 ) ;
#744 = APPROVAL_DATE_TIME ( #380, #10 ) ;
#745 = FACE_OUTER_BOUND ( 'NONE', #471, .T. ) ;
#746 = CARTESIAN_POINT ( 'NONE',  ( -17.75000000000001066, -55.00000000000000000, -28.29779015821748445 ) ) ;
#747 = ORIENTED_EDGE ( 'NONE', *, *, #509, .T. ) ;
#748 = DATE_TIME_ROLE ( 'creation_date' ) ;
#749 = EDGE_CURVE ( 'NONE', #200, #632, #107, .T. ) ;
#750 = DIRECTION ( 'NONE',  ( 0.000000000000000000, -1.000000000000000000, 0.000000000000000000 ) ) ;
#751 = FACE_OUTER_BOUND ( 'NONE', #642, .T. ) ;
#752 = EDGE_LOOP ( 'NONE', ( #2, #773, #495, #596 ) ) ;
#753 = DATE_AND_TIME ( #519, #439 ) ;
#754 = AXIS2_PLACEMENT_3D ( 'NONE', #65, #418, #675 ) ;
#755 = FACE_OUTER_BOUND ( 'NONE', #118, .T. ) ;
#756 = CARTESIAN_POINT ( 'NONE',  ( 4.249999999999983125, -55.00000000000000000, -28.29779015821748445 ) ) ;
#757 = EDGE_LOOP ( 'NONE', ( #594, #726, #125, #687 ) ) ;
#758 = CARTESIAN_POINT ( 'NONE',  ( 11.24999999999990585, -50.00000000000002132, -133.2705803164349732 ) ) ;
#759 = DIRECTION ( 'NONE',  ( -1.000000000000000000, 1.387778780781445429E-16, -0.000000000000000000 ) ) ;
#760 = VERTEX_POINT ( 'NONE', #167 ) ;
#761 = CC_DESIGN_PERSON_AND_ORGANIZATION_ASSIGNMENT ( #450, #534, ( #267 ) ) ;
#762 = DIRECTION ( 'NONE',  ( 0.000000000000000000, 0.000000000000000000, 1.000000000000000000 ) ) ;
#763 = CYLINDRICAL_SURFACE ( 'NONE', #202, 1.499999999999994449 ) ;
#764 = DIRECTION ( 'NONE',  ( -1.000000000000000000, 1.387778780781445429E-16, -0.000000000000000000 ) ) ;
#765 = VERTEX_POINT ( 'NONE', #102 ) ;
#766 = FACE_BOUND ( 'NONE', #228, .T. ) ;
#767 = EDGE_LOOP ( 'NONE', ( #225, #417, #645, #648 ) ) ;
#768 = VECTOR ( 'NONE', #609, 1000.000000000000000 ) ;
#769 = AXIS2_PLACEMENT_3D ( 'NONE', #197, #80, #490 ) ;
#770 = DIRECTION ( 'NONE',  ( -1.157007016949078954E-16, -0.000000000000000000, 1.000000000000000000 ) ) ;
#771 = APPROVAL_PERSON_ORGANIZATION ( #169, #391, #406 ) ;
#772 =( NAMED_UNIT ( * ) PLANE_ANGLE_UNIT ( ) SI_UNIT ( $, .RADIAN. ) );
#773 = ORIENTED_EDGE ( 'NONE', *, *, #43, .T. ) ;
#774 = APPLICATION_PROTOCOL_DEFINITION ( 'international standard', 'config_control_design', 1994, #273 ) ;
#775 = DIRECTION ( 'NONE',  ( 0.000000000000000000, 0.000000000000000000, 1.000000000000000000 ) ) ;
#776 = FACE_OUTER_BOUND ( 'NONE', #585, .T. ) ;
#777 = ORIENTED_EDGE ( 'NONE', *, *, #428, .F. ) ;
#778 = LINE ( 'NONE', #669, #334 ) ;
#779 = ORIENTED_EDGE ( 'NONE', *, *, #432, .T. ) ;
ENDSEC;
END-ISO-10303-21;
