ISO-10303-21;
HEADER;
FILE_DESCRIPTION (( 'STEP AP203' ),
    '1' );
FILE_NAME ('guide channel adjuster 2.STEP',
    '2026-06-02T08:28:05',
    ( '' ),
    ( '' ),
    'SwSTEP 2.0',
    'SolidWorks 2024',
    '' );
FILE_SCHEMA (( 'CONFIG_CONTROL_DESIGN' ));
ENDSEC;

DATA;
#1 = VECTOR ( 'NONE', #733, 1000.000000000000000 ) ;
#2 = AXIS2_PLACEMENT_3D ( 'NONE', #378, #230, #513 ) ;
#3 = CIRCLE ( 'NONE', #161, 3.050000000000024691 ) ;
#4 = CARTESIAN_POINT ( 'NONE',  ( 11.00000000000001243, -2.299999999999999822, 117.0000000000000000 ) ) ;
#5 = LINE ( 'NONE', #285, #207 ) ;
#6 = ORIENTED_EDGE ( 'NONE', *, *, #151, .T. ) ;
#7 = CC_DESIGN_PERSON_AND_ORGANIZATION_ASSIGNMENT ( #847, #250, ( #565 ) ) ;
#8 = EDGE_CURVE ( 'NONE', #773, #669, #295, .T. ) ;
#9 = DIRECTION ( 'NONE',  ( 0.000000000000000000, 1.000000000000000000, 0.000000000000000000 ) ) ;
#10 = ORIENTED_EDGE ( 'NONE', *, *, #97, .F. ) ;
#11 = CARTESIAN_POINT ( 'NONE',  ( 11.00000000000000355, 0.000000000000000000, 200.5500000000000398 ) ) ;
#12 = CARTESIAN_POINT ( 'NONE',  ( 11.00000000000000533, 0.000000000000000000, 197.5000000000000284 ) ) ;
#13 = ORIENTED_EDGE ( 'NONE', *, *, #434, .F. ) ;
#14 = PLANE ( 'NONE',  #515 ) ;
#15 = EDGE_CURVE ( 'NONE', #231, #437, #108, .T. ) ;
#16 = VECTOR ( 'NONE', #639, 1000.000000000000000 ) ;
#17 = DATE_AND_TIME ( #654, #235 ) ;
#18 = VECTOR ( 'NONE', #530, 1000.000000000000000 ) ;
#19 = PLANE ( 'NONE',  #120 ) ;
#20 = EDGE_LOOP ( 'NONE', ( #747, #325, #62, #738 ) ) ;
#21 = LINE ( 'NONE', #587, #78 ) ;
#22 = CARTESIAN_POINT ( 'NONE',  ( 0.000000000000000000, 0.000000000000000000, 0.000000000000000000 ) ) ;
#23 = DIRECTION ( 'NONE',  ( 1.000000000000000000, 0.000000000000000000, -0.000000000000000000 ) ) ;
#24 = ORIENTED_EDGE ( 'NONE', *, *, #495, .T. ) ;
#25 = LINE ( 'NONE', #304, #423 ) ;
#26 = FACE_BOUND ( 'NONE', #807, .T. ) ;
#27 = CARTESIAN_POINT ( 'NONE',  ( 20.00000000000002132, -2.299999999999999822, 5.000000000000004441 ) ) ;
#28 = ORIENTED_EDGE ( 'NONE', *, *, #301, .T. ) ;
#29 = ADVANCED_FACE ( 'NONE', ( #381 ), #878, .T. ) ;
#30 = VERTEX_POINT ( 'NONE', #583 ) ;
#31 = AXIS2_PLACEMENT_3D ( 'NONE', #377, #499, #589 ) ;
#32 = VECTOR ( 'NONE', #326, 1000.000000000000000 ) ;
#33 = DIRECTION ( 'NONE',  ( 0.000000000000000000, 1.000000000000000000, 0.000000000000000000 ) ) ;
#34 = VECTOR ( 'NONE', #211, 1000.000000000000000 ) ;
#35 = ORIENTED_EDGE ( 'NONE', *, *, #592, .F. ) ;
#36 = DIRECTION ( 'NONE',  ( 1.000000000000000000, 0.000000000000000000, 0.000000000000000000 ) ) ;
#37 = ADVANCED_FACE ( 'NONE', ( #445 ), #160, .T. ) ;
#38 = CARTESIAN_POINT ( 'NONE',  ( 24.99999999999999289, 0.000000000000000000, 225.0000000000000000 ) ) ;
#39 = ORIENTED_EDGE ( 'NONE', *, *, #609, .F. ) ;
#40 = DIRECTION ( 'NONE',  ( -0.000000000000000000, 1.000000000000000000, -0.000000000000000000 ) ) ;
#41 = CARTESIAN_POINT ( 'NONE',  ( 11.00000000000001243, 0.000000000000000000, 117.0000000000000000 ) ) ;
#42 = ORIENTED_EDGE ( 'NONE', *, *, #707, .T. ) ;
#43 = CARTESIAN_POINT ( 'NONE',  ( 11.00000000000000533, -2.299999999999999822, 197.5000000000000284 ) ) ;
#44 = EDGE_CURVE ( 'NONE', #72, #379, #308, .T. ) ;
#45 = AXIS2_PLACEMENT_3D ( 'NONE', #22, #594, #429 ) ;
#46 = DIRECTION ( 'NONE',  ( 0.000000000000000000, 0.000000000000000000, 1.000000000000000000 ) ) ;
#47 = ORIENTED_EDGE ( 'NONE', *, *, #857, .T. ) ;
#48 = AXIS2_PLACEMENT_3D ( 'NONE', #414, #200, #924 ) ;
#49 = AXIS2_PLACEMENT_3D ( 'NONE', #279, #269, #345 ) ;
#50 = LINE ( 'NONE', #402, #148 ) ;
#51 = VECTOR ( 'NONE', #721, 1000.000000000000000 ) ;
#52 = CARTESIAN_POINT ( 'NONE',  ( 4.999999999999994671, 0.000000000000000000, 225.0000000000000000 ) ) ;
#53 = EDGE_LOOP ( 'NONE', ( #792, #478, #903, #28 ) ) ;
#54 = LINE ( 'NONE', #829, #310 ) ;
#55 = VERTEX_POINT ( 'NONE', #516 ) ;
#56 = DIRECTION ( 'NONE',  ( 0.000000000000000000, 1.000000000000000000, 0.000000000000000000 ) ) ;
#57 = ORIENTED_EDGE ( 'NONE', *, *, #599, .F. ) ;
#58 = CARTESIAN_POINT ( 'NONE',  ( 19.00000000000000000, -2.299999999999999822, 197.5000000000000284 ) ) ;
#59 = EDGE_CURVE ( 'NONE', #454, #697, #249, .T. ) ;
#60 = SECURITY_CLASSIFICATION_LEVEL ( 'unclassified' ) ;
#61 = FACE_BOUND ( 'NONE', #511, .T. ) ;
#62 = ORIENTED_EDGE ( 'NONE', *, *, #918, .F. ) ;
#63 = PLANE ( 'NONE',  #613 ) ;
#64 = AXIS2_PLACEMENT_3D ( 'NONE', #500, #9, #411 ) ;
#65 = EDGE_CURVE ( 'NONE', #493, #353, #815, .T. ) ;
#66 = VECTOR ( 'NONE', #882, 1000.000000000000000 ) ;
#67 = CARTESIAN_POINT ( 'NONE',  ( 4.999999999999969802, -2.299999999999999822, 0.000000000000000000 ) ) ;
#68 = DIRECTION ( 'NONE',  ( 0.000000000000000000, 1.000000000000000000, 0.000000000000000000 ) ) ;
#69 = ORIENTED_EDGE ( 'NONE', *, *, #748, .F. ) ;
#70 = DIRECTION ( 'NONE',  ( -0.000000000000000000, 1.000000000000000000, -0.000000000000000000 ) ) ;
#71 = CARTESIAN_POINT ( 'NONE',  ( -3.331086545984695224, -1.000000000000000000, 160.0000000000000000 ) ) ;
#72 = VERTEX_POINT ( 'NONE', #885 ) ;
#73 = EDGE_CURVE ( 'NONE', #174, #523, #603, .T. ) ;
#74 = DIRECTION ( 'NONE',  ( 1.000000000000000000, 0.000000000000000000, 0.000000000000000000 ) ) ;
#75 = EDGE_CURVE ( 'NONE', #322, #787, #470, .T. ) ;
#76 = DIRECTION ( 'NONE',  ( 7.377222689365534709E-17, -0.9563047559630373229, -0.2923717047227309962 ) ) ;
#77 = EDGE_LOOP ( 'NONE', ( #558, #616, #183, #692 ) ) ;
#78 = VECTOR ( 'NONE', #679, 1000.000000000000000 ) ;
#79 = VECTOR ( 'NONE', #646, 1000.000000000000114 ) ;
#80 = CARTESIAN_POINT ( 'NONE',  ( 24.99999999999998224, -1.000000000000000000, 160.0000000000000000 ) ) ;
#81 = DIRECTION ( 'NONE',  ( -1.131341397376178572E-16, 0.000000000000000000, -1.000000000000000000 ) ) ;
#82 = ORIENTED_EDGE ( 'NONE', *, *, #649, .T. ) ;
#83 = LINE ( 'NONE', #11, #805 ) ;
#84 = DIRECTION ( 'NONE',  ( -1.000000000000000000, 0.000000000000000000, -0.000000000000000000 ) ) ;
#85 = ORIENTED_EDGE ( 'NONE', *, *, #301, .F. ) ;
#86 = EDGE_CURVE ( 'NONE', #877, #663, #852, .T. ) ;
#87 = APPLICATION_PROTOCOL_DEFINITION ( 'international standard', 'config_control_design', 1994, #343 ) ;
#88 = DIRECTION ( 'NONE',  ( -1.000000000000000000, 0.000000000000000000, 0.000000000000000000 ) ) ;
#89 = ORIENTED_EDGE ( 'NONE', *, *, #707, .F. ) ;
#90 = CARTESIAN_POINT ( 'NONE',  ( 25.00000000000002132, -2.299999999999999822, 2.449293598294712824E-15 ) ) ;
#91 = AXIS2_PLACEMENT_3D ( 'NONE', #753, #474, #771 ) ;
#92 = AXIS2_PLACEMENT_3D ( 'NONE', #781, #341, #772 ) ;
#93 = PERSON_AND_ORGANIZATION ( #739, #851 ) ;
#94 = DIRECTION ( 'NONE',  ( -1.206764157201257045E-16, -0.000000000000000000, 1.000000000000000000 ) ) ;
#95 = ORIENTED_EDGE ( 'NONE', *, *, #723, .F. ) ;
#96 = DIRECTION ( 'NONE',  ( 1.000000000000000000, -0.000000000000000000, 2.523234146875355998E-16 ) ) ;
#97 = EDGE_CURVE ( 'NONE', #333, #759, #664, .T. ) ;
#98 = CARTESIAN_POINT ( 'NONE',  ( 19.00000000000001066, -2.299999999999999822, 113.9499999999999886 ) ) ;
#99 = VERTEX_POINT ( 'NONE', #660 ) ;
#100 = DIRECTION ( 'NONE',  ( -0.000000000000000000, -1.000000000000000000, -0.000000000000000000 ) ) ;
#101 = EDGE_CURVE ( 'NONE', #787, #695, #172, .T. ) ;
#102 = DIRECTION ( 'NONE',  ( 1.000000000000000000, 0.000000000000000000, 2.523234146875355998E-16 ) ) ;
#103 = ORIENTED_EDGE ( 'NONE', *, *, #653, .F. ) ;
#104 = DIRECTION ( 'NONE',  ( -1.000000000000000000, -0.000000000000000000, -0.000000000000000000 ) ) ;
#105 = CIRCLE ( 'NONE', #657, 3.049999999999997158 ) ;
#106 = LINE ( 'NONE', #622, #823 ) ;
#107 = ORIENTED_EDGE ( 'NONE', *, *, #918, .T. ) ;
#108 = LINE ( 'NONE', #593, #820 ) ;
#109 = CARTESIAN_POINT ( 'NONE',  ( 19.99999999999999289, -2.299999999999999822, 225.0000000000000000 ) ) ;
#110 = ORIENTED_EDGE ( 'NONE', *, *, #217, .F. ) ;
#111 = CARTESIAN_POINT ( 'NONE',  ( 4.999999999999995559, -2.299999999999999822, 230.0000000000000000 ) ) ;
#112 = EDGE_CURVE ( 'NONE', #706, #375, #25, .T. ) ;
#113 = ADVANCED_FACE ( 'NONE', ( #528 ), #14, .F. ) ;
#114 = DIRECTION ( 'NONE',  ( 0.000000000000000000, -1.000000000000000000, 0.000000000000000000 ) ) ;
#115 = ORIENTED_EDGE ( 'NONE', *, *, #452, .F. ) ;
#116 = CARTESIAN_POINT ( 'NONE',  ( 19.00000000000001066, -2.299999999999999822, 113.9499999999999886 ) ) ;
#117 = LINE ( 'NONE', #912, #251 ) ;
#118 = ORIENTED_EDGE ( 'NONE', *, *, #812, .F. ) ;
#119 = VECTOR ( 'NONE', #255, 1000.000000000000000 ) ;
#120 = AXIS2_PLACEMENT_3D ( 'NONE', #313, #360, #23 ) ;
#121 = DIRECTION ( 'NONE',  ( 0.000000000000000000, 0.000000000000000000, -1.000000000000000000 ) ) ;
#122 = LINE ( 'NONE', #818, #396 ) ;
#123 = VERTEX_POINT ( 'NONE', #366 ) ;
#124 = EDGE_CURVE ( 'NONE', #875, #899, #21, .T. ) ;
#125 = CARTESIAN_POINT ( 'NONE',  ( 11.00000000000000355, 0.000000000000000000, 29.44999999999997442 ) ) ;
#126 = CARTESIAN_POINT ( 'NONE',  ( 11.00000000000001243, -2.299999999999999822, 120.0500000000000398 ) ) ;
#127 = ORIENTED_EDGE ( 'NONE', *, *, #831, .T. ) ;
#128 = EDGE_CURVE ( 'NONE', #375, #178, #54, .T. ) ;
#129 = CARTESIAN_POINT ( 'NONE',  ( 9.999999999999971578, -2.299999999999999822, 5.000000000000000888 ) ) ;
#130 = DESIGN_CONTEXT ( 'detailed design', #343, 'design' ) ;
#131 = CARTESIAN_POINT ( 'NONE',  ( 11.00000000000001243, 0.000000000000000000, 120.0500000000000398 ) ) ;
#132 = ORIENTED_EDGE ( 'NONE', *, *, #233, .F. ) ;
#133 = CARTESIAN_POINT ( 'NONE',  ( 25.00000000000000000, -1.000000000000000000, 165.0000000000000000 ) ) ;
#134 = CIRCLE ( 'NONE', #190, 3.049999999999997158 ) ;
#135 = ORIENTED_EDGE ( 'NONE', *, *, #234, .T. ) ;
#136 = VECTOR ( 'NONE', #845, 1000.000000000000000 ) ;
#137 = AXIS2_PLACEMENT_3D ( 'NONE', #139, #346, #804 ) ;
#138 = PLANE ( 'NONE',  #790 ) ;
#139 = CARTESIAN_POINT ( 'NONE',  ( 20.00000000000002132, 0.000000000000000000, 5.000000000000004441 ) ) ;
#140 = CC_DESIGN_DATE_AND_TIME_ASSIGNMENT ( #288, #584, ( #830 ) ) ;
#141 = ADVANCED_FACE ( 'NONE', ( #321 ), #606, .F. ) ;
#142 = PLANE ( 'NONE',  #568 ) ;
#143 = CYLINDRICAL_SURFACE ( 'NONE', #729, 5.000000000000000888 ) ;
#144 = EDGE_LOOP ( 'NONE', ( #213, #159, #175, #428 ) ) ;
#145 = LINE ( 'NONE', #409, #210 ) ;
#146 = DIRECTION ( 'NONE',  ( 0.000000000000000000, 0.000000000000000000, 1.000000000000000000 ) ) ;
#147 = ORIENTED_EDGE ( 'NONE', *, *, #75, .T. ) ;
#148 = VECTOR ( 'NONE', #459, 1000.000000000000000 ) ;
#149 = CIRCLE ( 'NONE', #703, 5.000000000000004441 ) ;
#150 = FACE_OUTER_BOUND ( 'NONE', #874, .T. ) ;
#151 = EDGE_CURVE ( 'NONE', #743, #713, #399, .T. ) ;
#152 = CARTESIAN_POINT ( 'NONE',  ( -3.331086545984695224, -1.000000000000000000, 165.0000000000000000 ) ) ;
#153 = ORIENTED_EDGE ( 'NONE', *, *, #151, .F. ) ;
#154 = DIRECTION ( 'NONE',  ( 0.000000000000000000, 0.000000000000000000, -1.000000000000000000 ) ) ;
#155 = CARTESIAN_POINT ( 'NONE',  ( 24.99999999999999289, 0.000000000000000000, 230.0000000000000000 ) ) ;
#156 = ORIENTED_EDGE ( 'NONE', *, *, #861, .F. ) ;
#157 = ORIENTED_EDGE ( 'NONE', *, *, #44, .F. ) ;
#158 = CARTESIAN_POINT ( 'NONE',  ( -3.331086545984695224, -1.000000000000000000, 165.0000000000000000 ) ) ;
#159 = ORIENTED_EDGE ( 'NONE', *, *, #222, .F. ) ;
#160 = PLANE ( 'NONE',  #410 ) ;
#161 = AXIS2_PLACEMENT_3D ( 'NONE', #802, #797, #154 ) ;
#162 = VECTOR ( 'NONE', #895, 1000.000000000000000 ) ;
#163 = AXIS2_PLACEMENT_3D ( 'NONE', #348, #641, #700 ) ;
#164 = CARTESIAN_POINT ( 'NONE',  ( 11.00000000000000355, -2.299999999999999822, 29.44999999999997442 ) ) ;
#165 = EDGE_LOOP ( 'NONE', ( #6, #344, #294, #135 ) ) ;
#166 = CARTESIAN_POINT ( 'NONE',  ( -3.331086545984695224, -1.000000000000000000, 165.0000000000000000 ) ) ;
#167 = CC_DESIGN_PERSON_AND_ORGANIZATION_ASSIGNMENT ( #816, #745, ( #565 ) ) ;
#168 = EDGE_CURVE ( 'NONE', #701, #431, #699, .T. ) ;
#169 = PERSON_AND_ORGANIZATION ( #739, #851 ) ;
#170 = CARTESIAN_POINT ( 'NONE',  ( 19.00000000000000000, 0.000000000000000000, 29.44999999999997442 ) ) ;
#171 = ORIENTED_EDGE ( 'NONE', *, *, #128, .F. ) ;
#172 = LINE ( 'NONE', #450, #900 ) ;
#173 = CARTESIAN_POINT ( 'NONE',  ( 19.00000000000001066, -2.299999999999999822, 120.0500000000000398 ) ) ;
#174 = VERTEX_POINT ( 'NONE', #125 ) ;
#175 = ORIENTED_EDGE ( 'NONE', *, *, #59, .T. ) ;
#176 = AXIS2_PLACEMENT_3D ( 'NONE', #749, #740, #652 ) ;
#177 = CARTESIAN_POINT ( 'NONE',  ( 19.00000000000000000, -2.299999999999999822, 35.54999999999996874 ) ) ;
#178 = VERTEX_POINT ( 'NONE', #197 ) ;
#179 = EDGE_CURVE ( 'NONE', #178, #773, #836, .T. ) ;
#180 = DIRECTION ( 'NONE',  ( 0.000000000000000000, 0.000000000000000000, 1.000000000000000000 ) ) ;
#181 = ORIENTED_EDGE ( 'NONE', *, *, #233, .T. ) ;
#182 = LINE ( 'NONE', #832, #311 ) ;
#183 = ORIENTED_EDGE ( 'NONE', *, *, #275, .F. ) ;
#184 = CARTESIAN_POINT ( 'NONE',  ( 9.999999999999996447, -2.299999999999999822, 225.0000000000000000 ) ) ;
#185 = DIRECTION ( 'NONE',  ( 0.000000000000000000, 0.000000000000000000, -1.000000000000000000 ) ) ;
#186 = ORIENTED_EDGE ( 'NONE', *, *, #15, .T. ) ;
#187 = CARTESIAN_POINT ( 'NONE',  ( 24.99999999999999289, -2.299999999999999822, 225.0000000000000000 ) ) ;
#188 = DIRECTION ( 'NONE',  ( 0.000000000000000000, 0.000000000000000000, -1.000000000000000000 ) ) ;
#189 = ORIENTED_EDGE ( 'NONE', *, *, #368, .F. ) ;
#190 = AXIS2_PLACEMENT_3D ( 'NONE', #58, #694, #334 ) ;
#191 = AXIS2_PLACEMENT_3D ( 'NONE', #152, #730, #293 ) ;
#192 = LINE ( 'NONE', #617, #32 ) ;
#193 = ORIENTED_EDGE ( 'NONE', *, *, #447, .F. ) ;
#194 = EDGE_CURVE ( 'NONE', #669, #290, #192, .T. ) ;
#195 = CARTESIAN_POINT ( 'NONE',  ( 11.00000000000000355, -2.299999999999999822, 29.44999999999997442 ) ) ;
#196 = VERTEX_POINT ( 'NONE', #331 ) ;
#197 = CARTESIAN_POINT ( 'NONE',  ( 9.999999999999996447, -2.299999999999999822, 230.0000000000000000 ) ) ;
#198 = FACE_BOUND ( 'NONE', #20, .T. ) ;
#199 = EDGE_LOOP ( 'NONE', ( #799, #819, #303, #458 ) ) ;
#200 = DIRECTION ( 'NONE',  ( 0.000000000000000000, 1.000000000000000000, 0.000000000000000000 ) ) ;
#201 = ORIENTED_EDGE ( 'NONE', *, *, #495, .F. ) ;
#202 = DATE_AND_TIME ( #312, #569 ) ;
#203 = APPLICATION_CONTEXT ( 'configuration controlled 3d designs of mechanical parts and assemblies' ) ;
#204 = CARTESIAN_POINT ( 'NONE',  ( 24.99999999999998579, -3.903127820947815962E-15, 156.7291473815158156 ) ) ;
#205 = APPROVAL_PERSON_ORGANIZATION ( #241, #518, #841 ) ;
#206 = DIRECTION ( 'NONE',  ( -0.000000000000000000, -1.000000000000000000, -0.000000000000000000 ) ) ;
#207 = VECTOR ( 'NONE', #647, 1000.000000000000000 ) ;
#208 = ORIENTED_EDGE ( 'NONE', *, *, #579, .T. ) ;
#209 = EDGE_CURVE ( 'NONE', #231, #123, #134, .T. ) ;
#210 = VECTOR ( 'NONE', #923, 1000.000000000000000 ) ;
#211 = DIRECTION ( 'NONE',  ( 1.000000000000000000, -0.000000000000000000, 2.523234146875355998E-16 ) ) ;
#212 = LINE ( 'NONE', #218, #865 ) ;
#213 = ORIENTED_EDGE ( 'NONE', *, *, #872, .F. ) ;
#214 = CARTESIAN_POINT ( 'NONE',  ( 25.00000000000002132, -2.299999999999999822, 2.449293598294712824E-15 ) ) ;
#215 = CARTESIAN_POINT ( 'NONE',  ( 19.00000000000000000, -2.299999999999999822, 29.44999999999997442 ) ) ;
#216 = EDGE_LOOP ( 'NONE', ( #846, #224, #905, #364, #243, #412, #127, #156 ) ) ;
#217 = EDGE_CURVE ( 'NONE', #775, #30, #105, .T. ) ;
#218 = CARTESIAN_POINT ( 'NONE',  ( 4.999999999999988454, -1.000000000000000000, 165.0000000000000000 ) ) ;
#219 = ORIENTED_EDGE ( 'NONE', *, *, #287, .T. ) ;
#220 = AXIS2_PLACEMENT_3D ( 'NONE', #760, #554, #121 ) ;
#221 = AXIS2_PLACEMENT_3D ( 'NONE', #12, #873, #430 ) ;
#222 = EDGE_CURVE ( 'NONE', #454, #564, #756, .T. ) ;
#223 = FACE_OUTER_BOUND ( 'NONE', #485, .T. ) ;
#224 = ORIENTED_EDGE ( 'NONE', *, *, #340, .F. ) ;
#225 = DIRECTION ( 'NONE',  ( -0.000000000000000000, 1.000000000000000000, -0.000000000000000000 ) ) ;
#226 = DIRECTION ( 'NONE',  ( -0.000000000000000000, 1.000000000000000000, -0.000000000000000000 ) ) ;
#227 = EDGE_LOOP ( 'NONE', ( #347, #490, #110, #839 ) ) ;
#228 = ORIENTED_EDGE ( 'NONE', *, *, #907, .F. ) ;
#229 = PLANE ( 'NONE',  #45 ) ;
#230 = DIRECTION ( 'NONE',  ( -1.000000000000000000, 0.000000000000000000, -1.206764157201257045E-16 ) ) ;
#231 = VERTEX_POINT ( 'NONE', #390 ) ;
#232 = DIRECTION ( 'NONE',  ( -0.000000000000000000, 1.000000000000000000, -0.000000000000000000 ) ) ;
#233 = EDGE_CURVE ( 'NONE', #290, #254, #908, .T. ) ;
#234 = EDGE_CURVE ( 'NONE', #663, #743, #50, .T. ) ;
#235 = LOCAL_TIME ( 10, 28, 5.000000000000000000, #362 ) ;
#236 = VECTOR ( 'NONE', #684, 1000.000000000000000 ) ;
#237 = AXIS2_PLACEMENT_3D ( 'NONE', #374, #427, #84 ) ;
#238 = DIRECTION ( 'NONE',  ( 0.000000000000000000, 0.000000000000000000, 1.000000000000000000 ) ) ;
#239 = EDGE_LOOP ( 'NONE', ( #828, #270, #602, #605 ) ) ;
#240 = DIRECTION ( 'NONE',  ( -0.000000000000000000, -1.000000000000000000, -0.000000000000000000 ) ) ;
#241 = PERSON_AND_ORGANIZATION ( #739, #851 ) ;
#242 = CARTESIAN_POINT ( 'NONE',  ( 19.00000000000000000, -2.299999999999999822, 32.49999999999997158 ) ) ;
#243 = ORIENTED_EDGE ( 'NONE', *, *, #505, .F. ) ;
#244 = DIRECTION ( 'NONE',  ( 0.000000000000000000, 1.000000000000000000, 0.000000000000000000 ) ) ;
#245 = ADVANCED_FACE ( 'NONE', ( #840 ), #821, .T. ) ;
#246 = CARTESIAN_POINT ( 'NONE',  ( 11.00000000000000355, -2.299999999999999822, 29.44999999999997442 ) ) ;
#247 = ORIENTED_EDGE ( 'NONE', *, *, #350, .F. ) ;
#248 = DIRECTION ( 'NONE',  ( 0.000000000000000000, 0.000000000000000000, 1.000000000000000000 ) ) ;
#249 = CIRCLE ( 'NONE', #176, 3.050000000000024691 ) ;
#250 = PERSON_AND_ORGANIZATION_ROLE ( 'design_supplier' ) ;
#251 = VECTOR ( 'NONE', #252, 1000.000000000000000 ) ;
#252 = DIRECTION ( 'NONE',  ( -1.000000000000000000, -0.000000000000000000, -0.000000000000000000 ) ) ;
#253 = VECTOR ( 'NONE', #94, 1000.000000000000000 ) ;
#254 = VERTEX_POINT ( 'NONE', #480 ) ;
#255 = DIRECTION ( 'NONE',  ( 1.000000000000000000, -0.000000000000000000, 1.224646799147353454E-16 ) ) ;
#256 = DIRECTION ( 'NONE',  ( 0.000000000000000000, 0.000000000000000000, -1.000000000000000000 ) ) ;
#257 = ORIENTED_EDGE ( 'NONE', *, *, #592, .T. ) ;
#258 = DIRECTION ( 'NONE',  ( 0.000000000000000000, 1.000000000000000000, 0.000000000000000000 ) ) ;
#259 = EDGE_CURVE ( 'NONE', #493, #290, #393, .T. ) ;
#260 = CARTESIAN_POINT ( 'NONE',  ( 9.999999999999971578, -2.299999999999999822, 6.123233995736764310E-16 ) ) ;
#261 = EDGE_LOOP ( 'NONE', ( #314, #118, #82, #186 ) ) ;
#262 = CARTESIAN_POINT ( 'NONE',  ( 4.999999999999988454, -1.000000000000000000, 165.0000000000000000 ) ) ;
#263 = ADVANCED_FACE ( 'NONE', ( #624 ), #544, .F. ) ;
#264 = CARTESIAN_POINT ( 'NONE',  ( 19.00000000000001066, 0.000000000000000000, 117.0000000000000000 ) ) ;
#265 = ORIENTED_EDGE ( 'NONE', *, *, #718, .T. ) ;
#266 = VECTOR ( 'NONE', #258, 1000.000000000000000 ) ;
#267 = AXIS2_PLACEMENT_3D ( 'NONE', #909, #813, #827 ) ;
#268 = CARTESIAN_POINT ( 'NONE',  ( 19.00000000000000000, 0.000000000000000000, 35.54999999999996874 ) ) ;
#269 = DIRECTION ( 'NONE',  ( 0.000000000000000000, 1.000000000000000000, 0.000000000000000000 ) ) ;
#270 = ORIENTED_EDGE ( 'NONE', *, *, #65, .T. ) ;
#271 = CARTESIAN_POINT ( 'NONE',  ( 20.00000000000002132, -2.299999999999999822, 1.836970198721036294E-15 ) ) ;
#272 = APPROVAL_STATUS ( 'not_yet_approved' ) ;
#273 = EDGE_CURVE ( 'NONE', #473, #99, #767, .T. ) ;
#274 = CARTESIAN_POINT ( 'NONE',  ( 19.00000000000001066, -2.299999999999999822, 113.9499999999999886 ) ) ;
#275 = EDGE_CURVE ( 'NONE', #286, #178, #386, .T. ) ;
#276 = DIRECTION ( 'NONE',  ( -0.000000000000000000, 1.000000000000000000, -0.000000000000000000 ) ) ;
#277 = EDGE_LOOP ( 'NONE', ( #371, #744, #856, #257 ) ) ;
#278 = UNCERTAINTY_MEASURE_WITH_UNIT (LENGTH_MEASURE( 1.000000000000000082E-05 ), #862, 'distance_accuracy_value', 'NONE');
#279 = CARTESIAN_POINT ( 'NONE',  ( 19.99999999999999289, 0.000000000000000000, 225.0000000000000000 ) ) ;
#280 = DIRECTION ( 'NONE',  ( 0.000000000000000000, 0.000000000000000000, 1.000000000000000000 ) ) ;
#281 = AXIS2_PLACEMENT_3D ( 'NONE', #184, #541, #180 ) ;
#282 = ORIENTED_EDGE ( 'NONE', *, *, #407, .F. ) ;
#283 = VECTOR ( 'NONE', #404, 1000.000000000000000 ) ;
#284 = FACE_BOUND ( 'NONE', #277, .T. ) ;
#285 = CARTESIAN_POINT ( 'NONE',  ( 11.00000000000000355, -2.299999999999999822, 200.5500000000000398 ) ) ;
#286 = VERTEX_POINT ( 'NONE', #687 ) ;
#287 = EDGE_CURVE ( 'NONE', #437, #850, #439, .T. ) ;
#288 = DATE_AND_TIME ( #741, #349 ) ;
#289 = FACE_OUTER_BOUND ( 'NONE', #199, .T. ) ;
#290 = VERTEX_POINT ( 'NONE', #859 ) ;
#291 = ADVANCED_FACE ( 'NONE', ( #406 ), #418, .T. ) ;
#292 =( NAMED_UNIT ( * ) SI_UNIT ( $, .STERADIAN. ) SOLID_ANGLE_UNIT ( ) );
#293 = DIRECTION ( 'NONE',  ( 0.000000000000000000, 0.000000000000000000, -1.000000000000000000 ) ) ;
#294 = ORIENTED_EDGE ( 'NONE', *, *, #857, .F. ) ;
#295 = LINE ( 'NONE', #300, #1 ) ;
#296 = VECTOR ( 'NONE', #355, 1000.000000000000000 ) ;
#297 = COORDINATED_UNIVERSAL_TIME_OFFSET ( 1, 0, .AHEAD. ) ;
#298 = FACE_OUTER_BOUND ( 'NONE', #461, .T. ) ;
#299 = ORIENTED_EDGE ( 'NONE', *, *, #627, .F. ) ;
#300 = CARTESIAN_POINT ( 'NONE',  ( 4.999999999999994671, -2.299999999999999822, 225.0000000000000000 ) ) ;
#301 = EDGE_CURVE ( 'NONE', #123, #850, #709, .T. ) ;
#302 = CYLINDRICAL_SURFACE ( 'NONE', #600, 5.000000000000000888 ) ;
#303 = ORIENTED_EDGE ( 'NONE', *, *, #861, .T. ) ;
#304 = CARTESIAN_POINT ( 'NONE',  ( 4.999999999999995559, 0.000000000000000000, 230.0000000000000000 ) ) ;
#305 = DIRECTION ( 'NONE',  ( 0.000000000000000000, 0.000000000000000000, 1.000000000000000000 ) ) ;
#306 = FACE_OUTER_BOUND ( 'NONE', #239, .T. ) ;
#307 = ORIENTED_EDGE ( 'NONE', *, *, #368, .T. ) ;
#308 = LINE ( 'NONE', #890, #501 ) ;
#309 = AXIS2_PLACEMENT_3D ( 'NONE', #504, #305, #880 ) ;
#310 = VECTOR ( 'NONE', #612, 1000.000000000000000 ) ;
#311 = VECTOR ( 'NONE', #893, 1000.000000000000000 ) ;
#312 = CALENDAR_DATE ( 2026, 2, 6 ) ;
#313 = CARTESIAN_POINT ( 'NONE',  ( 19.00000000000000000, -2.299999999999999822, 194.4500000000000455 ) ) ;
#314 = ORIENTED_EDGE ( 'NONE', *, *, #698, .F. ) ;
#315 = DIRECTION ( 'NONE',  ( 0.000000000000000000, 0.000000000000000000, 1.000000000000000000 ) ) ;
#316 = DIRECTION ( 'NONE',  ( 0.000000000000000000, 0.000000000000000000, 1.000000000000000000 ) ) ;
#317 = ORIENTED_EDGE ( 'NONE', *, *, #757, .T. ) ;
#318 = DIRECTION ( 'NONE',  ( 0.000000000000000000, -1.000000000000000000, 0.000000000000000000 ) ) ;
#319 = CARTESIAN_POINT ( 'NONE',  ( 19.00000000000000000, 0.000000000000000000, 32.49999999999997158 ) ) ;
#320 = ORIENTED_EDGE ( 'NONE', *, *, #680, .F. ) ;
#321 = FACE_OUTER_BOUND ( 'NONE', #401, .T. ) ;
#322 = VERTEX_POINT ( 'NONE', #271 ) ;
#323 = CIRCLE ( 'NONE', #48, 5.000000000000000888 ) ;
#324 = CARTESIAN_POINT ( 'NONE',  ( 11.00000000000000533, 0.000000000000000000, 194.4500000000000455 ) ) ;
#325 = ORIENTED_EDGE ( 'NONE', *, *, #757, .F. ) ;
#326 = DIRECTION ( 'NONE',  ( -1.131341397376178572E-16, -0.000000000000000000, -1.000000000000000000 ) ) ;
#327 = CYLINDRICAL_SURFACE ( 'NONE', #614, 3.049999999999997158 ) ;
#328 = VERTEX_POINT ( 'NONE', #215 ) ;
#329 = APPROVAL ( #607, 'UNSPECIFIED' ) ;
#330 = EDGE_CURVE ( 'NONE', #328, #523, #342, .T. ) ;
#331 = CARTESIAN_POINT ( 'NONE',  ( 19.00000000000000000, -2.299999999999999822, 35.54999999999996874 ) ) ;
#332 = CARTESIAN_POINT ( 'NONE',  ( 11.00000000000000355, -2.299999999999999822, 200.5500000000000398 ) ) ;
#333 = VERTEX_POINT ( 'NONE', #489 ) ;
#334 = DIRECTION ( 'NONE',  ( 0.000000000000000000, 0.000000000000000000, -1.000000000000000000 ) ) ;
#335 = FACE_BOUND ( 'NONE', #227, .T. ) ;
#336 = ORIENTED_EDGE ( 'NONE', *, *, #831, .F. ) ;
#337 = VECTOR ( 'NONE', #570, 1000.000000000000000 ) ;
#338 = AXIS2_PLACEMENT_3D ( 'NONE', #4, #70, #704 ) ;
#339 = CARTESIAN_POINT ( 'NONE',  ( 19.00000000000000000, -2.299999999999999822, 200.5500000000000398 ) ) ;
#340 = EDGE_CURVE ( 'NONE', #254, #353, #786, .T. ) ;
#341 = DIRECTION ( 'NONE',  ( 0.000000000000000000, 1.000000000000000000, 0.000000000000000000 ) ) ;
#342 = LINE ( 'NONE', #849, #337 ) ;
#343 = APPLICATION_CONTEXT ( 'configuration controlled 3d designs of mechanical parts and assemblies' ) ;
#344 = ORIENTED_EDGE ( 'NONE', *, *, #434, .T. ) ;
#345 = DIRECTION ( 'NONE',  ( 0.000000000000000000, 0.000000000000000000, 1.000000000000000000 ) ) ;
#346 = DIRECTION ( 'NONE',  ( 0.000000000000000000, 1.000000000000000000, 0.000000000000000000 ) ) ;
#347 = ORIENTED_EDGE ( 'NONE', *, *, #209, .F. ) ;
#348 = CARTESIAN_POINT ( 'NONE',  ( 9.999999999999996447, 0.000000000000000000, 225.0000000000000000 ) ) ;
#349 = LOCAL_TIME ( 10, 28, 5.000000000000000000, #297 ) ;
#350 = EDGE_CURVE ( 'NONE', #328, #196, #881, .T. ) ;
#351 = FACE_OUTER_BOUND ( 'NONE', #591, .T. ) ;
#352 = AXIS2_PLACEMENT_3D ( 'NONE', #577, #68, #280 ) ;
#353 = VERTEX_POINT ( 'NONE', #133 ) ;
#354 = CIRCLE ( 'NONE', #49, 5.000000000000004441 ) ;
#355 = DIRECTION ( 'NONE',  ( -0.000000000000000000, 1.000000000000000000, -0.000000000000000000 ) ) ;
#356 = DIRECTION ( 'NONE',  ( 1.131341397376178572E-16, 0.000000000000000000, 1.000000000000000000 ) ) ;
#357 = ORIENTED_EDGE ( 'NONE', *, *, #65, .F. ) ;
#358 = ADVANCED_FACE ( 'NONE', ( #289 ), #63, .F. ) ;
#359 = CARTESIAN_POINT ( 'NONE',  ( 11.00000000000001243, 0.000000000000000000, 120.0500000000000398 ) ) ;
#360 = DIRECTION ( 'NONE',  ( 0.000000000000000000, 0.000000000000000000, 1.000000000000000000 ) ) ;
#361 = ORIENTED_EDGE ( 'NONE', *, *, #194, .F. ) ;
#362 = COORDINATED_UNIVERSAL_TIME_OFFSET ( 1, 0, .AHEAD. ) ;
#363 = LINE ( 'NONE', #164, #659 ) ;
#364 = ORIENTED_EDGE ( 'NONE', *, *, #168, .T. ) ;
#365 = APPROVAL_PERSON_ORGANIZATION ( #93, #666, #373 ) ;
#366 = CARTESIAN_POINT ( 'NONE',  ( 19.00000000000000000, -2.299999999999999822, 200.5500000000000398 ) ) ;
#367 = CIRCLE ( 'NONE', #137, 5.000000000000000888 ) ;
#368 = EDGE_CURVE ( 'NONE', #775, #392, #5, .T. ) ;
#369 = DIRECTION ( 'NONE',  ( -1.000000000000000000, -0.000000000000000000, -0.000000000000000000 ) ) ;
#370 = DIRECTION ( 'NONE',  ( 0.000000000000000000, 0.000000000000000000, 1.000000000000000000 ) ) ;
#371 = ORIENTED_EDGE ( 'NONE', *, *, #638, .T. ) ;
#372 = DIRECTION ( 'NONE',  ( 0.000000000000000000, 0.000000000000000000, 1.000000000000000000 ) ) ;
#373 = APPROVAL_ROLE ( '' ) ;
#374 = CARTESIAN_POINT ( 'NONE',  ( 4.999999999999995559, -2.299999999999999822, 230.0000000000000000 ) ) ;
#375 = VERTEX_POINT ( 'NONE', #497 ) ;
#376 = DIRECTION ( 'NONE',  ( 0.000000000000000000, 0.000000000000000000, 1.000000000000000000 ) ) ;
#377 = CARTESIAN_POINT ( 'NONE',  ( 19.00000000000000000, -2.299999999999999822, 197.5000000000000284 ) ) ;
#378 = CARTESIAN_POINT ( 'NONE',  ( 24.99999999999999289, -2.299999999999999822, 230.0000000000000000 ) ) ;
#379 = VERTEX_POINT ( 'NONE', #632 ) ;
#380 = EDGE_CURVE ( 'NONE', #875, #493, #212, .T. ) ;
#381 = FACE_OUTER_BOUND ( 'NONE', #586, .T. ) ;
#382 = VECTOR ( 'NONE', #826, 1000.000000000000000 ) ;
#383 = CIRCLE ( 'NONE', #163, 5.000000000000004441 ) ;
#384 = CARTESIAN_POINT ( 'NONE',  ( 20.00000000000002132, 0.000000000000000000, 1.836970198721036294E-15 ) ) ;
#385 = ORIENTED_EDGE ( 'NONE', *, *, #464, .F. ) ;
#386 = LINE ( 'NONE', #111, #236 ) ;
#387 = ADVANCED_FACE ( 'NONE', ( #855 ), #492, .T. ) ;
#388 = CARTESIAN_POINT ( 'NONE',  ( 24.99999999999998224, -1.000000000000000000, 165.0000000000000000 ) ) ;
#389 = ORIENTED_EDGE ( 'NONE', *, *, #718, .F. ) ;
#390 = CARTESIAN_POINT ( 'NONE',  ( 19.00000000000000000, -2.299999999999999822, 194.4500000000000455 ) ) ;
#391 = DIRECTION ( 'NONE',  ( 0.000000000000000000, 0.000000000000000000, 1.000000000000000000 ) ) ;
#392 = VERTEX_POINT ( 'NONE', #921 ) ;
#393 = LINE ( 'NONE', #262, #266 ) ;
#394 = APPROVAL_PERSON_ORGANIZATION ( #476, #329, #529 ) ;
#395 = ADVANCED_FACE ( 'NONE', ( #351 ), #143, .T. ) ;
#396 = VECTOR ( 'NONE', #545, 1000.000000000000000 ) ;
#397 = CARTESIAN_POINT ( 'NONE',  ( 11.00000000000000355, -2.299999999999999822, 29.44999999999997442 ) ) ;
#398 = ORIENTED_EDGE ( 'NONE', *, *, #73, .T. ) ;
#399 = LINE ( 'NONE', #902, #119 ) ;
#400 = CARTESIAN_POINT ( 'NONE',  ( 19.99999999999999289, 0.000000000000000000, 230.0000000000000000 ) ) ;
#401 = EDGE_LOOP ( 'NONE', ( #385, #189, #543, #619 ) ) ;
#402 = CARTESIAN_POINT ( 'NONE',  ( 9.999999999999971578, -2.299999999999999822, 6.123233995736764310E-16 ) ) ;
#403 = MANIFOLD_SOLID_BREP ( 'Stock-minilip main body-1', #689 ) ;
#404 = DIRECTION ( 'NONE',  ( -1.206764157201257045E-16, -0.000000000000000000, 1.000000000000000000 ) ) ;
#405 = ORIENTED_EDGE ( 'NONE', *, *, #112, .F. ) ;
#406 = FACE_OUTER_BOUND ( 'NONE', #710, .T. ) ;
#407 = EDGE_CURVE ( 'NONE', #575, #99, #705, .T. ) ;
#408 = COORDINATED_UNIVERSAL_TIME_OFFSET ( 1, 0, .AHEAD. ) ;
#409 = CARTESIAN_POINT ( 'NONE',  ( 4.999999999999986677, -0.9999999999999991118, 160.0000000000000000 ) ) ;
#410 = AXIS2_PLACEMENT_3D ( 'NONE', #670, #315, #440 ) ;
#411 = DIRECTION ( 'NONE',  ( 0.000000000000000000, 0.000000000000000000, 1.000000000000000000 ) ) ;
#412 = ORIENTED_EDGE ( 'NONE', *, *, #101, .T. ) ;
#413 = LINE ( 'NONE', #708, #283 ) ;
#414 = CARTESIAN_POINT ( 'NONE',  ( 9.999999999999971578, 0.000000000000000000, 5.000000000000000888 ) ) ;
#415 = ORIENTED_EDGE ( 'NONE', *, *, #259, .F. ) ;
#416 = ADVANCED_FACE ( 'NONE', ( #928 ), #782, .F. ) ;
#417 = FACE_OUTER_BOUND ( 'NONE', #475, .T. ) ;
#418 = CYLINDRICAL_SURFACE ( 'NONE', #352, 5.000000000000004441 ) ;
#419 = ORIENTED_EDGE ( 'NONE', *, *, #179, .F. ) ;
#420 = LINE ( 'NONE', #80, #79 ) ;
#421 = EDGE_CURVE ( 'NONE', #743, #379, #323, .T. ) ;
#422 = CARTESIAN_POINT ( 'NONE',  ( 4.999999999999969802, -2.299999999999999822, 0.000000000000000000 ) ) ;
#423 = VECTOR ( 'NONE', #104, 1000.000000000000000 ) ;
#424 = ORIENTED_EDGE ( 'NONE', *, *, #421, .T. ) ;
#425 = CIRCLE ( 'NONE', #441, 3.049999999999997158 ) ;
#426 = PERSON_AND_ORGANIZATION ( #739, #851 ) ;
#427 = DIRECTION ( 'NONE',  ( 0.000000000000000000, 0.000000000000000000, -1.000000000000000000 ) ) ;
#428 = ORIENTED_EDGE ( 'NONE', *, *, #653, .T. ) ;
#429 = DIRECTION ( 'NONE',  ( 0.000000000000000000, -0.000000000000000000, 1.000000000000000000 ) ) ;
#430 = DIRECTION ( 'NONE',  ( 0.000000000000000000, 0.000000000000000000, 1.000000000000000000 ) ) ;
#431 = VERTEX_POINT ( 'NONE', #484 ) ;
#432 = DIRECTION ( 'NONE',  ( -1.131341397376178572E-16, -0.000000000000000000, -1.000000000000000000 ) ) ;
#433 = CC_DESIGN_DATE_AND_TIME_ASSIGNMENT ( #202, #887, ( #469 ) ) ;
#434 = EDGE_CURVE ( 'NONE', #713, #322, #563, .T. ) ;
#435 = APPROVAL_STATUS ( 'not_yet_approved' ) ;
#436 = CYLINDRICAL_SURFACE ( 'NONE', #582, 3.049999999999997158 ) ;
#437 = VERTEX_POINT ( 'NONE', #779 ) ;
#438 = CC_DESIGN_APPROVAL ( #518, ( #469 ) ) ;
#439 = CIRCLE ( 'NONE', #220, 3.049999999999997158 ) ;
#440 = DIRECTION ( 'NONE',  ( 1.000000000000000000, 0.000000000000000000, -0.000000000000000000 ) ) ;
#441 = AXIS2_PLACEMENT_3D ( 'NONE', #696, #615, #256 ) ;
#442 = PRODUCT_DEFINITION_SHAPE ( 'NONE', 'NONE',  #830 ) ;
#443 = LINE ( 'NONE', #155, #66 ) ;
#444 = ORIENTED_EDGE ( 'NONE', *, *, #179, .T. ) ;
#445 = FACE_OUTER_BOUND ( 'NONE', #726, .T. ) ;
#446 = PERSON_AND_ORGANIZATION_ROLE ( 'creator' ) ;
#447 = EDGE_CURVE ( 'NONE', #695, #713, #367, .T. ) ;
#448 = DIRECTION ( 'NONE',  ( -2.523234146875355998E-16, 0.000000000000000000, 1.000000000000000000 ) ) ;
#449 = ORIENTED_EDGE ( 'NONE', *, *, #275, .T. ) ;
#450 = CARTESIAN_POINT ( 'NONE',  ( 25.00000000000002132, -2.299999999999999822, 5.000000000000004441 ) ) ;
#451 = DATE_AND_TIME ( #536, #915 ) ;
#452 = EDGE_CURVE ( 'NONE', #254, #701, #443, .T. ) ;
#453 = DIRECTION ( 'NONE',  ( -0.000000000000000000, 1.000000000000000000, -0.000000000000000000 ) ) ;
#454 = VERTEX_POINT ( 'NONE', #98 ) ;
#455 = DIRECTION ( 'NONE',  ( 0.000000000000000000, 0.000000000000000000, -1.000000000000000000 ) ) ;
#456 = AXIS2_PLACEMENT_3D ( 'NONE', #725, #809, #88 ) ;
#457 = CARTESIAN_POINT ( 'NONE',  ( 25.00000000000002132, 0.000000000000000000, 5.000000000000004441 ) ) ;
#458 = ORIENTED_EDGE ( 'NONE', *, *, #789, .F. ) ;
#459 = DIRECTION ( 'NONE',  ( 0.000000000000000000, 1.000000000000000000, 0.000000000000000000 ) ) ;
#460 = LINE ( 'NONE', #246, #535 ) ;
#461 = EDGE_LOOP ( 'NONE', ( #770, #39, #466, #686 ) ) ;
#462 = CARTESIAN_POINT ( 'NONE',  ( 11.00000000000000533, -2.299999999999999822, 197.5000000000000284 ) ) ;
#463 = ADVANCED_FACE ( 'NONE', ( #737 ), #521, .F. ) ;
#464 = EDGE_CURVE ( 'NONE', #392, #635, #488, .T. ) ;
#465 = CARTESIAN_POINT ( 'NONE',  ( 19.99999999999999289, -2.299999999999999822, 230.0000000000000000 ) ) ;
#466 = ORIENTED_EDGE ( 'NONE', *, *, #680, .T. ) ;
#467 = DIRECTION ( 'NONE',  ( -1.000000000000000000, 0.000000000000000000, 0.000000000000000000 ) ) ;
#468 = ORIENTED_EDGE ( 'NONE', *, *, #789, .T. ) ;
#469 = SECURITY_CLASSIFICATION ( '', '', #60 ) ;
#470 = CIRCLE ( 'NONE', #673, 5.000000000000000888 ) ;
#471 = VECTOR ( 'NONE', #785, 1000.000000000000000 ) ;
#472 = LINE ( 'NONE', #388, #629 ) ;
#473 = VERTEX_POINT ( 'NONE', #585 ) ;
#474 = DIRECTION ( 'NONE',  ( -0.000000000000000000, 1.000000000000000000, -0.000000000000000000 ) ) ;
#475 = EDGE_LOOP ( 'NONE', ( #35, #732, #107, #860 ) ) ;
#476 = PERSON_AND_ORGANIZATION ( #739, #851 ) ;
#477 = DIRECTION ( 'NONE',  ( 0.000000000000000000, -0.000000000000000000, 1.000000000000000000 ) ) ;
#478 = ORIENTED_EDGE ( 'NONE', *, *, #15, .F. ) ;
#479 = ADVANCED_FACE ( 'NONE', ( #298 ), #601, .T. ) ;
#480 = CARTESIAN_POINT ( 'NONE',  ( 24.99999999999998224, 0.000000000000000000, 165.0000000000000000 ) ) ;
#481 = DIRECTION ( 'NONE',  ( 1.000000000000000000, -0.000000000000000000, -0.000000000000000000 ) ) ;
#482 = ORIENTED_EDGE ( 'NONE', *, *, #698, .T. ) ;
#483 = ADVANCED_FACE ( 'NONE', ( #306 ), #595, .F. ) ;
#484 = CARTESIAN_POINT ( 'NONE',  ( 24.99999999999999289, -2.299999999999999822, 225.0000000000000000 ) ) ;
#485 = EDGE_LOOP ( 'NONE', ( #889, #181, #822, #357 ) ) ;
#486 = AXIS2_PLACEMENT_3D ( 'NONE', #834, #911, #914 ) ;
#487 = CARTESIAN_POINT ( 'NONE',  ( 11.00000000000001243, 0.000000000000000000, 113.9499999999999886 ) ) ;
#488 = CIRCLE ( 'NONE', #221, 3.049999999999997158 ) ;
#489 = CARTESIAN_POINT ( 'NONE',  ( 11.00000000000001243, -2.299999999999999822, 113.9499999999999886 ) ) ;
#490 = ORIENTED_EDGE ( 'NONE', *, *, #649, .F. ) ;
#491 = FACE_OUTER_BOUND ( 'NONE', #869, .T. ) ;
#492 = CYLINDRICAL_SURFACE ( 'NONE', #64, 5.000000000000004441 ) ;
#493 = VERTEX_POINT ( 'NONE', #668 ) ;
#494 = CC_DESIGN_PERSON_AND_ORGANIZATION_ASSIGNMENT ( #169, #446, ( #830 ) ) ;
#495 = EDGE_CURVE ( 'NONE', #581, #174, #363, .T. ) ;
#496 = LINE ( 'NONE', #573, #296 ) ;
#497 = CARTESIAN_POINT ( 'NONE',  ( 9.999999999999996447, 0.000000000000000000, 230.0000000000000000 ) ) ;
#498 = EDGE_LOOP ( 'NONE', ( #95, #538, #884, #512 ) ) ;
#499 = DIRECTION ( 'NONE',  ( -0.000000000000000000, 1.000000000000000000, -0.000000000000000000 ) ) ;
#500 = CARTESIAN_POINT ( 'NONE',  ( 9.999999999999996447, -2.299999999999999822, 225.0000000000000000 ) ) ;
#501 = VECTOR ( 'NONE', #432, 1000.000000000000000 ) ;
#502 = ORIENTED_EDGE ( 'NONE', *, *, #464, .T. ) ;
#503 = VECTOR ( 'NONE', #206, 1000.000000000000000 ) ;
#504 = CARTESIAN_POINT ( 'NONE',  ( 0.000000000000000000, 0.000000000000000000, 0.000000000000000000 ) ) ;
#505 = EDGE_CURVE ( 'NONE', #787, #431, #580, .T. ) ;
#506 = PLANE ( 'NONE',  #853 ) ;
#507 = ORIENTED_EDGE ( 'NONE', *, *, #723, .T. ) ;
#508 = DIRECTION ( 'NONE',  ( -1.224646799147353454E-16, 0.000000000000000000, 1.000000000000000000 ) ) ;
#509 = CYLINDRICAL_SURFACE ( 'NONE', #31, 3.049999999999997158 ) ;
#510 = DIRECTION ( 'NONE',  ( -0.000000000000000000, 1.000000000000000000, -0.000000000000000000 ) ) ;
#511 = EDGE_LOOP ( 'NONE', ( #678, #645, #398, #507 ) ) ;
#512 = ORIENTED_EDGE ( 'NONE', *, *, #609, .T. ) ;
#513 = DIRECTION ( 'NONE',  ( -1.206764157201257045E-16, 0.000000000000000000, 1.000000000000000000 ) ) ;
#514 = ORIENTED_EDGE ( 'NONE', *, *, #572, .F. ) ;
#515 = AXIS2_PLACEMENT_3D ( 'NONE', #90, #508, #796 ) ;
#516 = CARTESIAN_POINT ( 'NONE',  ( 19.00000000000001066, 0.000000000000000000, 120.0500000000000398 ) ) ;
#517 = CIRCLE ( 'NONE', #267, 3.049999999999997158 ) ;
#518 = APPROVAL ( #272, 'UNSPECIFIED' ) ;
#519 = ADVANCED_FACE ( 'NONE', ( #656 ), #302, .T. ) ;
#520 = CARTESIAN_POINT ( 'NONE',  ( 4.999999999999988454, -1.000000000000000000, 160.0000000000000000 ) ) ;
#521 = PLANE ( 'NONE',  #237 ) ;
#522 = EDGE_LOOP ( 'NONE', ( #913, #415, #894, #925, #546, #625, #920, #720 ) ) ;
#523 = VERTEX_POINT ( 'NONE', #170 ) ;
#524 = ADVANCED_FACE ( 'NONE', ( #590 ), #19, .T. ) ;
#525 = SHAPE_DEFINITION_REPRESENTATION ( #442, #533 ) ;
#526 = DIRECTION ( 'NONE',  ( -1.000000000000000000, 0.000000000000000000, 0.000000000000000000 ) ) ;
#527 = EDGE_LOOP ( 'NONE', ( #47, #147, #766, #843, #449, #444, #864, #578 ) ) ;
#528 = FACE_OUTER_BOUND ( 'NONE', #165, .T. ) ;
#529 = APPROVAL_ROLE ( '' ) ;
#530 = DIRECTION ( 'NONE',  ( -0.000000000000000000, 1.000000000000000000, -0.000000000000000000 ) ) ;
#531 = EDGE_LOOP ( 'NONE', ( #631, #13, #193, #910 ) ) ;
#532 = CARTESIAN_POINT ( 'NONE',  ( -3.331086545984695224, 0.000000000000000000, 165.0000000000000000 ) ) ;
#533 = ADVANCED_BREP_SHAPE_REPRESENTATION ( 'guide channel adjuster 2', ( #403, #309 ), #714 ) ;
#534 = VECTOR ( 'NONE', #276, 1000.000000000000000 ) ;
#535 = VECTOR ( 'NONE', #682, 1000.000000000000000 ) ;
#536 = CALENDAR_DATE ( 2026, 2, 6 ) ;
#537 = CARTESIAN_POINT ( 'NONE',  ( 11.00000000000000533, -2.299999999999999822, 32.49999999999997158 ) ) ;
#538 = ORIENTED_EDGE ( 'NONE', *, *, #330, .F. ) ;
#539 = EDGE_CURVE ( 'NONE', #825, #752, #742, .T. ) ;
#540 = ADVANCED_FACE ( 'NONE', ( #798 ), #436, .F. ) ;
#541 = DIRECTION ( 'NONE',  ( -0.000000000000000000, -1.000000000000000000, -0.000000000000000000 ) ) ;
#542 = DIRECTION ( 'NONE',  ( 0.000000000000000000, -1.000000000000000000, 0.000000000000000000 ) ) ;
#543 = ORIENTED_EDGE ( 'NONE', *, *, #217, .T. ) ;
#544 = CYLINDRICAL_SURFACE ( 'NONE', #91, 3.050000000000024691 ) ;
#545 = DIRECTION ( 'NONE',  ( 1.000000000000000000, -0.000000000000000000, -0.000000000000000000 ) ) ;
#546 = ORIENTED_EDGE ( 'NONE', *, *, #44, .T. ) ;
#547 = DIRECTION ( 'NONE',  ( 0.000000000000000000, 0.000000000000000000, 1.000000000000000000 ) ) ;
#548 = ORIENTED_EDGE ( 'NONE', *, *, #886, .F. ) ;
#549 = ADVANCED_FACE ( 'NONE', ( #223 ), #506, .F. ) ;
#550 = VECTOR ( 'NONE', #620, 1000.000000000000000 ) ;
#551 = VECTOR ( 'NONE', #510, 1000.000000000000000 ) ;
#552 = CARTESIAN_POINT ( 'NONE',  ( -3.331086545984692115, -3.903127820947815962E-15, 156.7291473815158156 ) ) ;
#553 = EDGE_LOOP ( 'NONE', ( #89, #320, #247, #389 ) ) ;
#554 = DIRECTION ( 'NONE',  ( 0.000000000000000000, -1.000000000000000000, 0.000000000000000000 ) ) ;
#555 = PERSON_AND_ORGANIZATION_ROLE ( 'classification_officer' ) ;
#556 = ADVANCED_FACE ( 'NONE', ( #671 ), #662, .F. ) ;
#557 = CYLINDRICAL_SURFACE ( 'NONE', #338, 3.050000000000024691 ) ;
#558 = ORIENTED_EDGE ( 'NONE', *, *, #112, .T. ) ;
#559 = DIRECTION ( 'NONE',  ( 1.000000000000000000, 0.000000000000000000, -1.131341397376178572E-16 ) ) ;
#560 = ORIENTED_EDGE ( 'NONE', *, *, #168, .F. ) ;
#561 = APPROVAL_DATE_TIME ( #451, #518 ) ;
#562 = CARTESIAN_POINT ( 'NONE',  ( 0.000000000000000000, 0.000000000000000000, 0.000000000000000000 ) ) ;
#563 = LINE ( 'NONE', #774, #503 ) ;
#564 = VERTEX_POINT ( 'NONE', #791 ) ;
#565 = PRODUCT_DEFINITION_FORMATION_WITH_SPECIFIED_SOURCE ( 'ANY', '', #588, .NOT_KNOWN. ) ;
#566 = AXIS2_PLACEMENT_3D ( 'NONE', #712, #863, #634 ) ;
#567 = PLANE ( 'NONE',  #92 ) ;
#568 = AXIS2_PLACEMENT_3D ( 'NONE', #195, #769, #74 ) ;
#569 = LOCAL_TIME ( 10, 28, 5.000000000000000000, #626 ) ;
#570 = DIRECTION ( 'NONE',  ( -0.000000000000000000, 1.000000000000000000, -0.000000000000000000 ) ) ;
#571 = ORIENTED_EDGE ( 'NONE', *, *, #222, .T. ) ;
#572 = EDGE_CURVE ( 'NONE', #379, #877, #722, .T. ) ;
#573 = CARTESIAN_POINT ( 'NONE',  ( 11.00000000000000533, -2.299999999999999822, 194.4500000000000455 ) ) ;
#574 = DIRECTION ( 'NONE',  ( 0.000000000000000000, 1.000000000000000000, 0.000000000000000000 ) ) ;
#575 = VERTEX_POINT ( 'NONE', #765 ) ;
#576 = CARTESIAN_POINT ( 'NONE',  ( 24.99999999999998224, -1.000000000000000000, 160.0000000000000000 ) ) ;
#577 = CARTESIAN_POINT ( 'NONE',  ( 19.99999999999999289, -2.299999999999999822, 225.0000000000000000 ) ) ;
#578 = ORIENTED_EDGE ( 'NONE', *, *, #86, .T. ) ;
#579 = EDGE_CURVE ( 'NONE', #123, #775, #904, .T. ) ;
#580 = LINE ( 'NONE', #876, #253 ) ;
#581 = VERTEX_POINT ( 'NONE', #397 ) ;
#582 = AXIS2_PLACEMENT_3D ( 'NONE', #242, #868, #370 ) ;
#583 = CARTESIAN_POINT ( 'NONE',  ( 11.00000000000000533, -2.299999999999999822, 194.4500000000000455 ) ) ;
#584 = DATE_TIME_ROLE ( 'creation_date' ) ;
#585 = CARTESIAN_POINT ( 'NONE',  ( 19.00000000000000000, 0.000000000000000000, 35.54999999999996874 ) ) ;
#586 = EDGE_LOOP ( 'NONE', ( #228, #103, #833, #672 ) ) ;
#587 = CARTESIAN_POINT ( 'NONE',  ( -3.331086545984695224, -1.000000000000000000, 160.0000000000000000 ) ) ;
#588 = PRODUCT ( 'guide channel adjuster 2', 'guide channel adjuster 2', '', ( #724 ) ) ;
#589 = DIRECTION ( 'NONE',  ( 0.000000000000000000, 0.000000000000000000, 1.000000000000000000 ) ) ;
#590 = FACE_OUTER_BOUND ( 'NONE', #261, .T. ) ;
#591 = EDGE_LOOP ( 'NONE', ( #648, #514, #683, #755 ) ) ;
#592 = EDGE_CURVE ( 'NONE', #752, #759, #717, .T. ) ;
#593 = CARTESIAN_POINT ( 'NONE',  ( 19.00000000000000000, -2.299999999999999822, 194.4500000000000455 ) ) ;
#594 = DIRECTION ( 'NONE',  ( 0.000000000000000000, 1.000000000000000000, 0.000000000000000000 ) ) ;
#595 = PLANE ( 'NONE',  #191 ) ;
#596 = ORIENTED_EDGE ( 'NONE', *, *, #73, .F. ) ;
#597 = AXIS2_PLACEMENT_3D ( 'NONE', #43, #40, #248 ) ;
#598 = CARTESIAN_POINT ( 'NONE',  ( 20.00000000000002132, -2.299999999999999822, 5.000000000000004441 ) ) ;
#599 = EDGE_CURVE ( 'NONE', #431, #286, #149, .T. ) ;
#600 = AXIS2_PLACEMENT_3D ( 'NONE', #27, #33, #238 ) ;
#601 = PLANE ( 'NONE',  #456 ) ;
#602 = ORIENTED_EDGE ( 'NONE', *, *, #621, .T. ) ;
#603 = LINE ( 'NONE', #674, #916 ) ;
#604 = FACE_OUTER_BOUND ( 'NONE', #651, .T. ) ;
#605 = ORIENTED_EDGE ( 'NONE', *, *, #124, .F. ) ;
#606 = CYLINDRICAL_SURFACE ( 'NONE', #597, 3.049999999999997158 ) ;
#607 = APPROVAL_STATUS ( 'not_yet_approved' ) ;
#608 = CC_DESIGN_PERSON_AND_ORGANIZATION_ASSIGNMENT ( #676, #555, ( #469 ) ) ;
#609 = EDGE_CURVE ( 'NONE', #196, #473, #677, .T. ) ;
#610 = DIRECTION ( 'NONE',  ( -1.000000000000000000, -0.000000000000000000, -0.000000000000000000 ) ) ;
#611 = EDGE_LOOP ( 'NONE', ( #419, #171, #640, #783 ) ) ;
#612 = DIRECTION ( 'NONE',  ( -0.000000000000000000, -1.000000000000000000, -0.000000000000000000 ) ) ;
#613 = AXIS2_PLACEMENT_3D ( 'NONE', #71, #76, #644 ) ;
#614 = AXIS2_PLACEMENT_3D ( 'NONE', #537, #453, #316 ) ;
#615 = DIRECTION ( 'NONE',  ( 0.000000000000000000, -1.000000000000000000, 0.000000000000000000 ) ) ;
#616 = ORIENTED_EDGE ( 'NONE', *, *, #128, .T. ) ;
#617 = CARTESIAN_POINT ( 'NONE',  ( 4.999999999999969802, 0.000000000000000000, 0.000000000000000000 ) ) ;
#618 = DIRECTION ( 'NONE',  ( -0.000000000000000000, 1.000000000000000000, -0.000000000000000000 ) ) ;
#619 = ORIENTED_EDGE ( 'NONE', *, *, #812, .T. ) ;
#620 = DIRECTION ( 'NONE',  ( 1.000000000000000000, -0.000000000000000000, 2.523234146875355998E-16 ) ) ;
#621 = EDGE_CURVE ( 'NONE', #353, #899, #472, .T. ) ;
#622 = CARTESIAN_POINT ( 'NONE',  ( 19.00000000000000000, -2.299999999999999822, 194.4500000000000455 ) ) ;
#623 = EDGE_LOOP ( 'NONE', ( #548, #85, #208, #307 ) ) ;
#624 = FACE_OUTER_BOUND ( 'NONE', #144, .T. ) ;
#625 = ORIENTED_EDGE ( 'NONE', *, *, #572, .T. ) ;
#626 = COORDINATED_UNIVERSAL_TIME_OFFSET ( 1, 0, .AHEAD. ) ;
#627 = EDGE_CURVE ( 'NONE', #99, #174, #517, .T. ) ;
#628 = VECTOR ( 'NONE', #467, 1000.000000000000000 ) ;
#629 = VECTOR ( 'NONE', #185, 1000.000000000000000 ) ;
#630 = LINE ( 'NONE', #67, #731 ) ;
#631 = ORIENTED_EDGE ( 'NONE', *, *, #75, .F. ) ;
#632 = CARTESIAN_POINT ( 'NONE',  ( 4.999999999999970690, 0.000000000000000000, 5.000000000000001776 ) ) ;
#633 = FACE_OUTER_BOUND ( 'NONE', #810, .T. ) ;
#634 = DIRECTION ( 'NONE',  ( 0.000000000000000000, 0.000000000000000000, 1.000000000000000000 ) ) ;
#635 = VERTEX_POINT ( 'NONE', #324 ) ;
#636 = EDGE_CURVE ( 'NONE', #286, #706, #898, .T. ) ;
#637 = DIRECTION ( 'NONE',  ( -1.131341397376178572E-16, -0.000000000000000000, -1.000000000000000000 ) ) ;
#638 = EDGE_CURVE ( 'NONE', #759, #564, #122, .T. ) ;
#639 = DIRECTION ( 'NONE',  ( -0.000000000000000000, 1.000000000000000000, -0.000000000000000000 ) ) ;
#640 = ORIENTED_EDGE ( 'NONE', *, *, #844, .F. ) ;
#641 = DIRECTION ( 'NONE',  ( 0.000000000000000000, 1.000000000000000000, 0.000000000000000000 ) ) ;
#642 = VECTOR ( 'NONE', #526, 1000.000000000000000 ) ;
#643 = CC_DESIGN_APPROVAL ( #666, ( #830 ) ) ;
#644 = DIRECTION ( 'NONE',  ( 0.000000000000000000, 0.2923717047227309407, -0.9563047559630372119 ) ) ;
#645 = ORIENTED_EDGE ( 'NONE', *, *, #627, .T. ) ;
#646 = DIRECTION ( 'NONE',  ( 1.014368119787764760E-15, 0.2923717047227309407, -0.9563047559630372119 ) ) ;
#647 = DIRECTION ( 'NONE',  ( -0.000000000000000000, 1.000000000000000000, -0.000000000000000000 ) ) ;
#648 = ORIENTED_EDGE ( 'NONE', *, *, #86, .F. ) ;
#649 = EDGE_CURVE ( 'NONE', #30, #231, #106, .T. ) ;
#650 = DIRECTION ( 'NONE',  ( -0.000000000000000000, -1.000000000000000000, -0.000000000000000000 ) ) ;
#651 = EDGE_LOOP ( 'NONE', ( #299, #282, #42, #24 ) ) ;
#652 = DIRECTION ( 'NONE',  ( 0.000000000000000000, 0.000000000000000000, 1.000000000000000000 ) ) ;
#653 = EDGE_CURVE ( 'NONE', #697, #55, #746, .T. ) ;
#654 = CALENDAR_DATE ( 2026, 2, 6 ) ;
#655 = VECTOR ( 'NONE', #96, 1000.000000000000000 ) ;
#656 = FACE_OUTER_BOUND ( 'NONE', #531, .T. ) ;
#657 = AXIS2_PLACEMENT_3D ( 'NONE', #462, #318, #547 ) ;
#658 = ORIENTED_EDGE ( 'NONE', *, *, #636, .F. ) ;
#659 = VECTOR ( 'NONE', #226, 1000.000000000000000 ) ;
#660 = CARTESIAN_POINT ( 'NONE',  ( 11.00000000000000533, 0.000000000000000000, 35.54999999999996874 ) ) ;
#661 = FACE_OUTER_BOUND ( 'NONE', #53, .T. ) ;
#662 = PLANE ( 'NONE',  #2 ) ;
#663 = VERTEX_POINT ( 'NONE', #260 ) ;
#664 = LINE ( 'NONE', #811, #803 ) ;
#665 = DIRECTION ( 'NONE',  ( 0.000000000000000000, 0.000000000000000000, 1.000000000000000000 ) ) ;
#666 = APPROVAL ( #435, 'UNSPECIFIED' ) ;
#667 = EDGE_CURVE ( 'NONE', #697, #825, #117, .T. ) ;
#668 = CARTESIAN_POINT ( 'NONE',  ( 4.999999999999988454, -1.000000000000000000, 165.0000000000000000 ) ) ;
#669 = VERTEX_POINT ( 'NONE', #52 ) ;
#670 = CARTESIAN_POINT ( 'NONE',  ( 19.00000000000001066, -2.299999999999999822, 113.9499999999999886 ) ) ;
#671 = FACE_OUTER_BOUND ( 'NONE', #216, .T. ) ;
#672 = ORIENTED_EDGE ( 'NONE', *, *, #539, .T. ) ;
#673 = AXIS2_PLACEMENT_3D ( 'NONE', #598, #240, #372 ) ;
#674 = CARTESIAN_POINT ( 'NONE',  ( 11.00000000000000355, 0.000000000000000000, 29.44999999999997442 ) ) ;
#675 = VECTOR ( 'NONE', #618, 1000.000000000000000 ) ;
#676 = PERSON_AND_ORGANIZATION ( #739, #851 ) ;
#677 = LINE ( 'NONE', #758, #675 ) ;
#678 = ORIENTED_EDGE ( 'NONE', *, *, #273, .T. ) ;
#679 = DIRECTION ( 'NONE',  ( 1.000000000000000000, -0.000000000000000000, 2.523234146875355998E-16 ) ) ;
#680 = EDGE_CURVE ( 'NONE', #196, #575, #751, .T. ) ;
#681 = COORDINATED_UNIVERSAL_TIME_OFFSET ( 1, 0, .AHEAD. ) ;
#682 = DIRECTION ( 'NONE',  ( 1.000000000000000000, 0.000000000000000000, 0.000000000000000000 ) ) ;
#683 = ORIENTED_EDGE ( 'NONE', *, *, #421, .F. ) ;
#684 = DIRECTION ( 'NONE',  ( -1.000000000000000000, -0.000000000000000000, -0.000000000000000000 ) ) ;
#685 = FACE_BOUND ( 'NONE', #553, .T. ) ;
#686 = ORIENTED_EDGE ( 'NONE', *, *, #407, .T. ) ;
#687 = CARTESIAN_POINT ( 'NONE',  ( 19.99999999999999289, -2.299999999999999822, 230.0000000000000000 ) ) ;
#688 = LOCAL_TIME ( 10, 28, 5.000000000000000000, #681 ) ;
#689 = CLOSED_SHELL ( 'NONE', ( #906, #734, #801, #416, #113, #556, #463, #891, #245, #141, #524, #693, #817, #540, #479, #263, #29, #735, #37, #519, #395, #387, #291, #549, #358, #483 ) ) ;
#690 = CIRCLE ( 'NONE', #867, 3.050000000000024691 ) ;
#691 = DIRECTION ( 'NONE',  ( -0.000000000000000000, -1.000000000000000000, -0.000000000000000000 ) ) ;
#692 = ORIENTED_EDGE ( 'NONE', *, *, #636, .T. ) ;
#693 = ADVANCED_FACE ( 'NONE', ( #604 ), #327, .F. ) ;
#694 = DIRECTION ( 'NONE',  ( 0.000000000000000000, -1.000000000000000000, 0.000000000000000000 ) ) ;
#695 = VERTEX_POINT ( 'NONE', #457 ) ;
#696 = CARTESIAN_POINT ( 'NONE',  ( 11.00000000000000533, -2.299999999999999822, 32.49999999999997158 ) ) ;
#697 = VERTEX_POINT ( 'NONE', #173 ) ;
#698 = EDGE_CURVE ( 'NONE', #635, #437, #182, .T. ) ;
#699 = LINE ( 'NONE', #187, #382 ) ;
#700 = DIRECTION ( 'NONE',  ( 0.000000000000000000, 0.000000000000000000, 1.000000000000000000 ) ) ;
#701 = VERTEX_POINT ( 'NONE', #38 ) ;
#702 = CARTESIAN_POINT ( 'NONE',  ( 24.99999999999998224, -1.000000000000000000, 165.0000000000000000 ) ) ;
#703 = AXIS2_PLACEMENT_3D ( 'NONE', #109, #691, #46 ) ;
#704 = DIRECTION ( 'NONE',  ( 0.000000000000000000, 0.000000000000000000, 1.000000000000000000 ) ) ;
#705 = LINE ( 'NONE', #719, #534 ) ;
#706 = VERTEX_POINT ( 'NONE', #400 ) ;
#707 = EDGE_CURVE ( 'NONE', #575, #581, #425, .T. ) ;
#708 = CARTESIAN_POINT ( 'NONE',  ( 24.99999999999999289, 0.000000000000000000, 230.0000000000000000 ) ) ;
#709 = LINE ( 'NONE', #339, #16 ) ;
#710 = EDGE_LOOP ( 'NONE', ( #57, #560, #69, #658 ) ) ;
#711 = CARTESIAN_POINT ( 'NONE',  ( 11.00000000000000355, -2.299999999999999822, 200.5500000000000398 ) ) ;
#712 = CARTESIAN_POINT ( 'NONE',  ( 19.00000000000000000, -2.299999999999999822, 32.49999999999997158 ) ) ;
#713 = VERTEX_POINT ( 'NONE', #384 ) ;
#714 =( GEOMETRIC_REPRESENTATION_CONTEXT ( 3 ) GLOBAL_UNCERTAINTY_ASSIGNED_CONTEXT ( ( #278 ) ) GLOBAL_UNIT_ASSIGNED_CONTEXT ( ( #862, #808, #292 ) ) REPRESENTATION_CONTEXT ( 'NONE', 'WORKASPACE' ) );
#715 = AXIS2_PLACEMENT_3D ( 'NONE', #800, #455, #870 ) ;
#716 = DIRECTION ( 'NONE',  ( 0.000000000000000000, 1.000000000000000000, 0.000000000000000000 ) ) ;
#717 = CIRCLE ( 'NONE', #917, 3.050000000000024691 ) ;
#718 = EDGE_CURVE ( 'NONE', #581, #328, #460, .T. ) ;
#719 = CARTESIAN_POINT ( 'NONE',  ( 11.00000000000000533, -2.299999999999999822, 35.54999999999996874 ) ) ;
#720 = ORIENTED_EDGE ( 'NONE', *, *, #8, .T. ) ;
#721 = DIRECTION ( 'NONE',  ( -1.000000000000000000, -0.000000000000000000, -0.000000000000000000 ) ) ;
#722 = LINE ( 'NONE', #794, #883 ) ;
#723 = EDGE_CURVE ( 'NONE', #523, #473, #762, .T. ) ;
#724 = MECHANICAL_CONTEXT ( 'NONE', #203, 'mechanical' ) ;
#725 = CARTESIAN_POINT ( 'NONE',  ( 19.00000000000000000, -2.299999999999999822, 35.54999999999996874 ) ) ;
#726 = EDGE_LOOP ( 'NONE', ( #835, #10, #317, #571 ) ) ;
#727 = CARTESIAN_POINT ( 'NONE',  ( 9.999999999999971578, -2.299999999999999822, 5.000000000000000888 ) ) ;
#728 = LINE ( 'NONE', #359, #51 ) ;
#729 = AXIS2_PLACEMENT_3D ( 'NONE', #129, #574, #146 ) ;
#730 = DIRECTION ( 'NONE',  ( 0.000000000000000000, -1.000000000000000000, 0.000000000000000000 ) ) ;
#731 = VECTOR ( 'NONE', #637, 1000.000000000000000 ) ;
#732 = ORIENTED_EDGE ( 'NONE', *, *, #539, .F. ) ;
#733 = DIRECTION ( 'NONE',  ( 0.000000000000000000, 1.000000000000000000, 0.000000000000000000 ) ) ;
#734 = ADVANCED_FACE ( 'NONE', ( #685, #926, #335, #198 ), #567, .F. ) ;
#735 = ADVANCED_FACE ( 'NONE', ( #417 ), #557, .F. ) ;
#736 = APPROVAL_DATE_TIME ( #17, #666 ) ;
#737 = FACE_OUTER_BOUND ( 'NONE', #77, .T. ) ;
#738 = ORIENTED_EDGE ( 'NONE', *, *, #667, .F. ) ;
#739 = PERSON ( 'UNSPECIFIED', 'UNSPECIFIED', 'UNSPECIFIED', ('UNSPECIFIED'), ('UNSPECIFIED'), ('UNSPECIFIED') ) ;
#740 = DIRECTION ( 'NONE',  ( 0.000000000000000000, -1.000000000000000000, 0.000000000000000000 ) ) ;
#741 = CALENDAR_DATE ( 2026, 2, 6 ) ;
#742 = LINE ( 'NONE', #888, #551 ) ;
#743 = VERTEX_POINT ( 'NONE', #842 ) ;
#744 = ORIENTED_EDGE ( 'NONE', *, *, #872, .T. ) ;
#745 = PERSON_AND_ORGANIZATION_ROLE ( 'creator' ) ;
#746 = LINE ( 'NONE', #754, #18 ) ;
#747 = ORIENTED_EDGE ( 'NONE', *, *, #59, .F. ) ;
#748 = EDGE_CURVE ( 'NONE', #706, #701, #354, .T. ) ;
#749 = CARTESIAN_POINT ( 'NONE',  ( 19.00000000000001066, -2.299999999999999822, 117.0000000000000000 ) ) ;
#750 = AXIS2_PLACEMENT_3D ( 'NONE', #319, #114, #391 ) ;
#751 = LINE ( 'NONE', #177, #642 ) ;
#752 = VERTEX_POINT ( 'NONE', #131 ) ;
#753 = CARTESIAN_POINT ( 'NONE',  ( 19.00000000000001066, -2.299999999999999822, 117.0000000000000000 ) ) ;
#754 = CARTESIAN_POINT ( 'NONE',  ( 19.00000000000001066, -2.299999999999999822, 120.0500000000000398 ) ) ;
#755 = ORIENTED_EDGE ( 'NONE', *, *, #234, .F. ) ;
#756 = LINE ( 'NONE', #116, #162 ) ;
#757 = EDGE_CURVE ( 'NONE', #333, #454, #854, .T. ) ;
#758 = CARTESIAN_POINT ( 'NONE',  ( 19.00000000000000000, -2.299999999999999822, 35.54999999999996874 ) ) ;
#759 = VERTEX_POINT ( 'NONE', #487 ) ;
#760 = CARTESIAN_POINT ( 'NONE',  ( 19.00000000000000000, 0.000000000000000000, 197.5000000000000284 ) ) ;
#761 = AXIS2_PLACEMENT_3D ( 'NONE', #727, #100, #376 ) ;
#762 = CIRCLE ( 'NONE', #750, 3.049999999999997158 ) ;
#763 = CC_DESIGN_PERSON_AND_ORGANIZATION_ASSIGNMENT ( #426, #788, ( #588 ) ) ;
#764 = EDGE_CURVE ( 'NONE', #72, #875, #145, .T. ) ;
#765 = CARTESIAN_POINT ( 'NONE',  ( 11.00000000000000533, -2.299999999999999822, 35.54999999999996874 ) ) ;
#766 = ORIENTED_EDGE ( 'NONE', *, *, #505, .T. ) ;
#767 = LINE ( 'NONE', #268, #628 ) ;
#768 = APPROVAL_DATE_TIME ( #892, #329 ) ;
#769 = DIRECTION ( 'NONE',  ( -0.000000000000000000, 0.000000000000000000, 1.000000000000000000 ) ) ;
#770 = ORIENTED_EDGE ( 'NONE', *, *, #273, .F. ) ;
#771 = DIRECTION ( 'NONE',  ( 0.000000000000000000, 0.000000000000000000, 1.000000000000000000 ) ) ;
#772 = DIRECTION ( 'NONE',  ( 0.000000000000000000, -0.000000000000000000, 1.000000000000000000 ) ) ;
#773 = VERTEX_POINT ( 'NONE', #838 ) ;
#774 = CARTESIAN_POINT ( 'NONE',  ( 20.00000000000002132, -2.299999999999999822, 1.836970198721036294E-15 ) ) ;
#775 = VERTEX_POINT ( 'NONE', #711 ) ;
#776 = AXIS2_PLACEMENT_3D ( 'NONE', #422, #559, #81 ) ;
#777 = VECTOR ( 'NONE', #610, 1000.000000000000000 ) ;
#778 = LINE ( 'NONE', #552, #34 ) ;
#779 = CARTESIAN_POINT ( 'NONE',  ( 19.00000000000000000, 0.000000000000000000, 194.4500000000000455 ) ) ;
#780 = ORIENTED_EDGE ( 'NONE', *, *, #886, .T. ) ;
#781 = CARTESIAN_POINT ( 'NONE',  ( 0.000000000000000000, -2.299999999999999822, 0.000000000000000000 ) ) ;
#782 = PLANE ( 'NONE',  #776 ) ;
#783 = ORIENTED_EDGE ( 'NONE', *, *, #8, .F. ) ;
#784 = EDGE_CURVE ( 'NONE', #773, #877, #630, .T. ) ;
#785 = DIRECTION ( 'NONE',  ( 1.000000000000000000, -0.000000000000000000, 1.224646799147353454E-16 ) ) ;
#786 = LINE ( 'NONE', #702, #136 ) ;
#787 = VERTEX_POINT ( 'NONE', #848 ) ;
#788 = PERSON_AND_ORGANIZATION_ROLE ( 'design_owner' ) ;
#789 = EDGE_CURVE ( 'NONE', #72, #814, #778, .T. ) ;
#790 = AXIS2_PLACEMENT_3D ( 'NONE', #562, #716, #477 ) ;
#791 = CARTESIAN_POINT ( 'NONE',  ( 19.00000000000001066, 0.000000000000000000, 113.9499999999999886 ) ) ;
#792 = ORIENTED_EDGE ( 'NONE', *, *, #287, .F. ) ;
#793 = APPLICATION_PROTOCOL_DEFINITION ( 'international standard', 'config_control_design', 1994, #203 ) ;
#794 = CARTESIAN_POINT ( 'NONE',  ( 4.999999999999970690, -2.299999999999999822, 5.000000000000001776 ) ) ;
#795 = ORIENTED_EDGE ( 'NONE', *, *, #748, .T. ) ;
#796 = DIRECTION ( 'NONE',  ( 1.000000000000000000, 0.000000000000000000, 1.224646799147353454E-16 ) ) ;
#797 = DIRECTION ( 'NONE',  ( 0.000000000000000000, -1.000000000000000000, 0.000000000000000000 ) ) ;
#798 = FACE_OUTER_BOUND ( 'NONE', #498, .T. ) ;
#799 = ORIENTED_EDGE ( 'NONE', *, *, #764, .T. ) ;
#800 = CARTESIAN_POINT ( 'NONE',  ( 11.00000000000001243, -2.299999999999999822, 120.0500000000000398 ) ) ;
#801 = ADVANCED_FACE ( 'NONE', ( #633, #61, #284 ), #138, .T. ) ;
#802 = CARTESIAN_POINT ( 'NONE',  ( 11.00000000000001243, -2.299999999999999822, 117.0000000000000000 ) ) ;
#803 = VECTOR ( 'NONE', #225, 1000.000000000000000 ) ;
#804 = DIRECTION ( 'NONE',  ( 0.000000000000000000, 0.000000000000000000, 1.000000000000000000 ) ) ;
#805 = VECTOR ( 'NONE', #369, 1000.000000000000000 ) ;
#806 = ORIENTED_EDGE ( 'NONE', *, *, #844, .T. ) ;
#807 = EDGE_LOOP ( 'NONE', ( #482, #219, #780, #502 ) ) ;
#808 =( NAMED_UNIT ( * ) PLANE_ANGLE_UNIT ( ) SI_UNIT ( $, .RADIAN. ) );
#809 = DIRECTION ( 'NONE',  ( -0.000000000000000000, 0.000000000000000000, -1.000000000000000000 ) ) ;
#810 = EDGE_LOOP ( 'NONE', ( #468, #336, #922, #153, #424, #157 ) ) ;
#811 = CARTESIAN_POINT ( 'NONE',  ( 11.00000000000001243, -2.299999999999999822, 113.9499999999999886 ) ) ;
#812 = EDGE_CURVE ( 'NONE', #30, #635, #496, .T. ) ;
#813 = DIRECTION ( 'NONE',  ( 0.000000000000000000, -1.000000000000000000, 0.000000000000000000 ) ) ;
#814 = VERTEX_POINT ( 'NONE', #204 ) ;
#815 = LINE ( 'NONE', #166, #655 ) ;
#816 = PERSON_AND_ORGANIZATION ( #739, #851 ) ;
#817 = ADVANCED_FACE ( 'NONE', ( #491 ), #142, .T. ) ;
#818 = CARTESIAN_POINT ( 'NONE',  ( 19.00000000000001066, 0.000000000000000000, 113.9499999999999886 ) ) ;
#819 = ORIENTED_EDGE ( 'NONE', *, *, #124, .T. ) ;
#820 = VECTOR ( 'NONE', #232, 1000.000000000000000 ) ;
#821 = PLANE ( 'NONE',  #486 ) ;
#822 = ORIENTED_EDGE ( 'NONE', *, *, #340, .T. ) ;
#823 = VECTOR ( 'NONE', #824, 1000.000000000000000 ) ;
#824 = DIRECTION ( 'NONE',  ( 1.000000000000000000, -0.000000000000000000, -0.000000000000000000 ) ) ;
#825 = VERTEX_POINT ( 'NONE', #126 ) ;
#826 = DIRECTION ( 'NONE',  ( -0.000000000000000000, -1.000000000000000000, -0.000000000000000000 ) ) ;
#827 = DIRECTION ( 'NONE',  ( 0.000000000000000000, 0.000000000000000000, -1.000000000000000000 ) ) ;
#828 = ORIENTED_EDGE ( 'NONE', *, *, #380, .T. ) ;
#829 = CARTESIAN_POINT ( 'NONE',  ( 9.999999999999996447, -2.299999999999999822, 230.0000000000000000 ) ) ;
#830 = PRODUCT_DEFINITION ( 'UNKNOWN', '', #565, #130 ) ;
#831 = EDGE_CURVE ( 'NONE', #695, #814, #413, .T. ) ;
#832 = CARTESIAN_POINT ( 'NONE',  ( 19.00000000000000000, 0.000000000000000000, 194.4500000000000455 ) ) ;
#833 = ORIENTED_EDGE ( 'NONE', *, *, #667, .T. ) ;
#834 = CARTESIAN_POINT ( 'NONE',  ( 11.00000000000000355, -2.299999999999999822, 200.5500000000000398 ) ) ;
#835 = ORIENTED_EDGE ( 'NONE', *, *, #638, .F. ) ;
#836 = CIRCLE ( 'NONE', #281, 5.000000000000004441 ) ;
#837 = VECTOR ( 'NONE', #481, 1000.000000000000000 ) ;
#838 = CARTESIAN_POINT ( 'NONE',  ( 4.999999999999994671, -2.299999999999999822, 225.0000000000000000 ) ) ;
#839 = ORIENTED_EDGE ( 'NONE', *, *, #579, .F. ) ;
#840 = FACE_OUTER_BOUND ( 'NONE', #623, .T. ) ;
#841 = APPROVAL_ROLE ( '' ) ;
#842 = CARTESIAN_POINT ( 'NONE',  ( 9.999999999999971578, 0.000000000000000000, 6.123233995736764310E-16 ) ) ;
#843 = ORIENTED_EDGE ( 'NONE', *, *, #599, .T. ) ;
#844 = EDGE_CURVE ( 'NONE', #669, #375, #383, .T. ) ;
#845 = DIRECTION ( 'NONE',  ( -0.000000000000000000, -1.000000000000000000, -0.000000000000000000 ) ) ;
#846 = ORIENTED_EDGE ( 'NONE', *, *, #621, .F. ) ;
#847 = PERSON_AND_ORGANIZATION ( #739, #851 ) ;
#848 = CARTESIAN_POINT ( 'NONE',  ( 25.00000000000002132, -2.299999999999999822, 5.000000000000004441 ) ) ;
#849 = CARTESIAN_POINT ( 'NONE',  ( 19.00000000000000000, -2.299999999999999822, 29.44999999999997442 ) ) ;
#850 = VERTEX_POINT ( 'NONE', #919 ) ;
#851 = ORGANIZATION ( 'UNSPECIFIED', 'UNSPECIFIED', '' ) ;
#852 = CIRCLE ( 'NONE', #761, 5.000000000000000888 ) ;
#853 = AXIS2_PLACEMENT_3D ( 'NONE', #158, #448, #102 ) ;
#854 = LINE ( 'NONE', #274, #837 ) ;
#855 = FACE_OUTER_BOUND ( 'NONE', #611, .T. ) ;
#856 = ORIENTED_EDGE ( 'NONE', *, *, #907, .T. ) ;
#857 = EDGE_CURVE ( 'NONE', #663, #322, #858, .T. ) ;
#858 = LINE ( 'NONE', #214, #471 ) ;
#859 = CARTESIAN_POINT ( 'NONE',  ( 4.999999999999988454, -7.583052320429265957E-31, 165.0000000000000000 ) ) ;
#860 = ORIENTED_EDGE ( 'NONE', *, *, #97, .T. ) ;
#861 = EDGE_CURVE ( 'NONE', #899, #814, #420, .T. ) ;
#862 =( LENGTH_UNIT ( ) NAMED_UNIT ( * ) SI_UNIT ( .MILLI., .METRE. ) );
#863 = DIRECTION ( 'NONE',  ( 0.000000000000000000, -1.000000000000000000, 0.000000000000000000 ) ) ;
#864 = ORIENTED_EDGE ( 'NONE', *, *, #784, .T. ) ;
#865 = VECTOR ( 'NONE', #356, 1000.000000000000000 ) ;
#866 = DIRECTION ( 'NONE',  ( 0.000000000000000000, -1.000000000000000000, 0.000000000000000000 ) ) ;
#867 = AXIS2_PLACEMENT_3D ( 'NONE', #264, #866, #665 ) ;
#868 = DIRECTION ( 'NONE',  ( -0.000000000000000000, 1.000000000000000000, -0.000000000000000000 ) ) ;
#869 = EDGE_LOOP ( 'NONE', ( #596, #201, #265, #929 ) ) ;
#870 = DIRECTION ( 'NONE',  ( -1.000000000000000000, 0.000000000000000000, -0.000000000000000000 ) ) ;
#871 = CARTESIAN_POINT ( 'NONE',  ( 4.999999999999970690, -2.299999999999999822, 5.000000000000001776 ) ) ;
#872 = EDGE_CURVE ( 'NONE', #564, #55, #690, .T. ) ;
#873 = DIRECTION ( 'NONE',  ( 0.000000000000000000, -1.000000000000000000, 0.000000000000000000 ) ) ;
#874 = EDGE_LOOP ( 'NONE', ( #132, #361, #806, #405, #795, #115 ) ) ;
#875 = VERTEX_POINT ( 'NONE', #520 ) ;
#876 = CARTESIAN_POINT ( 'NONE',  ( 24.99999999999999289, -2.299999999999999822, 230.0000000000000000 ) ) ;
#877 = VERTEX_POINT ( 'NONE', #871 ) ;
#878 = PLANE ( 'NONE',  #715 ) ;
#879 = CC_DESIGN_APPROVAL ( #329, ( #565 ) ) ;
#880 = DIRECTION ( 'NONE',  ( 1.000000000000000000, 0.000000000000000000, 0.000000000000000000 ) ) ;
#881 = CIRCLE ( 'NONE', #566, 3.049999999999997158 ) ;
#882 = DIRECTION ( 'NONE',  ( -1.206764157201257045E-16, -0.000000000000000000, 1.000000000000000000 ) ) ;
#883 = VECTOR ( 'NONE', #650, 1000.000000000000000 ) ;
#884 = ORIENTED_EDGE ( 'NONE', *, *, #350, .T. ) ;
#885 = CARTESIAN_POINT ( 'NONE',  ( 4.999999999999986677, -2.385244779468109755E-15, 156.7291473815158156 ) ) ;
#886 = EDGE_CURVE ( 'NONE', #850, #392, #83, .T. ) ;
#887 = DATE_TIME_ROLE ( 'classification_date' ) ;
#888 = CARTESIAN_POINT ( 'NONE',  ( 11.00000000000001243, -2.299999999999999822, 120.0500000000000398 ) ) ;
#889 = ORIENTED_EDGE ( 'NONE', *, *, #259, .T. ) ;
#890 = CARTESIAN_POINT ( 'NONE',  ( 4.999999999999969802, 0.000000000000000000, 0.000000000000000000 ) ) ;
#891 = ADVANCED_FACE ( 'NONE', ( #661 ), #509, .F. ) ;
#892 = DATE_AND_TIME ( #896, #688 ) ;
#893 = DIRECTION ( 'NONE',  ( 1.000000000000000000, -0.000000000000000000, -0.000000000000000000 ) ) ;
#894 = ORIENTED_EDGE ( 'NONE', *, *, #380, .F. ) ;
#895 = DIRECTION ( 'NONE',  ( -0.000000000000000000, 1.000000000000000000, -0.000000000000000000 ) ) ;
#896 = CALENDAR_DATE ( 2026, 2, 6 ) ;
#897 = CC_DESIGN_SECURITY_CLASSIFICATION ( #469, ( #565 ) ) ;
#898 = LINE ( 'NONE', #465, #901 ) ;
#899 = VERTEX_POINT ( 'NONE', #576 ) ;
#900 = VECTOR ( 'NONE', #244, 1000.000000000000000 ) ;
#901 = VECTOR ( 'NONE', #56, 1000.000000000000000 ) ;
#902 = CARTESIAN_POINT ( 'NONE',  ( 25.00000000000002132, 0.000000000000000000, 2.449293598294712824E-15 ) ) ;
#903 = ORIENTED_EDGE ( 'NONE', *, *, #209, .T. ) ;
#904 = LINE ( 'NONE', #332, #777 ) ;
#905 = ORIENTED_EDGE ( 'NONE', *, *, #452, .T. ) ;
#906 = ADVANCED_FACE ( 'NONE', ( #150, #26 ), #229, .T. ) ;
#907 = EDGE_CURVE ( 'NONE', #55, #752, #728, .T. ) ;
#908 = LINE ( 'NONE', #532, #550 ) ;
#909 = CARTESIAN_POINT ( 'NONE',  ( 11.00000000000000533, 0.000000000000000000, 32.49999999999997158 ) ) ;
#910 = ORIENTED_EDGE ( 'NONE', *, *, #101, .F. ) ;
#911 = DIRECTION ( 'NONE',  ( 0.000000000000000000, 0.000000000000000000, -1.000000000000000000 ) ) ;
#912 = CARTESIAN_POINT ( 'NONE',  ( 11.00000000000001243, -2.299999999999999822, 120.0500000000000398 ) ) ;
#913 = ORIENTED_EDGE ( 'NONE', *, *, #194, .T. ) ;
#914 = DIRECTION ( 'NONE',  ( -1.000000000000000000, 0.000000000000000000, -0.000000000000000000 ) ) ;
#915 = LOCAL_TIME ( 10, 28, 5.000000000000000000, #408 ) ;
#916 = VECTOR ( 'NONE', #36, 1000.000000000000000 ) ;
#917 = AXIS2_PLACEMENT_3D ( 'NONE', #41, #542, #188 ) ;
#918 = EDGE_CURVE ( 'NONE', #825, #333, #3, .T. ) ;
#919 = CARTESIAN_POINT ( 'NONE',  ( 19.00000000000000000, 0.000000000000000000, 200.5500000000000398 ) ) ;
#920 = ORIENTED_EDGE ( 'NONE', *, *, #784, .F. ) ;
#921 = CARTESIAN_POINT ( 'NONE',  ( 11.00000000000000355, 0.000000000000000000, 200.5500000000000398 ) ) ;
#922 = ORIENTED_EDGE ( 'NONE', *, *, #447, .T. ) ;
#923 = DIRECTION ( 'NONE',  ( 1.081907158928707939E-16, -0.2923717047227309407, 0.9563047559630372119 ) ) ;
#924 = DIRECTION ( 'NONE',  ( 0.000000000000000000, 0.000000000000000000, 1.000000000000000000 ) ) ;
#925 = ORIENTED_EDGE ( 'NONE', *, *, #764, .F. ) ;
#926 = FACE_OUTER_BOUND ( 'NONE', #527, .T. ) ;
#927 = PRODUCT_RELATED_PRODUCT_CATEGORY ( 'detail', '', ( #588 ) ) ;
#928 = FACE_OUTER_BOUND ( 'NONE', #522, .T. ) ;
#929 = ORIENTED_EDGE ( 'NONE', *, *, #330, .T. ) ;
ENDSEC;
END-ISO-10303-21;
