ISO-10303-21;
HEADER;
FILE_DESCRIPTION (( 'STEP AP203' ),
    '1' );
FILE_NAME ('guide channel adjuster 1.STEP',
    '2026-06-02T08:30:01',
    ( '' ),
    ( '' ),
    'SwSTEP 2.0',
    'SolidWorks 2024',
    '' );
FILE_SCHEMA (( 'CONFIG_CONTROL_DESIGN' ));
ENDSEC;

DATA;
#1 = CARTESIAN_POINT ( 'NONE',  ( 2.300000000000012257, -19.00000000000000355, 113.9499999999999886 ) ) ;
#2 = ORIENTED_EDGE ( 'NONE', *, *, #3, .F. ) ;
#3 = EDGE_CURVE ( 'NONE', #261, #750, #163, .T. ) ;
#4 = ORIENTED_EDGE ( 'NONE', *, *, #835, .F. ) ;
#5 = AXIS2_PLACEMENT_3D ( 'NONE', #22, #151, #303 ) ;
#6 = CC_DESIGN_PERSON_AND_ORGANIZATION_ASSIGNMENT ( #57, #712, ( #79 ) ) ;
#7 = CARTESIAN_POINT ( 'NONE',  ( 2.300000000000019806, -19.99999999999997868, 225.0000000000000000 ) ) ;
#8 = AXIS2_PLACEMENT_3D ( 'NONE', #824, #909, #269 ) ;
#9 = FACE_OUTER_BOUND ( 'NONE', #688, .T. ) ;
#10 = DIRECTION ( 'NONE',  ( -1.000000000000000000, -2.220446049250313081E-16, 6.938893903907225912E-17 ) ) ;
#11 = DIRECTION ( 'NONE',  ( -1.000000000000000000, -2.220446049250313081E-16, 6.938893903907225912E-17 ) ) ;
#12 = EDGE_CURVE ( 'NONE', #897, #861, #85, .T. ) ;
#13 = DIRECTION ( 'NONE',  ( 0.000000000000000000, 0.000000000000000000, -1.000000000000000000 ) ) ;
#14 = CARTESIAN_POINT ( 'NONE',  ( 2.300000000000015810, -10.99999999999999112, 194.4500000000000455 ) ) ;
#15 = DIRECTION ( 'NONE',  ( 4.336808689942014038E-17, 0.000000000000000000, 1.000000000000000000 ) ) ;
#16 = ORIENTED_EDGE ( 'NONE', *, *, #812, .F. ) ;
#17 = PLANE ( 'NONE',  #575 ) ;
#18 = ADVANCED_FACE ( 'NONE', ( #25 ), #591, .F. ) ;
#19 = AXIS2_PLACEMENT_3D ( 'NONE', #414, #679, #536 ) ;
#20 = VECTOR ( 'NONE', #597, 1000.000000000000000 ) ;
#21 = FACE_BOUND ( 'NONE', #568, .T. ) ;
#22 = CARTESIAN_POINT ( 'NONE',  ( 2.300000000000004707, -11.00000000000000355, 32.49999999999997158 ) ) ;
#23 = LINE ( 'NONE', #312, #391 ) ;
#24 = LINE ( 'NONE', #449, #293 ) ;
#25 = FACE_OUTER_BOUND ( 'NONE', #711, .T. ) ;
#26 = DIRECTION ( 'NONE',  ( -4.336808689942015887E-17, 4.374520069854559191E-17, -1.000000000000000000 ) ) ;
#27 = DIRECTION ( 'NONE',  ( -6.938893903907228378E-17, 4.374520069854559807E-17, -1.000000000000000000 ) ) ;
#28 = EDGE_CURVE ( 'NONE', #850, #750, #737, .T. ) ;
#29 = ORIENTED_EDGE ( 'NONE', *, *, #903, .F. ) ;
#30 = CARTESIAN_POINT ( 'NONE',  ( 2.300000000000012257, -19.00000000000000355, 113.9499999999999886 ) ) ;
#31 = ORIENTED_EDGE ( 'NONE', *, *, #96, .F. ) ;
#32 = CARTESIAN_POINT ( 'NONE',  ( 2.300000000000018030, -9.999999999999980460, 230.0000000000000000 ) ) ;
#33 = VERTEX_POINT ( 'NONE', #796 ) ;
#34 = AXIS2_PLACEMENT_3D ( 'NONE', #749, #177, #898 ) ;
#35 = LINE ( 'NONE', #818, #499 ) ;
#36 = FACE_OUTER_BOUND ( 'NONE', #114, .T. ) ;
#37 = CARTESIAN_POINT ( 'NONE',  ( 1.077263278581597679E-14, -11.00000000000000533, 120.0500000000000398 ) ) ;
#38 = ORIENTED_EDGE ( 'NONE', *, *, #54, .F. ) ;
#39 = PLANE ( 'NONE',  #876 ) ;
#40 = ORIENTED_EDGE ( 'NONE', *, *, #579, .T. ) ;
#41 = ADVANCED_FACE ( 'NONE', ( #667 ), #512, .F. ) ;
#42 = CYLINDRICAL_SURFACE ( 'NONE', #702, 3.049999999999997158 ) ;
#43 = ADVANCED_FACE ( 'NONE', ( #9 ), #17, .T. ) ;
#44 = ORIENTED_EDGE ( 'NONE', *, *, #338, .F. ) ;
#45 = CARTESIAN_POINT ( 'NONE',  ( 2.300000000000016254, -10.99999999999999112, 197.5000000000000284 ) ) ;
#46 = VERTEX_POINT ( 'NONE', #313 ) ;
#47 = DIRECTION ( 'NONE',  ( -2.220446049250313081E-16, 1.000000000000000000, -1.900653547591979636E-16 ) ) ;
#48 = CARTESIAN_POINT ( 'NONE',  ( 4.485994908876021568E-15, -11.00000000000000178, 29.44999999999997442 ) ) ;
#49 = ORIENTED_EDGE ( 'NONE', *, *, #290, .T. ) ;
#50 = FACE_BOUND ( 'NONE', #207, .T. ) ;
#51 = ORIENTED_EDGE ( 'NONE', *, *, #664, .T. ) ;
#52 = CARTESIAN_POINT ( 'NONE',  ( 1.110223024625149835E-15, -4.999999999999969802, 3.469446951953591509E-16 ) ) ;
#53 = ORIENTED_EDGE ( 'NONE', *, *, #372, .T. ) ;
#54 = EDGE_CURVE ( 'NONE', #682, #649, #232, .T. ) ;
#55 = ORIENTED_EDGE ( 'NONE', *, *, #802, .T. ) ;
#56 = VERTEX_POINT ( 'NONE', #311 ) ;
#57 = PERSON_AND_ORGANIZATION ( #423, #741 ) ;
#58 = VERTEX_POINT ( 'NONE', #599 ) ;
#59 = ADVANCED_FACE ( 'NONE', ( #508 ), #884, .T. ) ;
#60 = ORIENTED_EDGE ( 'NONE', *, *, #452, .T. ) ;
#61 = PERSON_AND_ORGANIZATION_ROLE ( 'design_supplier' ) ;
#62 = CARTESIAN_POINT ( 'NONE',  ( 2.300000000000006484, -18.99999999999999645, 32.49999999999997158 ) ) ;
#63 = CIRCLE ( 'NONE', #572, 3.049999999999997158 ) ;
#64 = ORIENTED_EDGE ( 'NONE', *, *, #12, .F. ) ;
#65 = VECTOR ( 'NONE', #99, 1000.000000000000000 ) ;
#66 = APPROVAL_PERSON_ORGANIZATION ( #145, #655, #918 ) ;
#67 = FACE_OUTER_BOUND ( 'NONE', #912, .T. ) ;
#68 = VERTEX_POINT ( 'NONE', #74 ) ;
#69 = EDGE_CURVE ( 'NONE', #543, #294, #732, .T. ) ;
#70 = LINE ( 'NONE', #148, #828 ) ;
#71 = CARTESIAN_POINT ( 'NONE',  ( 2.300000000000012257, -19.00000000000000355, 113.9499999999999886 ) ) ;
#72 = ORIENTED_EDGE ( 'NONE', *, *, #212, .F. ) ;
#73 = DIRECTION ( 'NONE',  ( -6.938893903907228378E-17, 0.000000000000000000, -1.000000000000000000 ) ) ;
#74 = CARTESIAN_POINT ( 'NONE',  ( 2.300000000000017586, -18.99999999999998579, 194.4500000000000455 ) ) ;
#75 = AXIS2_PLACEMENT_3D ( 'NONE', #364, #509, #652 ) ;
#76 = AXIS2_PLACEMENT_3D ( 'NONE', #441, #799, #584 ) ;
#77 = EDGE_CURVE ( 'NONE', #261, #473, #777, .T. ) ;
#78 = VECTOR ( 'NONE', #461, 1000.000000000000000 ) ;
#79 = PRODUCT_DEFINITION_FORMATION_WITH_SPECIFIED_SOURCE ( 'ANY', '', #299, .NOT_KNOWN. ) ;
#80 = DIRECTION ( 'NONE',  ( 6.938893903907223447E-17, 1.918536189538076291E-16, 1.000000000000000000 ) ) ;
#81 = DIRECTION ( 'NONE',  ( 6.938893903907197563E-17, 0.000000000000000000, 1.000000000000000000 ) ) ;
#82 = PLANE ( 'NONE',  #588 ) ;
#83 = CARTESIAN_POINT ( 'NONE',  ( 4.909267437014362499E-15, -11.00000000000000355, 35.54999999999996874 ) ) ;
#84 = EDGE_CURVE ( 'NONE', #555, #143, #880, .T. ) ;
#85 = LINE ( 'NONE', #443, #707 ) ;
#86 = FACE_BOUND ( 'NONE', #346, .T. ) ;
#87 = DIRECTION ( 'NONE',  ( -2.220446049250313081E-16, 1.000000000000000000, -6.938893903907225912E-17 ) ) ;
#88 = VECTOR ( 'NONE', #593, 1000.000000000000000 ) ;
#89 = CIRCLE ( 'NONE', #624, 5.000000000000000000 ) ;
#90 = CARTESIAN_POINT ( 'NONE',  ( 2.300000000000004707, -20.00000000000002132, 5.000000000000005329 ) ) ;
#91 = AXIS2_PLACEMENT_3D ( 'NONE', #267, #47, #388 ) ;
#92 = MANIFOLD_SOLID_BREP ( 'Stock-minilip main body-1', #529 ) ;
#93 = DIRECTION ( 'NONE',  ( 6.938893903907225912E-17, 6.938893903907227145E-17, 1.000000000000000000 ) ) ;
#94 = VECTOR ( 'NONE', #260, 1000.000000000000000 ) ;
#95 = CARTESIAN_POINT ( 'NONE',  ( 2.300000000000016254, -10.99999999999998934, 200.5500000000000398 ) ) ;
#96 = EDGE_CURVE ( 'NONE', #611, #294, #595, .T. ) ;
#97 = ORIENTED_EDGE ( 'NONE', *, *, #237, .F. ) ;
#98 = CARTESIAN_POINT ( 'NONE',  ( 2.300000000000005151, -11.00000000000000355, 35.54999999999996874 ) ) ;
#99 = DIRECTION ( 'NONE',  ( 1.000000000000000000, 2.220446049250313081E-16, -6.938893903907225912E-17 ) ) ;
#100 = ORIENTED_EDGE ( 'NONE', *, *, #645, .F. ) ;
#101 = PLANE ( 'NONE',  #91 ) ;
#102 = CARTESIAN_POINT ( 'NONE',  ( 2.300000000000010481, -11.00000000000000533, 113.9499999999999886 ) ) ;
#103 = ORIENTED_EDGE ( 'NONE', *, *, #165, .F. ) ;
#104 = UNCERTAINTY_MEASURE_WITH_UNIT (LENGTH_MEASURE( 1.000000000000000082E-05 ), #487, 'distance_accuracy_value', 'NONE');
#105 = EDGE_CURVE ( 'NONE', #766, #850, #815, .T. ) ;
#106 = CARTESIAN_POINT ( 'NONE',  ( 2.300000000000010925, -11.00000000000000533, 120.0500000000000398 ) ) ;
#107 = ORIENTED_EDGE ( 'NONE', *, *, #495, .F. ) ;
#108 = DIRECTION ( 'NONE',  ( -1.000000000000000000, -2.220446049250313081E-16, 6.938893903907225912E-17 ) ) ;
#109 = CARTESIAN_POINT ( 'NONE',  ( 2.005340338229188055E-14, -19.99999999999997868, 225.0000000000000000 ) ) ;
#110 = ORIENTED_EDGE ( 'NONE', *, *, #464, .F. ) ;
#111 = CARTESIAN_POINT ( 'NONE',  ( 0.000000000000000000, 0.000000000000000000, 0.000000000000000000 ) ) ;
#112 = VERTEX_POINT ( 'NONE', #228 ) ;
#113 = DIRECTION ( 'NONE',  ( 1.000000000000000000, 2.220446049250313081E-16, -4.336808689942014038E-17 ) ) ;
#114 = EDGE_LOOP ( 'NONE', ( #781, #559, #275, #755 ) ) ;
#115 = DIRECTION ( 'NONE',  ( 8.673617379884035472E-17, 0.000000000000000000, 1.000000000000000000 ) ) ;
#116 = ORIENTED_EDGE ( 'NONE', *, *, #212, .T. ) ;
#117 = CARTESIAN_POINT ( 'NONE',  ( 2.300000000000018030, -18.99999999999998579, 200.5500000000000398 ) ) ;
#118 = EDGE_CURVE ( 'NONE', #143, #923, #740, .T. ) ;
#119 = ORIENTED_EDGE ( 'NONE', *, *, #96, .T. ) ;
#120 = MECHANICAL_CONTEXT ( 'NONE', #849, 'mechanical' ) ;
#121 = EDGE_LOOP ( 'NONE', ( #821, #476, #478, #483 ) ) ;
#122 = VECTOR ( 'NONE', #210, 1000.000000000000000 ) ;
#123 = DIRECTION ( 'NONE',  ( -6.938893903907228378E-17, 0.000000000000000000, -1.000000000000000000 ) ) ;
#124 = VECTOR ( 'NONE', #27, 1000.000000000000000 ) ;
#125 = AXIS2_PLACEMENT_3D ( 'NONE', #369, #656, #13 ) ;
#126 = CC_DESIGN_APPROVAL ( #160, ( #307 ) ) ;
#127 = ORIENTED_EDGE ( 'NONE', *, *, #552, .F. ) ;
#128 = EDGE_CURVE ( 'NONE', #894, #225, #524, .T. ) ;
#129 = VECTOR ( 'NONE', #808, 1000.000000000000000 ) ;
#130 = VERTEX_POINT ( 'NONE', #300 ) ;
#131 = FACE_OUTER_BOUND ( 'NONE', #867, .T. ) ;
#132 = CARTESIAN_POINT ( 'NONE',  ( 1.771152668972319728E-14, -18.99999999999998579, 194.4500000000000455 ) ) ;
#133 = ORIENTED_EDGE ( 'NONE', *, *, #685, .T. ) ;
#134 = COORDINATED_UNIVERSAL_TIME_OFFSET ( 1, 0, .AHEAD. ) ;
#135 = ORIENTED_EDGE ( 'NONE', *, *, #673, .T. ) ;
#136 = FACE_OUTER_BOUND ( 'NONE', #462, .T. ) ;
#137 = ORIENTED_EDGE ( 'NONE', *, *, #650, .F. ) ;
#138 = DATE_AND_TIME ( #351, #185 ) ;
#139 = EDGE_CURVE ( 'NONE', #225, #611, #585, .T. ) ;
#140 = CARTESIAN_POINT ( 'NONE',  ( 4.697631172945192034E-15, -11.00000000000000355, 32.49999999999997158 ) ) ;
#141 = CARTESIAN_POINT ( 'NONE',  ( 1.457167719820511648E-15, -4.999999999999970690, 5.000000000000001776 ) ) ;
#142 = ADVANCED_FACE ( 'NONE', ( #253 ), #896, .F. ) ;
#143 = VERTEX_POINT ( 'NONE', #610 ) ;
#144 = DIRECTION ( 'NONE',  ( 1.000000000000000000, 2.220446049250313081E-16, -6.938893903907225912E-17 ) ) ;
#145 = PERSON_AND_ORGANIZATION ( #423, #741 ) ;
#146 = CC_DESIGN_PERSON_AND_ORGANIZATION_ASSIGNMENT ( #199, #355, ( #307 ) ) ;
#147 = ORIENTED_EDGE ( 'NONE', *, *, #479, .T. ) ;
#148 = CARTESIAN_POINT ( 'NONE',  ( 2.300000000000017586, -18.99999999999998579, 194.4500000000000455 ) ) ;
#149 = CARTESIAN_POINT ( 'NONE',  ( 0.9999999999999917843, 3.331086545984695224, 106.9999999999999858 ) ) ;
#150 = EDGE_CURVE ( 'NONE', #252, #261, #837, .T. ) ;
#151 = DIRECTION ( 'NONE',  ( -1.000000000000000000, -2.220446049250313081E-16, 6.938893903907225912E-17 ) ) ;
#152 = CARTESIAN_POINT ( 'NONE',  ( 0.9999999999999978906, -24.99999999999998579, 102.0000000000000000 ) ) ;
#153 = DIRECTION ( 'NONE',  ( -1.000000000000000000, -2.220446049250313081E-16, 6.938893903907225912E-17 ) ) ;
#154 = CIRCLE ( 'NONE', #167, 5.000000000000004441 ) ;
#155 = CIRCLE ( 'NONE', #415, 5.000000000000000000 ) ;
#156 = CC_DESIGN_DATE_AND_TIME_ASSIGNMENT ( #420, #858, ( #820 ) ) ;
#157 = DIRECTION ( 'NONE',  ( 8.673617379884028076E-17, -3.469446951953611033E-15, 1.000000000000000000 ) ) ;
#158 = FACE_OUTER_BOUND ( 'NONE', #216, .T. ) ;
#159 = CARTESIAN_POINT ( 'NONE',  ( 2.300000000000019806, -19.99999999999997868, 225.0000000000000000 ) ) ;
#160 = APPROVAL ( #718, 'UNSPECIFIED' ) ;
#161 = DIRECTION ( 'NONE',  ( -1.000000000000000000, -2.220446049250313081E-16, 6.938893903907225912E-17 ) ) ;
#162 = DIRECTION ( 'NONE',  ( 6.938893903907225912E-17, 6.938893903907227145E-17, 1.000000000000000000 ) ) ;
#163 = LINE ( 'NONE', #440, #446 ) ;
#164 = CARTESIAN_POINT ( 'NONE',  ( 2.300000000000021583, -24.99999999999997868, 230.0000000000000000 ) ) ;
#165 = EDGE_CURVE ( 'NONE', #112, #256, #283, .T. ) ;
#166 = DIRECTION ( 'NONE',  ( 6.938893903907228378E-17, 0.000000000000000000, 1.000000000000000000 ) ) ;
#167 = AXIS2_PLACEMENT_3D ( 'NONE', #838, #254, #687 ) ;
#168 = AXIS2_PLACEMENT_3D ( 'NONE', #159, #243, #653 ) ;
#169 = CYLINDRICAL_SURFACE ( 'NONE', #392, 5.000000000000000000 ) ;
#170 = CARTESIAN_POINT ( 'NONE',  ( 2.300000000000004707, -20.00000000000002132, 5.000000000000005329 ) ) ;
#171 = CARTESIAN_POINT ( 'NONE',  ( 2.300000000000021139, -24.99999999999998224, 225.0000000000000000 ) ) ;
#172 = VERTEX_POINT ( 'NONE', #913 ) ;
#173 = CARTESIAN_POINT ( 'NONE',  ( 6.158268339717669129E-15, -4.999999999999975131, 98.72914738151580138 ) ) ;
#174 = CARTESIAN_POINT ( 'NONE',  ( 2.300000000000004707, -11.00000000000000355, 32.49999999999997158 ) ) ;
#175 = ADVANCED_FACE ( 'NONE', ( #384 ), #42, .F. ) ;
#176 = ORIENTED_EDGE ( 'NONE', *, *, #290, .F. ) ;
#177 = DIRECTION ( 'NONE',  ( -1.000000000000000000, -2.220446049250313081E-16, 6.938893903907227145E-17 ) ) ;
#178 = VERTEX_POINT ( 'NONE', #829 ) ;
#179 = DIRECTION ( 'NONE',  ( 0.000000000000000000, 0.000000000000000000, 1.000000000000000000 ) ) ;
#180 = VERTEX_POINT ( 'NONE', #814 ) ;
#181 = FACE_OUTER_BOUND ( 'NONE', #847, .T. ) ;
#182 = ADVANCED_FACE ( 'NONE', ( #758 ), #535, .F. ) ;
#183 = VECTOR ( 'NONE', #144, 1000.000000000000000 ) ;
#184 = ORIENTED_EDGE ( 'NONE', *, *, #486, .T. ) ;
#185 = LOCAL_TIME ( 10, 30, 1.000000000000000000, #429 ) ;
#186 = DIRECTION ( 'NONE',  ( 6.938893903907197563E-17, 0.000000000000000000, 1.000000000000000000 ) ) ;
#187 = ORIENTED_EDGE ( 'NONE', *, *, #118, .T. ) ;
#188 = LINE ( 'NONE', #617, #623 ) ;
#189 = ORIENTED_EDGE ( 'NONE', *, *, #128, .T. ) ;
#190 = DIRECTION ( 'NONE',  ( 2.220446049250313081E-16, -1.000000000000000000, 1.918536189538076045E-16 ) ) ;
#191 = DIRECTION ( 'NONE',  ( 0.000000000000000000, 0.000000000000000000, 1.000000000000000000 ) ) ;
#192 = ORIENTED_EDGE ( 'NONE', *, *, #479, .F. ) ;
#193 = PERSON_AND_ORGANIZATION ( #423, #741 ) ;
#194 = ORIENTED_EDGE ( 'NONE', *, *, #723, .F. ) ;
#195 = CARTESIAN_POINT ( 'NONE',  ( 0.9999999999999981126, -4.999999999999975131, 106.9999999999999858 ) ) ;
#196 = CARTESIAN_POINT ( 'NONE',  ( 2.300000000000018030, -18.99999999999998579, 197.5000000000000284 ) ) ;
#197 = ADVANCED_FACE ( 'NONE', ( #671 ), #408, .F. ) ;
#198 = ORIENTED_EDGE ( 'NONE', *, *, #832, .F. ) ;
#199 = PERSON_AND_ORGANIZATION ( #423, #741 ) ;
#200 = ORIENTED_EDGE ( 'NONE', *, *, #84, .F. ) ;
#201 = CARTESIAN_POINT ( 'NONE',  ( 5.898059818321149643E-15, -25.00000000000002132, 5.000000000000006217 ) ) ;
#202 = CARTESIAN_POINT ( 'NONE',  ( 1.813479921786153821E-14, -18.99999999999998579, 200.5500000000000398 ) ) ;
#203 = VECTOR ( 'NONE', #15, 1000.000000000000000 ) ;
#204 = VECTOR ( 'NONE', #87, 1000.000000000000000 ) ;
#205 = ORIENTED_EDGE ( 'NONE', *, *, #748, .T. ) ;
#206 = DIRECTION ( 'NONE',  ( 0.000000000000000000, 0.000000000000000000, 1.000000000000000000 ) ) ;
#207 = EDGE_LOOP ( 'NONE', ( #100, #571, #694, #853 ) ) ;
#208 = DIRECTION ( 'NONE',  ( 0.000000000000000000, 0.000000000000000000, 1.000000000000000000 ) ) ;
#209 = CARTESIAN_POINT ( 'NONE',  ( 1.771152668972319728E-14, -18.99999999999998579, 194.4500000000000455 ) ) ;
#210 = DIRECTION ( 'NONE',  ( -1.000000000000000000, -2.220446049250313081E-16, 6.938893903907225912E-17 ) ) ;
#211 = ORIENTED_EDGE ( 'NONE', *, *, #495, .T. ) ;
#212 = EDGE_CURVE ( 'NONE', #376, #648, #698, .T. ) ;
#213 =( NAMED_UNIT ( * ) SI_UNIT ( $, .STERADIAN. ) SOLID_ANGLE_UNIT ( ) );
#214 = EDGE_CURVE ( 'NONE', #897, #635, #403, .T. ) ;
#215 = CARTESIAN_POINT ( 'NONE',  ( 2.300000000000004707, -11.00000000000000178, 29.44999999999997442 ) ) ;
#216 = EDGE_LOOP ( 'NONE', ( #644, #887, #107, #332 ) ) ;
#217 = CALENDAR_DATE ( 2026, 2, 6 ) ;
#218 = CARTESIAN_POINT ( 'NONE',  ( 2.300000000000001155, -4.999999999999968914, 1.873501354054929722E-16 ) ) ;
#219 = DIRECTION ( 'NONE',  ( 6.938893903907225912E-17, 6.938893903907227145E-17, 1.000000000000000000 ) ) ;
#220 = VECTOR ( 'NONE', #788, 1000.000000000000000 ) ;
#221 = VECTOR ( 'NONE', #855, 1000.000000000000000 ) ;
#222 = ORIENTED_EDGE ( 'NONE', *, *, #105, .T. ) ;
#223 = AXIS2_PLACEMENT_3D ( 'NONE', #109, #891, #186 ) ;
#224 = DIRECTION ( 'NONE',  ( -1.000000000000000000, -2.220446049250313081E-16, 6.938893903907225912E-17 ) ) ;
#225 = VERTEX_POINT ( 'NONE', #102 ) ;
#226 = CARTESIAN_POINT ( 'NONE',  ( 2.300000000000001155, -4.999999999999968914, 1.873501354054929722E-16 ) ) ;
#227 = DIRECTION ( 'NONE',  ( 8.673617379884035472E-17, 0.000000000000000000, 1.000000000000000000 ) ) ;
#228 = CARTESIAN_POINT ( 'NONE',  ( 2.040034807748724512E-14, -19.99999999999997513, 230.0000000000000000 ) ) ;
#229 = EDGE_CURVE ( 'NONE', #504, #58, #274, .T. ) ;
#230 = DIRECTION ( 'NONE',  ( -2.220446049250313081E-16, 1.000000000000000000, -6.938893903907225912E-17 ) ) ;
#231 = CARTESIAN_POINT ( 'NONE',  ( 2.300000000000012701, -19.00000000000000355, 120.0500000000000398 ) ) ;
#232 = LINE ( 'NONE', #801, #129 ) ;
#233 = VECTOR ( 'NONE', #108, 1000.000000000000000 ) ;
#234 = FACE_OUTER_BOUND ( 'NONE', #616, .T. ) ;
#235 = PLANE ( 'NONE',  #494 ) ;
#236 = CARTESIAN_POINT ( 'NONE',  ( 2.300000000000017142, -4.999999999999979572, 230.0000000000000000 ) ) ;
#237 = EDGE_CURVE ( 'NONE', #46, #554, #531, .T. ) ;
#238 = FACE_OUTER_BOUND ( 'NONE', #919, .T. ) ;
#239 = EDGE_CURVE ( 'NONE', #554, #842, #155, .T. ) ;
#240 = CARTESIAN_POINT ( 'NONE',  ( 6.473988012345441710E-15, -18.99999999999999645, 32.49999999999997158 ) ) ;
#241 = LINE ( 'NONE', #451, #183 ) ;
#242 = DIRECTION ( 'NONE',  ( -1.000000000000000000, -2.220446049250313081E-16, 6.938893903907225912E-17 ) ) ;
#243 = DIRECTION ( 'NONE',  ( -1.000000000000000000, -2.220446049250313081E-16, 6.938893903907225912E-17 ) ) ;
#244 = AXIS2_PLACEMENT_3D ( 'NONE', #726, #153, #373 ) ;
#245 = CC_DESIGN_APPROVAL ( #655, ( #820 ) ) ;
#246 = CARTESIAN_POINT ( 'NONE',  ( 2.300000000000016254, -10.99999999999999112, 197.5000000000000284 ) ) ;
#247 = ORIENTED_EDGE ( 'NONE', *, *, #866, .T. ) ;
#248 = ADVANCED_FACE ( 'NONE', ( #36 ), #469, .T. ) ;
#249 = CARTESIAN_POINT ( 'NONE',  ( 2.300000000000018030, -18.99999999999998579, 197.5000000000000284 ) ) ;
#250 = ORIENTED_EDGE ( 'NONE', *, *, #633, .T. ) ;
#251 = DIRECTION ( 'NONE',  ( 6.938893903907223447E-17, 1.900653547591979883E-16, 1.000000000000000000 ) ) ;
#252 = VERTEX_POINT ( 'NONE', #678 ) ;
#253 = FACE_OUTER_BOUND ( 'NONE', #419, .T. ) ;
#254 = DIRECTION ( 'NONE',  ( -1.000000000000000000, -2.220446049250313081E-16, 6.938893903907225912E-17 ) ) ;
#255 = ADVANCED_FACE ( 'NONE', ( #344 ), #331, .T. ) ;
#256 = VERTEX_POINT ( 'NONE', #324 ) ;
#257 = LINE ( 'NONE', #328, #20 ) ;
#258 = ORIENTED_EDGE ( 'NONE', *, *, #615, .F. ) ;
#259 = DIRECTION ( 'NONE',  ( 2.220446049250313081E-16, -1.000000000000000000, 6.938893903907225912E-17 ) ) ;
#260 = DIRECTION ( 'NONE',  ( 2.220446049250313081E-16, -1.000000000000000000, 6.938893903907225912E-17 ) ) ;
#261 = VERTEX_POINT ( 'NONE', #98 ) ;
#262 = VECTOR ( 'NONE', #714, 1000.000000000000000 ) ;
#263 = DIRECTION ( 'NONE',  ( -1.000000000000000000, -2.220446049250313081E-16, 6.938893903907227145E-17 ) ) ;
#264 = ORIENTED_EDGE ( 'NONE', *, *, #754, .F. ) ;
#265 = CIRCLE ( 'NONE', #910, 3.050000000000024691 ) ;
#266 = CC_DESIGN_SECURITY_CLASSIFICATION ( #307, ( #79 ) ) ;
#267 = CARTESIAN_POINT ( 'NONE',  ( 2.300000000000021583, -24.99999999999997868, 230.0000000000000000 ) ) ;
#268 = AXIS2_PLACEMENT_3D ( 'NONE', #62, #845, #208 ) ;
#269 = DIRECTION ( 'NONE',  ( 0.000000000000000000, 0.000000000000000000, 1.000000000000000000 ) ) ;
#270 = VERTEX_POINT ( 'NONE', #48 ) ;
#271 = PERSON_AND_ORGANIZATION ( #423, #741 ) ;
#272 = ORIENTED_EDGE ( 'NONE', *, *, #28, .F. ) ;
#273 = EDGE_CURVE ( 'NONE', #337, #180, #336, .T. ) ;
#274 = LINE ( 'NONE', #542, #848 ) ;
#275 = ORIENTED_EDGE ( 'NONE', *, *, #802, .F. ) ;
#276 = SECURITY_CLASSIFICATION_LEVEL ( 'unclassified' ) ;
#277 = VERTEX_POINT ( 'NONE', #132 ) ;
#278 = LINE ( 'NONE', #286, #810 ) ;
#279 = ORIENTED_EDGE ( 'NONE', *, *, #452, .F. ) ;
#280 = DIRECTION ( 'NONE',  ( 1.000000000000000000, 2.220446049250313081E-16, -6.938893903907225912E-17 ) ) ;
#281 = DATE_AND_TIME ( #217, #661 ) ;
#282 = ORIENTED_EDGE ( 'NONE', *, *, #239, .T. ) ;
#283 = CIRCLE ( 'NONE', #223, 5.000000000000004441 ) ;
#284 = ORIENTED_EDGE ( 'NONE', *, *, #832, .T. ) ;
#285 = CALENDAR_DATE ( 2026, 2, 6 ) ;
#286 = CARTESIAN_POINT ( 'NONE',  ( 2.300000000000020250, -19.99999999999997513, 230.0000000000000000 ) ) ;
#287 = CARTESIAN_POINT ( 'NONE',  ( 2.300000000000006928, -18.99999999999999645, 35.54999999999996874 ) ) ;
#288 = ORIENTED_EDGE ( 'NONE', *, *, #615, .T. ) ;
#289 = ORIENTED_EDGE ( 'NONE', *, *, #358, .F. ) ;
#290 = EDGE_CURVE ( 'NONE', #611, #337, #265, .T. ) ;
#291 = CARTESIAN_POINT ( 'NONE',  ( 2.300000000000017586, -18.99999999999998579, 194.4500000000000455 ) ) ;
#292 = AXIS2_PLACEMENT_3D ( 'NONE', #218, #697, #349 ) ;
#293 = VECTOR ( 'NONE', #335, 1000.000000000000000 ) ;
#294 = VERTEX_POINT ( 'NONE', #852 ) ;
#295 = AXIS2_PLACEMENT_3D ( 'NONE', #445, #437, #81 ) ;
#296 = DIRECTION ( 'NONE',  ( -0.2923717047227296639, -2.308581618783966294E-17, -0.9563047559630376560 ) ) ;
#297 = CARTESIAN_POINT ( 'NONE',  ( 2.300000000000012257, -19.00000000000000355, 113.9499999999999886 ) ) ;
#298 = DIRECTION ( 'NONE',  ( 6.938893903907223447E-17, 1.900653547591979883E-16, 1.000000000000000000 ) ) ;
#299 = PRODUCT ( 'guide channel adjuster 1', 'guide channel adjuster 1', '', ( #120 ) ) ;
#300 = CARTESIAN_POINT ( 'NONE',  ( 2.300000000000020250, -19.99999999999997513, 230.0000000000000000 ) ) ;
#301 = LINE ( 'NONE', #659, #862 ) ;
#302 = EDGE_CURVE ( 'NONE', #252, #850, #926, .T. ) ;
#303 = DIRECTION ( 'NONE',  ( 0.000000000000000000, 0.000000000000000000, -1.000000000000000000 ) ) ;
#304 = CARTESIAN_POINT ( 'NONE',  ( 1.077263278581597679E-14, -11.00000000000000533, 120.0500000000000398 ) ) ;
#305 = ADVANCED_FACE ( 'NONE', ( #647 ), #553, .T. ) ;
#306 = AXIS2_PLACEMENT_3D ( 'NONE', #484, #489, #343 ) ;
#307 = SECURITY_CLASSIFICATION ( '', '', #276 ) ;
#308 = LINE ( 'NONE', #291, #88 ) ;
#309 = PLANE ( 'NONE',  #907 ) ;
#310 = CARTESIAN_POINT ( 'NONE',  ( 2.300000000000006484, -18.99999999999999645, 32.49999999999997158 ) ) ;
#311 = CARTESIAN_POINT ( 'NONE',  ( -5.551115123125789013E-15, -4.999999999999971578, 106.9999999999999858 ) ) ;
#312 = CARTESIAN_POINT ( 'NONE',  ( 1.706967900361177550E-14, -4.999999999999980460, 230.0000000000000000 ) ) ;
#313 = CARTESIAN_POINT ( 'NONE',  ( 2.300000000000002043, -9.999999999999971578, 1.146618230174530748E-15 ) ) ;
#314 = EDGE_CURVE ( 'NONE', #861, #684, #580, .T. ) ;
#315 = CARTESIAN_POINT ( 'NONE',  ( 2.299999999999999822, 5.107025913275719692E-16, -1.595945597898662034E-16 ) ) ;
#316 = ORIENTED_EDGE ( 'NONE', *, *, #214, .T. ) ;
#317 = LINE ( 'NONE', #602, #393 ) ;
#318 = CARTESIAN_POINT ( 'NONE',  ( 2.300000000000012701, -19.00000000000000355, 120.0500000000000398 ) ) ;
#319 = ORIENTED_EDGE ( 'NONE', *, *, #139, .T. ) ;
#320 = VECTOR ( 'NONE', #517, 1000.000000000000000 ) ;
#321 = DIRECTION ( 'NONE',  ( 6.938893903907225912E-17, 6.938893903907225912E-17, 1.000000000000000000 ) ) ;
#322 = ORIENTED_EDGE ( 'NONE', *, *, #54, .T. ) ;
#323 = CC_DESIGN_PERSON_AND_ORGANIZATION_ASSIGNMENT ( #709, #786, ( #820 ) ) ;
#324 = CARTESIAN_POINT ( 'NONE',  ( 2.116362640691704024E-14, -24.99999999999998224, 225.0000000000000000 ) ) ;
#325 = CARTESIAN_POINT ( 'NONE',  ( 1.034936025767762955E-14, -11.00000000000000533, 113.9499999999999886 ) ) ;
#326 = ORIENTED_EDGE ( 'NONE', *, *, #417, .T. ) ;
#327 = DESIGN_CONTEXT ( 'detailed design', #409, 'design' ) ;
#328 = CARTESIAN_POINT ( 'NONE',  ( 2.300000000000010925, -11.00000000000000533, 120.0500000000000398 ) ) ;
#329 = ORIENTED_EDGE ( 'NONE', *, *, #84, .T. ) ;
#330 = LINE ( 'NONE', #767, #800 ) ;
#331 = PLANE ( 'NONE',  #863 ) ;
#332 = ORIENTED_EDGE ( 'NONE', *, *, #229, .T. ) ;
#333 = DIRECTION ( 'NONE',  ( -1.000000000000000000, -2.220446049250313081E-16, 6.938893903907225912E-17 ) ) ;
#334 = ORIENTED_EDGE ( 'NONE', *, *, #727, .F. ) ;
#335 = DIRECTION ( 'NONE',  ( 2.220446049250313081E-16, -1.000000000000000000, 6.938893903907225912E-17 ) ) ;
#336 = LINE ( 'NONE', #318, #729 ) ;
#337 = VERTEX_POINT ( 'NONE', #231 ) ;
#338 = EDGE_CURVE ( 'NONE', #842, #454, #330, .T. ) ;
#339 = AXIS2_PLACEMENT_3D ( 'NONE', #641, #774, #123 ) ;
#340 = DATE_TIME_ROLE ( 'classification_date' ) ;
#341 = VERTEX_POINT ( 'NONE', #460 ) ;
#342 = AXIS2_PLACEMENT_3D ( 'NONE', #249, #450, #179 ) ;
#343 = DIRECTION ( 'NONE',  ( 6.938893903907216052E-17, 0.000000000000000000, 1.000000000000000000 ) ) ;
#344 = FACE_OUTER_BOUND ( 'NONE', #834, .T. ) ;
#345 = AXIS2_PLACEMENT_3D ( 'NONE', #240, #581, #166 ) ;
#346 = EDGE_LOOP ( 'NONE', ( #500, #551, #326, #690 ) ) ;
#347 = CALENDAR_DATE ( 2026, 2, 6 ) ;
#348 = ORIENTED_EDGE ( 'NONE', *, *, #521, .F. ) ;
#349 = DIRECTION ( 'NONE',  ( -6.938893903907228378E-17, 4.374520069854559807E-17, -1.000000000000000000 ) ) ;
#350 = ORIENTED_EDGE ( 'NONE', *, *, #12, .T. ) ;
#351 = CALENDAR_DATE ( 2026, 2, 6 ) ;
#352 = ORIENTED_EDGE ( 'NONE', *, *, #507, .F. ) ;
#353 = EDGE_CURVE ( 'NONE', #473, #178, #24, .T. ) ;
#354 = EDGE_LOOP ( 'NONE', ( #675, #480, #622, #606 ) ) ;
#355 = PERSON_AND_ORGANIZATION_ROLE ( 'classification_officer' ) ;
#356 = AXIS2_PLACEMENT_3D ( 'NONE', #511, #368, #227 ) ;
#357 = CIRCLE ( 'NONE', #830, 5.000000000000004441 ) ;
#358 = EDGE_CURVE ( 'NONE', #717, #648, #89, .T. ) ;
#359 = EDGE_LOOP ( 'NONE', ( #841, #549, #16, #398 ) ) ;
#360 = CARTESIAN_POINT ( 'NONE',  ( 1.059916043821828977E-14, -24.99999999999998934, 98.72914738151580138 ) ) ;
#361 = ORIENTED_EDGE ( 'NONE', *, *, #787, .T. ) ;
#362 = ORIENTED_EDGE ( 'NONE', *, *, #239, .F. ) ;
#363 = EDGE_CURVE ( 'NONE', #46, #717, #317, .T. ) ;
#364 = CARTESIAN_POINT ( 'NONE',  ( 4.787836793695992314E-15, -20.00000000000002132, 5.000000000000006217 ) ) ;
#365 = VECTOR ( 'NONE', #280, 1000.000000000000000 ) ;
#366 = AXIS2_PLACEMENT_3D ( 'NONE', #620, #113, #456 ) ;
#367 = DIRECTION ( 'NONE',  ( 2.220446049250313081E-16, -1.000000000000000000, 6.938893903907225912E-17 ) ) ;
#368 = DIRECTION ( 'NONE',  ( -1.000000000000000000, -2.220446049250313081E-16, 6.938893903907225912E-17 ) ) ;
#369 = CARTESIAN_POINT ( 'NONE',  ( 2.300000000000010925, -11.00000000000000533, 117.0000000000000000 ) ) ;
#370 = DIRECTION ( 'NONE',  ( -0.2923717047227296639, 0.000000000000000000, -0.9563047559630376560 ) ) ;
#371 = CARTESIAN_POINT ( 'NONE',  ( 0.9999999999999978906, -24.99999999999998579, 102.0000000000000000 ) ) ;
#372 = EDGE_CURVE ( 'NONE', #717, #764, #35, .T. ) ;
#373 = DIRECTION ( 'NONE',  ( 0.000000000000000000, 0.000000000000000000, 1.000000000000000000 ) ) ;
#374 = FACE_OUTER_BOUND ( 'NONE', #407, .T. ) ;
#375 = AXIS2_PLACEMENT_3D ( 'NONE', #215, #219, #491 ) ;
#376 = VERTEX_POINT ( 'NONE', #173 ) ;
#377 = AXIS2_PLACEMENT_3D ( 'NONE', #236, #380, #742 ) ;
#378 = LINE ( 'NONE', #447, #699 ) ;
#379 = LINE ( 'NONE', #881, #846 ) ;
#380 = DIRECTION ( 'NONE',  ( -6.938893903907225912E-17, -6.938893903907227145E-17, -1.000000000000000000 ) ) ;
#381 = ADVANCED_FACE ( 'NONE', ( #455 ), #101, .F. ) ;
#382 = CARTESIAN_POINT ( 'NONE',  ( 1.110223024625149835E-15, -4.999999999999969802, 3.469446951953591509E-16 ) ) ;
#383 = VERTEX_POINT ( 'NONE', #676 ) ;
#384 = FACE_OUTER_BOUND ( 'NONE', #354, .T. ) ;
#385 = CARTESIAN_POINT ( 'NONE',  ( 2.300000000000016254, -10.99999999999998934, 200.5500000000000398 ) ) ;
#386 = CC_DESIGN_PERSON_AND_ORGANIZATION_ASSIGNMENT ( #193, #778, ( #299 ) ) ;
#387 = ORIENTED_EDGE ( 'NONE', *, *, #835, .T. ) ;
#388 = DIRECTION ( 'NONE',  ( 6.938893903907223447E-17, 1.900653547591979883E-16, 1.000000000000000000 ) ) ;
#389 = CARTESIAN_POINT ( 'NONE',  ( 2.300000000000005596, -25.00000000000002132, 4.024422514481654849E-15 ) ) ;
#390 = ORIENTED_EDGE ( 'NONE', *, *, #598, .T. ) ;
#391 = VECTOR ( 'NONE', #877, 1000.000000000000000 ) ;
#392 = AXIS2_PLACEMENT_3D ( 'NONE', #448, #458, #115 ) ;
#393 = VECTOR ( 'NONE', #888, 1000.000000000000000 ) ;
#394 = CC_DESIGN_APPROVAL ( #921, ( #79 ) ) ;
#395 = LINE ( 'NONE', #453, #65 ) ;
#396 = ORIENTED_EDGE ( 'NONE', *, *, #598, .F. ) ;
#397 = DIRECTION ( 'NONE',  ( -1.000000000000000000, -2.220446049250313081E-16, 6.938893903907225912E-17 ) ) ;
#398 = ORIENTED_EDGE ( 'NONE', *, *, #314, .T. ) ;
#399 = LINE ( 'NONE', #466, #908 ) ;
#400 = EDGE_LOOP ( 'NONE', ( #72, #927, #352, #192, #696, #200, #184, #779 ) ) ;
#401 = CARTESIAN_POINT ( 'NONE',  ( 2.567390744445667794E-15, -9.999999999999971578, 5.000000000000001776 ) ) ;
#402 = EDGE_CURVE ( 'NONE', #225, #543, #619, .T. ) ;
#403 = LINE ( 'NONE', #117, #605 ) ;
#404 = EDGE_CURVE ( 'NONE', #270, #766, #906, .T. ) ;
#405 = ORIENTED_EDGE ( 'NONE', *, *, #727, .T. ) ;
#406 = DIRECTION ( 'NONE',  ( 6.938893903907225912E-17, 6.938893903907225912E-17, 1.000000000000000000 ) ) ;
#407 = EDGE_LOOP ( 'NONE', ( #97, #534, #899, #127, #639, #773, #601, #362 ) ) ;
#408 = CYLINDRICAL_SURFACE ( 'NONE', #342, 3.049999999999997158 ) ;
#409 = APPLICATION_CONTEXT ( 'configuration controlled 3d designs of mechanical parts and assemblies' ) ;
#410 = ORIENTED_EDGE ( 'NONE', *, *, #139, .F. ) ;
#411 = CIRCLE ( 'NONE', #339, 3.049999999999997158 ) ;
#412 = COORDINATED_UNIVERSAL_TIME_OFFSET ( 1, 0, .AHEAD. ) ;
#413 = ORIENTED_EDGE ( 'NONE', *, *, #165, .T. ) ;
#414 = CARTESIAN_POINT ( 'NONE',  ( 1.614680611439212043E-14, -10.99999999999999112, 197.5000000000000284 ) ) ;
#415 = AXIS2_PLACEMENT_3D ( 'NONE', #170, #397, #686 ) ;
#416 = ORIENTED_EDGE ( 'NONE', *, *, #402, .T. ) ;
#417 = EDGE_CURVE ( 'NONE', #178, #252, #878, .T. ) ;
#418 = EDGE_LOOP ( 'NONE', ( #272, #914, #428, #110 ) ) ;
#419 = EDGE_LOOP ( 'NONE', ( #856, #322, #789, #194 ) ) ;
#420 = DATE_AND_TIME ( #347, #525 ) ;
#421 = EDGE_CURVE ( 'NONE', #294, #180, #590, .T. ) ;
#422 = DIRECTION ( 'NONE',  ( 0.000000000000000000, -1.000000000000000000, 3.217123537266078343E-16 ) ) ;
#423 = PERSON ( 'UNSPECIFIED', 'UNSPECIFIED', 'UNSPECIFIED', ('UNSPECIFIED'), ('UNSPECIFIED'), ('UNSPECIFIED') ) ;
#424 = ORIENTED_EDGE ( 'NONE', *, *, #214, .F. ) ;
#425 = DATE_AND_TIME ( #285, #759 ) ;
#426 = VECTOR ( 'NONE', #514, 1000.000000000000000 ) ;
#427 = CYLINDRICAL_SURFACE ( 'NONE', #435, 3.049999999999997158 ) ;
#428 = ORIENTED_EDGE ( 'NONE', *, *, #404, .F. ) ;
#429 = COORDINATED_UNIVERSAL_TIME_OFFSET ( 1, 0, .AHEAD. ) ;
#430 = VERTEX_POINT ( 'NONE', #195 ) ;
#431 = ADVANCED_FACE ( 'NONE', ( #67 ), #706, .F. ) ;
#432 = CARTESIAN_POINT ( 'NONE',  ( 2.300000000000016698, -4.999999999999978684, 225.0000000000000000 ) ) ;
#433 = DIRECTION ( 'NONE',  ( 0.9563047559630376560, 1.182827224363310107E-16, -0.2923717047227296639 ) ) ;
#434 = DIRECTION ( 'NONE',  ( 8.673617379884035472E-17, 0.000000000000000000, 1.000000000000000000 ) ) ;
#435 = AXIS2_PLACEMENT_3D ( 'NONE', #310, #735, #868 ) ;
#436 = VECTOR ( 'NONE', #600, 1000.000000000000000 ) ;
#437 = DIRECTION ( 'NONE',  ( 1.000000000000000000, 2.220446049250313081E-16, -6.938893903907225912E-17 ) ) ;
#438 = LINE ( 'NONE', #226, #739 ) ;
#439 = LINE ( 'NONE', #731, #604 ) ;
#440 = CARTESIAN_POINT ( 'NONE',  ( 2.300000000000005151, -11.00000000000000355, 35.54999999999996874 ) ) ;
#441 = CARTESIAN_POINT ( 'NONE',  ( 2.300000000000017586, -9.999999999999980460, 225.0000000000000000 ) ) ;
#442 = ADVANCED_FACE ( 'NONE', ( #780 ), #566, .F. ) ;
#443 = CARTESIAN_POINT ( 'NONE',  ( 2.300000000000016254, -10.99999999999998934, 200.5500000000000398 ) ) ;
#444 = LINE ( 'NONE', #795, #775 ) ;
#445 = CARTESIAN_POINT ( 'NONE',  ( 1.783295733304157062E-14, -9.999999999999980460, 225.0000000000000000 ) ) ;
#446 = VECTOR ( 'NONE', #658, 1000.000000000000000 ) ;
#447 = CARTESIAN_POINT ( 'NONE',  ( 0.9999999999999935607, -4.999999999999975131, 101.9999999999999858 ) ) ;
#448 = CARTESIAN_POINT ( 'NONE',  ( 2.300000000000002487, -9.999999999999971578, 5.000000000000001776 ) ) ;
#449 = CARTESIAN_POINT ( 'NONE',  ( 2.300000000000004707, -11.00000000000000178, 29.44999999999997442 ) ) ;
#450 = DIRECTION ( 'NONE',  ( -1.000000000000000000, -2.220446049250313081E-16, 6.938893903907225912E-17 ) ) ;
#451 = CARTESIAN_POINT ( 'NONE',  ( 2.300000000000001599, -4.999999999999969802, 5.000000000000001776 ) ) ;
#452 = EDGE_CURVE ( 'NONE', #130, #112, #278, .T. ) ;
#453 = CARTESIAN_POINT ( 'NONE',  ( 2.300000000000021139, -24.99999999999998224, 225.0000000000000000 ) ) ;
#454 = VERTEX_POINT ( 'NONE', #201 ) ;
#455 = FACE_OUTER_BOUND ( 'NONE', #892, .T. ) ;
#456 = DIRECTION ( 'NONE',  ( -2.220446049250313081E-16, 1.000000000000000000, 0.000000000000000000 ) ) ;
#457 = ORIENTED_EDGE ( 'NONE', *, *, #812, .T. ) ;
#458 = DIRECTION ( 'NONE',  ( -1.000000000000000000, -2.220446049250313081E-16, 6.938893903907225912E-17 ) ) ;
#459 = ORIENTED_EDGE ( 'NONE', *, *, #302, .F. ) ;
#460 = CARTESIAN_POINT ( 'NONE',  ( 2.300000000000018030, -9.999999999999980460, 230.0000000000000000 ) ) ;
#461 = DIRECTION ( 'NONE',  ( -6.938893903907228378E-17, 4.374520069854559807E-17, -1.000000000000000000 ) ) ;
#462 = EDGE_LOOP ( 'NONE', ( #222, #459, #705, #387 ) ) ;
#463 = CIRCLE ( 'NONE', #544, 3.050000000000024691 ) ;
#464 = EDGE_CURVE ( 'NONE', #750, #270, #63, .T. ) ;
#465 = VECTOR ( 'NONE', #259, 1000.000000000000000 ) ;
#466 = CARTESIAN_POINT ( 'NONE',  ( 2.151057110211240166E-14, -24.99999999999997868, 230.0000000000000000 ) ) ;
#467 = ORIENTED_EDGE ( 'NONE', *, *, #28, .T. ) ;
#468 = EDGE_CURVE ( 'NONE', #68, #277, #308, .T. ) ;
#469 = PLANE ( 'NONE',  #743 ) ;
#470 = CARTESIAN_POINT ( 'NONE',  ( 2.300000000000004263, -20.00000000000002132, 3.065154419712616506E-15 ) ) ;
#471 = ORIENTED_EDGE ( 'NONE', *, *, #609, .F. ) ;
#472 = LINE ( 'NONE', #32, #589 ) ;
#473 = VERTEX_POINT ( 'NONE', #864 ) ;
#474 = DIRECTION ( 'NONE',  ( 2.220446049250313081E-16, -1.000000000000000000, 1.918536189538076045E-16 ) ) ;
#475 = CARTESIAN_POINT ( 'NONE',  ( 2.300000000000016698, -4.999999999999978684, 225.0000000000000000 ) ) ;
#476 = ORIENTED_EDGE ( 'NONE', *, *, #402, .F. ) ;
#477 = COORDINATED_UNIVERSAL_TIME_OFFSET ( 1, 0, .AHEAD. ) ;
#478 = ORIENTED_EDGE ( 'NONE', *, *, #128, .F. ) ;
#479 = EDGE_CURVE ( 'NONE', #56, #430, #502, .T. ) ;
#480 = ORIENTED_EDGE ( 'NONE', *, *, #673, .F. ) ;
#481 = CIRCLE ( 'NONE', #75, 4.999999999999999112 ) ;
#482 = DIRECTION ( 'NONE',  ( 0.000000000000000000, 0.000000000000000000, 1.000000000000000000 ) ) ;
#483 = ORIENTED_EDGE ( 'NONE', *, *, #558, .T. ) ;
#484 = CARTESIAN_POINT ( 'NONE',  ( 1.233735336114705206E-14, -19.00000000000000355, 117.0000000000000000 ) ) ;
#485 = ORIENTED_EDGE ( 'NONE', *, *, #903, .T. ) ;
#486 = EDGE_CURVE ( 'NONE', #555, #719, #438, .T. ) ;
#487 =( LENGTH_UNIT ( ) NAMED_UNIT ( * ) SI_UNIT ( .MILLI., .METRE. ) );
#488 = ORIENTED_EDGE ( 'NONE', *, *, #363, .F. ) ;
#489 = DIRECTION ( 'NONE',  ( -1.000000000000000000, -2.220446049250313081E-16, 6.938893903907225912E-17 ) ) ;
#490 = ORIENTED_EDGE ( 'NONE', *, *, #736, .T. ) ;
#491 = DIRECTION ( 'NONE',  ( 2.220446049250313081E-16, -1.000000000000000000, 6.938893903907225912E-17 ) ) ;
#492 = EDGE_LOOP ( 'NONE', ( #205, #390, #626, #38 ) ) ;
#493 = PERSON_AND_ORGANIZATION ( #423, #741 ) ;
#494 = AXIS2_PLACEMENT_3D ( 'NONE', #516, #162, #530 ) ;
#495 = EDGE_CURVE ( 'NONE', #504, #68, #70, .T. ) ;
#496 = AXIS2_PLACEMENT_3D ( 'NONE', #45, #333, #482 ) ;
#497 = VECTOR ( 'NONE', #872, 1000.000000000000000 ) ;
#498 = ADVANCED_FACE ( 'NONE', ( #583 ), #82, .F. ) ;
#499 = VECTOR ( 'NONE', #190, 1000.000000000000000 ) ;
#500 = ORIENTED_EDGE ( 'NONE', *, *, #77, .T. ) ;
#501 = VECTOR ( 'NONE', #882, 1000.000000000000000 ) ;
#502 = LINE ( 'NONE', #806, #426 ) ;
#503 = CARTESIAN_POINT ( 'NONE',  ( 2.300000000000001599, -4.999999999999969802, 5.000000000000001776 ) ) ;
#504 = VERTEX_POINT ( 'NONE', #14 ) ;
#505 = DIRECTION ( 'NONE',  ( 2.220446049250313081E-16, -1.000000000000000000, 6.938893903907225912E-17 ) ) ;
#506 = DIRECTION ( 'NONE',  ( 2.220446049250313081E-16, -1.000000000000000000, 1.918536189538076045E-16 ) ) ;
#507 = EDGE_CURVE ( 'NONE', #430, #682, #378, .T. ) ;
#508 = FACE_OUTER_BOUND ( 'NONE', #618, .T. ) ;
#509 = DIRECTION ( 'NONE',  ( 1.000000000000000000, 2.220446049250313081E-16, -6.938893903907225912E-17 ) ) ;
#510 = VECTOR ( 'NONE', #515, 1000.000000000000000 ) ;
#511 = CARTESIAN_POINT ( 'NONE',  ( 2.300000000000002487, -9.999999999999971578, 5.000000000000001776 ) ) ;
#512 = CYLINDRICAL_SURFACE ( 'NONE', #244, 3.050000000000024691 ) ;
#513 = EDGE_CURVE ( 'NONE', #764, #554, #526, .T. ) ;
#514 = DIRECTION ( 'NONE',  ( 1.000000000000000000, 2.220446049250313081E-16, -7.143449248272656021E-32 ) ) ;
#515 = DIRECTION ( 'NONE',  ( 6.938893903907223447E-17, 1.900653547591979883E-16, 1.000000000000000000 ) ) ;
#516 = CARTESIAN_POINT ( 'NONE',  ( 2.300000000000017586, -18.99999999999998579, 194.4500000000000455 ) ) ;
#517 = DIRECTION ( 'NONE',  ( -1.000000000000000000, -2.220446049250313081E-16, 6.938893903907225912E-17 ) ) ;
#518 = CARTESIAN_POINT ( 'NONE',  ( 2.300000000000005596, -25.00000000000002132, 4.024422514481654849E-15 ) ) ;
#519 = CARTESIAN_POINT ( 'NONE',  ( 6.685624276414611386E-15, -18.99999999999999645, 35.54999999999996874 ) ) ;
#520 = FACE_BOUND ( 'NONE', #710, .T. ) ;
#521 = EDGE_CURVE ( 'NONE', #180, #541, #857, .T. ) ;
#522 = AXIS2_PLACEMENT_3D ( 'NONE', #570, #860, #422 ) ;
#523 = DIRECTION ( 'NONE',  ( -6.938893903907225912E-17, -6.938893903907227145E-17, -1.000000000000000000 ) ) ;
#524 = CIRCLE ( 'NONE', #125, 3.050000000000024691 ) ;
#525 = LOCAL_TIME ( 10, 30, 1.000000000000000000, #134 ) ;
#526 = LINE ( 'NONE', #928, #365 ) ;
#527 = CARTESIAN_POINT ( 'NONE',  ( 6.685624276414611386E-15, -18.99999999999999645, 35.54999999999996874 ) ) ;
#528 = EDGE_LOOP ( 'NONE', ( #608, #31, #410, #416 ) ) ;
#529 = CLOSED_SHELL ( 'NONE', ( #804, #770, #793, #442, #662, #381, #18, #197, #43, #916, #586, #175, #643, #569, #255, #41, #248, #182, #305, #715, #854, #734, #59, #142, #498, #431 ) ) ;
#530 = DIRECTION ( 'NONE',  ( 2.220446049250313081E-16, -1.000000000000000000, 6.938893903907225912E-17 ) ) ;
#531 = LINE ( 'NONE', #389, #563 ) ;
#532 = ORIENTED_EDGE ( 'NONE', *, *, #782, .T. ) ;
#533 = FACE_OUTER_BOUND ( 'NONE', #790, .T. ) ;
#534 = ORIENTED_EDGE ( 'NONE', *, *, #579, .F. ) ;
#535 = CYLINDRICAL_SURFACE ( 'NONE', #8, 3.050000000000024691 ) ;
#536 = DIRECTION ( 'NONE',  ( 6.938893903907228378E-17, 0.000000000000000000, 1.000000000000000000 ) ) ;
#537 = EDGE_CURVE ( 'NONE', #648, #719, #241, .T. ) ;
#538 = ORIENTED_EDGE ( 'NONE', *, *, #338, .T. ) ;
#539 = EDGE_CURVE ( 'NONE', #684, #58, #922, .T. ) ;
#540 = DIRECTION ( 'NONE',  ( -1.000000000000000000, -2.220446049250313081E-16, 6.938893903907227145E-17 ) ) ;
#541 = VERTEX_POINT ( 'NONE', #37 ) ;
#542 = CARTESIAN_POINT ( 'NONE',  ( 2.300000000000015810, -10.99999999999999112, 194.4500000000000455 ) ) ;
#543 = VERTEX_POINT ( 'NONE', #325 ) ;
#544 = AXIS2_PLACEMENT_3D ( 'NONE', #753, #816, #695 ) ;
#545 = AXIS2_PLACEMENT_3D ( 'NONE', #111, #540, #321 ) ;
#546 = CARTESIAN_POINT ( 'NONE',  ( -7.400987943825198324E-15, 3.331086545984695224, 106.9999999999999858 ) ) ;
#547 = ORIENTED_EDGE ( 'NONE', *, *, #118, .F. ) ;
#548 = DIRECTION ( 'NONE',  ( -1.000000000000000000, -2.220446049250313081E-16, 6.938893903907225912E-17 ) ) ;
#549 = ORIENTED_EDGE ( 'NONE', *, *, #229, .F. ) ;
#550 = APPROVAL_ROLE ( '' ) ;
#551 = ORIENTED_EDGE ( 'NONE', *, *, #353, .T. ) ;
#552 = EDGE_CURVE ( 'NONE', #341, #555, #154, .T. ) ;
#553 = PLANE ( 'NONE',  #681 ) ;
#554 = VERTEX_POINT ( 'NONE', #470 ) ;
#555 = VERTEX_POINT ( 'NONE', #475 ) ;
#556 = DIRECTION ( 'NONE',  ( -1.000000000000000000, -2.220446049250313081E-16, 6.938893903907225912E-17 ) ) ;
#557 = CARTESIAN_POINT ( 'NONE',  ( 2.300000000000010925, -11.00000000000000533, 120.0500000000000398 ) ) ;
#558 = EDGE_CURVE ( 'NONE', #894, #541, #629, .T. ) ;
#559 = ORIENTED_EDGE ( 'NONE', *, *, #558, .F. ) ;
#560 = APPROVAL_DATE_TIME ( #281, #655 ) ;
#561 = VECTOR ( 'NONE', #893, 1000.000000000000000 ) ;
#562 = ORIENTED_EDGE ( 'NONE', *, *, #513, .F. ) ;
#563 = VECTOR ( 'NONE', #474, 1000.000000000000000 ) ;
#564 = ORIENTED_EDGE ( 'NONE', *, *, #358, .T. ) ;
#565 = CARTESIAN_POINT ( 'NONE',  ( 0.000000000000000000, 0.000000000000000000, 0.000000000000000000 ) ) ;
#566 = PLANE ( 'NONE',  #292 ) ;
#567 = DIRECTION ( 'NONE',  ( -1.000000000000000000, -2.220446049250313081E-16, 6.938893903907225912E-17 ) ) ;
#568 = EDGE_LOOP ( 'NONE', ( #288, #350, #457, #211 ) ) ;
#569 = ADVANCED_FACE ( 'NONE', ( #136 ), #427, .F. ) ;
#570 = CARTESIAN_POINT ( 'NONE',  ( 0.9999999999999917843, 3.331086545984695224, 106.9999999999999858 ) ) ;
#571 = ORIENTED_EDGE ( 'NONE', *, *, #539, .F. ) ;
#572 = AXIS2_PLACEMENT_3D ( 'NONE', #140, #10, #73 ) ;
#573 =( GEOMETRIC_REPRESENTATION_CONTEXT ( 3 ) GLOBAL_UNCERTAINTY_ASSIGNED_CONTEXT ( ( #104 ) ) GLOBAL_UNIT_ASSIGNED_CONTEXT ( ( #487, #704, #213 ) ) REPRESENTATION_CONTEXT ( 'NONE', 'WORKASPACE' ) );
#574 = LINE ( 'NONE', #360, #677 ) ;
#575 = AXIS2_PLACEMENT_3D ( 'NONE', #95, #523, #663 ) ;
#576 = CARTESIAN_POINT ( 'NONE',  ( 2.300000000000016254, -10.99999999999998934, 200.5500000000000398 ) ) ;
#577 = ORIENTED_EDGE ( 'NONE', *, *, #513, .T. ) ;
#578 = LINE ( 'NONE', #371, #203 ) ;
#579 = EDGE_CURVE ( 'NONE', #719, #46, #660, .T. ) ;
#580 = LINE ( 'NONE', #576, #497 ) ;
#581 = DIRECTION ( 'NONE',  ( -1.000000000000000000, -2.220446049250313081E-16, 6.938893903907225912E-17 ) ) ;
#582 = APPROVAL_DATE_TIME ( #797, #160 ) ;
#583 = FACE_OUTER_BOUND ( 'NONE', #492, .T. ) ;
#584 = DIRECTION ( 'NONE',  ( 8.673617379884028076E-17, 0.000000000000000000, 1.000000000000000000 ) ) ;
#585 = LINE ( 'NONE', #30, #94 ) ;
#586 = ADVANCED_FACE ( 'NONE', ( #158 ), #235, .T. ) ;
#587 = LINE ( 'NONE', #164, #510 ) ;
#588 = AXIS2_PLACEMENT_3D ( 'NONE', #794, #433, #370 ) ;
#589 = VECTOR ( 'NONE', #826, 1000.000000000000000 ) ;
#590 = CIRCLE ( 'NONE', #306, 3.050000000000024691 ) ;
#591 = PLANE ( 'NONE',  #377 ) ;
#592 = APPROVAL_PERSON_ORGANIZATION ( #271, #921, #640 ) ;
#593 = DIRECTION ( 'NONE',  ( -1.000000000000000000, -2.220446049250313081E-16, 6.938893903907225912E-17 ) ) ;
#594 = DIRECTION ( 'NONE',  ( -1.000000000000000000, 0.000000000000000000, 0.000000000000000000 ) ) ;
#595 = LINE ( 'NONE', #297, #501 ) ;
#596 = DIRECTION ( 'NONE',  ( -2.220446049250313081E-16, 1.000000000000000000, -6.938893903907225912E-17 ) ) ;
#597 = DIRECTION ( 'NONE',  ( -2.220446049250313081E-16, 1.000000000000000000, -6.938893903907225912E-17 ) ) ;
#598 = EDGE_CURVE ( 'NONE', #376, #172, #768, .T. ) ;
#599 = CARTESIAN_POINT ( 'NONE',  ( 1.593516985032294997E-14, -10.99999999999999112, 194.4500000000000455 ) ) ;
#600 = DIRECTION ( 'NONE',  ( 2.220446049250313081E-16, -1.000000000000000000, 3.217123537266078343E-16 ) ) ;
#601 = ORIENTED_EDGE ( 'NONE', *, *, #685, .F. ) ;
#602 = CARTESIAN_POINT ( 'NONE',  ( 2.300000000000002043, -9.999999999999971578, 1.146618230174530748E-15 ) ) ;
#603 = CARTESIAN_POINT ( 'NONE',  ( 2.300000000000006928, -18.99999999999999645, 35.54999999999996874 ) ) ;
#604 = VECTOR ( 'NONE', #296, 1000.000000000000000 ) ;
#605 = VECTOR ( 'NONE', #614, 1000.000000000000000 ) ;
#606 = ORIENTED_EDGE ( 'NONE', *, *, #3, .T. ) ;
#607 = CARTESIAN_POINT ( 'NONE',  ( 2.300000000000006040, -25.00000000000002132, 5.000000000000006217 ) ) ;
#608 = ORIENTED_EDGE ( 'NONE', *, *, #69, .T. ) ;
#609 = EDGE_CURVE ( 'NONE', #172, #649, #574, .T. ) ;
#610 = CARTESIAN_POINT ( 'NONE',  ( 1.672273430841641092E-14, -4.999999999999979572, 225.0000000000000000 ) ) ;
#611 = VERTEX_POINT ( 'NONE', #71 ) ;
#612 = PLANE ( 'NONE',  #34 ) ;
#613 = ORIENTED_EDGE ( 'NONE', *, *, #873, .F. ) ;
#614 = DIRECTION ( 'NONE',  ( -1.000000000000000000, -2.220446049250313081E-16, 6.938893903907225912E-17 ) ) ;
#615 = EDGE_CURVE ( 'NONE', #68, #897, #621, .T. ) ;
#616 = EDGE_LOOP ( 'NONE', ( #917, #329, #187, #284 ) ) ;
#617 = CARTESIAN_POINT ( 'NONE',  ( 2.300000000000017142, -4.999999999999979572, 230.0000000000000000 ) ) ;
#618 = EDGE_LOOP ( 'NONE', ( #490, #60, #413, #485 ) ) ;
#619 = LINE ( 'NONE', #756, #233 ) ;
#620 = CARTESIAN_POINT ( 'NONE',  ( 0.9999999999999915623, 3.331086545984695224, 101.9999999999999858 ) ) ;
#621 = CIRCLE ( 'NONE', #798, 3.049999999999997158 ) ;
#622 = ORIENTED_EDGE ( 'NONE', *, *, #77, .F. ) ;
#623 = VECTOR ( 'NONE', #761, 1000.000000000000000 ) ;
#624 = AXIS2_PLACEMENT_3D ( 'NONE', #401, #691, #746 ) ;
#625 = PERSON_AND_ORGANIZATION ( #423, #741 ) ;
#626 = ORIENTED_EDGE ( 'NONE', *, *, #609, .T. ) ;
#627 = VECTOR ( 'NONE', #367, 1000.000000000000000 ) ;
#628 = CARTESIAN_POINT ( 'NONE',  ( 2.300000000000006928, -18.99999999999999645, 35.54999999999996874 ) ) ;
#629 = LINE ( 'NONE', #557, #122 ) ;
#630 = ORIENTED_EDGE ( 'NONE', *, *, #537, .T. ) ;
#631 = APPROVAL_STATUS ( 'not_yet_approved' ) ;
#632 = ORIENTED_EDGE ( 'NONE', *, *, #273, .F. ) ;
#633 = EDGE_CURVE ( 'NONE', #277, #635, #411, .T. ) ;
#634 = DIRECTION ( 'NONE',  ( 0.2923717047227296639, 1.014368119787769691E-15, 0.9563047559630376560 ) ) ;
#635 = VERTEX_POINT ( 'NONE', #202 ) ;
#636 = COORDINATED_UNIVERSAL_TIME_OFFSET ( 1, 0, .AHEAD. ) ;
#637 = ORIENTED_EDGE ( 'NONE', *, *, #69, .F. ) ;
#638 = CARTESIAN_POINT ( 'NONE',  ( 2.300000000000012701, -19.00000000000000355, 117.0000000000000000 ) ) ;
#639 = ORIENTED_EDGE ( 'NONE', *, *, #782, .F. ) ;
#640 = APPROVAL_ROLE ( '' ) ;
#641 = CARTESIAN_POINT ( 'NONE',  ( 1.792316295379236774E-14, -18.99999999999998579, 197.5000000000000284 ) ) ;
#642 = DIRECTION ( 'NONE',  ( -1.000000000000000000, -2.220446049250313081E-16, 6.938893903907225912E-17 ) ) ;
#643 = ADVANCED_FACE ( 'NONE', ( #131 ), #851, .T. ) ;
#644 = ORIENTED_EDGE ( 'NONE', *, *, #645, .T. ) ;
#645 = EDGE_CURVE ( 'NONE', #58, #277, #646, .T. ) ;
#646 = LINE ( 'NONE', #209, #220 ) ;
#647 = FACE_OUTER_BOUND ( 'NONE', #528, .T. ) ;
#648 = VERTEX_POINT ( 'NONE', #141 ) ;
#649 = VERTEX_POINT ( 'NONE', #152 ) ;
#650 = EDGE_CURVE ( 'NONE', #454, #172, #871, .T. ) ;
#651 = AXIS2_PLACEMENT_3D ( 'NONE', #90, #11, #434 ) ;
#652 = DIRECTION ( 'NONE',  ( 6.938893903907220982E-17, 0.000000000000000000, 1.000000000000000000 ) ) ;
#653 = DIRECTION ( 'NONE',  ( 8.673617379884028076E-17, 0.000000000000000000, 1.000000000000000000 ) ) ;
#654 = CARTESIAN_POINT ( 'NONE',  ( 0.9999999999999970024, -4.999999999999973355, 102.0000000000000000 ) ) ;
#655 = APPROVAL ( #720, 'UNSPECIFIED' ) ;
#656 = DIRECTION ( 'NONE',  ( -1.000000000000000000, -2.220446049250313081E-16, 6.938893903907225912E-17 ) ) ;
#657 = CARTESIAN_POINT ( 'NONE',  ( 4.440892098500630895E-15, -20.00000000000002132, 3.224748979502482759E-15 ) ) ;
#658 = DIRECTION ( 'NONE',  ( -1.000000000000000000, -2.220446049250313081E-16, 6.938893903907225912E-17 ) ) ;
#659 = CARTESIAN_POINT ( 'NONE',  ( 2.300000000000004707, -11.00000000000000178, 29.44999999999997442 ) ) ;
#660 = CIRCLE ( 'NONE', #356, 5.000000000000000000 ) ;
#661 = LOCAL_TIME ( 10, 30, 1.000000000000000000, #412 ) ;
#662 = ADVANCED_FACE ( 'NONE', ( #238 ), #309, .F. ) ;
#663 = DIRECTION ( 'NONE',  ( -2.220446049250313081E-16, 1.000000000000000000, -6.938893903907225912E-17 ) ) ;
#664 = EDGE_CURVE ( 'NONE', #33, #383, #379, .T. ) ;
#665 = CARTESIAN_POINT ( 'NONE',  ( 2.220446049250306770E-15, -9.999999999999971578, 1.306212789964397001E-15 ) ) ;
#666 = DIRECTION ( 'NONE',  ( 2.220446049250313081E-16, -1.000000000000000000, 6.938893903907225912E-17 ) ) ;
#667 = FACE_OUTER_BOUND ( 'NONE', #915, .T. ) ;
#668 = CC_DESIGN_PERSON_AND_ORGANIZATION_ASSIGNMENT ( #493, #61, ( #79 ) ) ;
#669 = LINE ( 'NONE', #546, #436 ) ;
#670 = ORIENTED_EDGE ( 'NONE', *, *, #363, .T. ) ;
#671 = FACE_OUTER_BOUND ( 'NONE', #752, .T. ) ;
#672 = ORIENTED_EDGE ( 'NONE', *, *, #302, .T. ) ;
#673 = EDGE_CURVE ( 'NONE', #473, #270, #301, .T. ) ;
#674 = CARTESIAN_POINT ( 'NONE',  ( 2.300000000000018030, -18.99999999999998579, 200.5500000000000398 ) ) ;
#675 = ORIENTED_EDGE ( 'NONE', *, *, #464, .T. ) ;
#676 = CARTESIAN_POINT ( 'NONE',  ( -1.110223024625159104E-15, -24.99999999999998579, 107.0000000000000000 ) ) ;
#677 = VECTOR ( 'NONE', #634, 1000.000000000000114 ) ;
#678 = CARTESIAN_POINT ( 'NONE',  ( 2.300000000000006928, -18.99999999999999645, 35.54999999999996874 ) ) ;
#679 = DIRECTION ( 'NONE',  ( -1.000000000000000000, -2.220446049250313081E-16, 6.938893903907225912E-17 ) ) ;
#680 = AXIS2_PLACEMENT_3D ( 'NONE', #246, #242, #809 ) ;
#681 = AXIS2_PLACEMENT_3D ( 'NONE', #1, #93, #666 ) ;
#682 = VERTEX_POINT ( 'NONE', #654 ) ;
#683 = FACE_OUTER_BOUND ( 'NONE', #359, .T. ) ;
#684 = VERTEX_POINT ( 'NONE', #807 ) ;
#685 = EDGE_CURVE ( 'NONE', #842, #902, #587, .T. ) ;
#686 = DIRECTION ( 'NONE',  ( 8.673617379884035472E-17, 0.000000000000000000, 1.000000000000000000 ) ) ;
#687 = DIRECTION ( 'NONE',  ( 8.673617379884028076E-17, 0.000000000000000000, 1.000000000000000000 ) ) ;
#688 = EDGE_LOOP ( 'NONE', ( #785, #831, #64, #316 ) ) ;
#689 = CYLINDRICAL_SURFACE ( 'NONE', #496, 3.049999999999997158 ) ;
#690 = ORIENTED_EDGE ( 'NONE', *, *, #150, .T. ) ;
#691 = DIRECTION ( 'NONE',  ( 1.000000000000000000, 2.220446049250313081E-16, -6.938893903907225912E-17 ) ) ;
#692 = DIRECTION ( 'NONE',  ( -2.220446049250313081E-16, 1.000000000000000000, -6.938893903907225912E-17 ) ) ;
#693 = PRODUCT_RELATED_PRODUCT_CATEGORY ( 'detail', '', ( #299 ) ) ;
#694 = ORIENTED_EDGE ( 'NONE', *, *, #703, .F. ) ;
#695 = DIRECTION ( 'NONE',  ( -6.938893903907216052E-17, 0.000000000000000000, -1.000000000000000000 ) ) ;
#696 = ORIENTED_EDGE ( 'NONE', *, *, #890, .F. ) ;
#697 = DIRECTION ( 'NONE',  ( 2.220446049250313081E-16, -1.000000000000000000, -4.374520069854561040E-17 ) ) ;
#698 = LINE ( 'NONE', #52, #78 ) ;
#699 = VECTOR ( 'NONE', #26, 1000.000000000000000 ) ;
#700 = EDGE_LOOP ( 'NONE', ( #282, #538, #405, #577 ) ) ;
#701 = CIRCLE ( 'NONE', #680, 3.049999999999997158 ) ;
#702 = AXIS2_PLACEMENT_3D ( 'NONE', #174, #747, #191 ) ;
#703 = EDGE_CURVE ( 'NONE', #635, #684, #444, .T. ) ;
#704 =( NAMED_UNIT ( * ) PLANE_ANGLE_UNIT ( ) SI_UNIT ( $, .RADIAN. ) );
#705 = ORIENTED_EDGE ( 'NONE', *, *, #417, .F. ) ;
#706 = PLANE ( 'NONE',  #522 ) ;
#707 = VECTOR ( 'NONE', #805, 1000.000000000000000 ) ;
#708 = ORIENTED_EDGE ( 'NONE', *, *, #404, .T. ) ;
#709 = PERSON_AND_ORGANIZATION ( #423, #741 ) ;
#710 = EDGE_LOOP ( 'NONE', ( #49, #55, #189, #319 ) ) ;
#711 = EDGE_LOOP ( 'NONE', ( #771, #279, #532, #198 ) ) ;
#712 = PERSON_AND_ORGANIZATION_ROLE ( 'creator' ) ;
#713 = EDGE_CURVE ( 'NONE', #112, #923, #23, .T. ) ;
#714 = DIRECTION ( 'NONE',  ( 2.220446049250313081E-16, -1.000000000000000000, 3.217123537266078343E-16 ) ) ;
#715 = ADVANCED_FACE ( 'NONE', ( #865 ), #738, .T. ) ;
#716 = DIRECTION ( 'NONE',  ( 0.000000000000000000, 0.000000000000000000, 1.000000000000000000 ) ) ;
#717 = VERTEX_POINT ( 'NONE', #665 ) ;
#718 = APPROVAL_STATUS ( 'not_yet_approved' ) ;
#719 = VERTEX_POINT ( 'NONE', #503 ) ;
#720 = APPROVAL_STATUS ( 'not_yet_approved' ) ;
#721 = DIRECTION ( 'NONE',  ( -6.938893903907228378E-17, 4.374520069854559807E-17, -1.000000000000000000 ) ) ;
#722 = DIRECTION ( 'NONE',  ( -1.000000000000000000, -2.220446049250313081E-16, 6.938893903907225912E-17 ) ) ;
#723 = EDGE_CURVE ( 'NONE', #430, #33, #728, .T. ) ;
#724 = ORIENTED_EDGE ( 'NONE', *, *, #372, .F. ) ;
#725 = DIRECTION ( 'NONE',  ( 2.220446049250313081E-16, -1.000000000000000000, 3.217123537266078343E-16 ) ) ;
#726 = CARTESIAN_POINT ( 'NONE',  ( 2.300000000000012701, -19.00000000000000355, 117.0000000000000000 ) ) ;
#727 = EDGE_CURVE ( 'NONE', #454, #764, #481, .T. ) ;
#728 = LINE ( 'NONE', #149, #886 ) ;
#729 = VECTOR ( 'NONE', #642, 1000.000000000000000 ) ;
#730 = EDGE_LOOP ( 'NONE', ( #396, #116, #289, #53, #334, #839 ) ) ;
#731 = CARTESIAN_POINT ( 'NONE',  ( 5.306992622233747414E-15, -4.999999999999973355, 98.72914738151580138 ) ) ;
#732 = LINE ( 'NONE', #869, #627 ) ;
#733 = CARTESIAN_POINT ( 'NONE',  ( 6.262351748276271244E-15, -18.99999999999999645, 29.44999999999997442 ) ) ;
#734 = ADVANCED_FACE ( 'NONE', ( #234 ), #803, .T. ) ;
#735 = DIRECTION ( 'NONE',  ( -1.000000000000000000, -2.220446049250313081E-16, 6.938893903907225912E-17 ) ) ;
#736 = EDGE_CURVE ( 'NONE', #902, #130, #357, .T. ) ;
#737 = LINE ( 'NONE', #519, #204 ) ;
#738 = CYLINDRICAL_SURFACE ( 'NONE', #651, 5.000000000000000000 ) ;
#739 = VECTOR ( 'NONE', #721, 1000.000000000000000 ) ;
#740 = CIRCLE ( 'NONE', #295, 5.000000000000004441 ) ;
#741 = ORGANIZATION ( 'UNSPECIFIED', 'UNSPECIFIED', '' ) ;
#742 = DIRECTION ( 'NONE',  ( -2.220446049250313081E-16, 1.000000000000000000, -6.938893903907225912E-17 ) ) ;
#743 = AXIS2_PLACEMENT_3D ( 'NONE', #751, #769, #763 ) ;
#744 = LINE ( 'NONE', #382, #124 ) ;
#745 = ADVANCED_BREP_SHAPE_REPRESENTATION ( 'guide channel adjuster 1', ( #92, #811 ), #573 ) ;
#746 = DIRECTION ( 'NONE',  ( 6.938893903907225912E-17, 0.000000000000000000, 1.000000000000000000 ) ) ;
#747 = DIRECTION ( 'NONE',  ( -1.000000000000000000, -2.220446049250313081E-16, 6.938893903907225912E-17 ) ) ;
#748 = EDGE_CURVE ( 'NONE', #682, #376, #439, .T. ) ;
#749 = CARTESIAN_POINT ( 'NONE',  ( 0.000000000000000000, 0.000000000000000000, 0.000000000000000000 ) ) ;
#750 = VERTEX_POINT ( 'NONE', #83 ) ;
#751 = CARTESIAN_POINT ( 'NONE',  ( 2.300000000000010925, -11.00000000000000533, 120.0500000000000398 ) ) ;
#752 = EDGE_LOOP ( 'NONE', ( #250, #424, #258, #792 ) ) ;
#753 = CARTESIAN_POINT ( 'NONE',  ( 1.056099652174680317E-14, -11.00000000000000533, 117.0000000000000000 ) ) ;
#754 = EDGE_CURVE ( 'NONE', #649, #33, #578, .T. ) ;
#755 = ORIENTED_EDGE ( 'NONE', *, *, #273, .T. ) ;
#756 = CARTESIAN_POINT ( 'NONE',  ( 2.300000000000010481, -11.00000000000000533, 113.9499999999999886 ) ) ;
#757 = VECTOR ( 'NONE', #596, 1000.000000000000000 ) ;
#758 = FACE_OUTER_BOUND ( 'NONE', #121, .T. ) ;
#759 = LOCAL_TIME ( 10, 30, 1.000000000000000000, #636 ) ;
#760 = ORIENTED_EDGE ( 'NONE', *, *, #890, .T. ) ;
#761 = DIRECTION ( 'NONE',  ( -2.220446049250313081E-16, 1.000000000000000000, -6.938893903907225912E-17 ) ) ;
#762 = ORIENTED_EDGE ( 'NONE', *, *, #353, .F. ) ;
#763 = DIRECTION ( 'NONE',  ( -2.220446049250313081E-16, 1.000000000000000000, -6.938893903907225912E-17 ) ) ;
#764 = VERTEX_POINT ( 'NONE', #657 ) ;
#765 = LINE ( 'NONE', #885, #561 ) ;
#766 = VERTEX_POINT ( 'NONE', #733 ) ;
#767 = CARTESIAN_POINT ( 'NONE',  ( 2.300000000000006040, -25.00000000000002132, 5.000000000000006217 ) ) ;
#768 = LINE ( 'NONE', #836, #262 ) ;
#769 = DIRECTION ( 'NONE',  ( -6.938893903907225912E-17, -6.938893903907227145E-17, -1.000000000000000000 ) ) ;
#770 = ADVANCED_FACE ( 'NONE', ( #86, #374, #21, #520 ), #39, .F. ) ;
#771 = ORIENTED_EDGE ( 'NONE', *, *, #713, .F. ) ;
#772 = CALENDAR_DATE ( 2026, 2, 6 ) ;
#773 = ORIENTED_EDGE ( 'NONE', *, *, #736, .F. ) ;
#774 = DIRECTION ( 'NONE',  ( -1.000000000000000000, -2.220446049250313081E-16, 6.938893903907225912E-17 ) ) ;
#775 = VECTOR ( 'NONE', #230, 1000.000000000000000 ) ;
#776 = ORIENTED_EDGE ( 'NONE', *, *, #664, .F. ) ;
#777 = CIRCLE ( 'NONE', #5, 3.049999999999997158 ) ;
#778 = PERSON_AND_ORGANIZATION_ROLE ( 'design_owner' ) ;
#779 = ORIENTED_EDGE ( 'NONE', *, *, #537, .F. ) ;
#780 = FACE_OUTER_BOUND ( 'NONE', #400, .T. ) ;
#781 = ORIENTED_EDGE ( 'NONE', *, *, #521, .T. ) ;
#782 = EDGE_CURVE ( 'NONE', #130, #341, #188, .T. ) ;
#783 = DIRECTION ( 'NONE',  ( 1.000000000000000000, 0.000000000000000000, 0.000000000000000000 ) ) ;
#784 = ORIENTED_EDGE ( 'NONE', *, *, #723, .T. ) ;
#785 = ORIENTED_EDGE ( 'NONE', *, *, #703, .T. ) ;
#786 = PERSON_AND_ORGANIZATION_ROLE ( 'creator' ) ;
#787 = EDGE_CURVE ( 'NONE', #56, #383, #669, .T. ) ;
#788 = DIRECTION ( 'NONE',  ( 2.220446049250313081E-16, -1.000000000000000000, 6.938893903907225912E-17 ) ) ;
#789 = ORIENTED_EDGE ( 'NONE', *, *, #754, .T. ) ;
#790 = EDGE_LOOP ( 'NONE', ( #361, #247, #103, #844, #547, #760 ) ) ;
#791 = CARTESIAN_POINT ( 'NONE',  ( 2.151057110211240166E-14, -24.99999999999997868, 230.0000000000000000 ) ) ;
#792 = ORIENTED_EDGE ( 'NONE', *, *, #468, .T. ) ;
#793 = ADVANCED_FACE ( 'NONE', ( #533, #50, #904 ), #612, .T. ) ;
#794 = CARTESIAN_POINT ( 'NONE',  ( 4.308395519018251929E-15, 3.331086545984692115, 98.72914738151580138 ) ) ;
#795 = CARTESIAN_POINT ( 'NONE',  ( 1.635844237846129090E-14, -10.99999999999998934, 200.5500000000000398 ) ) ;
#796 = CARTESIAN_POINT ( 'NONE',  ( 0.9999999999999981126, -25.00000000000000000, 107.0000000000000000 ) ) ;
#797 = DATE_AND_TIME ( #772, #813 ) ;
#798 = AXIS2_PLACEMENT_3D ( 'NONE', #196, #567, #920 ) ;
#799 = DIRECTION ( 'NONE',  ( -1.000000000000000000, -2.220446049250313081E-16, 6.938893903907225912E-17 ) ) ;
#800 = VECTOR ( 'NONE', #895, 1000.000000000000000 ) ;
#801 = CARTESIAN_POINT ( 'NONE',  ( 0.9999999999999915623, 3.331086545984695224, 101.9999999999999858 ) ) ;
#802 = EDGE_CURVE ( 'NONE', #337, #894, #257, .T. ) ;
#803 = CYLINDRICAL_SURFACE ( 'NONE', #76, 5.000000000000004441 ) ;
#804 = ADVANCED_FACE ( 'NONE', ( #822, #833 ), #883, .T. ) ;
#805 = DIRECTION ( 'NONE',  ( -2.220446049250313081E-16, 1.000000000000000000, -6.938893903907225912E-17 ) ) ;
#806 = CARTESIAN_POINT ( 'NONE',  ( 0.9999999999999937828, -4.999999999999975131, 106.9999999999999858 ) ) ;
#807 = CARTESIAN_POINT ( 'NONE',  ( 1.635844237846129090E-14, -10.99999999999998934, 200.5500000000000398 ) ) ;
#808 = DIRECTION ( 'NONE',  ( 2.220446049250313081E-16, -1.000000000000000000, 3.217123537266078343E-16 ) ) ;
#809 = DIRECTION ( 'NONE',  ( 0.000000000000000000, 0.000000000000000000, 1.000000000000000000 ) ) ;
#810 = VECTOR ( 'NONE', #556, 1000.000000000000000 ) ;
#811 = AXIS2_PLACEMENT_3D ( 'NONE', #565, #206, #783 ) ;
#812 = EDGE_CURVE ( 'NONE', #861, #504, #701, .T. ) ;
#813 = LOCAL_TIME ( 10, 30, 1.000000000000000000, #477 ) ;
#814 = CARTESIAN_POINT ( 'NONE',  ( 1.254898962521622568E-14, -19.00000000000000355, 120.0500000000000398 ) ) ;
#815 = CIRCLE ( 'NONE', #345, 3.049999999999997158 ) ;
#816 = DIRECTION ( 'NONE',  ( -1.000000000000000000, -2.220446049250313081E-16, 6.938893903907225912E-17 ) ) ;
#817 = ORIENTED_EDGE ( 'NONE', *, *, #237, .T. ) ;
#818 = CARTESIAN_POINT ( 'NONE',  ( 5.551115123125787435E-15, -25.00000000000002132, 4.184017074271520313E-15 ) ) ;
#819 = DIRECTION ( 'NONE',  ( -2.220446049250313081E-16, 1.000000000000000000, -6.938893903907225912E-17 ) ) ;
#820 = PRODUCT_DEFINITION ( 'UNKNOWN', '', #79, #327 ) ;
#821 = ORIENTED_EDGE ( 'NONE', *, *, #873, .T. ) ;
#822 = FACE_OUTER_BOUND ( 'NONE', #730, .T. ) ;
#823 = ORIENTED_EDGE ( 'NONE', *, *, #150, .F. ) ;
#824 = CARTESIAN_POINT ( 'NONE',  ( 2.300000000000010925, -11.00000000000000533, 117.0000000000000000 ) ) ;
#825 = ORIENTED_EDGE ( 'NONE', *, *, #421, .T. ) ;
#826 = DIRECTION ( 'NONE',  ( 1.000000000000000000, 2.220446049250313081E-16, -6.938893903907225912E-17 ) ) ;
#827 = ORIENTED_EDGE ( 'NONE', *, *, #787, .F. ) ;
#828 = VECTOR ( 'NONE', #505, 1000.000000000000000 ) ;
#829 = CARTESIAN_POINT ( 'NONE',  ( 2.300000000000006484, -18.99999999999999645, 29.44999999999997442 ) ) ;
#830 = AXIS2_PLACEMENT_3D ( 'NONE', #7, #161, #157 ) ;
#831 = ORIENTED_EDGE ( 'NONE', *, *, #314, .F. ) ;
#832 = EDGE_CURVE ( 'NONE', #923, #341, #472, .T. ) ;
#833 = FACE_BOUND ( 'NONE', #418, .T. ) ;
#834 = EDGE_LOOP ( 'NONE', ( #467, #2, #823, #672 ) ) ;
#835 = EDGE_CURVE ( 'NONE', #178, #766, #765, .T. ) ;
#836 = CARTESIAN_POINT ( 'NONE',  ( 4.308395519018251929E-15, 3.331086545984692115, 98.72914738151580138 ) ) ;
#837 = LINE ( 'NONE', #603, #889 ) ;
#838 = CARTESIAN_POINT ( 'NONE',  ( 2.300000000000017586, -9.999999999999980460, 225.0000000000000000 ) ) ;
#839 = ORIENTED_EDGE ( 'NONE', *, *, #650, .T. ) ;
#840 = CARTESIAN_POINT ( 'NONE',  ( 1.817990202823693204E-14, -9.999999999999980460, 230.0000000000000000 ) ) ;
#841 = ORIENTED_EDGE ( 'NONE', *, *, #539, .T. ) ;
#842 = VERTEX_POINT ( 'NONE', #607 ) ;
#843 = APPROVAL_DATE_TIME ( #138, #921 ) ;
#844 = ORIENTED_EDGE ( 'NONE', *, *, #713, .T. ) ;
#845 = DIRECTION ( 'NONE',  ( -1.000000000000000000, -2.220446049250313081E-16, 6.938893903907225912E-17 ) ) ;
#846 = VECTOR ( 'NONE', #594, 1000.000000000000000 ) ;
#847 = EDGE_LOOP ( 'NONE', ( #40, #670, #564, #630 ) ) ;
#848 = VECTOR ( 'NONE', #548, 1000.000000000000000 ) ;
#849 = APPLICATION_CONTEXT ( 'configuration controlled 3d designs of mechanical parts and assemblies' ) ;
#850 = VERTEX_POINT ( 'NONE', #527 ) ;
#851 = PLANE ( 'NONE',  #375 ) ;
#852 = CARTESIAN_POINT ( 'NONE',  ( 1.212571709707788001E-14, -19.00000000000000355, 113.9499999999999886 ) ) ;
#853 = ORIENTED_EDGE ( 'NONE', *, *, #633, .F. ) ;
#854 = ADVANCED_FACE ( 'NONE', ( #181 ), #169, .T. ) ;
#855 = DIRECTION ( 'NONE',  ( -1.000000000000000000, -2.220446049250313081E-16, 6.938893903907225912E-17 ) ) ;
#856 = ORIENTED_EDGE ( 'NONE', *, *, #507, .T. ) ;
#857 = LINE ( 'NONE', #304, #757 ) ;
#858 = DATE_TIME_ROLE ( 'creation_date' ) ;
#859 = CC_DESIGN_DATE_AND_TIME_ASSIGNMENT ( #425, #340, ( #307 ) ) ;
#860 = DIRECTION ( 'NONE',  ( 0.000000000000000000, 3.217123537266078343E-16, 1.000000000000000000 ) ) ;
#861 = VERTEX_POINT ( 'NONE', #385 ) ;
#862 = VECTOR ( 'NONE', #224, 1000.000000000000000 ) ;
#863 = AXIS2_PLACEMENT_3D ( 'NONE', #628, #901, #692 ) ;
#864 = CARTESIAN_POINT ( 'NONE',  ( 2.300000000000004707, -11.00000000000000178, 29.44999999999997442 ) ) ;
#865 = FACE_OUTER_BOUND ( 'NONE', #700, .T. ) ;
#866 = EDGE_CURVE ( 'NONE', #383, #256, #399, .T. ) ;
#867 = EDGE_LOOP ( 'NONE', ( #708, #4, #762, #135 ) ) ;
#868 = DIRECTION ( 'NONE',  ( 0.000000000000000000, 0.000000000000000000, 1.000000000000000000 ) ) ;
#869 = CARTESIAN_POINT ( 'NONE',  ( 1.212571709707788001E-14, -19.00000000000000355, 113.9499999999999886 ) ) ;
#870 = SHAPE_DEFINITION_REPRESENTATION ( #879, #745 ) ;
#871 = LINE ( 'NONE', #791, #875 ) ;
#872 = DIRECTION ( 'NONE',  ( -1.000000000000000000, -2.220446049250313081E-16, 6.938893903907225912E-17 ) ) ;
#873 = EDGE_CURVE ( 'NONE', #541, #543, #463, .T. ) ;
#874 = ORIENTED_EDGE ( 'NONE', *, *, #866, .F. ) ;
#875 = VECTOR ( 'NONE', #298, 1000.000000000000000 ) ;
#876 = AXIS2_PLACEMENT_3D ( 'NONE', #315, #263, #406 ) ;
#877 = DIRECTION ( 'NONE',  ( -2.220446049250313081E-16, 1.000000000000000000, -6.938893903907225912E-17 ) ) ;
#878 = CIRCLE ( 'NONE', #268, 3.049999999999997158 ) ;
#879 = PRODUCT_DEFINITION_SHAPE ( 'NONE', 'NONE',  #820 ) ;
#880 = LINE ( 'NONE', #432, #320 ) ;
#881 = CARTESIAN_POINT ( 'NONE',  ( 0.9999999999999981126, -24.99999999999998579, 107.0000000000000000 ) ) ;
#882 = DIRECTION ( 'NONE',  ( -1.000000000000000000, -2.220446049250313081E-16, 6.938893903907225912E-17 ) ) ;
#883 = PLANE ( 'NONE',  #545 ) ;
#884 = CYLINDRICAL_SURFACE ( 'NONE', #168, 5.000000000000004441 ) ;
#885 = CARTESIAN_POINT ( 'NONE',  ( 2.300000000000006484, -18.99999999999999645, 29.44999999999997442 ) ) ;
#886 = VECTOR ( 'NONE', #725, 1000.000000000000000 ) ;
#887 = ORIENTED_EDGE ( 'NONE', *, *, #468, .F. ) ;
#888 = DIRECTION ( 'NONE',  ( -1.000000000000000000, -2.220446049250313081E-16, 6.938893903907225912E-17 ) ) ;
#889 = VECTOR ( 'NONE', #819, 1000.000000000000000 ) ;
#890 = EDGE_CURVE ( 'NONE', #143, #56, #744, .T. ) ;
#891 = DIRECTION ( 'NONE',  ( 1.000000000000000000, 2.220446049250313081E-16, -6.938893903907225912E-17 ) ) ;
#892 = EDGE_LOOP ( 'NONE', ( #264, #471, #137, #44, #133, #29, #874, #776 ) ) ;
#893 = DIRECTION ( 'NONE',  ( -1.000000000000000000, -2.220446049250313081E-16, 6.938893903907225912E-17 ) ) ;
#894 = VERTEX_POINT ( 'NONE', #106 ) ;
#895 = DIRECTION ( 'NONE',  ( -1.000000000000000000, -2.220446049250313081E-16, 6.938893903907225912E-17 ) ) ;
#896 = PLANE ( 'NONE',  #366 ) ;
#897 = VERTEX_POINT ( 'NONE', #674 ) ;
#898 = DIRECTION ( 'NONE',  ( 6.938893903907225912E-17, 6.938893903907225912E-17, 1.000000000000000000 ) ) ;
#899 = ORIENTED_EDGE ( 'NONE', *, *, #486, .F. ) ;
#900 = CARTESIAN_POINT ( 'NONE',  ( 4.485994908876021568E-15, -11.00000000000000178, 29.44999999999997442 ) ) ;
#901 = DIRECTION ( 'NONE',  ( -6.938893903907225912E-17, -6.938893903907227145E-17, -1.000000000000000000 ) ) ;
#902 = VERTEX_POINT ( 'NONE', #171 ) ;
#903 = EDGE_CURVE ( 'NONE', #256, #902, #395, .T. ) ;
#904 = FACE_BOUND ( 'NONE', #905, .T. ) ;
#905 = EDGE_LOOP ( 'NONE', ( #637, #613, #348, #911 ) ) ;
#906 = LINE ( 'NONE', #900, #465 ) ;
#907 = AXIS2_PLACEMENT_3D ( 'NONE', #518, #80, #506 ) ;
#908 = VECTOR ( 'NONE', #251, 1000.000000000000000 ) ;
#909 = DIRECTION ( 'NONE',  ( -1.000000000000000000, -2.220446049250313081E-16, 6.938893903907225912E-17 ) ) ;
#910 = AXIS2_PLACEMENT_3D ( 'NONE', #638, #722, #716 ) ;
#911 = ORIENTED_EDGE ( 'NONE', *, *, #421, .F. ) ;
#912 = EDGE_LOOP ( 'NONE', ( #147, #784, #51, #827 ) ) ;
#913 = CARTESIAN_POINT ( 'NONE',  ( 1.059916043821828977E-14, -24.99999999999998934, 98.72914738151580138 ) ) ;
#914 = ORIENTED_EDGE ( 'NONE', *, *, #105, .F. ) ;
#915 = EDGE_LOOP ( 'NONE', ( #825, #632, #176, #119 ) ) ;
#916 = ADVANCED_FACE ( 'NONE', ( #683 ), #689, .F. ) ;
#917 = ORIENTED_EDGE ( 'NONE', *, *, #552, .T. ) ;
#918 = APPROVAL_ROLE ( '' ) ;
#919 = EDGE_LOOP ( 'NONE', ( #724, #488, #817, #562 ) ) ;
#920 = DIRECTION ( 'NONE',  ( 0.000000000000000000, 0.000000000000000000, -1.000000000000000000 ) ) ;
#921 = APPROVAL ( #631, 'UNSPECIFIED' ) ;
#922 = CIRCLE ( 'NONE', #19, 3.049999999999997158 ) ;
#923 = VERTEX_POINT ( 'NONE', #840 ) ;
#924 = APPROVAL_PERSON_ORGANIZATION ( #625, #160, #550 ) ;
#925 = APPLICATION_PROTOCOL_DEFINITION ( 'international standard', 'config_control_design', 1994, #409 ) ;
#926 = LINE ( 'NONE', #287, #221 ) ;
#927 = ORIENTED_EDGE ( 'NONE', *, *, #748, .F. ) ;
#928 = CARTESIAN_POINT ( 'NONE',  ( 2.300000000000004263, -20.00000000000002132, 3.065154419712616506E-15 ) ) ;
#929 = APPLICATION_PROTOCOL_DEFINITION ( 'international standard', 'config_control_design', 1994, #849 ) ;
ENDSEC;
END-ISO-10303-21;
